%TF.GenerationSoftware,KiCad,Pcbnew,8.0.1*%
%TF.CreationDate,2024-04-02T12:30:46-07:00*%
%TF.ProjectId,proj1-led-torch,70726f6a-312d-46c6-9564-2d746f726368,0.1*%
%TF.SameCoordinates,Original*%
%TF.FileFunction,Legend,Bot*%
%TF.FilePolarity,Positive*%
%FSLAX46Y46*%
G04 Gerber Fmt 4.6, Leading zero omitted, Abs format (unit mm)*
G04 Created by KiCad (PCBNEW 8.0.1) date 2024-04-02 12:30:46*
%MOMM*%
%LPD*%
G01*
G04 APERTURE LIST*
%ADD10C,0.100000*%
%ADD11C,0.010000*%
G04 APERTURE END LIST*
D10*
X166462972Y-144922419D02*
X166129639Y-145922419D01*
X166129639Y-145922419D02*
X165796306Y-144922419D01*
X164939163Y-145922419D02*
X165510591Y-145922419D01*
X165224877Y-145922419D02*
X165224877Y-144922419D01*
X165224877Y-144922419D02*
X165320115Y-145065276D01*
X165320115Y-145065276D02*
X165415353Y-145160514D01*
X165415353Y-145160514D02*
X165510591Y-145208133D01*
X164510591Y-145827180D02*
X164462972Y-145874800D01*
X164462972Y-145874800D02*
X164510591Y-145922419D01*
X164510591Y-145922419D02*
X164558210Y-145874800D01*
X164558210Y-145874800D02*
X164510591Y-145827180D01*
X164510591Y-145827180D02*
X164510591Y-145922419D01*
X163843925Y-144922419D02*
X163748687Y-144922419D01*
X163748687Y-144922419D02*
X163653449Y-144970038D01*
X163653449Y-144970038D02*
X163605830Y-145017657D01*
X163605830Y-145017657D02*
X163558211Y-145112895D01*
X163558211Y-145112895D02*
X163510592Y-145303371D01*
X163510592Y-145303371D02*
X163510592Y-145541466D01*
X163510592Y-145541466D02*
X163558211Y-145731942D01*
X163558211Y-145731942D02*
X163605830Y-145827180D01*
X163605830Y-145827180D02*
X163653449Y-145874800D01*
X163653449Y-145874800D02*
X163748687Y-145922419D01*
X163748687Y-145922419D02*
X163843925Y-145922419D01*
X163843925Y-145922419D02*
X163939163Y-145874800D01*
X163939163Y-145874800D02*
X163986782Y-145827180D01*
X163986782Y-145827180D02*
X164034401Y-145731942D01*
X164034401Y-145731942D02*
X164082020Y-145541466D01*
X164082020Y-145541466D02*
X164082020Y-145303371D01*
X164082020Y-145303371D02*
X164034401Y-145112895D01*
X164034401Y-145112895D02*
X163986782Y-145017657D01*
X163986782Y-145017657D02*
X163939163Y-144970038D01*
X163939163Y-144970038D02*
X163843925Y-144922419D01*
D11*
%TO.C,REF\u002A\u002A*%
X160689698Y-137499141D02*
X160715419Y-137514839D01*
X160742070Y-137536419D01*
X160742070Y-138183876D01*
X160715419Y-138205456D01*
X160684059Y-138222931D01*
X160648258Y-138223767D01*
X160616820Y-138203274D01*
X160612944Y-138198608D01*
X160607478Y-138189141D01*
X160603271Y-138175459D01*
X160600159Y-138154940D01*
X160597979Y-138124960D01*
X160596568Y-138082896D01*
X160595763Y-138026124D01*
X160595399Y-137952022D01*
X160595314Y-137857965D01*
X160595314Y-137536419D01*
X160621965Y-137514839D01*
X160645678Y-137500069D01*
X160668692Y-137493259D01*
X160689698Y-137499141D01*
G36*
X160689698Y-137499141D02*
G01*
X160715419Y-137514839D01*
X160742070Y-137536419D01*
X160742070Y-138183876D01*
X160715419Y-138205456D01*
X160684059Y-138222931D01*
X160648258Y-138223767D01*
X160616820Y-138203274D01*
X160612944Y-138198608D01*
X160607478Y-138189141D01*
X160603271Y-138175459D01*
X160600159Y-138154940D01*
X160597979Y-138124960D01*
X160596568Y-138082896D01*
X160595763Y-138026124D01*
X160595399Y-137952022D01*
X160595314Y-137857965D01*
X160595314Y-137536419D01*
X160621965Y-137514839D01*
X160645678Y-137500069D01*
X160668692Y-137493259D01*
X160689698Y-137499141D01*
G37*
X167820429Y-137497655D02*
X167854583Y-137520968D01*
X167882292Y-137548677D01*
X167882292Y-137861729D01*
X167882251Y-137945759D01*
X167881993Y-138019981D01*
X167881322Y-138076733D01*
X167880044Y-138118704D01*
X167877965Y-138148581D01*
X167874891Y-138169053D01*
X167870626Y-138182806D01*
X167864976Y-138192529D01*
X167857747Y-138200909D01*
X167826283Y-138222373D01*
X167791118Y-138224139D01*
X167758114Y-138204459D01*
X167752808Y-138198590D01*
X167747358Y-138189506D01*
X167743192Y-138176165D01*
X167740138Y-138155949D01*
X167738024Y-138126241D01*
X167736678Y-138084424D01*
X167735930Y-138027881D01*
X167735606Y-137953994D01*
X167735537Y-137860148D01*
X167735576Y-137784486D01*
X167735831Y-137706577D01*
X167736475Y-137646567D01*
X167737679Y-137601840D01*
X167739616Y-137569777D01*
X167742456Y-137547763D01*
X167746371Y-137533179D01*
X167751534Y-137523410D01*
X167758114Y-137515837D01*
X167787298Y-137496815D01*
X167820429Y-137497655D01*
G36*
X167820429Y-137497655D02*
G01*
X167854583Y-137520968D01*
X167882292Y-137548677D01*
X167882292Y-137861729D01*
X167882251Y-137945759D01*
X167881993Y-138019981D01*
X167881322Y-138076733D01*
X167880044Y-138118704D01*
X167877965Y-138148581D01*
X167874891Y-138169053D01*
X167870626Y-138182806D01*
X167864976Y-138192529D01*
X167857747Y-138200909D01*
X167826283Y-138222373D01*
X167791118Y-138224139D01*
X167758114Y-138204459D01*
X167752808Y-138198590D01*
X167747358Y-138189506D01*
X167743192Y-138176165D01*
X167740138Y-138155949D01*
X167738024Y-138126241D01*
X167736678Y-138084424D01*
X167735930Y-138027881D01*
X167735606Y-137953994D01*
X167735537Y-137860148D01*
X167735576Y-137784486D01*
X167735831Y-137706577D01*
X167736475Y-137646567D01*
X167737679Y-137601840D01*
X167739616Y-137569777D01*
X167742456Y-137547763D01*
X167746371Y-137533179D01*
X167751534Y-137523410D01*
X167758114Y-137515837D01*
X167787298Y-137496815D01*
X167820429Y-137497655D01*
G37*
X167787012Y-130884581D02*
X167892536Y-130910436D01*
X167992560Y-130956841D01*
X168083934Y-131023803D01*
X168163505Y-131111328D01*
X168228120Y-131219426D01*
X168245443Y-131257506D01*
X168259477Y-131296103D01*
X168267352Y-131334689D01*
X168270803Y-131382415D01*
X168271568Y-131448433D01*
X168271105Y-131503381D01*
X168268319Y-131553880D01*
X168261487Y-131593280D01*
X168248904Y-131630628D01*
X168228864Y-131674973D01*
X168223066Y-131686791D01*
X168154545Y-131795001D01*
X168068365Y-131884033D01*
X167966972Y-131951797D01*
X167852811Y-131996206D01*
X167794234Y-132008598D01*
X167675399Y-132014397D01*
X167560300Y-131995634D01*
X167452312Y-131954232D01*
X167354809Y-131892115D01*
X167271168Y-131811207D01*
X167204763Y-131713432D01*
X167158969Y-131600714D01*
X167142214Y-131508471D01*
X167140705Y-131406677D01*
X167154332Y-131307660D01*
X167182445Y-131221892D01*
X167214930Y-131160573D01*
X167287247Y-131063288D01*
X167372978Y-130986507D01*
X167468973Y-130930238D01*
X167572079Y-130894490D01*
X167679142Y-130879268D01*
X167787012Y-130884581D01*
G36*
X167787012Y-130884581D02*
G01*
X167892536Y-130910436D01*
X167992560Y-130956841D01*
X168083934Y-131023803D01*
X168163505Y-131111328D01*
X168228120Y-131219426D01*
X168245443Y-131257506D01*
X168259477Y-131296103D01*
X168267352Y-131334689D01*
X168270803Y-131382415D01*
X168271568Y-131448433D01*
X168271105Y-131503381D01*
X168268319Y-131553880D01*
X168261487Y-131593280D01*
X168248904Y-131630628D01*
X168228864Y-131674973D01*
X168223066Y-131686791D01*
X168154545Y-131795001D01*
X168068365Y-131884033D01*
X167966972Y-131951797D01*
X167852811Y-131996206D01*
X167794234Y-132008598D01*
X167675399Y-132014397D01*
X167560300Y-131995634D01*
X167452312Y-131954232D01*
X167354809Y-131892115D01*
X167271168Y-131811207D01*
X167204763Y-131713432D01*
X167158969Y-131600714D01*
X167142214Y-131508471D01*
X167140705Y-131406677D01*
X167154332Y-131307660D01*
X167182445Y-131221892D01*
X167214930Y-131160573D01*
X167287247Y-131063288D01*
X167372978Y-130986507D01*
X167468973Y-130930238D01*
X167572079Y-130894490D01*
X167679142Y-130879268D01*
X167787012Y-130884581D01*
G37*
X159990059Y-137493260D02*
X160084182Y-137493350D01*
X160158697Y-137493690D01*
X160216103Y-137494431D01*
X160258903Y-137495727D01*
X160289596Y-137497729D01*
X160310683Y-137500588D01*
X160324665Y-137504458D01*
X160334042Y-137509490D01*
X160341314Y-137515837D01*
X160360120Y-137548554D01*
X160361567Y-137586131D01*
X160345209Y-137619370D01*
X160343849Y-137620823D01*
X160332646Y-137629184D01*
X160315544Y-137634739D01*
X160288374Y-137638032D01*
X160246970Y-137639610D01*
X160187165Y-137640014D01*
X160047803Y-137640014D01*
X160047803Y-137903781D01*
X160047728Y-137979609D01*
X160047320Y-138046275D01*
X160046338Y-138096059D01*
X160044542Y-138131976D01*
X160041691Y-138157042D01*
X160037545Y-138174273D01*
X160031863Y-138186684D01*
X160024406Y-138197292D01*
X160022116Y-138200098D01*
X159990938Y-138222740D01*
X159956558Y-138224304D01*
X159923626Y-138204459D01*
X159916647Y-138196383D01*
X159911175Y-138185785D01*
X159907155Y-138169941D01*
X159904364Y-138145965D01*
X159902580Y-138110966D01*
X159901581Y-138062056D01*
X159901144Y-137996346D01*
X159901048Y-137910948D01*
X159901048Y-137640014D01*
X159755112Y-137640014D01*
X159744012Y-137640013D01*
X159687494Y-137639788D01*
X159648650Y-137638649D01*
X159623257Y-137635849D01*
X159607096Y-137630642D01*
X159595944Y-137622281D01*
X159585581Y-137610018D01*
X159569733Y-137579330D01*
X159572835Y-137545550D01*
X159598479Y-137513014D01*
X159603421Y-137509297D01*
X159613630Y-137504461D01*
X159629056Y-137500698D01*
X159652178Y-137497875D01*
X159685475Y-137495862D01*
X159731429Y-137494525D01*
X159792520Y-137493734D01*
X159871227Y-137493355D01*
X159970032Y-137493259D01*
X159990059Y-137493260D01*
G36*
X159990059Y-137493260D02*
G01*
X160084182Y-137493350D01*
X160158697Y-137493690D01*
X160216103Y-137494431D01*
X160258903Y-137495727D01*
X160289596Y-137497729D01*
X160310683Y-137500588D01*
X160324665Y-137504458D01*
X160334042Y-137509490D01*
X160341314Y-137515837D01*
X160360120Y-137548554D01*
X160361567Y-137586131D01*
X160345209Y-137619370D01*
X160343849Y-137620823D01*
X160332646Y-137629184D01*
X160315544Y-137634739D01*
X160288374Y-137638032D01*
X160246970Y-137639610D01*
X160187165Y-137640014D01*
X160047803Y-137640014D01*
X160047803Y-137903781D01*
X160047728Y-137979609D01*
X160047320Y-138046275D01*
X160046338Y-138096059D01*
X160044542Y-138131976D01*
X160041691Y-138157042D01*
X160037545Y-138174273D01*
X160031863Y-138186684D01*
X160024406Y-138197292D01*
X160022116Y-138200098D01*
X159990938Y-138222740D01*
X159956558Y-138224304D01*
X159923626Y-138204459D01*
X159916647Y-138196383D01*
X159911175Y-138185785D01*
X159907155Y-138169941D01*
X159904364Y-138145965D01*
X159902580Y-138110966D01*
X159901581Y-138062056D01*
X159901144Y-137996346D01*
X159901048Y-137910948D01*
X159901048Y-137640014D01*
X159755112Y-137640014D01*
X159744012Y-137640013D01*
X159687494Y-137639788D01*
X159648650Y-137638649D01*
X159623257Y-137635849D01*
X159607096Y-137630642D01*
X159595944Y-137622281D01*
X159585581Y-137610018D01*
X159569733Y-137579330D01*
X159572835Y-137545550D01*
X159598479Y-137513014D01*
X159603421Y-137509297D01*
X159613630Y-137504461D01*
X159629056Y-137500698D01*
X159652178Y-137497875D01*
X159685475Y-137495862D01*
X159731429Y-137494525D01*
X159792520Y-137493734D01*
X159871227Y-137493355D01*
X159970032Y-137493259D01*
X159990059Y-137493260D01*
G37*
X159314026Y-137515837D02*
X159319658Y-137522027D01*
X159324748Y-137530233D01*
X159328835Y-137542009D01*
X159332013Y-137559468D01*
X159334379Y-137584722D01*
X159336030Y-137619882D01*
X159337061Y-137667061D01*
X159337569Y-137728369D01*
X159337651Y-137805919D01*
X159337401Y-137901823D01*
X159336917Y-138018192D01*
X159336849Y-138032367D01*
X159336263Y-138094129D01*
X159334940Y-138137812D01*
X159332395Y-138167193D01*
X159328140Y-138186047D01*
X159321688Y-138198151D01*
X159312554Y-138207281D01*
X159279096Y-138224698D01*
X159244148Y-138221796D01*
X159213245Y-138197292D01*
X159204236Y-138184089D01*
X159196784Y-138165553D01*
X159192416Y-138139525D01*
X159190361Y-138100979D01*
X159189848Y-138044892D01*
X159189848Y-137922237D01*
X158693137Y-137922237D01*
X158693137Y-138057063D01*
X158693064Y-138092854D01*
X158692301Y-138139184D01*
X158690125Y-138169718D01*
X158685828Y-138188749D01*
X158678704Y-138200566D01*
X158668047Y-138209463D01*
X158635796Y-138224533D01*
X158600509Y-138221865D01*
X158569778Y-138197292D01*
X158565123Y-138191037D01*
X158559187Y-138180513D01*
X158554656Y-138166583D01*
X158551340Y-138146509D01*
X158549051Y-138117552D01*
X158547600Y-138076972D01*
X158546797Y-138022032D01*
X158546454Y-137949991D01*
X158546381Y-137858112D01*
X158546381Y-137548677D01*
X158574090Y-137520968D01*
X158605469Y-137498725D01*
X158638698Y-137496036D01*
X158670559Y-137515837D01*
X158678845Y-137525607D01*
X158686257Y-137541499D01*
X158690594Y-137565467D01*
X158692630Y-137602340D01*
X158693137Y-137656948D01*
X158693137Y-137775481D01*
X159189848Y-137775481D01*
X159189848Y-137659968D01*
X159190286Y-137608270D01*
X159192250Y-137573746D01*
X159196766Y-137551170D01*
X159204859Y-137535318D01*
X159217557Y-137520968D01*
X159248935Y-137498725D01*
X159282164Y-137496036D01*
X159314026Y-137515837D01*
G36*
X159314026Y-137515837D02*
G01*
X159319658Y-137522027D01*
X159324748Y-137530233D01*
X159328835Y-137542009D01*
X159332013Y-137559468D01*
X159334379Y-137584722D01*
X159336030Y-137619882D01*
X159337061Y-137667061D01*
X159337569Y-137728369D01*
X159337651Y-137805919D01*
X159337401Y-137901823D01*
X159336917Y-138018192D01*
X159336849Y-138032367D01*
X159336263Y-138094129D01*
X159334940Y-138137812D01*
X159332395Y-138167193D01*
X159328140Y-138186047D01*
X159321688Y-138198151D01*
X159312554Y-138207281D01*
X159279096Y-138224698D01*
X159244148Y-138221796D01*
X159213245Y-138197292D01*
X159204236Y-138184089D01*
X159196784Y-138165553D01*
X159192416Y-138139525D01*
X159190361Y-138100979D01*
X159189848Y-138044892D01*
X159189848Y-137922237D01*
X158693137Y-137922237D01*
X158693137Y-138057063D01*
X158693064Y-138092854D01*
X158692301Y-138139184D01*
X158690125Y-138169718D01*
X158685828Y-138188749D01*
X158678704Y-138200566D01*
X158668047Y-138209463D01*
X158635796Y-138224533D01*
X158600509Y-138221865D01*
X158569778Y-138197292D01*
X158565123Y-138191037D01*
X158559187Y-138180513D01*
X158554656Y-138166583D01*
X158551340Y-138146509D01*
X158549051Y-138117552D01*
X158547600Y-138076972D01*
X158546797Y-138022032D01*
X158546454Y-137949991D01*
X158546381Y-137858112D01*
X158546381Y-137548677D01*
X158574090Y-137520968D01*
X158605469Y-137498725D01*
X158638698Y-137496036D01*
X158670559Y-137515837D01*
X158678845Y-137525607D01*
X158686257Y-137541499D01*
X158690594Y-137565467D01*
X158692630Y-137602340D01*
X158693137Y-137656948D01*
X158693137Y-137775481D01*
X159189848Y-137775481D01*
X159189848Y-137659968D01*
X159190286Y-137608270D01*
X159192250Y-137573746D01*
X159196766Y-137551170D01*
X159204859Y-137535318D01*
X159217557Y-137520968D01*
X159248935Y-137498725D01*
X159282164Y-137496036D01*
X159314026Y-137515837D01*
G37*
X164019425Y-138104588D02*
X164017455Y-138137367D01*
X164014527Y-138160287D01*
X164010450Y-138176089D01*
X164005035Y-138187511D01*
X163998095Y-138197292D01*
X163974698Y-138227037D01*
X163809006Y-138226443D01*
X163774210Y-138226145D01*
X163675727Y-138222714D01*
X163594765Y-138215031D01*
X163527671Y-138202474D01*
X163470788Y-138184419D01*
X163420461Y-138160244D01*
X163417102Y-138158327D01*
X163359290Y-138121609D01*
X163316936Y-138084643D01*
X163284120Y-138041158D01*
X163254920Y-137984881D01*
X163250638Y-137975265D01*
X163228061Y-137912079D01*
X163222326Y-137866525D01*
X163371571Y-137866525D01*
X163377184Y-137891253D01*
X163382910Y-137907131D01*
X163415840Y-137967039D01*
X163463178Y-138012792D01*
X163526944Y-138045928D01*
X163609153Y-138067982D01*
X163611947Y-138068484D01*
X163658232Y-138074447D01*
X163714628Y-138078675D01*
X163769566Y-138080281D01*
X163863448Y-138080281D01*
X163863448Y-137640014D01*
X163775959Y-137640462D01*
X163709039Y-137642938D01*
X163616641Y-137654190D01*
X163537326Y-137673729D01*
X163475352Y-137700703D01*
X163444412Y-137721432D01*
X163416292Y-137751198D01*
X163392952Y-137793626D01*
X163385825Y-137809592D01*
X163374001Y-137842094D01*
X163371571Y-137866525D01*
X163222326Y-137866525D01*
X163221089Y-137856701D01*
X163229691Y-137801675D01*
X163253833Y-137739543D01*
X163254629Y-137737850D01*
X163295080Y-137668428D01*
X163345765Y-137611830D01*
X163408490Y-137567262D01*
X163485066Y-137533933D01*
X163577301Y-137511053D01*
X163687004Y-137497828D01*
X163815983Y-137493467D01*
X163819555Y-137493462D01*
X163879575Y-137493602D01*
X163921506Y-137494638D01*
X163949620Y-137497232D01*
X163968189Y-137502045D01*
X163981486Y-137509736D01*
X163993783Y-137520968D01*
X164021492Y-137548677D01*
X164021492Y-137858112D01*
X164021467Y-137919718D01*
X164021242Y-137998503D01*
X164020624Y-138059213D01*
X164020067Y-138080281D01*
X164019425Y-138104588D01*
G36*
X164019425Y-138104588D02*
G01*
X164017455Y-138137367D01*
X164014527Y-138160287D01*
X164010450Y-138176089D01*
X164005035Y-138187511D01*
X163998095Y-138197292D01*
X163974698Y-138227037D01*
X163809006Y-138226443D01*
X163774210Y-138226145D01*
X163675727Y-138222714D01*
X163594765Y-138215031D01*
X163527671Y-138202474D01*
X163470788Y-138184419D01*
X163420461Y-138160244D01*
X163417102Y-138158327D01*
X163359290Y-138121609D01*
X163316936Y-138084643D01*
X163284120Y-138041158D01*
X163254920Y-137984881D01*
X163250638Y-137975265D01*
X163228061Y-137912079D01*
X163222326Y-137866525D01*
X163371571Y-137866525D01*
X163377184Y-137891253D01*
X163382910Y-137907131D01*
X163415840Y-137967039D01*
X163463178Y-138012792D01*
X163526944Y-138045928D01*
X163609153Y-138067982D01*
X163611947Y-138068484D01*
X163658232Y-138074447D01*
X163714628Y-138078675D01*
X163769566Y-138080281D01*
X163863448Y-138080281D01*
X163863448Y-137640014D01*
X163775959Y-137640462D01*
X163709039Y-137642938D01*
X163616641Y-137654190D01*
X163537326Y-137673729D01*
X163475352Y-137700703D01*
X163444412Y-137721432D01*
X163416292Y-137751198D01*
X163392952Y-137793626D01*
X163385825Y-137809592D01*
X163374001Y-137842094D01*
X163371571Y-137866525D01*
X163222326Y-137866525D01*
X163221089Y-137856701D01*
X163229691Y-137801675D01*
X163253833Y-137739543D01*
X163254629Y-137737850D01*
X163295080Y-137668428D01*
X163345765Y-137611830D01*
X163408490Y-137567262D01*
X163485066Y-137533933D01*
X163577301Y-137511053D01*
X163687004Y-137497828D01*
X163815983Y-137493467D01*
X163819555Y-137493462D01*
X163879575Y-137493602D01*
X163921506Y-137494638D01*
X163949620Y-137497232D01*
X163968189Y-137502045D01*
X163981486Y-137509736D01*
X163993783Y-137520968D01*
X164021492Y-137548677D01*
X164021492Y-137858112D01*
X164021467Y-137919718D01*
X164021242Y-137998503D01*
X164020624Y-138059213D01*
X164020067Y-138080281D01*
X164019425Y-138104588D01*
G37*
X171111109Y-137678619D02*
X171111162Y-137759233D01*
X171110914Y-137860148D01*
X171110875Y-137935809D01*
X171110620Y-138013718D01*
X171109976Y-138073728D01*
X171108772Y-138118456D01*
X171106835Y-138150518D01*
X171103995Y-138172532D01*
X171100080Y-138187116D01*
X171094918Y-138196886D01*
X171088337Y-138204459D01*
X171081369Y-138210693D01*
X171068371Y-138217993D01*
X171049223Y-138222746D01*
X171019820Y-138225484D01*
X170976054Y-138226737D01*
X170913820Y-138227037D01*
X170864874Y-138226661D01*
X170758014Y-138222233D01*
X170668786Y-138212145D01*
X170593988Y-138195557D01*
X170530417Y-138171627D01*
X170474871Y-138139513D01*
X170424146Y-138098374D01*
X170418158Y-138092522D01*
X170381291Y-138044013D01*
X170350191Y-137983205D01*
X170328709Y-137918961D01*
X170323428Y-137880218D01*
X170470645Y-137880218D01*
X170488927Y-137931153D01*
X170518597Y-137977070D01*
X170565294Y-138019479D01*
X170626684Y-138049282D01*
X170705830Y-138068418D01*
X170707320Y-138068656D01*
X170756291Y-138074448D01*
X170814985Y-138078588D01*
X170871026Y-138080196D01*
X170964159Y-138080281D01*
X170964159Y-137640014D01*
X170887959Y-137640000D01*
X170884931Y-137640009D01*
X170833811Y-137641974D01*
X170773708Y-137646699D01*
X170717000Y-137653227D01*
X170667042Y-137662523D01*
X170592290Y-137688792D01*
X170534781Y-137728091D01*
X170493280Y-137781125D01*
X170472063Y-137832392D01*
X170470645Y-137880218D01*
X170323428Y-137880218D01*
X170320692Y-137860148D01*
X170321971Y-137838931D01*
X170334283Y-137781515D01*
X170356812Y-137721605D01*
X170386042Y-137667555D01*
X170418459Y-137627724D01*
X170438000Y-137610702D01*
X170492712Y-137571514D01*
X170553015Y-137541385D01*
X170622211Y-137519424D01*
X170703603Y-137504742D01*
X170800492Y-137496451D01*
X170916181Y-137493659D01*
X170955663Y-137493258D01*
X171001374Y-137492845D01*
X171037175Y-137494649D01*
X171064266Y-137500931D01*
X171083848Y-137513951D01*
X171097122Y-137535970D01*
X171105290Y-137569247D01*
X171109552Y-137616043D01*
X171110149Y-137640014D01*
X171111109Y-137678619D01*
G36*
X171111109Y-137678619D02*
G01*
X171111162Y-137759233D01*
X171110914Y-137860148D01*
X171110875Y-137935809D01*
X171110620Y-138013718D01*
X171109976Y-138073728D01*
X171108772Y-138118456D01*
X171106835Y-138150518D01*
X171103995Y-138172532D01*
X171100080Y-138187116D01*
X171094918Y-138196886D01*
X171088337Y-138204459D01*
X171081369Y-138210693D01*
X171068371Y-138217993D01*
X171049223Y-138222746D01*
X171019820Y-138225484D01*
X170976054Y-138226737D01*
X170913820Y-138227037D01*
X170864874Y-138226661D01*
X170758014Y-138222233D01*
X170668786Y-138212145D01*
X170593988Y-138195557D01*
X170530417Y-138171627D01*
X170474871Y-138139513D01*
X170424146Y-138098374D01*
X170418158Y-138092522D01*
X170381291Y-138044013D01*
X170350191Y-137983205D01*
X170328709Y-137918961D01*
X170323428Y-137880218D01*
X170470645Y-137880218D01*
X170488927Y-137931153D01*
X170518597Y-137977070D01*
X170565294Y-138019479D01*
X170626684Y-138049282D01*
X170705830Y-138068418D01*
X170707320Y-138068656D01*
X170756291Y-138074448D01*
X170814985Y-138078588D01*
X170871026Y-138080196D01*
X170964159Y-138080281D01*
X170964159Y-137640014D01*
X170887959Y-137640000D01*
X170884931Y-137640009D01*
X170833811Y-137641974D01*
X170773708Y-137646699D01*
X170717000Y-137653227D01*
X170667042Y-137662523D01*
X170592290Y-137688792D01*
X170534781Y-137728091D01*
X170493280Y-137781125D01*
X170472063Y-137832392D01*
X170470645Y-137880218D01*
X170323428Y-137880218D01*
X170320692Y-137860148D01*
X170321971Y-137838931D01*
X170334283Y-137781515D01*
X170356812Y-137721605D01*
X170386042Y-137667555D01*
X170418459Y-137627724D01*
X170438000Y-137610702D01*
X170492712Y-137571514D01*
X170553015Y-137541385D01*
X170622211Y-137519424D01*
X170703603Y-137504742D01*
X170800492Y-137496451D01*
X170916181Y-137493659D01*
X170955663Y-137493258D01*
X171001374Y-137492845D01*
X171037175Y-137494649D01*
X171064266Y-137500931D01*
X171083848Y-137513951D01*
X171097122Y-137535970D01*
X171105290Y-137569247D01*
X171109552Y-137616043D01*
X171110149Y-137640014D01*
X171111109Y-137678619D01*
G37*
X166166185Y-137492084D02*
X166177593Y-137498221D01*
X166188142Y-137508883D01*
X166199428Y-137523003D01*
X166203881Y-137528964D01*
X166209880Y-137539460D01*
X166214459Y-137553285D01*
X166217811Y-137573190D01*
X166220125Y-137601924D01*
X166221593Y-137642237D01*
X166222405Y-137696879D01*
X166222752Y-137768599D01*
X166222826Y-137860148D01*
X166222803Y-137918678D01*
X166222584Y-137997765D01*
X166221975Y-138058708D01*
X166220784Y-138104254D01*
X166218821Y-138137155D01*
X166215895Y-138160160D01*
X166211815Y-138176018D01*
X166206389Y-138187478D01*
X166199428Y-138197292D01*
X166169000Y-138221685D01*
X166134057Y-138224564D01*
X166097076Y-138205474D01*
X166092892Y-138201999D01*
X166084716Y-138193471D01*
X166078656Y-138181920D01*
X166074273Y-138164088D01*
X166071131Y-138136716D01*
X166068794Y-138096546D01*
X166066823Y-138040320D01*
X166064781Y-137964781D01*
X166059137Y-137745650D01*
X165793848Y-137986291D01*
X165720014Y-138053067D01*
X165654834Y-138111183D01*
X165602640Y-138156141D01*
X165561565Y-138189063D01*
X165529747Y-138211071D01*
X165505318Y-138223286D01*
X165486416Y-138226831D01*
X165471175Y-138222828D01*
X165457731Y-138212399D01*
X165444219Y-138196666D01*
X165437974Y-138188183D01*
X165432342Y-138177605D01*
X165428131Y-138163447D01*
X165425179Y-138142995D01*
X165423324Y-138113534D01*
X165422405Y-138072353D01*
X165422260Y-138016736D01*
X165422727Y-137943971D01*
X165423644Y-137851343D01*
X165426959Y-137536391D01*
X165453610Y-137514825D01*
X165479675Y-137498633D01*
X165512533Y-137495862D01*
X165547064Y-137514815D01*
X165551376Y-137518400D01*
X165559508Y-137526929D01*
X165565537Y-137538521D01*
X165569898Y-137556427D01*
X165573026Y-137583898D01*
X165575355Y-137624186D01*
X165577321Y-137680543D01*
X165579359Y-137756221D01*
X165585003Y-137976070D01*
X165765626Y-137812276D01*
X165852364Y-137733643D01*
X165928135Y-137665250D01*
X165990272Y-137609900D01*
X166040370Y-137566530D01*
X166080027Y-137534073D01*
X166110840Y-137511465D01*
X166134406Y-137497640D01*
X166152322Y-137491535D01*
X166166185Y-137492084D01*
G36*
X166166185Y-137492084D02*
G01*
X166177593Y-137498221D01*
X166188142Y-137508883D01*
X166199428Y-137523003D01*
X166203881Y-137528964D01*
X166209880Y-137539460D01*
X166214459Y-137553285D01*
X166217811Y-137573190D01*
X166220125Y-137601924D01*
X166221593Y-137642237D01*
X166222405Y-137696879D01*
X166222752Y-137768599D01*
X166222826Y-137860148D01*
X166222803Y-137918678D01*
X166222584Y-137997765D01*
X166221975Y-138058708D01*
X166220784Y-138104254D01*
X166218821Y-138137155D01*
X166215895Y-138160160D01*
X166211815Y-138176018D01*
X166206389Y-138187478D01*
X166199428Y-138197292D01*
X166169000Y-138221685D01*
X166134057Y-138224564D01*
X166097076Y-138205474D01*
X166092892Y-138201999D01*
X166084716Y-138193471D01*
X166078656Y-138181920D01*
X166074273Y-138164088D01*
X166071131Y-138136716D01*
X166068794Y-138096546D01*
X166066823Y-138040320D01*
X166064781Y-137964781D01*
X166059137Y-137745650D01*
X165793848Y-137986291D01*
X165720014Y-138053067D01*
X165654834Y-138111183D01*
X165602640Y-138156141D01*
X165561565Y-138189063D01*
X165529747Y-138211071D01*
X165505318Y-138223286D01*
X165486416Y-138226831D01*
X165471175Y-138222828D01*
X165457731Y-138212399D01*
X165444219Y-138196666D01*
X165437974Y-138188183D01*
X165432342Y-138177605D01*
X165428131Y-138163447D01*
X165425179Y-138142995D01*
X165423324Y-138113534D01*
X165422405Y-138072353D01*
X165422260Y-138016736D01*
X165422727Y-137943971D01*
X165423644Y-137851343D01*
X165426959Y-137536391D01*
X165453610Y-137514825D01*
X165479675Y-137498633D01*
X165512533Y-137495862D01*
X165547064Y-137514815D01*
X165551376Y-137518400D01*
X165559508Y-137526929D01*
X165565537Y-137538521D01*
X165569898Y-137556427D01*
X165573026Y-137583898D01*
X165575355Y-137624186D01*
X165577321Y-137680543D01*
X165579359Y-137756221D01*
X165585003Y-137976070D01*
X165765626Y-137812276D01*
X165852364Y-137733643D01*
X165928135Y-137665250D01*
X165990272Y-137609900D01*
X166040370Y-137566530D01*
X166080027Y-137534073D01*
X166110840Y-137511465D01*
X166134406Y-137497640D01*
X166152322Y-137491535D01*
X166166185Y-137492084D01*
G37*
X166963442Y-137498371D02*
X167069449Y-137514686D01*
X167163261Y-137542737D01*
X167242057Y-137581644D01*
X167303011Y-137630526D01*
X167329081Y-137663387D01*
X167358589Y-137712586D01*
X167383860Y-137766444D01*
X167401510Y-137817611D01*
X167408150Y-137858736D01*
X167406590Y-137878451D01*
X167393649Y-137929784D01*
X167370486Y-137986310D01*
X167340594Y-138040227D01*
X167307465Y-138083731D01*
X167297269Y-138094079D01*
X167230184Y-138145854D01*
X167150058Y-138185746D01*
X167063848Y-138210148D01*
X167008884Y-138218260D01*
X166915431Y-138224865D01*
X166825650Y-138222778D01*
X166743161Y-138212532D01*
X166671578Y-138194662D01*
X166614520Y-138169700D01*
X166575603Y-138138180D01*
X166574228Y-138136204D01*
X166567140Y-138110978D01*
X166562901Y-138063727D01*
X166561492Y-137994263D01*
X166562352Y-137932030D01*
X166567072Y-137884648D01*
X166578762Y-137852545D01*
X166600531Y-137832992D01*
X166635490Y-137823262D01*
X166686748Y-137820625D01*
X166757415Y-137822353D01*
X166806035Y-137825365D01*
X166856231Y-137833558D01*
X166888725Y-137847611D01*
X166906184Y-137868846D01*
X166911275Y-137898586D01*
X166911169Y-137903128D01*
X166902467Y-137937922D01*
X166878457Y-137961339D01*
X166837192Y-137974539D01*
X166776723Y-137978681D01*
X166708248Y-137978681D01*
X166708248Y-138017033D01*
X166708298Y-138026168D01*
X166710519Y-138043419D01*
X166719786Y-138053713D01*
X166741167Y-138060651D01*
X166779728Y-138067833D01*
X166785202Y-138068767D01*
X166882152Y-138078670D01*
X166972144Y-138075751D01*
X167053052Y-138061021D01*
X167122751Y-138035491D01*
X167179116Y-138000170D01*
X167220021Y-137956071D01*
X167243343Y-137904204D01*
X167246955Y-137845580D01*
X167241437Y-137816686D01*
X167214753Y-137760796D01*
X167168565Y-137715137D01*
X167103583Y-137680300D01*
X167020521Y-137656882D01*
X166995847Y-137652433D01*
X166906518Y-137641934D01*
X166826711Y-137643163D01*
X166748618Y-137656098D01*
X166713475Y-137662888D01*
X166668037Y-137663905D01*
X166636722Y-137651374D01*
X166616569Y-137624587D01*
X166610185Y-137596340D01*
X166619671Y-137565116D01*
X166629000Y-137551691D01*
X166663235Y-137528159D01*
X166715857Y-137510287D01*
X166784373Y-137498791D01*
X166866292Y-137494384D01*
X166963442Y-137498371D01*
G36*
X166963442Y-137498371D02*
G01*
X167069449Y-137514686D01*
X167163261Y-137542737D01*
X167242057Y-137581644D01*
X167303011Y-137630526D01*
X167329081Y-137663387D01*
X167358589Y-137712586D01*
X167383860Y-137766444D01*
X167401510Y-137817611D01*
X167408150Y-137858736D01*
X167406590Y-137878451D01*
X167393649Y-137929784D01*
X167370486Y-137986310D01*
X167340594Y-138040227D01*
X167307465Y-138083731D01*
X167297269Y-138094079D01*
X167230184Y-138145854D01*
X167150058Y-138185746D01*
X167063848Y-138210148D01*
X167008884Y-138218260D01*
X166915431Y-138224865D01*
X166825650Y-138222778D01*
X166743161Y-138212532D01*
X166671578Y-138194662D01*
X166614520Y-138169700D01*
X166575603Y-138138180D01*
X166574228Y-138136204D01*
X166567140Y-138110978D01*
X166562901Y-138063727D01*
X166561492Y-137994263D01*
X166562352Y-137932030D01*
X166567072Y-137884648D01*
X166578762Y-137852545D01*
X166600531Y-137832992D01*
X166635490Y-137823262D01*
X166686748Y-137820625D01*
X166757415Y-137822353D01*
X166806035Y-137825365D01*
X166856231Y-137833558D01*
X166888725Y-137847611D01*
X166906184Y-137868846D01*
X166911275Y-137898586D01*
X166911169Y-137903128D01*
X166902467Y-137937922D01*
X166878457Y-137961339D01*
X166837192Y-137974539D01*
X166776723Y-137978681D01*
X166708248Y-137978681D01*
X166708248Y-138017033D01*
X166708298Y-138026168D01*
X166710519Y-138043419D01*
X166719786Y-138053713D01*
X166741167Y-138060651D01*
X166779728Y-138067833D01*
X166785202Y-138068767D01*
X166882152Y-138078670D01*
X166972144Y-138075751D01*
X167053052Y-138061021D01*
X167122751Y-138035491D01*
X167179116Y-138000170D01*
X167220021Y-137956071D01*
X167243343Y-137904204D01*
X167246955Y-137845580D01*
X167241437Y-137816686D01*
X167214753Y-137760796D01*
X167168565Y-137715137D01*
X167103583Y-137680300D01*
X167020521Y-137656882D01*
X166995847Y-137652433D01*
X166906518Y-137641934D01*
X166826711Y-137643163D01*
X166748618Y-137656098D01*
X166713475Y-137662888D01*
X166668037Y-137663905D01*
X166636722Y-137651374D01*
X166616569Y-137624587D01*
X166610185Y-137596340D01*
X166619671Y-137565116D01*
X166629000Y-137551691D01*
X166663235Y-137528159D01*
X166715857Y-137510287D01*
X166784373Y-137498791D01*
X166866292Y-137494384D01*
X166963442Y-137498371D01*
G37*
X165014095Y-137523003D02*
X165019044Y-137529687D01*
X165024888Y-137540258D01*
X165029349Y-137554345D01*
X165032613Y-137574670D01*
X165034866Y-137603957D01*
X165036294Y-137644929D01*
X165037084Y-137700309D01*
X165037421Y-137772820D01*
X165037492Y-137865186D01*
X165037463Y-137931103D01*
X165037231Y-138009420D01*
X165036611Y-138069688D01*
X165035418Y-138114585D01*
X165033471Y-138146794D01*
X165030586Y-138168992D01*
X165026580Y-138183861D01*
X165021271Y-138194081D01*
X165014475Y-138202330D01*
X165009960Y-138206987D01*
X165001730Y-138213474D01*
X164990370Y-138218386D01*
X164973102Y-138221941D01*
X164947147Y-138224359D01*
X164909728Y-138225859D01*
X164858065Y-138226659D01*
X164789381Y-138226979D01*
X164700898Y-138227037D01*
X164681223Y-138227030D01*
X164594198Y-138226764D01*
X164526546Y-138225998D01*
X164475591Y-138224584D01*
X164438659Y-138222372D01*
X164413075Y-138219214D01*
X164396163Y-138214961D01*
X164385249Y-138209463D01*
X164374756Y-138199477D01*
X164361495Y-138168360D01*
X164362678Y-138132472D01*
X164378842Y-138100925D01*
X164381031Y-138098649D01*
X164389719Y-138092381D01*
X164403061Y-138087715D01*
X164424044Y-138084419D01*
X164455655Y-138082260D01*
X164500882Y-138081006D01*
X164562712Y-138080423D01*
X164644131Y-138080281D01*
X164890737Y-138080281D01*
X164890737Y-137922237D01*
X164728298Y-137922237D01*
X164692630Y-137922156D01*
X164636860Y-137921359D01*
X164597722Y-137919354D01*
X164571268Y-137915713D01*
X164553551Y-137910004D01*
X164540621Y-137901799D01*
X164536978Y-137898615D01*
X164518570Y-137867640D01*
X164517936Y-137831304D01*
X164535475Y-137797685D01*
X164535537Y-137797616D01*
X164545208Y-137788990D01*
X164558501Y-137782934D01*
X164579209Y-137779003D01*
X164611120Y-137776748D01*
X164658026Y-137775723D01*
X164723716Y-137775481D01*
X164891863Y-137775481D01*
X164888478Y-137710570D01*
X164885092Y-137645659D01*
X164643015Y-137642606D01*
X164617999Y-137642278D01*
X164536379Y-137640798D01*
X164474060Y-137638414D01*
X164428446Y-137634419D01*
X164396944Y-137628105D01*
X164376959Y-137618766D01*
X164365896Y-137605695D01*
X164361161Y-137588184D01*
X164360159Y-137565527D01*
X164360165Y-137563162D01*
X164361319Y-137543131D01*
X164366116Y-137527338D01*
X164376924Y-137515282D01*
X164396109Y-137506459D01*
X164426037Y-137500367D01*
X164469075Y-137496503D01*
X164527591Y-137494366D01*
X164603949Y-137493452D01*
X164700518Y-137493259D01*
X164990698Y-137493259D01*
X165014095Y-137523003D01*
G36*
X165014095Y-137523003D02*
G01*
X165019044Y-137529687D01*
X165024888Y-137540258D01*
X165029349Y-137554345D01*
X165032613Y-137574670D01*
X165034866Y-137603957D01*
X165036294Y-137644929D01*
X165037084Y-137700309D01*
X165037421Y-137772820D01*
X165037492Y-137865186D01*
X165037463Y-137931103D01*
X165037231Y-138009420D01*
X165036611Y-138069688D01*
X165035418Y-138114585D01*
X165033471Y-138146794D01*
X165030586Y-138168992D01*
X165026580Y-138183861D01*
X165021271Y-138194081D01*
X165014475Y-138202330D01*
X165009960Y-138206987D01*
X165001730Y-138213474D01*
X164990370Y-138218386D01*
X164973102Y-138221941D01*
X164947147Y-138224359D01*
X164909728Y-138225859D01*
X164858065Y-138226659D01*
X164789381Y-138226979D01*
X164700898Y-138227037D01*
X164681223Y-138227030D01*
X164594198Y-138226764D01*
X164526546Y-138225998D01*
X164475591Y-138224584D01*
X164438659Y-138222372D01*
X164413075Y-138219214D01*
X164396163Y-138214961D01*
X164385249Y-138209463D01*
X164374756Y-138199477D01*
X164361495Y-138168360D01*
X164362678Y-138132472D01*
X164378842Y-138100925D01*
X164381031Y-138098649D01*
X164389719Y-138092381D01*
X164403061Y-138087715D01*
X164424044Y-138084419D01*
X164455655Y-138082260D01*
X164500882Y-138081006D01*
X164562712Y-138080423D01*
X164644131Y-138080281D01*
X164890737Y-138080281D01*
X164890737Y-137922237D01*
X164728298Y-137922237D01*
X164692630Y-137922156D01*
X164636860Y-137921359D01*
X164597722Y-137919354D01*
X164571268Y-137915713D01*
X164553551Y-137910004D01*
X164540621Y-137901799D01*
X164536978Y-137898615D01*
X164518570Y-137867640D01*
X164517936Y-137831304D01*
X164535475Y-137797685D01*
X164535537Y-137797616D01*
X164545208Y-137788990D01*
X164558501Y-137782934D01*
X164579209Y-137779003D01*
X164611120Y-137776748D01*
X164658026Y-137775723D01*
X164723716Y-137775481D01*
X164891863Y-137775481D01*
X164888478Y-137710570D01*
X164885092Y-137645659D01*
X164643015Y-137642606D01*
X164617999Y-137642278D01*
X164536379Y-137640798D01*
X164474060Y-137638414D01*
X164428446Y-137634419D01*
X164396944Y-137628105D01*
X164376959Y-137618766D01*
X164365896Y-137605695D01*
X164361161Y-137588184D01*
X164360159Y-137565527D01*
X164360165Y-137563162D01*
X164361319Y-137543131D01*
X164366116Y-137527338D01*
X164376924Y-137515282D01*
X164396109Y-137506459D01*
X164426037Y-137500367D01*
X164469075Y-137496503D01*
X164527591Y-137494366D01*
X164603949Y-137493452D01*
X164700518Y-137493259D01*
X164990698Y-137493259D01*
X165014095Y-137523003D01*
G37*
X169691026Y-137493275D02*
X169768123Y-137493467D01*
X169827069Y-137494052D01*
X169870656Y-137495243D01*
X169901675Y-137497256D01*
X169922917Y-137500304D01*
X169937174Y-137504601D01*
X169947237Y-137510364D01*
X169955898Y-137517804D01*
X169957683Y-137519485D01*
X169964927Y-137527024D01*
X169970569Y-137536042D01*
X169974809Y-137549176D01*
X169977848Y-137569064D01*
X169979886Y-137598343D01*
X169981122Y-137639650D01*
X169981757Y-137695623D01*
X169981992Y-137768899D01*
X169982026Y-137862115D01*
X169981989Y-137934905D01*
X169981740Y-138013081D01*
X169981104Y-138073295D01*
X169979907Y-138118174D01*
X169977976Y-138150344D01*
X169975138Y-138172431D01*
X169971219Y-138187062D01*
X169966047Y-138196862D01*
X169959448Y-138204459D01*
X169956114Y-138207636D01*
X169947592Y-138213746D01*
X169935590Y-138218421D01*
X169917379Y-138221851D01*
X169890232Y-138224228D01*
X169851421Y-138225744D01*
X169798216Y-138226590D01*
X169727890Y-138226957D01*
X169637714Y-138227037D01*
X169595606Y-138227025D01*
X169514459Y-138226843D01*
X169451967Y-138226290D01*
X169405401Y-138225174D01*
X169372033Y-138223305D01*
X169349136Y-138220490D01*
X169333980Y-138216538D01*
X169323838Y-138211258D01*
X169315981Y-138204459D01*
X169301255Y-138182859D01*
X169293403Y-138153659D01*
X169298902Y-138129752D01*
X169315981Y-138102859D01*
X169320960Y-138098251D01*
X169330735Y-138091964D01*
X169344851Y-138087338D01*
X169366346Y-138084122D01*
X169398260Y-138082062D01*
X169443634Y-138080904D01*
X169505505Y-138080394D01*
X169586914Y-138080281D01*
X169835270Y-138080281D01*
X169835270Y-137922237D01*
X169674093Y-137922237D01*
X169638275Y-137922091D01*
X169572651Y-137920368D01*
X169525410Y-137915933D01*
X169493675Y-137907829D01*
X169474569Y-137895098D01*
X169465215Y-137876784D01*
X169462737Y-137851930D01*
X169463534Y-137831674D01*
X169468786Y-137809848D01*
X169481580Y-137794496D01*
X169504920Y-137784501D01*
X169541809Y-137778745D01*
X169595251Y-137776111D01*
X169668250Y-137775481D01*
X169836397Y-137775481D01*
X169833011Y-137710570D01*
X169829626Y-137645659D01*
X169581909Y-137642610D01*
X169519318Y-137641731D01*
X169450857Y-137640287D01*
X169399953Y-137638356D01*
X169363700Y-137635706D01*
X169339193Y-137632102D01*
X169323527Y-137627313D01*
X169313798Y-137621105D01*
X169307783Y-137614702D01*
X169294774Y-137583020D01*
X169298335Y-137547334D01*
X169318110Y-137516276D01*
X169321361Y-137513353D01*
X169330341Y-137507002D01*
X169342445Y-137502149D01*
X169360451Y-137498595D01*
X169387139Y-137496138D01*
X169425289Y-137494577D01*
X169477678Y-137493710D01*
X169547086Y-137493338D01*
X169636293Y-137493259D01*
X169691026Y-137493275D01*
G36*
X169691026Y-137493275D02*
G01*
X169768123Y-137493467D01*
X169827069Y-137494052D01*
X169870656Y-137495243D01*
X169901675Y-137497256D01*
X169922917Y-137500304D01*
X169937174Y-137504601D01*
X169947237Y-137510364D01*
X169955898Y-137517804D01*
X169957683Y-137519485D01*
X169964927Y-137527024D01*
X169970569Y-137536042D01*
X169974809Y-137549176D01*
X169977848Y-137569064D01*
X169979886Y-137598343D01*
X169981122Y-137639650D01*
X169981757Y-137695623D01*
X169981992Y-137768899D01*
X169982026Y-137862115D01*
X169981989Y-137934905D01*
X169981740Y-138013081D01*
X169981104Y-138073295D01*
X169979907Y-138118174D01*
X169977976Y-138150344D01*
X169975138Y-138172431D01*
X169971219Y-138187062D01*
X169966047Y-138196862D01*
X169959448Y-138204459D01*
X169956114Y-138207636D01*
X169947592Y-138213746D01*
X169935590Y-138218421D01*
X169917379Y-138221851D01*
X169890232Y-138224228D01*
X169851421Y-138225744D01*
X169798216Y-138226590D01*
X169727890Y-138226957D01*
X169637714Y-138227037D01*
X169595606Y-138227025D01*
X169514459Y-138226843D01*
X169451967Y-138226290D01*
X169405401Y-138225174D01*
X169372033Y-138223305D01*
X169349136Y-138220490D01*
X169333980Y-138216538D01*
X169323838Y-138211258D01*
X169315981Y-138204459D01*
X169301255Y-138182859D01*
X169293403Y-138153659D01*
X169298902Y-138129752D01*
X169315981Y-138102859D01*
X169320960Y-138098251D01*
X169330735Y-138091964D01*
X169344851Y-138087338D01*
X169366346Y-138084122D01*
X169398260Y-138082062D01*
X169443634Y-138080904D01*
X169505505Y-138080394D01*
X169586914Y-138080281D01*
X169835270Y-138080281D01*
X169835270Y-137922237D01*
X169674093Y-137922237D01*
X169638275Y-137922091D01*
X169572651Y-137920368D01*
X169525410Y-137915933D01*
X169493675Y-137907829D01*
X169474569Y-137895098D01*
X169465215Y-137876784D01*
X169462737Y-137851930D01*
X169463534Y-137831674D01*
X169468786Y-137809848D01*
X169481580Y-137794496D01*
X169504920Y-137784501D01*
X169541809Y-137778745D01*
X169595251Y-137776111D01*
X169668250Y-137775481D01*
X169836397Y-137775481D01*
X169833011Y-137710570D01*
X169829626Y-137645659D01*
X169581909Y-137642610D01*
X169519318Y-137641731D01*
X169450857Y-137640287D01*
X169399953Y-137638356D01*
X169363700Y-137635706D01*
X169339193Y-137632102D01*
X169323527Y-137627313D01*
X169313798Y-137621105D01*
X169307783Y-137614702D01*
X169294774Y-137583020D01*
X169298335Y-137547334D01*
X169318110Y-137516276D01*
X169321361Y-137513353D01*
X169330341Y-137507002D01*
X169342445Y-137502149D01*
X169360451Y-137498595D01*
X169387139Y-137496138D01*
X169425289Y-137494577D01*
X169477678Y-137493710D01*
X169547086Y-137493338D01*
X169636293Y-137493259D01*
X169691026Y-137493275D01*
G37*
X161123994Y-137502670D02*
X161141955Y-137521181D01*
X161162555Y-137552263D01*
X161187387Y-137597948D01*
X161218042Y-137660270D01*
X161256112Y-137741263D01*
X161270746Y-137772646D01*
X161300495Y-137835830D01*
X161326589Y-137890436D01*
X161347584Y-137933482D01*
X161362031Y-137961985D01*
X161368483Y-137972962D01*
X161369842Y-137972381D01*
X161379834Y-137958434D01*
X161397125Y-137928896D01*
X161419722Y-137887279D01*
X161445630Y-137837095D01*
X161461603Y-137805606D01*
X161490553Y-137750253D01*
X161513041Y-137711236D01*
X161531257Y-137685758D01*
X161547388Y-137671023D01*
X161563622Y-137664234D01*
X161582149Y-137662592D01*
X161592652Y-137663067D01*
X161608768Y-137667274D01*
X161624082Y-137678138D01*
X161640680Y-137698411D01*
X161660649Y-137730846D01*
X161686075Y-137778196D01*
X161719044Y-137843214D01*
X161728777Y-137862469D01*
X161753235Y-137909138D01*
X161773470Y-137945301D01*
X161787603Y-137967689D01*
X161793752Y-137973037D01*
X161795119Y-137969765D01*
X161804494Y-137948856D01*
X161821354Y-137911917D01*
X161844271Y-137862066D01*
X161871812Y-137802418D01*
X161902547Y-137736090D01*
X161929262Y-137678869D01*
X161958885Y-137616880D01*
X161981956Y-137571141D01*
X161999935Y-137539100D01*
X162014282Y-137518206D01*
X162026458Y-137505910D01*
X162037924Y-137499658D01*
X162047334Y-137496766D01*
X162072439Y-137496617D01*
X162099582Y-137511960D01*
X162100882Y-137512945D01*
X162122966Y-137535580D01*
X162134015Y-137557805D01*
X162134061Y-137558445D01*
X162129520Y-137576107D01*
X162116656Y-137610673D01*
X162096897Y-137659018D01*
X162071673Y-137718017D01*
X162042411Y-137784547D01*
X162010542Y-137855483D01*
X161977493Y-137927699D01*
X161944693Y-137998072D01*
X161913572Y-138063477D01*
X161885557Y-138120789D01*
X161862078Y-138166884D01*
X161844564Y-138198638D01*
X161834443Y-138212925D01*
X161800035Y-138226294D01*
X161758338Y-138219933D01*
X161752973Y-138215236D01*
X161737144Y-138193085D01*
X161714942Y-138156324D01*
X161688525Y-138108607D01*
X161660052Y-138053585D01*
X161580278Y-137894342D01*
X161507091Y-138040934D01*
X161497395Y-138060224D01*
X161470417Y-138112572D01*
X161446388Y-138157362D01*
X161427624Y-138190346D01*
X161416438Y-138207281D01*
X161415292Y-138208524D01*
X161387171Y-138223811D01*
X161352109Y-138225494D01*
X161321068Y-138212925D01*
X161318642Y-138210076D01*
X161306382Y-138189451D01*
X161286644Y-138151900D01*
X161260740Y-138100072D01*
X161229977Y-138036615D01*
X161195667Y-137964177D01*
X161159117Y-137885408D01*
X161138877Y-137841285D01*
X161102104Y-137760557D01*
X161073647Y-137696879D01*
X161052623Y-137647944D01*
X161038146Y-137611449D01*
X161029331Y-137585087D01*
X161025296Y-137566553D01*
X161025154Y-137553544D01*
X161028022Y-137543753D01*
X161042679Y-137522870D01*
X161069282Y-137502569D01*
X161070037Y-137502227D01*
X161089627Y-137495226D01*
X161107082Y-137494696D01*
X161123994Y-137502670D01*
G36*
X161123994Y-137502670D02*
G01*
X161141955Y-137521181D01*
X161162555Y-137552263D01*
X161187387Y-137597948D01*
X161218042Y-137660270D01*
X161256112Y-137741263D01*
X161270746Y-137772646D01*
X161300495Y-137835830D01*
X161326589Y-137890436D01*
X161347584Y-137933482D01*
X161362031Y-137961985D01*
X161368483Y-137972962D01*
X161369842Y-137972381D01*
X161379834Y-137958434D01*
X161397125Y-137928896D01*
X161419722Y-137887279D01*
X161445630Y-137837095D01*
X161461603Y-137805606D01*
X161490553Y-137750253D01*
X161513041Y-137711236D01*
X161531257Y-137685758D01*
X161547388Y-137671023D01*
X161563622Y-137664234D01*
X161582149Y-137662592D01*
X161592652Y-137663067D01*
X161608768Y-137667274D01*
X161624082Y-137678138D01*
X161640680Y-137698411D01*
X161660649Y-137730846D01*
X161686075Y-137778196D01*
X161719044Y-137843214D01*
X161728777Y-137862469D01*
X161753235Y-137909138D01*
X161773470Y-137945301D01*
X161787603Y-137967689D01*
X161793752Y-137973037D01*
X161795119Y-137969765D01*
X161804494Y-137948856D01*
X161821354Y-137911917D01*
X161844271Y-137862066D01*
X161871812Y-137802418D01*
X161902547Y-137736090D01*
X161929262Y-137678869D01*
X161958885Y-137616880D01*
X161981956Y-137571141D01*
X161999935Y-137539100D01*
X162014282Y-137518206D01*
X162026458Y-137505910D01*
X162037924Y-137499658D01*
X162047334Y-137496766D01*
X162072439Y-137496617D01*
X162099582Y-137511960D01*
X162100882Y-137512945D01*
X162122966Y-137535580D01*
X162134015Y-137557805D01*
X162134061Y-137558445D01*
X162129520Y-137576107D01*
X162116656Y-137610673D01*
X162096897Y-137659018D01*
X162071673Y-137718017D01*
X162042411Y-137784547D01*
X162010542Y-137855483D01*
X161977493Y-137927699D01*
X161944693Y-137998072D01*
X161913572Y-138063477D01*
X161885557Y-138120789D01*
X161862078Y-138166884D01*
X161844564Y-138198638D01*
X161834443Y-138212925D01*
X161800035Y-138226294D01*
X161758338Y-138219933D01*
X161752973Y-138215236D01*
X161737144Y-138193085D01*
X161714942Y-138156324D01*
X161688525Y-138108607D01*
X161660052Y-138053585D01*
X161580278Y-137894342D01*
X161507091Y-138040934D01*
X161497395Y-138060224D01*
X161470417Y-138112572D01*
X161446388Y-138157362D01*
X161427624Y-138190346D01*
X161416438Y-138207281D01*
X161415292Y-138208524D01*
X161387171Y-138223811D01*
X161352109Y-138225494D01*
X161321068Y-138212925D01*
X161318642Y-138210076D01*
X161306382Y-138189451D01*
X161286644Y-138151900D01*
X161260740Y-138100072D01*
X161229977Y-138036615D01*
X161195667Y-137964177D01*
X161159117Y-137885408D01*
X161138877Y-137841285D01*
X161102104Y-137760557D01*
X161073647Y-137696879D01*
X161052623Y-137647944D01*
X161038146Y-137611449D01*
X161029331Y-137585087D01*
X161025296Y-137566553D01*
X161025154Y-137553544D01*
X161028022Y-137543753D01*
X161042679Y-137522870D01*
X161069282Y-137502569D01*
X161070037Y-137502227D01*
X161089627Y-137495226D01*
X161107082Y-137494696D01*
X161123994Y-137502670D01*
G37*
X168675145Y-137494128D02*
X168741392Y-137499558D01*
X168796692Y-137509156D01*
X168847575Y-137524017D01*
X168918887Y-137557150D01*
X168970044Y-137599832D01*
X169000867Y-137651897D01*
X169011181Y-137713175D01*
X169010244Y-137744424D01*
X169004452Y-137769221D01*
X168989645Y-137790891D01*
X168961672Y-137818241D01*
X168953694Y-137825570D01*
X168929984Y-137846473D01*
X168907590Y-137863443D01*
X168883557Y-137877397D01*
X168854929Y-137889248D01*
X168818752Y-137899912D01*
X168772072Y-137910303D01*
X168711933Y-137921338D01*
X168635382Y-137933930D01*
X168539463Y-137948996D01*
X168521100Y-137952030D01*
X168458770Y-137965650D01*
X168413552Y-137981384D01*
X168387268Y-137998455D01*
X168381739Y-138016089D01*
X168384360Y-138020360D01*
X168402292Y-138035425D01*
X168430418Y-138052059D01*
X168443218Y-138058049D01*
X168464516Y-138065242D01*
X168490902Y-138070019D01*
X168526746Y-138072838D01*
X168576420Y-138074156D01*
X168644292Y-138074429D01*
X168662077Y-138074356D01*
X168729698Y-138073245D01*
X168794637Y-138071020D01*
X168850262Y-138067954D01*
X168889943Y-138064319D01*
X168925454Y-138060251D01*
X168954707Y-138059468D01*
X168973607Y-138064068D01*
X168988721Y-138074743D01*
X168992377Y-138078336D01*
X169008719Y-138110110D01*
X169007399Y-138145764D01*
X168988442Y-138176382D01*
X168968072Y-138187988D01*
X168932088Y-138200683D01*
X168889664Y-138210733D01*
X168886214Y-138211332D01*
X168843544Y-138216548D01*
X168786158Y-138220922D01*
X168721141Y-138224010D01*
X168655581Y-138225369D01*
X168639349Y-138225410D01*
X168541036Y-138222933D01*
X168460984Y-138214927D01*
X168395805Y-138200395D01*
X168342109Y-138178341D01*
X168296508Y-138147768D01*
X168255615Y-138107678D01*
X168235494Y-138081451D01*
X168223868Y-138051904D01*
X168220959Y-138012187D01*
X168221100Y-138000218D01*
X168224973Y-137967537D01*
X168237357Y-137941011D01*
X168262522Y-137910163D01*
X168283734Y-137888023D01*
X168310130Y-137865477D01*
X168339847Y-137847109D01*
X168376077Y-137831853D01*
X168422009Y-137818641D01*
X168480836Y-137806406D01*
X168555748Y-137794081D01*
X168649937Y-137780598D01*
X168695249Y-137773588D01*
X168763203Y-137759029D01*
X168812339Y-137742529D01*
X168841906Y-137724631D01*
X168851156Y-137705877D01*
X168839340Y-137686807D01*
X168805708Y-137667963D01*
X168802662Y-137666749D01*
X168756303Y-137654671D01*
X168693653Y-137646471D01*
X168620219Y-137642311D01*
X168541509Y-137642353D01*
X168463031Y-137646761D01*
X168390292Y-137655697D01*
X168386365Y-137656346D01*
X168337549Y-137664053D01*
X168305297Y-137667665D01*
X168284300Y-137667068D01*
X168269246Y-137662146D01*
X168254826Y-137652788D01*
X168253656Y-137651917D01*
X168229139Y-137621543D01*
X168224346Y-137586042D01*
X168240152Y-137551461D01*
X168244698Y-137547005D01*
X168274312Y-137531865D01*
X168321294Y-137518742D01*
X168381598Y-137507942D01*
X168451180Y-137499773D01*
X168525995Y-137494543D01*
X168601998Y-137492559D01*
X168675145Y-137494128D01*
G36*
X168675145Y-137494128D02*
G01*
X168741392Y-137499558D01*
X168796692Y-137509156D01*
X168847575Y-137524017D01*
X168918887Y-137557150D01*
X168970044Y-137599832D01*
X169000867Y-137651897D01*
X169011181Y-137713175D01*
X169010244Y-137744424D01*
X169004452Y-137769221D01*
X168989645Y-137790891D01*
X168961672Y-137818241D01*
X168953694Y-137825570D01*
X168929984Y-137846473D01*
X168907590Y-137863443D01*
X168883557Y-137877397D01*
X168854929Y-137889248D01*
X168818752Y-137899912D01*
X168772072Y-137910303D01*
X168711933Y-137921338D01*
X168635382Y-137933930D01*
X168539463Y-137948996D01*
X168521100Y-137952030D01*
X168458770Y-137965650D01*
X168413552Y-137981384D01*
X168387268Y-137998455D01*
X168381739Y-138016089D01*
X168384360Y-138020360D01*
X168402292Y-138035425D01*
X168430418Y-138052059D01*
X168443218Y-138058049D01*
X168464516Y-138065242D01*
X168490902Y-138070019D01*
X168526746Y-138072838D01*
X168576420Y-138074156D01*
X168644292Y-138074429D01*
X168662077Y-138074356D01*
X168729698Y-138073245D01*
X168794637Y-138071020D01*
X168850262Y-138067954D01*
X168889943Y-138064319D01*
X168925454Y-138060251D01*
X168954707Y-138059468D01*
X168973607Y-138064068D01*
X168988721Y-138074743D01*
X168992377Y-138078336D01*
X169008719Y-138110110D01*
X169007399Y-138145764D01*
X168988442Y-138176382D01*
X168968072Y-138187988D01*
X168932088Y-138200683D01*
X168889664Y-138210733D01*
X168886214Y-138211332D01*
X168843544Y-138216548D01*
X168786158Y-138220922D01*
X168721141Y-138224010D01*
X168655581Y-138225369D01*
X168639349Y-138225410D01*
X168541036Y-138222933D01*
X168460984Y-138214927D01*
X168395805Y-138200395D01*
X168342109Y-138178341D01*
X168296508Y-138147768D01*
X168255615Y-138107678D01*
X168235494Y-138081451D01*
X168223868Y-138051904D01*
X168220959Y-138012187D01*
X168221100Y-138000218D01*
X168224973Y-137967537D01*
X168237357Y-137941011D01*
X168262522Y-137910163D01*
X168283734Y-137888023D01*
X168310130Y-137865477D01*
X168339847Y-137847109D01*
X168376077Y-137831853D01*
X168422009Y-137818641D01*
X168480836Y-137806406D01*
X168555748Y-137794081D01*
X168649937Y-137780598D01*
X168695249Y-137773588D01*
X168763203Y-137759029D01*
X168812339Y-137742529D01*
X168841906Y-137724631D01*
X168851156Y-137705877D01*
X168839340Y-137686807D01*
X168805708Y-137667963D01*
X168802662Y-137666749D01*
X168756303Y-137654671D01*
X168693653Y-137646471D01*
X168620219Y-137642311D01*
X168541509Y-137642353D01*
X168463031Y-137646761D01*
X168390292Y-137655697D01*
X168386365Y-137656346D01*
X168337549Y-137664053D01*
X168305297Y-137667665D01*
X168284300Y-137667068D01*
X168269246Y-137662146D01*
X168254826Y-137652788D01*
X168253656Y-137651917D01*
X168229139Y-137621543D01*
X168224346Y-137586042D01*
X168240152Y-137551461D01*
X168244698Y-137547005D01*
X168274312Y-137531865D01*
X168321294Y-137518742D01*
X168381598Y-137507942D01*
X168451180Y-137499773D01*
X168525995Y-137494543D01*
X168601998Y-137492559D01*
X168675145Y-137494128D01*
G37*
X164674847Y-132016078D02*
X164859348Y-132033015D01*
X165030749Y-132067174D01*
X165195427Y-132119991D01*
X165359756Y-132192905D01*
X165522424Y-132286001D01*
X165696999Y-132412914D01*
X165858888Y-132559650D01*
X166004528Y-132722576D01*
X166130352Y-132898059D01*
X166232797Y-133082468D01*
X166242096Y-133102196D01*
X166319973Y-133292613D01*
X166379148Y-133490477D01*
X166420387Y-133699570D01*
X166444452Y-133923670D01*
X166452111Y-134166559D01*
X166442799Y-134417643D01*
X166413244Y-134664912D01*
X166362987Y-134896383D01*
X166291577Y-135113699D01*
X166198566Y-135318502D01*
X166083504Y-135512433D01*
X165975422Y-135660594D01*
X165826184Y-135827300D01*
X165663521Y-135970089D01*
X165487505Y-136088914D01*
X165298207Y-136183729D01*
X165095697Y-136254487D01*
X164880048Y-136301142D01*
X164877587Y-136301505D01*
X164836058Y-136305149D01*
X164773388Y-136307852D01*
X164695373Y-136309487D01*
X164607808Y-136309930D01*
X164516487Y-136309052D01*
X164452484Y-136307767D01*
X164357523Y-136304790D01*
X164281428Y-136300528D01*
X164218712Y-136294526D01*
X164163885Y-136286329D01*
X164111460Y-136275482D01*
X164052477Y-136261465D01*
X163990940Y-136245503D01*
X163935286Y-136228758D01*
X163880463Y-136209268D01*
X163821422Y-136185073D01*
X163753111Y-136154210D01*
X163670478Y-136114719D01*
X163568473Y-136064639D01*
X163286352Y-135925215D01*
X163512313Y-135554067D01*
X163541896Y-135505490D01*
X163595043Y-135418289D01*
X163642614Y-135340331D01*
X163682868Y-135274458D01*
X163714068Y-135223516D01*
X163734476Y-135190347D01*
X163742352Y-135177795D01*
X163744542Y-135178170D01*
X163762188Y-135190454D01*
X163793189Y-135215947D01*
X163832647Y-135250694D01*
X163902920Y-135310729D01*
X164028371Y-135399506D01*
X164150089Y-135461394D01*
X164238045Y-135492300D01*
X164386817Y-135523885D01*
X164532989Y-135529484D01*
X164674443Y-135509477D01*
X164809058Y-135464246D01*
X164934714Y-135394173D01*
X165049293Y-135299639D01*
X165113049Y-135230011D01*
X165202867Y-135101224D01*
X165276567Y-134951773D01*
X165334501Y-134780892D01*
X165377021Y-134587817D01*
X165378951Y-134575831D01*
X165387863Y-134498143D01*
X165394497Y-134401617D01*
X165398800Y-134292849D01*
X165400719Y-134178434D01*
X165400198Y-134064968D01*
X165397185Y-133959046D01*
X165391626Y-133867263D01*
X165383467Y-133796217D01*
X165352194Y-133635280D01*
X165299574Y-133447286D01*
X165233395Y-133282700D01*
X165153747Y-133141649D01*
X165060717Y-133024260D01*
X164954394Y-132930663D01*
X164834867Y-132860982D01*
X164702224Y-132815347D01*
X164672795Y-132809683D01*
X164599044Y-132802288D01*
X164512856Y-132799874D01*
X164423884Y-132802308D01*
X164341786Y-132809460D01*
X164276217Y-132821195D01*
X164166986Y-132858561D01*
X164040227Y-132926778D01*
X163927358Y-133016550D01*
X163907437Y-133035461D01*
X163871340Y-133068918D01*
X163845829Y-133091438D01*
X163835464Y-133098928D01*
X163832913Y-133095346D01*
X163817206Y-133072723D01*
X163788832Y-133031647D01*
X163749664Y-132974836D01*
X163701578Y-132905012D01*
X163646448Y-132824893D01*
X163586149Y-132737201D01*
X163339514Y-132378402D01*
X163394611Y-132361895D01*
X163400360Y-132360024D01*
X163437785Y-132345166D01*
X163491744Y-132321208D01*
X163555902Y-132291031D01*
X163623929Y-132257517D01*
X163653572Y-132242700D01*
X163818176Y-132166201D01*
X163969890Y-132107045D01*
X164114548Y-132063718D01*
X164257986Y-132034707D01*
X164406038Y-132018499D01*
X164564541Y-132013580D01*
X164674847Y-132016078D01*
G36*
X164674847Y-132016078D02*
G01*
X164859348Y-132033015D01*
X165030749Y-132067174D01*
X165195427Y-132119991D01*
X165359756Y-132192905D01*
X165522424Y-132286001D01*
X165696999Y-132412914D01*
X165858888Y-132559650D01*
X166004528Y-132722576D01*
X166130352Y-132898059D01*
X166232797Y-133082468D01*
X166242096Y-133102196D01*
X166319973Y-133292613D01*
X166379148Y-133490477D01*
X166420387Y-133699570D01*
X166444452Y-133923670D01*
X166452111Y-134166559D01*
X166442799Y-134417643D01*
X166413244Y-134664912D01*
X166362987Y-134896383D01*
X166291577Y-135113699D01*
X166198566Y-135318502D01*
X166083504Y-135512433D01*
X165975422Y-135660594D01*
X165826184Y-135827300D01*
X165663521Y-135970089D01*
X165487505Y-136088914D01*
X165298207Y-136183729D01*
X165095697Y-136254487D01*
X164880048Y-136301142D01*
X164877587Y-136301505D01*
X164836058Y-136305149D01*
X164773388Y-136307852D01*
X164695373Y-136309487D01*
X164607808Y-136309930D01*
X164516487Y-136309052D01*
X164452484Y-136307767D01*
X164357523Y-136304790D01*
X164281428Y-136300528D01*
X164218712Y-136294526D01*
X164163885Y-136286329D01*
X164111460Y-136275482D01*
X164052477Y-136261465D01*
X163990940Y-136245503D01*
X163935286Y-136228758D01*
X163880463Y-136209268D01*
X163821422Y-136185073D01*
X163753111Y-136154210D01*
X163670478Y-136114719D01*
X163568473Y-136064639D01*
X163286352Y-135925215D01*
X163512313Y-135554067D01*
X163541896Y-135505490D01*
X163595043Y-135418289D01*
X163642614Y-135340331D01*
X163682868Y-135274458D01*
X163714068Y-135223516D01*
X163734476Y-135190347D01*
X163742352Y-135177795D01*
X163744542Y-135178170D01*
X163762188Y-135190454D01*
X163793189Y-135215947D01*
X163832647Y-135250694D01*
X163902920Y-135310729D01*
X164028371Y-135399506D01*
X164150089Y-135461394D01*
X164238045Y-135492300D01*
X164386817Y-135523885D01*
X164532989Y-135529484D01*
X164674443Y-135509477D01*
X164809058Y-135464246D01*
X164934714Y-135394173D01*
X165049293Y-135299639D01*
X165113049Y-135230011D01*
X165202867Y-135101224D01*
X165276567Y-134951773D01*
X165334501Y-134780892D01*
X165377021Y-134587817D01*
X165378951Y-134575831D01*
X165387863Y-134498143D01*
X165394497Y-134401617D01*
X165398800Y-134292849D01*
X165400719Y-134178434D01*
X165400198Y-134064968D01*
X165397185Y-133959046D01*
X165391626Y-133867263D01*
X165383467Y-133796217D01*
X165352194Y-133635280D01*
X165299574Y-133447286D01*
X165233395Y-133282700D01*
X165153747Y-133141649D01*
X165060717Y-133024260D01*
X164954394Y-132930663D01*
X164834867Y-132860982D01*
X164702224Y-132815347D01*
X164672795Y-132809683D01*
X164599044Y-132802288D01*
X164512856Y-132799874D01*
X164423884Y-132802308D01*
X164341786Y-132809460D01*
X164276217Y-132821195D01*
X164166986Y-132858561D01*
X164040227Y-132926778D01*
X163927358Y-133016550D01*
X163907437Y-133035461D01*
X163871340Y-133068918D01*
X163845829Y-133091438D01*
X163835464Y-133098928D01*
X163832913Y-133095346D01*
X163817206Y-133072723D01*
X163788832Y-133031647D01*
X163749664Y-132974836D01*
X163701578Y-132905012D01*
X163646448Y-132824893D01*
X163586149Y-132737201D01*
X163339514Y-132378402D01*
X163394611Y-132361895D01*
X163400360Y-132360024D01*
X163437785Y-132345166D01*
X163491744Y-132321208D01*
X163555902Y-132291031D01*
X163623929Y-132257517D01*
X163653572Y-132242700D01*
X163818176Y-132166201D01*
X163969890Y-132107045D01*
X164114548Y-132063718D01*
X164257986Y-132034707D01*
X164406038Y-132018499D01*
X164564541Y-132013580D01*
X164674847Y-132016078D01*
G37*
X160189755Y-134877001D02*
X160186842Y-135004057D01*
X160178512Y-135116109D01*
X160164120Y-135219252D01*
X160143021Y-135319581D01*
X160114570Y-135423190D01*
X160071428Y-135547033D01*
X159992190Y-135714216D01*
X159894993Y-135863961D01*
X159781325Y-135994852D01*
X159652672Y-136105474D01*
X159510521Y-136194412D01*
X159356359Y-136260250D01*
X159191674Y-136301574D01*
X159189692Y-136301906D01*
X159069337Y-136313486D01*
X158937099Y-136311941D01*
X158802404Y-136298222D01*
X158674684Y-136273283D01*
X158563366Y-136238077D01*
X158515851Y-136216653D01*
X158453969Y-136184090D01*
X158390380Y-136146846D01*
X158331721Y-136109021D01*
X158284626Y-136074714D01*
X158255730Y-136048024D01*
X158249097Y-136040696D01*
X158241189Y-136038135D01*
X158235903Y-136050851D01*
X158232008Y-136082899D01*
X158228271Y-136138331D01*
X158221406Y-136253838D01*
X157695569Y-136257434D01*
X157169732Y-136261031D01*
X157206116Y-136198946D01*
X157208285Y-136195276D01*
X157218865Y-136178044D01*
X157228463Y-136162693D01*
X157237131Y-136147889D01*
X157244920Y-136132299D01*
X157251882Y-136114589D01*
X157258069Y-136093424D01*
X157263531Y-136067473D01*
X157268322Y-136035400D01*
X157272492Y-135995872D01*
X157276094Y-135947557D01*
X157279178Y-135889119D01*
X157281797Y-135819226D01*
X157284002Y-135736544D01*
X157285844Y-135639739D01*
X157287376Y-135527477D01*
X157288612Y-135402205D01*
X158290054Y-135402205D01*
X158358703Y-135447233D01*
X158385103Y-135463453D01*
X158445552Y-135495857D01*
X158502865Y-135521661D01*
X158527965Y-135530398D01*
X158607831Y-135547841D01*
X158708811Y-135556748D01*
X158760159Y-135558601D01*
X158807823Y-135558179D01*
X158843304Y-135553419D01*
X158875129Y-135543014D01*
X158911823Y-135525659D01*
X158982342Y-135479169D01*
X159043435Y-135413406D01*
X159092337Y-135328658D01*
X159129515Y-135223597D01*
X159155432Y-135096895D01*
X159170556Y-134947222D01*
X159175350Y-134773252D01*
X159175117Y-134733700D01*
X159168225Y-134550444D01*
X159151488Y-134390985D01*
X159124501Y-134253643D01*
X159086855Y-134136734D01*
X159038144Y-134038577D01*
X158977961Y-133957488D01*
X158952993Y-133932740D01*
X158875613Y-133881181D01*
X158784776Y-133849807D01*
X158684419Y-133838795D01*
X158578475Y-133848324D01*
X158470879Y-133878572D01*
X158365568Y-133929718D01*
X158290054Y-133974982D01*
X158290054Y-135402205D01*
X157288612Y-135402205D01*
X157288649Y-135398425D01*
X157289715Y-135251250D01*
X157290625Y-135084618D01*
X157291431Y-134897194D01*
X157292185Y-134687646D01*
X157292938Y-134454640D01*
X157293742Y-134196842D01*
X157294649Y-133912919D01*
X157301514Y-131819135D01*
X157847271Y-131815545D01*
X157886959Y-131815304D01*
X158003730Y-131814825D01*
X158110535Y-131814727D01*
X158204458Y-131814992D01*
X158282584Y-131815599D01*
X158341998Y-131816528D01*
X158379784Y-131817759D01*
X158393027Y-131819272D01*
X158391333Y-131824069D01*
X158378694Y-131846810D01*
X158357760Y-131879881D01*
X158355672Y-131883043D01*
X158339442Y-131908577D01*
X158325833Y-131933421D01*
X158314616Y-131960134D01*
X158305559Y-131991274D01*
X158298431Y-132029402D01*
X158293003Y-132077075D01*
X158289043Y-132136853D01*
X158286320Y-132211295D01*
X158284605Y-132302960D01*
X158283665Y-132414408D01*
X158283270Y-132548196D01*
X158283189Y-132706885D01*
X158283333Y-132830781D01*
X158283774Y-132952419D01*
X158284479Y-133062711D01*
X158285417Y-133158973D01*
X158286557Y-133238519D01*
X158287865Y-133298663D01*
X158289310Y-133336718D01*
X158290859Y-133350000D01*
X158295858Y-133347939D01*
X158317831Y-133333422D01*
X158349211Y-133309581D01*
X158394704Y-133277519D01*
X158480178Y-133230279D01*
X158577872Y-133188140D01*
X158678666Y-133155370D01*
X158763352Y-133138660D01*
X158868823Y-133128009D01*
X158982971Y-133124318D01*
X159096989Y-133127594D01*
X159202067Y-133137840D01*
X159289396Y-133155060D01*
X159378317Y-133184068D01*
X159526658Y-133254389D01*
X159664010Y-133347877D01*
X159787841Y-133462377D01*
X159895615Y-133595739D01*
X159984799Y-133745808D01*
X160006940Y-133791826D01*
X160068987Y-133947048D01*
X160117496Y-134115513D01*
X160153080Y-134300192D01*
X160176353Y-134504053D01*
X160187927Y-134730067D01*
X160188465Y-134773252D01*
X160189755Y-134877001D01*
G36*
X160189755Y-134877001D02*
G01*
X160186842Y-135004057D01*
X160178512Y-135116109D01*
X160164120Y-135219252D01*
X160143021Y-135319581D01*
X160114570Y-135423190D01*
X160071428Y-135547033D01*
X159992190Y-135714216D01*
X159894993Y-135863961D01*
X159781325Y-135994852D01*
X159652672Y-136105474D01*
X159510521Y-136194412D01*
X159356359Y-136260250D01*
X159191674Y-136301574D01*
X159189692Y-136301906D01*
X159069337Y-136313486D01*
X158937099Y-136311941D01*
X158802404Y-136298222D01*
X158674684Y-136273283D01*
X158563366Y-136238077D01*
X158515851Y-136216653D01*
X158453969Y-136184090D01*
X158390380Y-136146846D01*
X158331721Y-136109021D01*
X158284626Y-136074714D01*
X158255730Y-136048024D01*
X158249097Y-136040696D01*
X158241189Y-136038135D01*
X158235903Y-136050851D01*
X158232008Y-136082899D01*
X158228271Y-136138331D01*
X158221406Y-136253838D01*
X157695569Y-136257434D01*
X157169732Y-136261031D01*
X157206116Y-136198946D01*
X157208285Y-136195276D01*
X157218865Y-136178044D01*
X157228463Y-136162693D01*
X157237131Y-136147889D01*
X157244920Y-136132299D01*
X157251882Y-136114589D01*
X157258069Y-136093424D01*
X157263531Y-136067473D01*
X157268322Y-136035400D01*
X157272492Y-135995872D01*
X157276094Y-135947557D01*
X157279178Y-135889119D01*
X157281797Y-135819226D01*
X157284002Y-135736544D01*
X157285844Y-135639739D01*
X157287376Y-135527477D01*
X157288612Y-135402205D01*
X158290054Y-135402205D01*
X158358703Y-135447233D01*
X158385103Y-135463453D01*
X158445552Y-135495857D01*
X158502865Y-135521661D01*
X158527965Y-135530398D01*
X158607831Y-135547841D01*
X158708811Y-135556748D01*
X158760159Y-135558601D01*
X158807823Y-135558179D01*
X158843304Y-135553419D01*
X158875129Y-135543014D01*
X158911823Y-135525659D01*
X158982342Y-135479169D01*
X159043435Y-135413406D01*
X159092337Y-135328658D01*
X159129515Y-135223597D01*
X159155432Y-135096895D01*
X159170556Y-134947222D01*
X159175350Y-134773252D01*
X159175117Y-134733700D01*
X159168225Y-134550444D01*
X159151488Y-134390985D01*
X159124501Y-134253643D01*
X159086855Y-134136734D01*
X159038144Y-134038577D01*
X158977961Y-133957488D01*
X158952993Y-133932740D01*
X158875613Y-133881181D01*
X158784776Y-133849807D01*
X158684419Y-133838795D01*
X158578475Y-133848324D01*
X158470879Y-133878572D01*
X158365568Y-133929718D01*
X158290054Y-133974982D01*
X158290054Y-135402205D01*
X157288612Y-135402205D01*
X157288649Y-135398425D01*
X157289715Y-135251250D01*
X157290625Y-135084618D01*
X157291431Y-134897194D01*
X157292185Y-134687646D01*
X157292938Y-134454640D01*
X157293742Y-134196842D01*
X157294649Y-133912919D01*
X157301514Y-131819135D01*
X157847271Y-131815545D01*
X157886959Y-131815304D01*
X158003730Y-131814825D01*
X158110535Y-131814727D01*
X158204458Y-131814992D01*
X158282584Y-131815599D01*
X158341998Y-131816528D01*
X158379784Y-131817759D01*
X158393027Y-131819272D01*
X158391333Y-131824069D01*
X158378694Y-131846810D01*
X158357760Y-131879881D01*
X158355672Y-131883043D01*
X158339442Y-131908577D01*
X158325833Y-131933421D01*
X158314616Y-131960134D01*
X158305559Y-131991274D01*
X158298431Y-132029402D01*
X158293003Y-132077075D01*
X158289043Y-132136853D01*
X158286320Y-132211295D01*
X158284605Y-132302960D01*
X158283665Y-132414408D01*
X158283270Y-132548196D01*
X158283189Y-132706885D01*
X158283333Y-132830781D01*
X158283774Y-132952419D01*
X158284479Y-133062711D01*
X158285417Y-133158973D01*
X158286557Y-133238519D01*
X158287865Y-133298663D01*
X158289310Y-133336718D01*
X158290859Y-133350000D01*
X158295858Y-133347939D01*
X158317831Y-133333422D01*
X158349211Y-133309581D01*
X158394704Y-133277519D01*
X158480178Y-133230279D01*
X158577872Y-133188140D01*
X158678666Y-133155370D01*
X158763352Y-133138660D01*
X158868823Y-133128009D01*
X158982971Y-133124318D01*
X159096989Y-133127594D01*
X159202067Y-133137840D01*
X159289396Y-133155060D01*
X159378317Y-133184068D01*
X159526658Y-133254389D01*
X159664010Y-133347877D01*
X159787841Y-133462377D01*
X159895615Y-133595739D01*
X159984799Y-133745808D01*
X160006940Y-133791826D01*
X160068987Y-133947048D01*
X160117496Y-134115513D01*
X160153080Y-134300192D01*
X160176353Y-134504053D01*
X160187927Y-134730067D01*
X160188465Y-134773252D01*
X160189755Y-134877001D01*
G37*
X163293128Y-135309034D02*
X163286962Y-135419736D01*
X163273635Y-135522739D01*
X163253526Y-135608541D01*
X163221440Y-135696818D01*
X163147063Y-135842299D01*
X163051994Y-135970295D01*
X162937218Y-136079933D01*
X162803719Y-136170342D01*
X162652480Y-136240648D01*
X162484487Y-136289981D01*
X162415983Y-136301108D01*
X162318093Y-136308841D01*
X162211484Y-136310580D01*
X162105065Y-136306465D01*
X162007745Y-136296637D01*
X161928433Y-136281236D01*
X161888579Y-136269110D01*
X161798063Y-136233626D01*
X161706052Y-136188575D01*
X161622038Y-136138843D01*
X161555515Y-136089316D01*
X161554697Y-136088601D01*
X161518243Y-136057692D01*
X161490196Y-136035683D01*
X161476569Y-136027298D01*
X161475079Y-136029300D01*
X161471708Y-136050926D01*
X161469365Y-136091260D01*
X161468487Y-136144000D01*
X161468487Y-136260703D01*
X160953622Y-136260703D01*
X160939916Y-136260701D01*
X160824965Y-136260500D01*
X160719464Y-136259999D01*
X160626414Y-136259237D01*
X160548817Y-136258249D01*
X160489674Y-136257074D01*
X160451986Y-136255749D01*
X160438757Y-136254311D01*
X160439065Y-136253054D01*
X160447720Y-136234501D01*
X160465863Y-136199645D01*
X160490244Y-136154770D01*
X160541730Y-136061622D01*
X160549279Y-135141981D01*
X161523406Y-135141981D01*
X161523789Y-135214640D01*
X161525644Y-135290985D01*
X161529279Y-135346168D01*
X161534958Y-135383782D01*
X161542946Y-135407421D01*
X161553222Y-135424301D01*
X161591918Y-135470317D01*
X161643765Y-135518221D01*
X161700592Y-135560904D01*
X161754225Y-135591253D01*
X161783982Y-135602389D01*
X161852499Y-135617216D01*
X161941988Y-135624796D01*
X162036338Y-135623648D01*
X162125934Y-135608056D01*
X162200718Y-135575846D01*
X162265421Y-135525567D01*
X162283622Y-135506970D01*
X162331011Y-135443546D01*
X162356652Y-135375184D01*
X162364352Y-135292925D01*
X162362266Y-135249467D01*
X162341635Y-135160005D01*
X162298295Y-135083219D01*
X162231457Y-135018243D01*
X162140331Y-134964215D01*
X162024128Y-134920270D01*
X161977281Y-134908738D01*
X161920568Y-134900842D01*
X161849195Y-134896457D01*
X161756811Y-134894982D01*
X161741804Y-134894983D01*
X161672689Y-134895827D01*
X161613320Y-134897866D01*
X161569600Y-134900833D01*
X161547433Y-134904461D01*
X161544882Y-134905639D01*
X161536635Y-134913035D01*
X161530794Y-134927899D01*
X161526955Y-134954227D01*
X161524713Y-134996018D01*
X161523665Y-135057270D01*
X161523406Y-135141981D01*
X160549279Y-135141981D01*
X160549676Y-135093676D01*
X160550857Y-134952695D01*
X160552509Y-134772893D01*
X160554243Y-134616799D01*
X160556200Y-134482205D01*
X160558519Y-134366905D01*
X160561340Y-134268689D01*
X160564804Y-134185352D01*
X160569050Y-134114685D01*
X160574220Y-134054480D01*
X160580452Y-134002531D01*
X160587887Y-133956630D01*
X160596666Y-133914569D01*
X160606927Y-133874141D01*
X160618813Y-133833137D01*
X160632461Y-133789352D01*
X160686230Y-133652085D01*
X160759865Y-133525222D01*
X160851566Y-133416608D01*
X160962175Y-133325674D01*
X161092530Y-133251853D01*
X161243471Y-133194575D01*
X161415837Y-133153273D01*
X161610469Y-133127378D01*
X161678495Y-133122229D01*
X161793062Y-133118464D01*
X161906616Y-133121854D01*
X162024473Y-133132972D01*
X162151950Y-133152388D01*
X162294363Y-133180674D01*
X162457027Y-133218403D01*
X162494627Y-133227532D01*
X162589049Y-133249996D01*
X162678543Y-133270679D01*
X162757681Y-133288361D01*
X162821036Y-133301820D01*
X162863180Y-133309833D01*
X162960414Y-133325803D01*
X162823716Y-133657118D01*
X162789523Y-133739840D01*
X162755885Y-133820896D01*
X162727023Y-133890101D01*
X162704355Y-133944068D01*
X162689297Y-133979412D01*
X162683267Y-133992746D01*
X162682319Y-133992937D01*
X162664844Y-133986984D01*
X162630483Y-133971728D01*
X162585434Y-133949883D01*
X162491802Y-133907343D01*
X162362958Y-133860830D01*
X162231086Y-133825210D01*
X162101344Y-133801378D01*
X161978889Y-133790227D01*
X161868877Y-133792654D01*
X161776465Y-133809552D01*
X161711969Y-133836364D01*
X161638720Y-133891310D01*
X161582333Y-133965852D01*
X161544421Y-134057695D01*
X161526599Y-134164547D01*
X161520323Y-134263027D01*
X161847945Y-134263924D01*
X161958432Y-134264851D01*
X162080638Y-134268141D01*
X162185035Y-134274351D01*
X162277024Y-134284084D01*
X162362004Y-134297943D01*
X162445377Y-134316533D01*
X162532541Y-134340458D01*
X162662960Y-134385996D01*
X162816360Y-134460988D01*
X162950988Y-134552847D01*
X163065516Y-134660280D01*
X163158616Y-134781995D01*
X163228961Y-134916701D01*
X163275223Y-135063105D01*
X163282468Y-135102536D01*
X163291756Y-135200133D01*
X163292926Y-135292925D01*
X163293128Y-135309034D01*
G36*
X163293128Y-135309034D02*
G01*
X163286962Y-135419736D01*
X163273635Y-135522739D01*
X163253526Y-135608541D01*
X163221440Y-135696818D01*
X163147063Y-135842299D01*
X163051994Y-135970295D01*
X162937218Y-136079933D01*
X162803719Y-136170342D01*
X162652480Y-136240648D01*
X162484487Y-136289981D01*
X162415983Y-136301108D01*
X162318093Y-136308841D01*
X162211484Y-136310580D01*
X162105065Y-136306465D01*
X162007745Y-136296637D01*
X161928433Y-136281236D01*
X161888579Y-136269110D01*
X161798063Y-136233626D01*
X161706052Y-136188575D01*
X161622038Y-136138843D01*
X161555515Y-136089316D01*
X161554697Y-136088601D01*
X161518243Y-136057692D01*
X161490196Y-136035683D01*
X161476569Y-136027298D01*
X161475079Y-136029300D01*
X161471708Y-136050926D01*
X161469365Y-136091260D01*
X161468487Y-136144000D01*
X161468487Y-136260703D01*
X160953622Y-136260703D01*
X160939916Y-136260701D01*
X160824965Y-136260500D01*
X160719464Y-136259999D01*
X160626414Y-136259237D01*
X160548817Y-136258249D01*
X160489674Y-136257074D01*
X160451986Y-136255749D01*
X160438757Y-136254311D01*
X160439065Y-136253054D01*
X160447720Y-136234501D01*
X160465863Y-136199645D01*
X160490244Y-136154770D01*
X160541730Y-136061622D01*
X160549279Y-135141981D01*
X161523406Y-135141981D01*
X161523789Y-135214640D01*
X161525644Y-135290985D01*
X161529279Y-135346168D01*
X161534958Y-135383782D01*
X161542946Y-135407421D01*
X161553222Y-135424301D01*
X161591918Y-135470317D01*
X161643765Y-135518221D01*
X161700592Y-135560904D01*
X161754225Y-135591253D01*
X161783982Y-135602389D01*
X161852499Y-135617216D01*
X161941988Y-135624796D01*
X162036338Y-135623648D01*
X162125934Y-135608056D01*
X162200718Y-135575846D01*
X162265421Y-135525567D01*
X162283622Y-135506970D01*
X162331011Y-135443546D01*
X162356652Y-135375184D01*
X162364352Y-135292925D01*
X162362266Y-135249467D01*
X162341635Y-135160005D01*
X162298295Y-135083219D01*
X162231457Y-135018243D01*
X162140331Y-134964215D01*
X162024128Y-134920270D01*
X161977281Y-134908738D01*
X161920568Y-134900842D01*
X161849195Y-134896457D01*
X161756811Y-134894982D01*
X161741804Y-134894983D01*
X161672689Y-134895827D01*
X161613320Y-134897866D01*
X161569600Y-134900833D01*
X161547433Y-134904461D01*
X161544882Y-134905639D01*
X161536635Y-134913035D01*
X161530794Y-134927899D01*
X161526955Y-134954227D01*
X161524713Y-134996018D01*
X161523665Y-135057270D01*
X161523406Y-135141981D01*
X160549279Y-135141981D01*
X160549676Y-135093676D01*
X160550857Y-134952695D01*
X160552509Y-134772893D01*
X160554243Y-134616799D01*
X160556200Y-134482205D01*
X160558519Y-134366905D01*
X160561340Y-134268689D01*
X160564804Y-134185352D01*
X160569050Y-134114685D01*
X160574220Y-134054480D01*
X160580452Y-134002531D01*
X160587887Y-133956630D01*
X160596666Y-133914569D01*
X160606927Y-133874141D01*
X160618813Y-133833137D01*
X160632461Y-133789352D01*
X160686230Y-133652085D01*
X160759865Y-133525222D01*
X160851566Y-133416608D01*
X160962175Y-133325674D01*
X161092530Y-133251853D01*
X161243471Y-133194575D01*
X161415837Y-133153273D01*
X161610469Y-133127378D01*
X161678495Y-133122229D01*
X161793062Y-133118464D01*
X161906616Y-133121854D01*
X162024473Y-133132972D01*
X162151950Y-133152388D01*
X162294363Y-133180674D01*
X162457027Y-133218403D01*
X162494627Y-133227532D01*
X162589049Y-133249996D01*
X162678543Y-133270679D01*
X162757681Y-133288361D01*
X162821036Y-133301820D01*
X162863180Y-133309833D01*
X162960414Y-133325803D01*
X162823716Y-133657118D01*
X162789523Y-133739840D01*
X162755885Y-133820896D01*
X162727023Y-133890101D01*
X162704355Y-133944068D01*
X162689297Y-133979412D01*
X162683267Y-133992746D01*
X162682319Y-133992937D01*
X162664844Y-133986984D01*
X162630483Y-133971728D01*
X162585434Y-133949883D01*
X162491802Y-133907343D01*
X162362958Y-133860830D01*
X162231086Y-133825210D01*
X162101344Y-133801378D01*
X161978889Y-133790227D01*
X161868877Y-133792654D01*
X161776465Y-133809552D01*
X161711969Y-133836364D01*
X161638720Y-133891310D01*
X161582333Y-133965852D01*
X161544421Y-134057695D01*
X161526599Y-134164547D01*
X161520323Y-134263027D01*
X161847945Y-134263924D01*
X161958432Y-134264851D01*
X162080638Y-134268141D01*
X162185035Y-134274351D01*
X162277024Y-134284084D01*
X162362004Y-134297943D01*
X162445377Y-134316533D01*
X162532541Y-134340458D01*
X162662960Y-134385996D01*
X162816360Y-134460988D01*
X162950988Y-134552847D01*
X163065516Y-134660280D01*
X163158616Y-134781995D01*
X163228961Y-134916701D01*
X163275223Y-135063105D01*
X163282468Y-135102536D01*
X163291756Y-135200133D01*
X163292926Y-135292925D01*
X163293128Y-135309034D01*
G37*
X172503945Y-136287840D02*
X172502532Y-136394310D01*
X172500777Y-136486024D01*
X172498646Y-136564117D01*
X172496102Y-136629724D01*
X172493111Y-136683981D01*
X172489635Y-136728023D01*
X172485640Y-136762985D01*
X172481089Y-136790003D01*
X172475947Y-136810212D01*
X172470179Y-136824747D01*
X172463748Y-136834744D01*
X172456619Y-136841338D01*
X172448755Y-136845665D01*
X172440122Y-136848859D01*
X172430684Y-136852056D01*
X172420404Y-136856391D01*
X172414620Y-136858563D01*
X172404010Y-136860936D01*
X172388245Y-136863110D01*
X172366210Y-136865093D01*
X172336790Y-136866896D01*
X172298869Y-136868525D01*
X172251332Y-136869991D01*
X172193064Y-136871301D01*
X172122950Y-136872465D01*
X172039874Y-136873491D01*
X171942721Y-136874388D01*
X171830376Y-136875165D01*
X171701725Y-136875830D01*
X171555650Y-136876392D01*
X171391038Y-136876860D01*
X171206773Y-136877242D01*
X171001740Y-136877548D01*
X170774824Y-136877785D01*
X170524909Y-136877963D01*
X170250881Y-136878091D01*
X169951623Y-136878176D01*
X169626021Y-136878228D01*
X169522839Y-136878238D01*
X169204303Y-136878245D01*
X168911787Y-136878205D01*
X168644188Y-136878110D01*
X168400404Y-136877953D01*
X168179332Y-136877725D01*
X167979872Y-136877419D01*
X167800921Y-136877025D01*
X167641376Y-136876538D01*
X167500136Y-136875947D01*
X167376099Y-136875247D01*
X167268163Y-136874427D01*
X167175226Y-136873481D01*
X167096185Y-136872400D01*
X167029939Y-136871177D01*
X166975385Y-136869803D01*
X166931422Y-136868271D01*
X166896947Y-136866572D01*
X166870859Y-136864698D01*
X166852056Y-136862642D01*
X166839435Y-136860396D01*
X166831894Y-136857950D01*
X166829495Y-136856862D01*
X166819673Y-136853287D01*
X166810666Y-136850676D01*
X166802437Y-136847893D01*
X166794950Y-136843800D01*
X166788168Y-136837260D01*
X166782055Y-136827137D01*
X166776575Y-136812293D01*
X166771690Y-136791591D01*
X166767364Y-136763895D01*
X166763561Y-136728068D01*
X166760244Y-136682973D01*
X166757376Y-136627472D01*
X166754922Y-136560429D01*
X166752844Y-136480707D01*
X166751107Y-136387170D01*
X166749673Y-136278679D01*
X166749202Y-136228440D01*
X167111255Y-136228440D01*
X167111652Y-136233251D01*
X167118935Y-136237150D01*
X167135389Y-136240232D01*
X167163301Y-136242594D01*
X167204957Y-136244330D01*
X167262642Y-136245536D01*
X167338642Y-136246308D01*
X167435244Y-136246741D01*
X167554734Y-136246931D01*
X167699396Y-136246973D01*
X168305373Y-136246973D01*
X168254146Y-136154298D01*
X168202919Y-136061622D01*
X168202919Y-133370595D01*
X168254146Y-133277919D01*
X168305373Y-133185244D01*
X167222211Y-133185244D01*
X167214379Y-136034162D01*
X167175981Y-136116168D01*
X167155736Y-136156815D01*
X167132813Y-136197532D01*
X167115501Y-136222574D01*
X167115458Y-136222622D01*
X167111255Y-136228440D01*
X166749202Y-136228440D01*
X166748506Y-136154098D01*
X166747570Y-136012290D01*
X166746828Y-135852119D01*
X166746243Y-135672447D01*
X166745779Y-135472137D01*
X166745400Y-135250052D01*
X166745069Y-135005056D01*
X166744749Y-134736012D01*
X166744404Y-134441782D01*
X166743998Y-134121230D01*
X166743945Y-134082424D01*
X166743492Y-133763903D01*
X166743059Y-133471572D01*
X166742677Y-133204293D01*
X166742380Y-132960929D01*
X166742198Y-132740342D01*
X166742165Y-132541395D01*
X166742311Y-132362950D01*
X166742670Y-132203871D01*
X166743274Y-132063019D01*
X166744154Y-131939257D01*
X166745342Y-131831447D01*
X166746871Y-131738453D01*
X166748772Y-131659137D01*
X166751078Y-131592360D01*
X166753821Y-131536987D01*
X166757032Y-131491879D01*
X166760745Y-131455899D01*
X166764990Y-131427909D01*
X166769801Y-131406772D01*
X166775208Y-131391351D01*
X166781245Y-131380508D01*
X166787943Y-131373106D01*
X166795335Y-131368007D01*
X166803451Y-131364073D01*
X166812325Y-131360168D01*
X166821989Y-131355154D01*
X166824817Y-131353556D01*
X166867604Y-131338089D01*
X166914443Y-131331732D01*
X166967244Y-131331734D01*
X166968124Y-131451867D01*
X166968347Y-131465692D01*
X166985129Y-131606215D01*
X167027873Y-131738435D01*
X167095983Y-131860952D01*
X167188868Y-131972363D01*
X167238712Y-132017803D01*
X167349695Y-132093120D01*
X167470788Y-132145643D01*
X167598465Y-132175342D01*
X167729197Y-132182190D01*
X167859460Y-132166159D01*
X167985725Y-132127221D01*
X168089522Y-132073135D01*
X168548907Y-132073135D01*
X168609319Y-132116599D01*
X168660410Y-132157448D01*
X168732403Y-132224076D01*
X168814060Y-132307580D01*
X168902290Y-132404778D01*
X168994000Y-132512487D01*
X169017617Y-132541290D01*
X169057827Y-132590692D01*
X169110387Y-132655505D01*
X169173556Y-132733566D01*
X169245592Y-132822711D01*
X169324754Y-132920778D01*
X169409302Y-133025604D01*
X169497493Y-133135024D01*
X169537944Y-133185244D01*
X169587586Y-133246876D01*
X169677840Y-133358997D01*
X169766515Y-133469224D01*
X169851868Y-133575392D01*
X169932158Y-133675340D01*
X170005644Y-133766903D01*
X170070585Y-133847919D01*
X170125240Y-133916224D01*
X170167866Y-133969655D01*
X170196724Y-134006048D01*
X170210071Y-134023242D01*
X170211173Y-134029703D01*
X170207508Y-134041992D01*
X170198013Y-134061325D01*
X170181738Y-134089074D01*
X170157736Y-134126610D01*
X170125060Y-134175304D01*
X170082761Y-134236529D01*
X170029891Y-134311654D01*
X169965503Y-134402052D01*
X169888648Y-134509094D01*
X169798380Y-134634152D01*
X169693749Y-134778596D01*
X169573809Y-134943798D01*
X169478242Y-135075297D01*
X169361648Y-135235605D01*
X169259088Y-135376387D01*
X169169369Y-135499204D01*
X169091300Y-135605619D01*
X169023688Y-135697195D01*
X168965338Y-135775494D01*
X168915060Y-135842079D01*
X168871661Y-135898511D01*
X168833946Y-135946354D01*
X168800725Y-135987169D01*
X168770803Y-136022520D01*
X168742989Y-136053968D01*
X168716090Y-136083076D01*
X168688913Y-136111406D01*
X168660265Y-136140522D01*
X168554692Y-136246973D01*
X169974054Y-136247031D01*
X169969595Y-136161019D01*
X169969379Y-136156697D01*
X169968532Y-136122313D01*
X169970137Y-136089368D01*
X169975266Y-136056058D01*
X169984993Y-136020578D01*
X170000391Y-135981125D01*
X170022534Y-135935893D01*
X170052495Y-135883077D01*
X170091348Y-135820874D01*
X170140166Y-135747477D01*
X170200022Y-135661084D01*
X170271990Y-135559890D01*
X170357143Y-135442088D01*
X170456554Y-135305876D01*
X170571298Y-135149449D01*
X170976325Y-134598041D01*
X170979893Y-135237382D01*
X170980209Y-135297020D01*
X170980767Y-135457657D01*
X170980513Y-135594289D01*
X170979150Y-135709502D01*
X170976377Y-135805883D01*
X170971898Y-135886016D01*
X170965413Y-135952487D01*
X170956623Y-136007883D01*
X170945230Y-136054788D01*
X170930935Y-136095788D01*
X170913440Y-136133469D01*
X170892447Y-136170417D01*
X170867655Y-136209217D01*
X170842734Y-136246973D01*
X172137884Y-136246973D01*
X172104429Y-136202352D01*
X172099190Y-136195293D01*
X172057302Y-136130594D01*
X172028427Y-136065190D01*
X172009466Y-135990248D01*
X171997321Y-135896933D01*
X171996987Y-135892865D01*
X171995225Y-135854375D01*
X171993633Y-135790156D01*
X171992220Y-135701676D01*
X171990992Y-135590403D01*
X171989956Y-135457803D01*
X171989118Y-135305345D01*
X171988486Y-135134496D01*
X171988067Y-134946722D01*
X171987868Y-134743493D01*
X171987895Y-134526274D01*
X171988155Y-134296535D01*
X171988655Y-134055741D01*
X171989185Y-133839748D01*
X171989752Y-133604635D01*
X171990311Y-133394279D01*
X171990930Y-133207206D01*
X171991681Y-133041942D01*
X171992634Y-132897013D01*
X171993858Y-132770947D01*
X171995423Y-132662268D01*
X171997401Y-132569504D01*
X171999860Y-132491180D01*
X172002871Y-132425822D01*
X172006504Y-132371958D01*
X172010829Y-132328113D01*
X172015916Y-132292813D01*
X172021835Y-132264585D01*
X172028657Y-132241955D01*
X172036451Y-132223449D01*
X172045288Y-132207594D01*
X172055237Y-132192915D01*
X172066369Y-132177940D01*
X172078754Y-132161193D01*
X172090732Y-132144412D01*
X172113885Y-132111231D01*
X172127753Y-132090298D01*
X172128088Y-132089421D01*
X172123246Y-132085462D01*
X172106157Y-132082159D01*
X172074921Y-132079461D01*
X172027635Y-132077317D01*
X171962398Y-132075676D01*
X171877310Y-132074489D01*
X171770467Y-132073703D01*
X171639969Y-132073269D01*
X171483914Y-132073135D01*
X170829722Y-132073135D01*
X170864200Y-132114110D01*
X170884182Y-132142253D01*
X170917443Y-132208608D01*
X170946591Y-132291135D01*
X170968838Y-132382679D01*
X170970256Y-132391369D01*
X170974474Y-132437183D01*
X170977669Y-132507989D01*
X170979849Y-132604275D01*
X170981021Y-132726532D01*
X170981195Y-132875251D01*
X170980378Y-133050922D01*
X170976325Y-133637412D01*
X170557568Y-133107859D01*
X170545574Y-133092690D01*
X170439381Y-132958255D01*
X170348721Y-132843124D01*
X170272151Y-132745339D01*
X170208227Y-132662943D01*
X170155507Y-132593978D01*
X170112549Y-132536486D01*
X170077909Y-132488510D01*
X170050145Y-132448093D01*
X170027814Y-132413276D01*
X170009472Y-132382103D01*
X169993678Y-132352615D01*
X169978988Y-132322855D01*
X169956390Y-132270177D01*
X169941791Y-132214606D01*
X169937908Y-132154666D01*
X169938298Y-132073135D01*
X168548907Y-132073135D01*
X168089522Y-132073135D01*
X168104466Y-132065348D01*
X168212157Y-131980511D01*
X168242094Y-131950602D01*
X168330577Y-131839862D01*
X168393364Y-131719684D01*
X168430789Y-131589291D01*
X168443189Y-131447910D01*
X168443189Y-131331730D01*
X170414088Y-131331730D01*
X170537220Y-131331725D01*
X170801743Y-131331689D01*
X171040702Y-131331663D01*
X171255418Y-131331699D01*
X171447213Y-131331849D01*
X171617407Y-131332166D01*
X171767323Y-131332702D01*
X171898282Y-131333508D01*
X172011605Y-131334638D01*
X172108614Y-131336144D01*
X172190629Y-131338077D01*
X172258974Y-131340491D01*
X172314968Y-131343436D01*
X172359933Y-131346966D01*
X172395191Y-131351133D01*
X172422063Y-131355989D01*
X172441871Y-131361586D01*
X172455935Y-131367976D01*
X172465578Y-131375212D01*
X172472121Y-131383346D01*
X172476885Y-131392431D01*
X172481192Y-131402518D01*
X172486363Y-131413659D01*
X172486455Y-131413841D01*
X172488966Y-131421134D01*
X172491268Y-131433347D01*
X172493372Y-131451605D01*
X172495286Y-131477037D01*
X172497018Y-131510769D01*
X172498578Y-131553928D01*
X172499973Y-131607641D01*
X172501213Y-131673035D01*
X172502307Y-131751238D01*
X172503263Y-131843376D01*
X172504090Y-131950576D01*
X172504797Y-132073966D01*
X172505393Y-132214671D01*
X172505885Y-132373820D01*
X172506284Y-132552540D01*
X172506597Y-132751957D01*
X172506833Y-132973198D01*
X172507002Y-133217390D01*
X172507112Y-133485661D01*
X172507172Y-133779137D01*
X172507189Y-134098946D01*
X172507190Y-134161773D01*
X172507220Y-134478249D01*
X172507267Y-134768615D01*
X172507295Y-135034007D01*
X172507267Y-135275560D01*
X172507150Y-135494410D01*
X172506905Y-135691691D01*
X172506498Y-135868539D01*
X172505893Y-136026090D01*
X172505054Y-136165479D01*
X172504315Y-136246973D01*
X172503945Y-136287840D01*
G36*
X172503945Y-136287840D02*
G01*
X172502532Y-136394310D01*
X172500777Y-136486024D01*
X172498646Y-136564117D01*
X172496102Y-136629724D01*
X172493111Y-136683981D01*
X172489635Y-136728023D01*
X172485640Y-136762985D01*
X172481089Y-136790003D01*
X172475947Y-136810212D01*
X172470179Y-136824747D01*
X172463748Y-136834744D01*
X172456619Y-136841338D01*
X172448755Y-136845665D01*
X172440122Y-136848859D01*
X172430684Y-136852056D01*
X172420404Y-136856391D01*
X172414620Y-136858563D01*
X172404010Y-136860936D01*
X172388245Y-136863110D01*
X172366210Y-136865093D01*
X172336790Y-136866896D01*
X172298869Y-136868525D01*
X172251332Y-136869991D01*
X172193064Y-136871301D01*
X172122950Y-136872465D01*
X172039874Y-136873491D01*
X171942721Y-136874388D01*
X171830376Y-136875165D01*
X171701725Y-136875830D01*
X171555650Y-136876392D01*
X171391038Y-136876860D01*
X171206773Y-136877242D01*
X171001740Y-136877548D01*
X170774824Y-136877785D01*
X170524909Y-136877963D01*
X170250881Y-136878091D01*
X169951623Y-136878176D01*
X169626021Y-136878228D01*
X169522839Y-136878238D01*
X169204303Y-136878245D01*
X168911787Y-136878205D01*
X168644188Y-136878110D01*
X168400404Y-136877953D01*
X168179332Y-136877725D01*
X167979872Y-136877419D01*
X167800921Y-136877025D01*
X167641376Y-136876538D01*
X167500136Y-136875947D01*
X167376099Y-136875247D01*
X167268163Y-136874427D01*
X167175226Y-136873481D01*
X167096185Y-136872400D01*
X167029939Y-136871177D01*
X166975385Y-136869803D01*
X166931422Y-136868271D01*
X166896947Y-136866572D01*
X166870859Y-136864698D01*
X166852056Y-136862642D01*
X166839435Y-136860396D01*
X166831894Y-136857950D01*
X166829495Y-136856862D01*
X166819673Y-136853287D01*
X166810666Y-136850676D01*
X166802437Y-136847893D01*
X166794950Y-136843800D01*
X166788168Y-136837260D01*
X166782055Y-136827137D01*
X166776575Y-136812293D01*
X166771690Y-136791591D01*
X166767364Y-136763895D01*
X166763561Y-136728068D01*
X166760244Y-136682973D01*
X166757376Y-136627472D01*
X166754922Y-136560429D01*
X166752844Y-136480707D01*
X166751107Y-136387170D01*
X166749673Y-136278679D01*
X166749202Y-136228440D01*
X167111255Y-136228440D01*
X167111652Y-136233251D01*
X167118935Y-136237150D01*
X167135389Y-136240232D01*
X167163301Y-136242594D01*
X167204957Y-136244330D01*
X167262642Y-136245536D01*
X167338642Y-136246308D01*
X167435244Y-136246741D01*
X167554734Y-136246931D01*
X167699396Y-136246973D01*
X168305373Y-136246973D01*
X168254146Y-136154298D01*
X168202919Y-136061622D01*
X168202919Y-133370595D01*
X168254146Y-133277919D01*
X168305373Y-133185244D01*
X167222211Y-133185244D01*
X167214379Y-136034162D01*
X167175981Y-136116168D01*
X167155736Y-136156815D01*
X167132813Y-136197532D01*
X167115501Y-136222574D01*
X167115458Y-136222622D01*
X167111255Y-136228440D01*
X166749202Y-136228440D01*
X166748506Y-136154098D01*
X166747570Y-136012290D01*
X166746828Y-135852119D01*
X166746243Y-135672447D01*
X166745779Y-135472137D01*
X166745400Y-135250052D01*
X166745069Y-135005056D01*
X166744749Y-134736012D01*
X166744404Y-134441782D01*
X166743998Y-134121230D01*
X166743945Y-134082424D01*
X166743492Y-133763903D01*
X166743059Y-133471572D01*
X166742677Y-133204293D01*
X166742380Y-132960929D01*
X166742198Y-132740342D01*
X166742165Y-132541395D01*
X166742311Y-132362950D01*
X166742670Y-132203871D01*
X166743274Y-132063019D01*
X166744154Y-131939257D01*
X166745342Y-131831447D01*
X166746871Y-131738453D01*
X166748772Y-131659137D01*
X166751078Y-131592360D01*
X166753821Y-131536987D01*
X166757032Y-131491879D01*
X166760745Y-131455899D01*
X166764990Y-131427909D01*
X166769801Y-131406772D01*
X166775208Y-131391351D01*
X166781245Y-131380508D01*
X166787943Y-131373106D01*
X166795335Y-131368007D01*
X166803451Y-131364073D01*
X166812325Y-131360168D01*
X166821989Y-131355154D01*
X166824817Y-131353556D01*
X166867604Y-131338089D01*
X166914443Y-131331732D01*
X166967244Y-131331734D01*
X166968124Y-131451867D01*
X166968347Y-131465692D01*
X166985129Y-131606215D01*
X167027873Y-131738435D01*
X167095983Y-131860952D01*
X167188868Y-131972363D01*
X167238712Y-132017803D01*
X167349695Y-132093120D01*
X167470788Y-132145643D01*
X167598465Y-132175342D01*
X167729197Y-132182190D01*
X167859460Y-132166159D01*
X167985725Y-132127221D01*
X168089522Y-132073135D01*
X168548907Y-132073135D01*
X168609319Y-132116599D01*
X168660410Y-132157448D01*
X168732403Y-132224076D01*
X168814060Y-132307580D01*
X168902290Y-132404778D01*
X168994000Y-132512487D01*
X169017617Y-132541290D01*
X169057827Y-132590692D01*
X169110387Y-132655505D01*
X169173556Y-132733566D01*
X169245592Y-132822711D01*
X169324754Y-132920778D01*
X169409302Y-133025604D01*
X169497493Y-133135024D01*
X169537944Y-133185244D01*
X169587586Y-133246876D01*
X169677840Y-133358997D01*
X169766515Y-133469224D01*
X169851868Y-133575392D01*
X169932158Y-133675340D01*
X170005644Y-133766903D01*
X170070585Y-133847919D01*
X170125240Y-133916224D01*
X170167866Y-133969655D01*
X170196724Y-134006048D01*
X170210071Y-134023242D01*
X170211173Y-134029703D01*
X170207508Y-134041992D01*
X170198013Y-134061325D01*
X170181738Y-134089074D01*
X170157736Y-134126610D01*
X170125060Y-134175304D01*
X170082761Y-134236529D01*
X170029891Y-134311654D01*
X169965503Y-134402052D01*
X169888648Y-134509094D01*
X169798380Y-134634152D01*
X169693749Y-134778596D01*
X169573809Y-134943798D01*
X169478242Y-135075297D01*
X169361648Y-135235605D01*
X169259088Y-135376387D01*
X169169369Y-135499204D01*
X169091300Y-135605619D01*
X169023688Y-135697195D01*
X168965338Y-135775494D01*
X168915060Y-135842079D01*
X168871661Y-135898511D01*
X168833946Y-135946354D01*
X168800725Y-135987169D01*
X168770803Y-136022520D01*
X168742989Y-136053968D01*
X168716090Y-136083076D01*
X168688913Y-136111406D01*
X168660265Y-136140522D01*
X168554692Y-136246973D01*
X169974054Y-136247031D01*
X169969595Y-136161019D01*
X169969379Y-136156697D01*
X169968532Y-136122313D01*
X169970137Y-136089368D01*
X169975266Y-136056058D01*
X169984993Y-136020578D01*
X170000391Y-135981125D01*
X170022534Y-135935893D01*
X170052495Y-135883077D01*
X170091348Y-135820874D01*
X170140166Y-135747477D01*
X170200022Y-135661084D01*
X170271990Y-135559890D01*
X170357143Y-135442088D01*
X170456554Y-135305876D01*
X170571298Y-135149449D01*
X170976325Y-134598041D01*
X170979893Y-135237382D01*
X170980209Y-135297020D01*
X170980767Y-135457657D01*
X170980513Y-135594289D01*
X170979150Y-135709502D01*
X170976377Y-135805883D01*
X170971898Y-135886016D01*
X170965413Y-135952487D01*
X170956623Y-136007883D01*
X170945230Y-136054788D01*
X170930935Y-136095788D01*
X170913440Y-136133469D01*
X170892447Y-136170417D01*
X170867655Y-136209217D01*
X170842734Y-136246973D01*
X172137884Y-136246973D01*
X172104429Y-136202352D01*
X172099190Y-136195293D01*
X172057302Y-136130594D01*
X172028427Y-136065190D01*
X172009466Y-135990248D01*
X171997321Y-135896933D01*
X171996987Y-135892865D01*
X171995225Y-135854375D01*
X171993633Y-135790156D01*
X171992220Y-135701676D01*
X171990992Y-135590403D01*
X171989956Y-135457803D01*
X171989118Y-135305345D01*
X171988486Y-135134496D01*
X171988067Y-134946722D01*
X171987868Y-134743493D01*
X171987895Y-134526274D01*
X171988155Y-134296535D01*
X171988655Y-134055741D01*
X171989185Y-133839748D01*
X171989752Y-133604635D01*
X171990311Y-133394279D01*
X171990930Y-133207206D01*
X171991681Y-133041942D01*
X171992634Y-132897013D01*
X171993858Y-132770947D01*
X171995423Y-132662268D01*
X171997401Y-132569504D01*
X171999860Y-132491180D01*
X172002871Y-132425822D01*
X172006504Y-132371958D01*
X172010829Y-132328113D01*
X172015916Y-132292813D01*
X172021835Y-132264585D01*
X172028657Y-132241955D01*
X172036451Y-132223449D01*
X172045288Y-132207594D01*
X172055237Y-132192915D01*
X172066369Y-132177940D01*
X172078754Y-132161193D01*
X172090732Y-132144412D01*
X172113885Y-132111231D01*
X172127753Y-132090298D01*
X172128088Y-132089421D01*
X172123246Y-132085462D01*
X172106157Y-132082159D01*
X172074921Y-132079461D01*
X172027635Y-132077317D01*
X171962398Y-132075676D01*
X171877310Y-132074489D01*
X171770467Y-132073703D01*
X171639969Y-132073269D01*
X171483914Y-132073135D01*
X170829722Y-132073135D01*
X170864200Y-132114110D01*
X170884182Y-132142253D01*
X170917443Y-132208608D01*
X170946591Y-132291135D01*
X170968838Y-132382679D01*
X170970256Y-132391369D01*
X170974474Y-132437183D01*
X170977669Y-132507989D01*
X170979849Y-132604275D01*
X170981021Y-132726532D01*
X170981195Y-132875251D01*
X170980378Y-133050922D01*
X170976325Y-133637412D01*
X170557568Y-133107859D01*
X170545574Y-133092690D01*
X170439381Y-132958255D01*
X170348721Y-132843124D01*
X170272151Y-132745339D01*
X170208227Y-132662943D01*
X170155507Y-132593978D01*
X170112549Y-132536486D01*
X170077909Y-132488510D01*
X170050145Y-132448093D01*
X170027814Y-132413276D01*
X170009472Y-132382103D01*
X169993678Y-132352615D01*
X169978988Y-132322855D01*
X169956390Y-132270177D01*
X169941791Y-132214606D01*
X169937908Y-132154666D01*
X169938298Y-132073135D01*
X168548907Y-132073135D01*
X168089522Y-132073135D01*
X168104466Y-132065348D01*
X168212157Y-131980511D01*
X168242094Y-131950602D01*
X168330577Y-131839862D01*
X168393364Y-131719684D01*
X168430789Y-131589291D01*
X168443189Y-131447910D01*
X168443189Y-131331730D01*
X170414088Y-131331730D01*
X170537220Y-131331725D01*
X170801743Y-131331689D01*
X171040702Y-131331663D01*
X171255418Y-131331699D01*
X171447213Y-131331849D01*
X171617407Y-131332166D01*
X171767323Y-131332702D01*
X171898282Y-131333508D01*
X172011605Y-131334638D01*
X172108614Y-131336144D01*
X172190629Y-131338077D01*
X172258974Y-131340491D01*
X172314968Y-131343436D01*
X172359933Y-131346966D01*
X172395191Y-131351133D01*
X172422063Y-131355989D01*
X172441871Y-131361586D01*
X172455935Y-131367976D01*
X172465578Y-131375212D01*
X172472121Y-131383346D01*
X172476885Y-131392431D01*
X172481192Y-131402518D01*
X172486363Y-131413659D01*
X172486455Y-131413841D01*
X172488966Y-131421134D01*
X172491268Y-131433347D01*
X172493372Y-131451605D01*
X172495286Y-131477037D01*
X172497018Y-131510769D01*
X172498578Y-131553928D01*
X172499973Y-131607641D01*
X172501213Y-131673035D01*
X172502307Y-131751238D01*
X172503263Y-131843376D01*
X172504090Y-131950576D01*
X172504797Y-132073966D01*
X172505393Y-132214671D01*
X172505885Y-132373820D01*
X172506284Y-132552540D01*
X172506597Y-132751957D01*
X172506833Y-132973198D01*
X172507002Y-133217390D01*
X172507112Y-133485661D01*
X172507172Y-133779137D01*
X172507189Y-134098946D01*
X172507190Y-134161773D01*
X172507220Y-134478249D01*
X172507267Y-134768615D01*
X172507295Y-135034007D01*
X172507267Y-135275560D01*
X172507150Y-135494410D01*
X172506905Y-135691691D01*
X172506498Y-135868539D01*
X172505893Y-136026090D01*
X172505054Y-136165479D01*
X172504315Y-136246973D01*
X172503945Y-136287840D01*
G37*
%TD*%
M02*
