%TF.GenerationSoftware,KiCad,Pcbnew,8.0.1*%
%TF.CreationDate,2024-05-08T09:38:19-07:00*%
%TF.ProjectId,breadboard-power-supply,62726561-6462-46f6-9172-642d706f7765,rev?*%
%TF.SameCoordinates,Original*%
%TF.FileFunction,Soldermask,Bot*%
%TF.FilePolarity,Negative*%
%FSLAX46Y46*%
G04 Gerber Fmt 4.6, Leading zero omitted, Abs format (unit mm)*
G04 Created by KiCad (PCBNEW 8.0.1) date 2024-05-08 09:38:19*
%MOMM*%
%LPD*%
G01*
G04 APERTURE LIST*
G04 Aperture macros list*
%AMRoundRect*
0 Rectangle with rounded corners*
0 $1 Rounding radius*
0 $2 $3 $4 $5 $6 $7 $8 $9 X,Y pos of 4 corners*
0 Add a 4 corners polygon primitive as box body*
4,1,4,$2,$3,$4,$5,$6,$7,$8,$9,$2,$3,0*
0 Add four circle primitives for the rounded corners*
1,1,$1+$1,$2,$3*
1,1,$1+$1,$4,$5*
1,1,$1+$1,$6,$7*
1,1,$1+$1,$8,$9*
0 Add four rect primitives between the rounded corners*
20,1,$1+$1,$2,$3,$4,$5,0*
20,1,$1+$1,$4,$5,$6,$7,0*
20,1,$1+$1,$6,$7,$8,$9,0*
20,1,$1+$1,$8,$9,$2,$3,0*%
G04 Aperture macros list end*
%ADD10R,3.500000X3.500000*%
%ADD11RoundRect,0.750000X-0.750000X-1.000000X0.750000X-1.000000X0.750000X1.000000X-0.750000X1.000000X0*%
%ADD12RoundRect,0.875000X-0.875000X-0.875000X0.875000X-0.875000X0.875000X0.875000X-0.875000X0.875000X0*%
%ADD13O,1.700000X1.700000*%
%ADD14R,1.700000X1.700000*%
%ADD15C,1.600000*%
%ADD16C,3.000000*%
%ADD17R,3.000000X3.000000*%
%ADD18C,1.400000*%
%ADD19O,1.400000X1.400000*%
%ADD20R,1.905000X2.000000*%
%ADD21O,1.905000X2.000000*%
%ADD22C,1.800000*%
%ADD23R,1.800000X1.800000*%
%ADD24R,1.500000X1.500000*%
G04 APERTURE END LIST*
D10*
%TO.C,J6*%
X81250000Y-77750000D03*
D11*
X75250000Y-77750000D03*
D12*
X78250000Y-82450000D03*
%TD*%
D13*
%TO.C,J3*%
X79290000Y-54750000D03*
X76750000Y-54750000D03*
D14*
X74210000Y-54750000D03*
%TD*%
D15*
%TO.C,C3*%
X74750000Y-93500000D03*
X72250000Y-93500000D03*
%TD*%
D16*
%TO.C,J7*%
X89080000Y-101000000D03*
D17*
X84000000Y-101000000D03*
%TD*%
D18*
%TO.C,R1*%
X84250000Y-71000000D03*
D19*
X91870000Y-71000000D03*
%TD*%
D13*
%TO.C,J4*%
X79055000Y-103500000D03*
X76515000Y-103500000D03*
D14*
X73975000Y-103500000D03*
%TD*%
D15*
%TO.C,C1*%
X80000000Y-60750000D03*
X77500000Y-60750000D03*
%TD*%
D20*
%TO.C,U1*%
X78500000Y-67750000D03*
D21*
X75960000Y-67750000D03*
X73420000Y-67750000D03*
%TD*%
D22*
%TO.C,D1*%
X88750000Y-77960000D03*
D23*
X88750000Y-80500000D03*
%TD*%
D15*
%TO.C,C2*%
X71250000Y-60750000D03*
X73750000Y-60750000D03*
%TD*%
D18*
%TO.C,R3*%
X84440000Y-86500000D03*
D19*
X92060000Y-86500000D03*
%TD*%
%TO.C,R2*%
X84440000Y-92500000D03*
D18*
X92060000Y-92500000D03*
%TD*%
D13*
%TO.C,J1*%
X95750000Y-103515000D03*
D14*
X95750000Y-100975000D03*
%TD*%
D24*
%TO.C,SW1*%
X87710000Y-65500000D03*
D15*
X90250000Y-65500000D03*
X85170000Y-65500000D03*
%TD*%
D16*
%TO.C,J5*%
X89830000Y-57250000D03*
D17*
X84750000Y-57250000D03*
%TD*%
D20*
%TO.C,U2*%
X73420000Y-88500000D03*
D21*
X75960000Y-88500000D03*
X78500000Y-88500000D03*
%TD*%
D13*
%TO.C,J2*%
X95750000Y-57790000D03*
D14*
X95750000Y-55250000D03*
%TD*%
M02*
