%TF.GenerationSoftware,KiCad,Pcbnew,8.0.1*%
%TF.CreationDate,2024-05-08T09:38:19-07:00*%
%TF.ProjectId,breadboard-power-supply,62726561-6462-46f6-9172-642d706f7765,rev?*%
%TF.SameCoordinates,Original*%
%TF.FileFunction,Legend,Bot*%
%TF.FilePolarity,Positive*%
%FSLAX46Y46*%
G04 Gerber Fmt 4.6, Leading zero omitted, Abs format (unit mm)*
G04 Created by KiCad (PCBNEW 8.0.1) date 2024-05-08 09:38:19*
%MOMM*%
%LPD*%
G01*
G04 APERTURE LIST*
%ADD10C,0.100000*%
%ADD11C,0.010000*%
G04 APERTURE END LIST*
D10*
X67848609Y-54637217D02*
X67896228Y-54780074D01*
X67896228Y-54780074D02*
X67943847Y-54827693D01*
X67943847Y-54827693D02*
X68039085Y-54875312D01*
X68039085Y-54875312D02*
X68181942Y-54875312D01*
X68181942Y-54875312D02*
X68277180Y-54827693D01*
X68277180Y-54827693D02*
X68324800Y-54780074D01*
X68324800Y-54780074D02*
X68372419Y-54684836D01*
X68372419Y-54684836D02*
X68372419Y-54303884D01*
X68372419Y-54303884D02*
X67372419Y-54303884D01*
X67372419Y-54303884D02*
X67372419Y-54637217D01*
X67372419Y-54637217D02*
X67420038Y-54732455D01*
X67420038Y-54732455D02*
X67467657Y-54780074D01*
X67467657Y-54780074D02*
X67562895Y-54827693D01*
X67562895Y-54827693D02*
X67658133Y-54827693D01*
X67658133Y-54827693D02*
X67753371Y-54780074D01*
X67753371Y-54780074D02*
X67800990Y-54732455D01*
X67800990Y-54732455D02*
X67848609Y-54637217D01*
X67848609Y-54637217D02*
X67848609Y-54303884D01*
X68372419Y-55303884D02*
X67705752Y-55303884D01*
X67896228Y-55303884D02*
X67800990Y-55351503D01*
X67800990Y-55351503D02*
X67753371Y-55399122D01*
X67753371Y-55399122D02*
X67705752Y-55494360D01*
X67705752Y-55494360D02*
X67705752Y-55589598D01*
X68324800Y-56303884D02*
X68372419Y-56208646D01*
X68372419Y-56208646D02*
X68372419Y-56018170D01*
X68372419Y-56018170D02*
X68324800Y-55922932D01*
X68324800Y-55922932D02*
X68229561Y-55875313D01*
X68229561Y-55875313D02*
X67848609Y-55875313D01*
X67848609Y-55875313D02*
X67753371Y-55922932D01*
X67753371Y-55922932D02*
X67705752Y-56018170D01*
X67705752Y-56018170D02*
X67705752Y-56208646D01*
X67705752Y-56208646D02*
X67753371Y-56303884D01*
X67753371Y-56303884D02*
X67848609Y-56351503D01*
X67848609Y-56351503D02*
X67943847Y-56351503D01*
X67943847Y-56351503D02*
X68039085Y-55875313D01*
X68372419Y-57208646D02*
X67848609Y-57208646D01*
X67848609Y-57208646D02*
X67753371Y-57161027D01*
X67753371Y-57161027D02*
X67705752Y-57065789D01*
X67705752Y-57065789D02*
X67705752Y-56875313D01*
X67705752Y-56875313D02*
X67753371Y-56780075D01*
X68324800Y-57208646D02*
X68372419Y-57113408D01*
X68372419Y-57113408D02*
X68372419Y-56875313D01*
X68372419Y-56875313D02*
X68324800Y-56780075D01*
X68324800Y-56780075D02*
X68229561Y-56732456D01*
X68229561Y-56732456D02*
X68134323Y-56732456D01*
X68134323Y-56732456D02*
X68039085Y-56780075D01*
X68039085Y-56780075D02*
X67991466Y-56875313D01*
X67991466Y-56875313D02*
X67991466Y-57113408D01*
X67991466Y-57113408D02*
X67943847Y-57208646D01*
X68372419Y-58113408D02*
X67372419Y-58113408D01*
X68324800Y-58113408D02*
X68372419Y-58018170D01*
X68372419Y-58018170D02*
X68372419Y-57827694D01*
X68372419Y-57827694D02*
X68324800Y-57732456D01*
X68324800Y-57732456D02*
X68277180Y-57684837D01*
X68277180Y-57684837D02*
X68181942Y-57637218D01*
X68181942Y-57637218D02*
X67896228Y-57637218D01*
X67896228Y-57637218D02*
X67800990Y-57684837D01*
X67800990Y-57684837D02*
X67753371Y-57732456D01*
X67753371Y-57732456D02*
X67705752Y-57827694D01*
X67705752Y-57827694D02*
X67705752Y-58018170D01*
X67705752Y-58018170D02*
X67753371Y-58113408D01*
X68372419Y-58589599D02*
X67372419Y-58589599D01*
X67753371Y-58589599D02*
X67705752Y-58684837D01*
X67705752Y-58684837D02*
X67705752Y-58875313D01*
X67705752Y-58875313D02*
X67753371Y-58970551D01*
X67753371Y-58970551D02*
X67800990Y-59018170D01*
X67800990Y-59018170D02*
X67896228Y-59065789D01*
X67896228Y-59065789D02*
X68181942Y-59065789D01*
X68181942Y-59065789D02*
X68277180Y-59018170D01*
X68277180Y-59018170D02*
X68324800Y-58970551D01*
X68324800Y-58970551D02*
X68372419Y-58875313D01*
X68372419Y-58875313D02*
X68372419Y-58684837D01*
X68372419Y-58684837D02*
X68324800Y-58589599D01*
X68372419Y-59637218D02*
X68324800Y-59541980D01*
X68324800Y-59541980D02*
X68277180Y-59494361D01*
X68277180Y-59494361D02*
X68181942Y-59446742D01*
X68181942Y-59446742D02*
X67896228Y-59446742D01*
X67896228Y-59446742D02*
X67800990Y-59494361D01*
X67800990Y-59494361D02*
X67753371Y-59541980D01*
X67753371Y-59541980D02*
X67705752Y-59637218D01*
X67705752Y-59637218D02*
X67705752Y-59780075D01*
X67705752Y-59780075D02*
X67753371Y-59875313D01*
X67753371Y-59875313D02*
X67800990Y-59922932D01*
X67800990Y-59922932D02*
X67896228Y-59970551D01*
X67896228Y-59970551D02*
X68181942Y-59970551D01*
X68181942Y-59970551D02*
X68277180Y-59922932D01*
X68277180Y-59922932D02*
X68324800Y-59875313D01*
X68324800Y-59875313D02*
X68372419Y-59780075D01*
X68372419Y-59780075D02*
X68372419Y-59637218D01*
X68372419Y-60827694D02*
X67848609Y-60827694D01*
X67848609Y-60827694D02*
X67753371Y-60780075D01*
X67753371Y-60780075D02*
X67705752Y-60684837D01*
X67705752Y-60684837D02*
X67705752Y-60494361D01*
X67705752Y-60494361D02*
X67753371Y-60399123D01*
X68324800Y-60827694D02*
X68372419Y-60732456D01*
X68372419Y-60732456D02*
X68372419Y-60494361D01*
X68372419Y-60494361D02*
X68324800Y-60399123D01*
X68324800Y-60399123D02*
X68229561Y-60351504D01*
X68229561Y-60351504D02*
X68134323Y-60351504D01*
X68134323Y-60351504D02*
X68039085Y-60399123D01*
X68039085Y-60399123D02*
X67991466Y-60494361D01*
X67991466Y-60494361D02*
X67991466Y-60732456D01*
X67991466Y-60732456D02*
X67943847Y-60827694D01*
X68372419Y-61303885D02*
X67705752Y-61303885D01*
X67896228Y-61303885D02*
X67800990Y-61351504D01*
X67800990Y-61351504D02*
X67753371Y-61399123D01*
X67753371Y-61399123D02*
X67705752Y-61494361D01*
X67705752Y-61494361D02*
X67705752Y-61589599D01*
X68372419Y-62351504D02*
X67372419Y-62351504D01*
X68324800Y-62351504D02*
X68372419Y-62256266D01*
X68372419Y-62256266D02*
X68372419Y-62065790D01*
X68372419Y-62065790D02*
X68324800Y-61970552D01*
X68324800Y-61970552D02*
X68277180Y-61922933D01*
X68277180Y-61922933D02*
X68181942Y-61875314D01*
X68181942Y-61875314D02*
X67896228Y-61875314D01*
X67896228Y-61875314D02*
X67800990Y-61922933D01*
X67800990Y-61922933D02*
X67753371Y-61970552D01*
X67753371Y-61970552D02*
X67705752Y-62065790D01*
X67705752Y-62065790D02*
X67705752Y-62256266D01*
X67705752Y-62256266D02*
X67753371Y-62351504D01*
X67705752Y-63589600D02*
X68705752Y-63589600D01*
X67753371Y-63589600D02*
X67705752Y-63684838D01*
X67705752Y-63684838D02*
X67705752Y-63875314D01*
X67705752Y-63875314D02*
X67753371Y-63970552D01*
X67753371Y-63970552D02*
X67800990Y-64018171D01*
X67800990Y-64018171D02*
X67896228Y-64065790D01*
X67896228Y-64065790D02*
X68181942Y-64065790D01*
X68181942Y-64065790D02*
X68277180Y-64018171D01*
X68277180Y-64018171D02*
X68324800Y-63970552D01*
X68324800Y-63970552D02*
X68372419Y-63875314D01*
X68372419Y-63875314D02*
X68372419Y-63684838D01*
X68372419Y-63684838D02*
X68324800Y-63589600D01*
X68372419Y-64637219D02*
X68324800Y-64541981D01*
X68324800Y-64541981D02*
X68277180Y-64494362D01*
X68277180Y-64494362D02*
X68181942Y-64446743D01*
X68181942Y-64446743D02*
X67896228Y-64446743D01*
X67896228Y-64446743D02*
X67800990Y-64494362D01*
X67800990Y-64494362D02*
X67753371Y-64541981D01*
X67753371Y-64541981D02*
X67705752Y-64637219D01*
X67705752Y-64637219D02*
X67705752Y-64780076D01*
X67705752Y-64780076D02*
X67753371Y-64875314D01*
X67753371Y-64875314D02*
X67800990Y-64922933D01*
X67800990Y-64922933D02*
X67896228Y-64970552D01*
X67896228Y-64970552D02*
X68181942Y-64970552D01*
X68181942Y-64970552D02*
X68277180Y-64922933D01*
X68277180Y-64922933D02*
X68324800Y-64875314D01*
X68324800Y-64875314D02*
X68372419Y-64780076D01*
X68372419Y-64780076D02*
X68372419Y-64637219D01*
X67705752Y-65303886D02*
X68372419Y-65494362D01*
X68372419Y-65494362D02*
X67896228Y-65684838D01*
X67896228Y-65684838D02*
X68372419Y-65875314D01*
X68372419Y-65875314D02*
X67705752Y-66065790D01*
X68324800Y-66827695D02*
X68372419Y-66732457D01*
X68372419Y-66732457D02*
X68372419Y-66541981D01*
X68372419Y-66541981D02*
X68324800Y-66446743D01*
X68324800Y-66446743D02*
X68229561Y-66399124D01*
X68229561Y-66399124D02*
X67848609Y-66399124D01*
X67848609Y-66399124D02*
X67753371Y-66446743D01*
X67753371Y-66446743D02*
X67705752Y-66541981D01*
X67705752Y-66541981D02*
X67705752Y-66732457D01*
X67705752Y-66732457D02*
X67753371Y-66827695D01*
X67753371Y-66827695D02*
X67848609Y-66875314D01*
X67848609Y-66875314D02*
X67943847Y-66875314D01*
X67943847Y-66875314D02*
X68039085Y-66399124D01*
X68372419Y-67303886D02*
X67705752Y-67303886D01*
X67896228Y-67303886D02*
X67800990Y-67351505D01*
X67800990Y-67351505D02*
X67753371Y-67399124D01*
X67753371Y-67399124D02*
X67705752Y-67494362D01*
X67705752Y-67494362D02*
X67705752Y-67589600D01*
X68324800Y-68637220D02*
X68372419Y-68732458D01*
X68372419Y-68732458D02*
X68372419Y-68922934D01*
X68372419Y-68922934D02*
X68324800Y-69018172D01*
X68324800Y-69018172D02*
X68229561Y-69065791D01*
X68229561Y-69065791D02*
X68181942Y-69065791D01*
X68181942Y-69065791D02*
X68086704Y-69018172D01*
X68086704Y-69018172D02*
X68039085Y-68922934D01*
X68039085Y-68922934D02*
X68039085Y-68780077D01*
X68039085Y-68780077D02*
X67991466Y-68684839D01*
X67991466Y-68684839D02*
X67896228Y-68637220D01*
X67896228Y-68637220D02*
X67848609Y-68637220D01*
X67848609Y-68637220D02*
X67753371Y-68684839D01*
X67753371Y-68684839D02*
X67705752Y-68780077D01*
X67705752Y-68780077D02*
X67705752Y-68922934D01*
X67705752Y-68922934D02*
X67753371Y-69018172D01*
X67705752Y-69922934D02*
X68372419Y-69922934D01*
X67705752Y-69494363D02*
X68229561Y-69494363D01*
X68229561Y-69494363D02*
X68324800Y-69541982D01*
X68324800Y-69541982D02*
X68372419Y-69637220D01*
X68372419Y-69637220D02*
X68372419Y-69780077D01*
X68372419Y-69780077D02*
X68324800Y-69875315D01*
X68324800Y-69875315D02*
X68277180Y-69922934D01*
X67705752Y-70399125D02*
X68705752Y-70399125D01*
X67753371Y-70399125D02*
X67705752Y-70494363D01*
X67705752Y-70494363D02*
X67705752Y-70684839D01*
X67705752Y-70684839D02*
X67753371Y-70780077D01*
X67753371Y-70780077D02*
X67800990Y-70827696D01*
X67800990Y-70827696D02*
X67896228Y-70875315D01*
X67896228Y-70875315D02*
X68181942Y-70875315D01*
X68181942Y-70875315D02*
X68277180Y-70827696D01*
X68277180Y-70827696D02*
X68324800Y-70780077D01*
X68324800Y-70780077D02*
X68372419Y-70684839D01*
X68372419Y-70684839D02*
X68372419Y-70494363D01*
X68372419Y-70494363D02*
X68324800Y-70399125D01*
X67705752Y-71303887D02*
X68705752Y-71303887D01*
X67753371Y-71303887D02*
X67705752Y-71399125D01*
X67705752Y-71399125D02*
X67705752Y-71589601D01*
X67705752Y-71589601D02*
X67753371Y-71684839D01*
X67753371Y-71684839D02*
X67800990Y-71732458D01*
X67800990Y-71732458D02*
X67896228Y-71780077D01*
X67896228Y-71780077D02*
X68181942Y-71780077D01*
X68181942Y-71780077D02*
X68277180Y-71732458D01*
X68277180Y-71732458D02*
X68324800Y-71684839D01*
X68324800Y-71684839D02*
X68372419Y-71589601D01*
X68372419Y-71589601D02*
X68372419Y-71399125D01*
X68372419Y-71399125D02*
X68324800Y-71303887D01*
X68372419Y-72351506D02*
X68324800Y-72256268D01*
X68324800Y-72256268D02*
X68229561Y-72208649D01*
X68229561Y-72208649D02*
X67372419Y-72208649D01*
X67705752Y-72637221D02*
X68372419Y-72875316D01*
X67705752Y-73113411D02*
X68372419Y-72875316D01*
X68372419Y-72875316D02*
X68610514Y-72780078D01*
X68610514Y-72780078D02*
X68658133Y-72732459D01*
X68658133Y-72732459D02*
X68705752Y-72637221D01*
X73704163Y-98250000D02*
G75*
G02*
X68295837Y-98250000I-2704163J0D01*
G01*
X68295837Y-98250000D02*
G75*
G02*
X73704163Y-98250000I2704163J0D01*
G01*
X72291353Y-97955752D02*
X72053258Y-98622419D01*
X72053258Y-98622419D02*
X71815163Y-97955752D01*
X71243734Y-97622419D02*
X71148496Y-97622419D01*
X71148496Y-97622419D02*
X71053258Y-97670038D01*
X71053258Y-97670038D02*
X71005639Y-97717657D01*
X71005639Y-97717657D02*
X70958020Y-97812895D01*
X70958020Y-97812895D02*
X70910401Y-98003371D01*
X70910401Y-98003371D02*
X70910401Y-98241466D01*
X70910401Y-98241466D02*
X70958020Y-98431942D01*
X70958020Y-98431942D02*
X71005639Y-98527180D01*
X71005639Y-98527180D02*
X71053258Y-98574800D01*
X71053258Y-98574800D02*
X71148496Y-98622419D01*
X71148496Y-98622419D02*
X71243734Y-98622419D01*
X71243734Y-98622419D02*
X71338972Y-98574800D01*
X71338972Y-98574800D02*
X71386591Y-98527180D01*
X71386591Y-98527180D02*
X71434210Y-98431942D01*
X71434210Y-98431942D02*
X71481829Y-98241466D01*
X71481829Y-98241466D02*
X71481829Y-98003371D01*
X71481829Y-98003371D02*
X71434210Y-97812895D01*
X71434210Y-97812895D02*
X71386591Y-97717657D01*
X71386591Y-97717657D02*
X71338972Y-97670038D01*
X71338972Y-97670038D02*
X71243734Y-97622419D01*
X70481829Y-98527180D02*
X70434210Y-98574800D01*
X70434210Y-98574800D02*
X70481829Y-98622419D01*
X70481829Y-98622419D02*
X70529448Y-98574800D01*
X70529448Y-98574800D02*
X70481829Y-98527180D01*
X70481829Y-98527180D02*
X70481829Y-98622419D01*
X69481830Y-98622419D02*
X70053258Y-98622419D01*
X69767544Y-98622419D02*
X69767544Y-97622419D01*
X69767544Y-97622419D02*
X69862782Y-97765276D01*
X69862782Y-97765276D02*
X69958020Y-97860514D01*
X69958020Y-97860514D02*
X70053258Y-97908133D01*
D11*
%TO.C,REF\u002A\u002A*%
X74981264Y-83618873D02*
X74998739Y-83650233D01*
X74999575Y-83686034D01*
X74979082Y-83717472D01*
X74974416Y-83721348D01*
X74964949Y-83726814D01*
X74951267Y-83731021D01*
X74930748Y-83734133D01*
X74900768Y-83736313D01*
X74858704Y-83737724D01*
X74801932Y-83738529D01*
X74727830Y-83738893D01*
X74633773Y-83738978D01*
X74312227Y-83738978D01*
X74290647Y-83712327D01*
X74275877Y-83688614D01*
X74269067Y-83665600D01*
X74274949Y-83644594D01*
X74290647Y-83618873D01*
X74312227Y-83592222D01*
X74959684Y-83592222D01*
X74981264Y-83618873D01*
G36*
X74981264Y-83618873D02*
G01*
X74998739Y-83650233D01*
X74999575Y-83686034D01*
X74979082Y-83717472D01*
X74974416Y-83721348D01*
X74964949Y-83726814D01*
X74951267Y-83731021D01*
X74930748Y-83734133D01*
X74900768Y-83736313D01*
X74858704Y-83737724D01*
X74801932Y-83738529D01*
X74727830Y-83738893D01*
X74633773Y-83738978D01*
X74312227Y-83738978D01*
X74290647Y-83712327D01*
X74275877Y-83688614D01*
X74269067Y-83665600D01*
X74274949Y-83644594D01*
X74290647Y-83618873D01*
X74312227Y-83592222D01*
X74959684Y-83592222D01*
X74981264Y-83618873D01*
G37*
X74721567Y-76452041D02*
X74795789Y-76452299D01*
X74852541Y-76452970D01*
X74894512Y-76454248D01*
X74924389Y-76456327D01*
X74944861Y-76459401D01*
X74958614Y-76463666D01*
X74968337Y-76469316D01*
X74976717Y-76476545D01*
X74998181Y-76508009D01*
X74999947Y-76543174D01*
X74980267Y-76576178D01*
X74974398Y-76581484D01*
X74965314Y-76586934D01*
X74951973Y-76591100D01*
X74931757Y-76594154D01*
X74902049Y-76596268D01*
X74860232Y-76597614D01*
X74803689Y-76598362D01*
X74729802Y-76598686D01*
X74635956Y-76598755D01*
X74560294Y-76598716D01*
X74482385Y-76598461D01*
X74422375Y-76597817D01*
X74377648Y-76596613D01*
X74345585Y-76594676D01*
X74323571Y-76591836D01*
X74308987Y-76587921D01*
X74299218Y-76582758D01*
X74291645Y-76576178D01*
X74272623Y-76546994D01*
X74273463Y-76513863D01*
X74296776Y-76479709D01*
X74324485Y-76452000D01*
X74637537Y-76452000D01*
X74721567Y-76452041D01*
G36*
X74721567Y-76452041D02*
G01*
X74795789Y-76452299D01*
X74852541Y-76452970D01*
X74894512Y-76454248D01*
X74924389Y-76456327D01*
X74944861Y-76459401D01*
X74958614Y-76463666D01*
X74968337Y-76469316D01*
X74976717Y-76476545D01*
X74998181Y-76508009D01*
X74999947Y-76543174D01*
X74980267Y-76576178D01*
X74974398Y-76581484D01*
X74965314Y-76586934D01*
X74951973Y-76591100D01*
X74931757Y-76594154D01*
X74902049Y-76596268D01*
X74860232Y-76597614D01*
X74803689Y-76598362D01*
X74729802Y-76598686D01*
X74635956Y-76598755D01*
X74560294Y-76598716D01*
X74482385Y-76598461D01*
X74422375Y-76597817D01*
X74377648Y-76596613D01*
X74345585Y-76594676D01*
X74323571Y-76591836D01*
X74308987Y-76587921D01*
X74299218Y-76582758D01*
X74291645Y-76576178D01*
X74272623Y-76546994D01*
X74273463Y-76513863D01*
X74296776Y-76479709D01*
X74324485Y-76452000D01*
X74637537Y-76452000D01*
X74721567Y-76452041D01*
G37*
X69534307Y-76695331D02*
X69575450Y-76697540D01*
X69607582Y-76703106D01*
X69638122Y-76713414D01*
X69674489Y-76729852D01*
X69701728Y-76743800D01*
X69787429Y-76802335D01*
X69856617Y-76874381D01*
X69907741Y-76958053D01*
X69939250Y-77051469D01*
X69946225Y-77084566D01*
X69953094Y-77125040D01*
X69954919Y-77158001D01*
X69951947Y-77192302D01*
X69944426Y-77236800D01*
X69932002Y-77288066D01*
X69894112Y-77378566D01*
X69839836Y-77457655D01*
X69771770Y-77523472D01*
X69692511Y-77574160D01*
X69604654Y-77607860D01*
X69510795Y-77622714D01*
X69413530Y-77616864D01*
X69317220Y-77590601D01*
X69228494Y-77545582D01*
X69153419Y-77484627D01*
X69093641Y-77409816D01*
X69050809Y-77323232D01*
X69026571Y-77226957D01*
X69022576Y-77123072D01*
X69032850Y-77045438D01*
X69060053Y-76962687D01*
X69105484Y-76887594D01*
X69171302Y-76815702D01*
X69215567Y-76777154D01*
X69273961Y-76737744D01*
X69334586Y-76712554D01*
X69403865Y-76699139D01*
X69488222Y-76695052D01*
X69534307Y-76695331D01*
G36*
X69534307Y-76695331D02*
G01*
X69575450Y-76697540D01*
X69607582Y-76703106D01*
X69638122Y-76713414D01*
X69674489Y-76729852D01*
X69701728Y-76743800D01*
X69787429Y-76802335D01*
X69856617Y-76874381D01*
X69907741Y-76958053D01*
X69939250Y-77051469D01*
X69946225Y-77084566D01*
X69953094Y-77125040D01*
X69954919Y-77158001D01*
X69951947Y-77192302D01*
X69944426Y-77236800D01*
X69932002Y-77288066D01*
X69894112Y-77378566D01*
X69839836Y-77457655D01*
X69771770Y-77523472D01*
X69692511Y-77574160D01*
X69604654Y-77607860D01*
X69510795Y-77622714D01*
X69413530Y-77616864D01*
X69317220Y-77590601D01*
X69228494Y-77545582D01*
X69153419Y-77484627D01*
X69093641Y-77409816D01*
X69050809Y-77323232D01*
X69026571Y-77226957D01*
X69022576Y-77123072D01*
X69032850Y-77045438D01*
X69060053Y-76962687D01*
X69105484Y-76887594D01*
X69171302Y-76815702D01*
X69215567Y-76777154D01*
X69273961Y-76737744D01*
X69334586Y-76712554D01*
X69403865Y-76699139D01*
X69488222Y-76695052D01*
X69534307Y-76695331D01*
G37*
X74395178Y-83989083D02*
X74396631Y-83990443D01*
X74404992Y-84001646D01*
X74410547Y-84018748D01*
X74413840Y-84045918D01*
X74415418Y-84087322D01*
X74415822Y-84147127D01*
X74415822Y-84286489D01*
X74679589Y-84286489D01*
X74755417Y-84286564D01*
X74822083Y-84286972D01*
X74871867Y-84287954D01*
X74907784Y-84289750D01*
X74932850Y-84292601D01*
X74950081Y-84296747D01*
X74962492Y-84302429D01*
X74973100Y-84309886D01*
X74975906Y-84312176D01*
X74998548Y-84343354D01*
X75000112Y-84377734D01*
X74980267Y-84410666D01*
X74972191Y-84417645D01*
X74961593Y-84423117D01*
X74945749Y-84427137D01*
X74921773Y-84429928D01*
X74886774Y-84431712D01*
X74837864Y-84432711D01*
X74772154Y-84433148D01*
X74686756Y-84433244D01*
X74415822Y-84433244D01*
X74415822Y-84579180D01*
X74415821Y-84590280D01*
X74415596Y-84646798D01*
X74414457Y-84685642D01*
X74411657Y-84711035D01*
X74406450Y-84727196D01*
X74398089Y-84738348D01*
X74385826Y-84748711D01*
X74355138Y-84764559D01*
X74321358Y-84761457D01*
X74288822Y-84735813D01*
X74285105Y-84730871D01*
X74280269Y-84720662D01*
X74276506Y-84705236D01*
X74273683Y-84682114D01*
X74271670Y-84648817D01*
X74270333Y-84602863D01*
X74269542Y-84541772D01*
X74269163Y-84463065D01*
X74269067Y-84364260D01*
X74269068Y-84344233D01*
X74269158Y-84250110D01*
X74269498Y-84175595D01*
X74270239Y-84118189D01*
X74271535Y-84075389D01*
X74273537Y-84044696D01*
X74276396Y-84023609D01*
X74280266Y-84009627D01*
X74285298Y-84000250D01*
X74291645Y-83992978D01*
X74324362Y-83974172D01*
X74361939Y-83972725D01*
X74395178Y-83989083D01*
G36*
X74395178Y-83989083D02*
G01*
X74396631Y-83990443D01*
X74404992Y-84001646D01*
X74410547Y-84018748D01*
X74413840Y-84045918D01*
X74415418Y-84087322D01*
X74415822Y-84147127D01*
X74415822Y-84286489D01*
X74679589Y-84286489D01*
X74755417Y-84286564D01*
X74822083Y-84286972D01*
X74871867Y-84287954D01*
X74907784Y-84289750D01*
X74932850Y-84292601D01*
X74950081Y-84296747D01*
X74962492Y-84302429D01*
X74973100Y-84309886D01*
X74975906Y-84312176D01*
X74998548Y-84343354D01*
X75000112Y-84377734D01*
X74980267Y-84410666D01*
X74972191Y-84417645D01*
X74961593Y-84423117D01*
X74945749Y-84427137D01*
X74921773Y-84429928D01*
X74886774Y-84431712D01*
X74837864Y-84432711D01*
X74772154Y-84433148D01*
X74686756Y-84433244D01*
X74415822Y-84433244D01*
X74415822Y-84579180D01*
X74415821Y-84590280D01*
X74415596Y-84646798D01*
X74414457Y-84685642D01*
X74411657Y-84711035D01*
X74406450Y-84727196D01*
X74398089Y-84738348D01*
X74385826Y-84748711D01*
X74355138Y-84764559D01*
X74321358Y-84761457D01*
X74288822Y-84735813D01*
X74285105Y-84730871D01*
X74280269Y-84720662D01*
X74276506Y-84705236D01*
X74273683Y-84682114D01*
X74271670Y-84648817D01*
X74270333Y-84602863D01*
X74269542Y-84541772D01*
X74269163Y-84463065D01*
X74269067Y-84364260D01*
X74269068Y-84344233D01*
X74269158Y-84250110D01*
X74269498Y-84175595D01*
X74270239Y-84118189D01*
X74271535Y-84075389D01*
X74273537Y-84044696D01*
X74276396Y-84023609D01*
X74280266Y-84009627D01*
X74285298Y-84000250D01*
X74291645Y-83992978D01*
X74324362Y-83974172D01*
X74361939Y-83972725D01*
X74395178Y-83989083D01*
G37*
X74677631Y-84996891D02*
X74794000Y-84997375D01*
X74808175Y-84997443D01*
X74869937Y-84998029D01*
X74913620Y-84999352D01*
X74943001Y-85001897D01*
X74961855Y-85006152D01*
X74973959Y-85012604D01*
X74983089Y-85021738D01*
X75000506Y-85055196D01*
X74997604Y-85090144D01*
X74973100Y-85121047D01*
X74959897Y-85130056D01*
X74941361Y-85137508D01*
X74915333Y-85141876D01*
X74876787Y-85143931D01*
X74820700Y-85144444D01*
X74698045Y-85144444D01*
X74698045Y-85641155D01*
X74832871Y-85641155D01*
X74868662Y-85641228D01*
X74914992Y-85641991D01*
X74945526Y-85644167D01*
X74964557Y-85648464D01*
X74976374Y-85655588D01*
X74985271Y-85666245D01*
X75000341Y-85698496D01*
X74997673Y-85733783D01*
X74973100Y-85764514D01*
X74966845Y-85769169D01*
X74956321Y-85775105D01*
X74942391Y-85779636D01*
X74922317Y-85782952D01*
X74893360Y-85785241D01*
X74852780Y-85786692D01*
X74797840Y-85787495D01*
X74725799Y-85787838D01*
X74633920Y-85787911D01*
X74324485Y-85787911D01*
X74296776Y-85760202D01*
X74274533Y-85728823D01*
X74271844Y-85695594D01*
X74291645Y-85663733D01*
X74301415Y-85655447D01*
X74317307Y-85648035D01*
X74341275Y-85643698D01*
X74378148Y-85641662D01*
X74432756Y-85641155D01*
X74551289Y-85641155D01*
X74551289Y-85144444D01*
X74435776Y-85144444D01*
X74384078Y-85144006D01*
X74349554Y-85142042D01*
X74326978Y-85137526D01*
X74311126Y-85129433D01*
X74296776Y-85116735D01*
X74274533Y-85085357D01*
X74271844Y-85052128D01*
X74291645Y-85020266D01*
X74297835Y-85014634D01*
X74306041Y-85009544D01*
X74317817Y-85005457D01*
X74335276Y-85002279D01*
X74360530Y-84999913D01*
X74395690Y-84998262D01*
X74442869Y-84997231D01*
X74504177Y-84996723D01*
X74581727Y-84996641D01*
X74677631Y-84996891D01*
G36*
X74677631Y-84996891D02*
G01*
X74794000Y-84997375D01*
X74808175Y-84997443D01*
X74869937Y-84998029D01*
X74913620Y-84999352D01*
X74943001Y-85001897D01*
X74961855Y-85006152D01*
X74973959Y-85012604D01*
X74983089Y-85021738D01*
X75000506Y-85055196D01*
X74997604Y-85090144D01*
X74973100Y-85121047D01*
X74959897Y-85130056D01*
X74941361Y-85137508D01*
X74915333Y-85141876D01*
X74876787Y-85143931D01*
X74820700Y-85144444D01*
X74698045Y-85144444D01*
X74698045Y-85641155D01*
X74832871Y-85641155D01*
X74868662Y-85641228D01*
X74914992Y-85641991D01*
X74945526Y-85644167D01*
X74964557Y-85648464D01*
X74976374Y-85655588D01*
X74985271Y-85666245D01*
X75000341Y-85698496D01*
X74997673Y-85733783D01*
X74973100Y-85764514D01*
X74966845Y-85769169D01*
X74956321Y-85775105D01*
X74942391Y-85779636D01*
X74922317Y-85782952D01*
X74893360Y-85785241D01*
X74852780Y-85786692D01*
X74797840Y-85787495D01*
X74725799Y-85787838D01*
X74633920Y-85787911D01*
X74324485Y-85787911D01*
X74296776Y-85760202D01*
X74274533Y-85728823D01*
X74271844Y-85695594D01*
X74291645Y-85663733D01*
X74301415Y-85655447D01*
X74317307Y-85648035D01*
X74341275Y-85643698D01*
X74378148Y-85641662D01*
X74432756Y-85641155D01*
X74551289Y-85641155D01*
X74551289Y-85144444D01*
X74435776Y-85144444D01*
X74384078Y-85144006D01*
X74349554Y-85142042D01*
X74326978Y-85137526D01*
X74311126Y-85129433D01*
X74296776Y-85116735D01*
X74274533Y-85085357D01*
X74271844Y-85052128D01*
X74291645Y-85020266D01*
X74297835Y-85014634D01*
X74306041Y-85009544D01*
X74317817Y-85005457D01*
X74335276Y-85002279D01*
X74360530Y-84999913D01*
X74395690Y-84998262D01*
X74442869Y-84997231D01*
X74504177Y-84996723D01*
X74581727Y-84996641D01*
X74677631Y-84996891D01*
G37*
X74695526Y-80312825D02*
X74774311Y-80313050D01*
X74835021Y-80313668D01*
X74856089Y-80314225D01*
X74880396Y-80314867D01*
X74913175Y-80316837D01*
X74936095Y-80319765D01*
X74951897Y-80323842D01*
X74963319Y-80329257D01*
X74973100Y-80336197D01*
X75002845Y-80359594D01*
X75002251Y-80525286D01*
X75001953Y-80560082D01*
X74998522Y-80658565D01*
X74990839Y-80739527D01*
X74978282Y-80806621D01*
X74960227Y-80863504D01*
X74936052Y-80913831D01*
X74934135Y-80917190D01*
X74897417Y-80975002D01*
X74860451Y-81017356D01*
X74816966Y-81050172D01*
X74760689Y-81079372D01*
X74751073Y-81083654D01*
X74687887Y-81106231D01*
X74632509Y-81113203D01*
X74577483Y-81104601D01*
X74515351Y-81080459D01*
X74513658Y-81079663D01*
X74444236Y-81039212D01*
X74387638Y-80988527D01*
X74343070Y-80925802D01*
X74309741Y-80849226D01*
X74286861Y-80756991D01*
X74273636Y-80647288D01*
X74269275Y-80518309D01*
X74269270Y-80514737D01*
X74269372Y-80470844D01*
X74415822Y-80470844D01*
X74416270Y-80558333D01*
X74418746Y-80625253D01*
X74429998Y-80717651D01*
X74449537Y-80796966D01*
X74476511Y-80858940D01*
X74497240Y-80889880D01*
X74527006Y-80918000D01*
X74569434Y-80941340D01*
X74585400Y-80948467D01*
X74617902Y-80960291D01*
X74642333Y-80962721D01*
X74667061Y-80957108D01*
X74682939Y-80951382D01*
X74742847Y-80918452D01*
X74788600Y-80871114D01*
X74821736Y-80807348D01*
X74843790Y-80725139D01*
X74844292Y-80722345D01*
X74850255Y-80676060D01*
X74854483Y-80619664D01*
X74856089Y-80564726D01*
X74856089Y-80470844D01*
X74415822Y-80470844D01*
X74269372Y-80470844D01*
X74269410Y-80454717D01*
X74270446Y-80412786D01*
X74273040Y-80384672D01*
X74277853Y-80366103D01*
X74285544Y-80352806D01*
X74296776Y-80340509D01*
X74324485Y-80312800D01*
X74633920Y-80312800D01*
X74695526Y-80312825D01*
G36*
X74695526Y-80312825D02*
G01*
X74774311Y-80313050D01*
X74835021Y-80313668D01*
X74856089Y-80314225D01*
X74880396Y-80314867D01*
X74913175Y-80316837D01*
X74936095Y-80319765D01*
X74951897Y-80323842D01*
X74963319Y-80329257D01*
X74973100Y-80336197D01*
X75002845Y-80359594D01*
X75002251Y-80525286D01*
X75001953Y-80560082D01*
X74998522Y-80658565D01*
X74990839Y-80739527D01*
X74978282Y-80806621D01*
X74960227Y-80863504D01*
X74936052Y-80913831D01*
X74934135Y-80917190D01*
X74897417Y-80975002D01*
X74860451Y-81017356D01*
X74816966Y-81050172D01*
X74760689Y-81079372D01*
X74751073Y-81083654D01*
X74687887Y-81106231D01*
X74632509Y-81113203D01*
X74577483Y-81104601D01*
X74515351Y-81080459D01*
X74513658Y-81079663D01*
X74444236Y-81039212D01*
X74387638Y-80988527D01*
X74343070Y-80925802D01*
X74309741Y-80849226D01*
X74286861Y-80756991D01*
X74273636Y-80647288D01*
X74269275Y-80518309D01*
X74269270Y-80514737D01*
X74269372Y-80470844D01*
X74415822Y-80470844D01*
X74416270Y-80558333D01*
X74418746Y-80625253D01*
X74429998Y-80717651D01*
X74449537Y-80796966D01*
X74476511Y-80858940D01*
X74497240Y-80889880D01*
X74527006Y-80918000D01*
X74569434Y-80941340D01*
X74585400Y-80948467D01*
X74617902Y-80960291D01*
X74642333Y-80962721D01*
X74667061Y-80957108D01*
X74682939Y-80951382D01*
X74742847Y-80918452D01*
X74788600Y-80871114D01*
X74821736Y-80807348D01*
X74843790Y-80725139D01*
X74844292Y-80722345D01*
X74850255Y-80676060D01*
X74854483Y-80619664D01*
X74856089Y-80564726D01*
X74856089Y-80470844D01*
X74415822Y-80470844D01*
X74269372Y-80470844D01*
X74269410Y-80454717D01*
X74270446Y-80412786D01*
X74273040Y-80384672D01*
X74277853Y-80366103D01*
X74285544Y-80352806D01*
X74296776Y-80340509D01*
X74324485Y-80312800D01*
X74633920Y-80312800D01*
X74695526Y-80312825D01*
G37*
X74635956Y-73223378D02*
X74711617Y-73223417D01*
X74789526Y-73223672D01*
X74849536Y-73224316D01*
X74894264Y-73225520D01*
X74926326Y-73227457D01*
X74948340Y-73230297D01*
X74962924Y-73234212D01*
X74972694Y-73239374D01*
X74980267Y-73245955D01*
X74986501Y-73252923D01*
X74993801Y-73265921D01*
X74998554Y-73285069D01*
X75001292Y-73314472D01*
X75002545Y-73358238D01*
X75002845Y-73420472D01*
X75002469Y-73469418D01*
X74998041Y-73576278D01*
X74987953Y-73665506D01*
X74971365Y-73740304D01*
X74947435Y-73803875D01*
X74915321Y-73859421D01*
X74874182Y-73910146D01*
X74868330Y-73916134D01*
X74819821Y-73953001D01*
X74759013Y-73984101D01*
X74694769Y-74005583D01*
X74635956Y-74013600D01*
X74614739Y-74012321D01*
X74557323Y-74000009D01*
X74497413Y-73977480D01*
X74443363Y-73948250D01*
X74403532Y-73915833D01*
X74386510Y-73896292D01*
X74347322Y-73841580D01*
X74317193Y-73781277D01*
X74295232Y-73712081D01*
X74280550Y-73630689D01*
X74272259Y-73533800D01*
X74270148Y-73446333D01*
X74415808Y-73446333D01*
X74415817Y-73449361D01*
X74417782Y-73500481D01*
X74422507Y-73560584D01*
X74429035Y-73617292D01*
X74438331Y-73667250D01*
X74464600Y-73742002D01*
X74503899Y-73799511D01*
X74556933Y-73841012D01*
X74608200Y-73862229D01*
X74656026Y-73863647D01*
X74706961Y-73845365D01*
X74752878Y-73815695D01*
X74795287Y-73768998D01*
X74825090Y-73707608D01*
X74844226Y-73628462D01*
X74844464Y-73626972D01*
X74850256Y-73578001D01*
X74854396Y-73519307D01*
X74856004Y-73463266D01*
X74856089Y-73370133D01*
X74415822Y-73370133D01*
X74415808Y-73446333D01*
X74270148Y-73446333D01*
X74269467Y-73418111D01*
X74269066Y-73378629D01*
X74268653Y-73332918D01*
X74270457Y-73297117D01*
X74276739Y-73270026D01*
X74289759Y-73250444D01*
X74311778Y-73237170D01*
X74345055Y-73229002D01*
X74391851Y-73224740D01*
X74415822Y-73224143D01*
X74454427Y-73223183D01*
X74535041Y-73223130D01*
X74635956Y-73223378D01*
G36*
X74635956Y-73223378D02*
G01*
X74711617Y-73223417D01*
X74789526Y-73223672D01*
X74849536Y-73224316D01*
X74894264Y-73225520D01*
X74926326Y-73227457D01*
X74948340Y-73230297D01*
X74962924Y-73234212D01*
X74972694Y-73239374D01*
X74980267Y-73245955D01*
X74986501Y-73252923D01*
X74993801Y-73265921D01*
X74998554Y-73285069D01*
X75001292Y-73314472D01*
X75002545Y-73358238D01*
X75002845Y-73420472D01*
X75002469Y-73469418D01*
X74998041Y-73576278D01*
X74987953Y-73665506D01*
X74971365Y-73740304D01*
X74947435Y-73803875D01*
X74915321Y-73859421D01*
X74874182Y-73910146D01*
X74868330Y-73916134D01*
X74819821Y-73953001D01*
X74759013Y-73984101D01*
X74694769Y-74005583D01*
X74635956Y-74013600D01*
X74614739Y-74012321D01*
X74557323Y-74000009D01*
X74497413Y-73977480D01*
X74443363Y-73948250D01*
X74403532Y-73915833D01*
X74386510Y-73896292D01*
X74347322Y-73841580D01*
X74317193Y-73781277D01*
X74295232Y-73712081D01*
X74280550Y-73630689D01*
X74272259Y-73533800D01*
X74270148Y-73446333D01*
X74415808Y-73446333D01*
X74415817Y-73449361D01*
X74417782Y-73500481D01*
X74422507Y-73560584D01*
X74429035Y-73617292D01*
X74438331Y-73667250D01*
X74464600Y-73742002D01*
X74503899Y-73799511D01*
X74556933Y-73841012D01*
X74608200Y-73862229D01*
X74656026Y-73863647D01*
X74706961Y-73845365D01*
X74752878Y-73815695D01*
X74795287Y-73768998D01*
X74825090Y-73707608D01*
X74844226Y-73628462D01*
X74844464Y-73626972D01*
X74850256Y-73578001D01*
X74854396Y-73519307D01*
X74856004Y-73463266D01*
X74856089Y-73370133D01*
X74415822Y-73370133D01*
X74415808Y-73446333D01*
X74270148Y-73446333D01*
X74269467Y-73418111D01*
X74269066Y-73378629D01*
X74268653Y-73332918D01*
X74270457Y-73297117D01*
X74276739Y-73270026D01*
X74289759Y-73250444D01*
X74311778Y-73237170D01*
X74345055Y-73229002D01*
X74391851Y-73224740D01*
X74415822Y-73224143D01*
X74454427Y-73223183D01*
X74535041Y-73223130D01*
X74635956Y-73223378D01*
G37*
X74694486Y-78111489D02*
X74773573Y-78111708D01*
X74834516Y-78112317D01*
X74880062Y-78113508D01*
X74912963Y-78115471D01*
X74935968Y-78118397D01*
X74951826Y-78122477D01*
X74963286Y-78127903D01*
X74973100Y-78134864D01*
X74997493Y-78165292D01*
X75000372Y-78200235D01*
X74981282Y-78237216D01*
X74977807Y-78241400D01*
X74969279Y-78249576D01*
X74957728Y-78255636D01*
X74939896Y-78260019D01*
X74912524Y-78263161D01*
X74872354Y-78265498D01*
X74816128Y-78267469D01*
X74740589Y-78269511D01*
X74521458Y-78275155D01*
X74762099Y-78540444D01*
X74828875Y-78614278D01*
X74886991Y-78679458D01*
X74931949Y-78731652D01*
X74964871Y-78772727D01*
X74986879Y-78804545D01*
X74999094Y-78828974D01*
X75002639Y-78847876D01*
X74998636Y-78863117D01*
X74988207Y-78876561D01*
X74972474Y-78890073D01*
X74963991Y-78896318D01*
X74953413Y-78901950D01*
X74939255Y-78906161D01*
X74918803Y-78909113D01*
X74889342Y-78910968D01*
X74848161Y-78911887D01*
X74792544Y-78912032D01*
X74719779Y-78911565D01*
X74627151Y-78910648D01*
X74312199Y-78907333D01*
X74290633Y-78880682D01*
X74274441Y-78854617D01*
X74271670Y-78821759D01*
X74290623Y-78787228D01*
X74294208Y-78782916D01*
X74302737Y-78774784D01*
X74314329Y-78768755D01*
X74332235Y-78764394D01*
X74359706Y-78761266D01*
X74399994Y-78758937D01*
X74456351Y-78756971D01*
X74532029Y-78754933D01*
X74751878Y-78749289D01*
X74588084Y-78568666D01*
X74509451Y-78481928D01*
X74441058Y-78406157D01*
X74385708Y-78344020D01*
X74342338Y-78293922D01*
X74309881Y-78254265D01*
X74287273Y-78223452D01*
X74273448Y-78199886D01*
X74267343Y-78181970D01*
X74267892Y-78168107D01*
X74274029Y-78156699D01*
X74284691Y-78146150D01*
X74298811Y-78134864D01*
X74304772Y-78130411D01*
X74315268Y-78124412D01*
X74329093Y-78119833D01*
X74348998Y-78116481D01*
X74377732Y-78114167D01*
X74418045Y-78112699D01*
X74472687Y-78111887D01*
X74544407Y-78111540D01*
X74635956Y-78111466D01*
X74694486Y-78111489D01*
G36*
X74694486Y-78111489D02*
G01*
X74773573Y-78111708D01*
X74834516Y-78112317D01*
X74880062Y-78113508D01*
X74912963Y-78115471D01*
X74935968Y-78118397D01*
X74951826Y-78122477D01*
X74963286Y-78127903D01*
X74973100Y-78134864D01*
X74997493Y-78165292D01*
X75000372Y-78200235D01*
X74981282Y-78237216D01*
X74977807Y-78241400D01*
X74969279Y-78249576D01*
X74957728Y-78255636D01*
X74939896Y-78260019D01*
X74912524Y-78263161D01*
X74872354Y-78265498D01*
X74816128Y-78267469D01*
X74740589Y-78269511D01*
X74521458Y-78275155D01*
X74762099Y-78540444D01*
X74828875Y-78614278D01*
X74886991Y-78679458D01*
X74931949Y-78731652D01*
X74964871Y-78772727D01*
X74986879Y-78804545D01*
X74999094Y-78828974D01*
X75002639Y-78847876D01*
X74998636Y-78863117D01*
X74988207Y-78876561D01*
X74972474Y-78890073D01*
X74963991Y-78896318D01*
X74953413Y-78901950D01*
X74939255Y-78906161D01*
X74918803Y-78909113D01*
X74889342Y-78910968D01*
X74848161Y-78911887D01*
X74792544Y-78912032D01*
X74719779Y-78911565D01*
X74627151Y-78910648D01*
X74312199Y-78907333D01*
X74290633Y-78880682D01*
X74274441Y-78854617D01*
X74271670Y-78821759D01*
X74290623Y-78787228D01*
X74294208Y-78782916D01*
X74302737Y-78774784D01*
X74314329Y-78768755D01*
X74332235Y-78764394D01*
X74359706Y-78761266D01*
X74399994Y-78758937D01*
X74456351Y-78756971D01*
X74532029Y-78754933D01*
X74751878Y-78749289D01*
X74588084Y-78568666D01*
X74509451Y-78481928D01*
X74441058Y-78406157D01*
X74385708Y-78344020D01*
X74342338Y-78293922D01*
X74309881Y-78254265D01*
X74287273Y-78223452D01*
X74273448Y-78199886D01*
X74267343Y-78181970D01*
X74267892Y-78168107D01*
X74274029Y-78156699D01*
X74284691Y-78146150D01*
X74298811Y-78134864D01*
X74304772Y-78130411D01*
X74315268Y-78124412D01*
X74329093Y-78119833D01*
X74348998Y-78116481D01*
X74377732Y-78114167D01*
X74418045Y-78112699D01*
X74472687Y-78111887D01*
X74544407Y-78111540D01*
X74635956Y-78111466D01*
X74694486Y-78111489D01*
G37*
X74654259Y-76927702D02*
X74705592Y-76940643D01*
X74762118Y-76963806D01*
X74816035Y-76993698D01*
X74859539Y-77026827D01*
X74869887Y-77037023D01*
X74921662Y-77104108D01*
X74961554Y-77184234D01*
X74985956Y-77270444D01*
X74994068Y-77325408D01*
X75000673Y-77418861D01*
X74998586Y-77508642D01*
X74988340Y-77591131D01*
X74970470Y-77662714D01*
X74945508Y-77719772D01*
X74913988Y-77758689D01*
X74912012Y-77760064D01*
X74886786Y-77767152D01*
X74839535Y-77771391D01*
X74770071Y-77772800D01*
X74707838Y-77771940D01*
X74660456Y-77767220D01*
X74628353Y-77755530D01*
X74608800Y-77733761D01*
X74599070Y-77698802D01*
X74596433Y-77647544D01*
X74598161Y-77576877D01*
X74601173Y-77528257D01*
X74609366Y-77478061D01*
X74623419Y-77445567D01*
X74644654Y-77428108D01*
X74674394Y-77423017D01*
X74678936Y-77423123D01*
X74713730Y-77431825D01*
X74737147Y-77455835D01*
X74750347Y-77497100D01*
X74754489Y-77557569D01*
X74754489Y-77626044D01*
X74792841Y-77626044D01*
X74801976Y-77625994D01*
X74819227Y-77623773D01*
X74829521Y-77614506D01*
X74836459Y-77593125D01*
X74843641Y-77554564D01*
X74844575Y-77549090D01*
X74854478Y-77452140D01*
X74851559Y-77362148D01*
X74836829Y-77281240D01*
X74811299Y-77211541D01*
X74775978Y-77155176D01*
X74731879Y-77114271D01*
X74680012Y-77090949D01*
X74621388Y-77087337D01*
X74592494Y-77092855D01*
X74536604Y-77119539D01*
X74490945Y-77165727D01*
X74456108Y-77230709D01*
X74432690Y-77313771D01*
X74428241Y-77338445D01*
X74417742Y-77427774D01*
X74418971Y-77507581D01*
X74431906Y-77585674D01*
X74438696Y-77620817D01*
X74439713Y-77666255D01*
X74427182Y-77697570D01*
X74400395Y-77717723D01*
X74372148Y-77724107D01*
X74340924Y-77714621D01*
X74327499Y-77705292D01*
X74303967Y-77671057D01*
X74286095Y-77618435D01*
X74274599Y-77549919D01*
X74270192Y-77468000D01*
X74274179Y-77370850D01*
X74290494Y-77264843D01*
X74318545Y-77171031D01*
X74357452Y-77092235D01*
X74406334Y-77031281D01*
X74439195Y-77005211D01*
X74488394Y-76975703D01*
X74542252Y-76950432D01*
X74593419Y-76932782D01*
X74634544Y-76926142D01*
X74654259Y-76927702D01*
G36*
X74654259Y-76927702D02*
G01*
X74705592Y-76940643D01*
X74762118Y-76963806D01*
X74816035Y-76993698D01*
X74859539Y-77026827D01*
X74869887Y-77037023D01*
X74921662Y-77104108D01*
X74961554Y-77184234D01*
X74985956Y-77270444D01*
X74994068Y-77325408D01*
X75000673Y-77418861D01*
X74998586Y-77508642D01*
X74988340Y-77591131D01*
X74970470Y-77662714D01*
X74945508Y-77719772D01*
X74913988Y-77758689D01*
X74912012Y-77760064D01*
X74886786Y-77767152D01*
X74839535Y-77771391D01*
X74770071Y-77772800D01*
X74707838Y-77771940D01*
X74660456Y-77767220D01*
X74628353Y-77755530D01*
X74608800Y-77733761D01*
X74599070Y-77698802D01*
X74596433Y-77647544D01*
X74598161Y-77576877D01*
X74601173Y-77528257D01*
X74609366Y-77478061D01*
X74623419Y-77445567D01*
X74644654Y-77428108D01*
X74674394Y-77423017D01*
X74678936Y-77423123D01*
X74713730Y-77431825D01*
X74737147Y-77455835D01*
X74750347Y-77497100D01*
X74754489Y-77557569D01*
X74754489Y-77626044D01*
X74792841Y-77626044D01*
X74801976Y-77625994D01*
X74819227Y-77623773D01*
X74829521Y-77614506D01*
X74836459Y-77593125D01*
X74843641Y-77554564D01*
X74844575Y-77549090D01*
X74854478Y-77452140D01*
X74851559Y-77362148D01*
X74836829Y-77281240D01*
X74811299Y-77211541D01*
X74775978Y-77155176D01*
X74731879Y-77114271D01*
X74680012Y-77090949D01*
X74621388Y-77087337D01*
X74592494Y-77092855D01*
X74536604Y-77119539D01*
X74490945Y-77165727D01*
X74456108Y-77230709D01*
X74432690Y-77313771D01*
X74428241Y-77338445D01*
X74417742Y-77427774D01*
X74418971Y-77507581D01*
X74431906Y-77585674D01*
X74438696Y-77620817D01*
X74439713Y-77666255D01*
X74427182Y-77697570D01*
X74400395Y-77717723D01*
X74372148Y-77724107D01*
X74340924Y-77714621D01*
X74327499Y-77705292D01*
X74303967Y-77671057D01*
X74286095Y-77618435D01*
X74274599Y-77549919D01*
X74270192Y-77468000D01*
X74274179Y-77370850D01*
X74290494Y-77264843D01*
X74318545Y-77171031D01*
X74357452Y-77092235D01*
X74406334Y-77031281D01*
X74439195Y-77005211D01*
X74488394Y-76975703D01*
X74542252Y-76950432D01*
X74593419Y-76932782D01*
X74634544Y-76926142D01*
X74654259Y-76927702D01*
G37*
X74706911Y-79296829D02*
X74785228Y-79297061D01*
X74845496Y-79297681D01*
X74890393Y-79298874D01*
X74922602Y-79300821D01*
X74944800Y-79303706D01*
X74959669Y-79307712D01*
X74969889Y-79313021D01*
X74978138Y-79319817D01*
X74982795Y-79324332D01*
X74989282Y-79332562D01*
X74994194Y-79343922D01*
X74997749Y-79361190D01*
X75000167Y-79387145D01*
X75001667Y-79424564D01*
X75002467Y-79476227D01*
X75002787Y-79544911D01*
X75002845Y-79633394D01*
X75002838Y-79653069D01*
X75002572Y-79740094D01*
X75001806Y-79807746D01*
X75000392Y-79858701D01*
X74998180Y-79895633D01*
X74995022Y-79921217D01*
X74990769Y-79938129D01*
X74985271Y-79949043D01*
X74975285Y-79959536D01*
X74944168Y-79972797D01*
X74908280Y-79971614D01*
X74876733Y-79955450D01*
X74874457Y-79953261D01*
X74868189Y-79944573D01*
X74863523Y-79931231D01*
X74860227Y-79910248D01*
X74858068Y-79878637D01*
X74856814Y-79833410D01*
X74856231Y-79771580D01*
X74856089Y-79690161D01*
X74856089Y-79443555D01*
X74698045Y-79443555D01*
X74698045Y-79605994D01*
X74697964Y-79641662D01*
X74697167Y-79697432D01*
X74695162Y-79736570D01*
X74691521Y-79763024D01*
X74685812Y-79780741D01*
X74677607Y-79793671D01*
X74674423Y-79797314D01*
X74643448Y-79815722D01*
X74607112Y-79816356D01*
X74573493Y-79798817D01*
X74573424Y-79798755D01*
X74564798Y-79789084D01*
X74558742Y-79775791D01*
X74554811Y-79755083D01*
X74552556Y-79723172D01*
X74551531Y-79676266D01*
X74551289Y-79610576D01*
X74551289Y-79442429D01*
X74486378Y-79445814D01*
X74421467Y-79449200D01*
X74418414Y-79691277D01*
X74418086Y-79716293D01*
X74416606Y-79797913D01*
X74414222Y-79860232D01*
X74410227Y-79905846D01*
X74403913Y-79937348D01*
X74394574Y-79957333D01*
X74381503Y-79968396D01*
X74363992Y-79973131D01*
X74341335Y-79974133D01*
X74338970Y-79974127D01*
X74318939Y-79972973D01*
X74303146Y-79968176D01*
X74291090Y-79957368D01*
X74282267Y-79938183D01*
X74276175Y-79908255D01*
X74272311Y-79865217D01*
X74270174Y-79806701D01*
X74269260Y-79730343D01*
X74269067Y-79633774D01*
X74269067Y-79343594D01*
X74298811Y-79320197D01*
X74305495Y-79315248D01*
X74316066Y-79309404D01*
X74330153Y-79304943D01*
X74350478Y-79301679D01*
X74379765Y-79299426D01*
X74420737Y-79297998D01*
X74476117Y-79297208D01*
X74548628Y-79296871D01*
X74640994Y-79296800D01*
X74706911Y-79296829D01*
G36*
X74706911Y-79296829D02*
G01*
X74785228Y-79297061D01*
X74845496Y-79297681D01*
X74890393Y-79298874D01*
X74922602Y-79300821D01*
X74944800Y-79303706D01*
X74959669Y-79307712D01*
X74969889Y-79313021D01*
X74978138Y-79319817D01*
X74982795Y-79324332D01*
X74989282Y-79332562D01*
X74994194Y-79343922D01*
X74997749Y-79361190D01*
X75000167Y-79387145D01*
X75001667Y-79424564D01*
X75002467Y-79476227D01*
X75002787Y-79544911D01*
X75002845Y-79633394D01*
X75002838Y-79653069D01*
X75002572Y-79740094D01*
X75001806Y-79807746D01*
X75000392Y-79858701D01*
X74998180Y-79895633D01*
X74995022Y-79921217D01*
X74990769Y-79938129D01*
X74985271Y-79949043D01*
X74975285Y-79959536D01*
X74944168Y-79972797D01*
X74908280Y-79971614D01*
X74876733Y-79955450D01*
X74874457Y-79953261D01*
X74868189Y-79944573D01*
X74863523Y-79931231D01*
X74860227Y-79910248D01*
X74858068Y-79878637D01*
X74856814Y-79833410D01*
X74856231Y-79771580D01*
X74856089Y-79690161D01*
X74856089Y-79443555D01*
X74698045Y-79443555D01*
X74698045Y-79605994D01*
X74697964Y-79641662D01*
X74697167Y-79697432D01*
X74695162Y-79736570D01*
X74691521Y-79763024D01*
X74685812Y-79780741D01*
X74677607Y-79793671D01*
X74674423Y-79797314D01*
X74643448Y-79815722D01*
X74607112Y-79816356D01*
X74573493Y-79798817D01*
X74573424Y-79798755D01*
X74564798Y-79789084D01*
X74558742Y-79775791D01*
X74554811Y-79755083D01*
X74552556Y-79723172D01*
X74551531Y-79676266D01*
X74551289Y-79610576D01*
X74551289Y-79442429D01*
X74486378Y-79445814D01*
X74421467Y-79449200D01*
X74418414Y-79691277D01*
X74418086Y-79716293D01*
X74416606Y-79797913D01*
X74414222Y-79860232D01*
X74410227Y-79905846D01*
X74403913Y-79937348D01*
X74394574Y-79957333D01*
X74381503Y-79968396D01*
X74363992Y-79973131D01*
X74341335Y-79974133D01*
X74338970Y-79974127D01*
X74318939Y-79972973D01*
X74303146Y-79968176D01*
X74291090Y-79957368D01*
X74282267Y-79938183D01*
X74276175Y-79908255D01*
X74272311Y-79865217D01*
X74270174Y-79806701D01*
X74269260Y-79730343D01*
X74269067Y-79633774D01*
X74269067Y-79343594D01*
X74298811Y-79320197D01*
X74305495Y-79315248D01*
X74316066Y-79309404D01*
X74330153Y-79304943D01*
X74350478Y-79301679D01*
X74379765Y-79299426D01*
X74420737Y-79297998D01*
X74476117Y-79297208D01*
X74548628Y-79296871D01*
X74640994Y-79296800D01*
X74706911Y-79296829D01*
G37*
X74710713Y-74352303D02*
X74788889Y-74352552D01*
X74849103Y-74353188D01*
X74893982Y-74354385D01*
X74926152Y-74356316D01*
X74948239Y-74359154D01*
X74962870Y-74363073D01*
X74972670Y-74368245D01*
X74980267Y-74374844D01*
X74983444Y-74378178D01*
X74989554Y-74386700D01*
X74994229Y-74398702D01*
X74997659Y-74416913D01*
X75000036Y-74444060D01*
X75001552Y-74482871D01*
X75002398Y-74536076D01*
X75002765Y-74606402D01*
X75002845Y-74696578D01*
X75002833Y-74738686D01*
X75002651Y-74819833D01*
X75002098Y-74882325D01*
X75000982Y-74928891D01*
X74999113Y-74962259D01*
X74996298Y-74985156D01*
X74992346Y-75000312D01*
X74987066Y-75010454D01*
X74980267Y-75018311D01*
X74958667Y-75033037D01*
X74929467Y-75040889D01*
X74905560Y-75035390D01*
X74878667Y-75018311D01*
X74874059Y-75013332D01*
X74867772Y-75003557D01*
X74863146Y-74989441D01*
X74859930Y-74967946D01*
X74857870Y-74936032D01*
X74856712Y-74890658D01*
X74856202Y-74828787D01*
X74856089Y-74747378D01*
X74856089Y-74499022D01*
X74698045Y-74499022D01*
X74698045Y-74660199D01*
X74697899Y-74696017D01*
X74696176Y-74761641D01*
X74691741Y-74808882D01*
X74683637Y-74840617D01*
X74670906Y-74859723D01*
X74652592Y-74869077D01*
X74627738Y-74871555D01*
X74607482Y-74870758D01*
X74585656Y-74865506D01*
X74570304Y-74852712D01*
X74560309Y-74829372D01*
X74554553Y-74792483D01*
X74551919Y-74739041D01*
X74551289Y-74666042D01*
X74551289Y-74497895D01*
X74486378Y-74501281D01*
X74421467Y-74504666D01*
X74418418Y-74752383D01*
X74417539Y-74814974D01*
X74416095Y-74883435D01*
X74414164Y-74934339D01*
X74411514Y-74970592D01*
X74407910Y-74995099D01*
X74403121Y-75010765D01*
X74396913Y-75020494D01*
X74390510Y-75026509D01*
X74358828Y-75039518D01*
X74323142Y-75035957D01*
X74292084Y-75016182D01*
X74289161Y-75012931D01*
X74282810Y-75003951D01*
X74277957Y-74991847D01*
X74274403Y-74973841D01*
X74271946Y-74947153D01*
X74270385Y-74909003D01*
X74269518Y-74856614D01*
X74269146Y-74787206D01*
X74269067Y-74697999D01*
X74269083Y-74643266D01*
X74269275Y-74566169D01*
X74269860Y-74507223D01*
X74271051Y-74463636D01*
X74273064Y-74432617D01*
X74276112Y-74411375D01*
X74280409Y-74397118D01*
X74286172Y-74387055D01*
X74293612Y-74378394D01*
X74295293Y-74376609D01*
X74302832Y-74369365D01*
X74311850Y-74363723D01*
X74324984Y-74359483D01*
X74344872Y-74356444D01*
X74374151Y-74354406D01*
X74415458Y-74353170D01*
X74471431Y-74352535D01*
X74544707Y-74352300D01*
X74637923Y-74352266D01*
X74710713Y-74352303D01*
G36*
X74710713Y-74352303D02*
G01*
X74788889Y-74352552D01*
X74849103Y-74353188D01*
X74893982Y-74354385D01*
X74926152Y-74356316D01*
X74948239Y-74359154D01*
X74962870Y-74363073D01*
X74972670Y-74368245D01*
X74980267Y-74374844D01*
X74983444Y-74378178D01*
X74989554Y-74386700D01*
X74994229Y-74398702D01*
X74997659Y-74416913D01*
X75000036Y-74444060D01*
X75001552Y-74482871D01*
X75002398Y-74536076D01*
X75002765Y-74606402D01*
X75002845Y-74696578D01*
X75002833Y-74738686D01*
X75002651Y-74819833D01*
X75002098Y-74882325D01*
X75000982Y-74928891D01*
X74999113Y-74962259D01*
X74996298Y-74985156D01*
X74992346Y-75000312D01*
X74987066Y-75010454D01*
X74980267Y-75018311D01*
X74958667Y-75033037D01*
X74929467Y-75040889D01*
X74905560Y-75035390D01*
X74878667Y-75018311D01*
X74874059Y-75013332D01*
X74867772Y-75003557D01*
X74863146Y-74989441D01*
X74859930Y-74967946D01*
X74857870Y-74936032D01*
X74856712Y-74890658D01*
X74856202Y-74828787D01*
X74856089Y-74747378D01*
X74856089Y-74499022D01*
X74698045Y-74499022D01*
X74698045Y-74660199D01*
X74697899Y-74696017D01*
X74696176Y-74761641D01*
X74691741Y-74808882D01*
X74683637Y-74840617D01*
X74670906Y-74859723D01*
X74652592Y-74869077D01*
X74627738Y-74871555D01*
X74607482Y-74870758D01*
X74585656Y-74865506D01*
X74570304Y-74852712D01*
X74560309Y-74829372D01*
X74554553Y-74792483D01*
X74551919Y-74739041D01*
X74551289Y-74666042D01*
X74551289Y-74497895D01*
X74486378Y-74501281D01*
X74421467Y-74504666D01*
X74418418Y-74752383D01*
X74417539Y-74814974D01*
X74416095Y-74883435D01*
X74414164Y-74934339D01*
X74411514Y-74970592D01*
X74407910Y-74995099D01*
X74403121Y-75010765D01*
X74396913Y-75020494D01*
X74390510Y-75026509D01*
X74358828Y-75039518D01*
X74323142Y-75035957D01*
X74292084Y-75016182D01*
X74289161Y-75012931D01*
X74282810Y-75003951D01*
X74277957Y-74991847D01*
X74274403Y-74973841D01*
X74271946Y-74947153D01*
X74270385Y-74909003D01*
X74269518Y-74856614D01*
X74269146Y-74787206D01*
X74269067Y-74697999D01*
X74269083Y-74643266D01*
X74269275Y-74566169D01*
X74269860Y-74507223D01*
X74271051Y-74463636D01*
X74273064Y-74432617D01*
X74276112Y-74411375D01*
X74280409Y-74397118D01*
X74286172Y-74387055D01*
X74293612Y-74378394D01*
X74295293Y-74376609D01*
X74302832Y-74369365D01*
X74311850Y-74363723D01*
X74324984Y-74359483D01*
X74344872Y-74356444D01*
X74374151Y-74354406D01*
X74415458Y-74353170D01*
X74471431Y-74352535D01*
X74544707Y-74352300D01*
X74637923Y-74352266D01*
X74710713Y-74352303D01*
G37*
X74351915Y-82204772D02*
X74386481Y-82217636D01*
X74434826Y-82237395D01*
X74493825Y-82262619D01*
X74560355Y-82291881D01*
X74631291Y-82323750D01*
X74703507Y-82356799D01*
X74773880Y-82389599D01*
X74839285Y-82420720D01*
X74896597Y-82448735D01*
X74942692Y-82472214D01*
X74974446Y-82489728D01*
X74988733Y-82499849D01*
X75002102Y-82534257D01*
X74995741Y-82575954D01*
X74991044Y-82581319D01*
X74968893Y-82597148D01*
X74932132Y-82619350D01*
X74884415Y-82645767D01*
X74829393Y-82674240D01*
X74670150Y-82754014D01*
X74816742Y-82827201D01*
X74836032Y-82836897D01*
X74888380Y-82863875D01*
X74933170Y-82887904D01*
X74966154Y-82906668D01*
X74983089Y-82917854D01*
X74984332Y-82919000D01*
X74999619Y-82947121D01*
X75001302Y-82982183D01*
X74988733Y-83013224D01*
X74985884Y-83015650D01*
X74965259Y-83027910D01*
X74927708Y-83047648D01*
X74875880Y-83073552D01*
X74812423Y-83104315D01*
X74739985Y-83138625D01*
X74661216Y-83175175D01*
X74617093Y-83195415D01*
X74536365Y-83232188D01*
X74472687Y-83260645D01*
X74423752Y-83281669D01*
X74387257Y-83296146D01*
X74360895Y-83304961D01*
X74342361Y-83308996D01*
X74329352Y-83309138D01*
X74319561Y-83306270D01*
X74298678Y-83291613D01*
X74278377Y-83265010D01*
X74278035Y-83264255D01*
X74271034Y-83244665D01*
X74270504Y-83227210D01*
X74278478Y-83210298D01*
X74296989Y-83192337D01*
X74328071Y-83171737D01*
X74373756Y-83146905D01*
X74436078Y-83116250D01*
X74517071Y-83078180D01*
X74548454Y-83063546D01*
X74611638Y-83033797D01*
X74666244Y-83007703D01*
X74709290Y-82986708D01*
X74737793Y-82972261D01*
X74748770Y-82965809D01*
X74748189Y-82964450D01*
X74734242Y-82954458D01*
X74704704Y-82937167D01*
X74663087Y-82914570D01*
X74612903Y-82888662D01*
X74581414Y-82872689D01*
X74526061Y-82843739D01*
X74487044Y-82821251D01*
X74461566Y-82803035D01*
X74446831Y-82786904D01*
X74440042Y-82770670D01*
X74438400Y-82752143D01*
X74438875Y-82741640D01*
X74443082Y-82725524D01*
X74453946Y-82710210D01*
X74474219Y-82693612D01*
X74506654Y-82673643D01*
X74554004Y-82648217D01*
X74619022Y-82615248D01*
X74638277Y-82605515D01*
X74684946Y-82581057D01*
X74721109Y-82560822D01*
X74743497Y-82546689D01*
X74748845Y-82540540D01*
X74745573Y-82539173D01*
X74724664Y-82529798D01*
X74687725Y-82512938D01*
X74637874Y-82490021D01*
X74578226Y-82462480D01*
X74511898Y-82431745D01*
X74454677Y-82405030D01*
X74392688Y-82375407D01*
X74346949Y-82352336D01*
X74314908Y-82334357D01*
X74294014Y-82320010D01*
X74281718Y-82307834D01*
X74275466Y-82296368D01*
X74272574Y-82286958D01*
X74272425Y-82261853D01*
X74287768Y-82234710D01*
X74288753Y-82233410D01*
X74311388Y-82211326D01*
X74333613Y-82200277D01*
X74334253Y-82200231D01*
X74351915Y-82204772D01*
G36*
X74351915Y-82204772D02*
G01*
X74386481Y-82217636D01*
X74434826Y-82237395D01*
X74493825Y-82262619D01*
X74560355Y-82291881D01*
X74631291Y-82323750D01*
X74703507Y-82356799D01*
X74773880Y-82389599D01*
X74839285Y-82420720D01*
X74896597Y-82448735D01*
X74942692Y-82472214D01*
X74974446Y-82489728D01*
X74988733Y-82499849D01*
X75002102Y-82534257D01*
X74995741Y-82575954D01*
X74991044Y-82581319D01*
X74968893Y-82597148D01*
X74932132Y-82619350D01*
X74884415Y-82645767D01*
X74829393Y-82674240D01*
X74670150Y-82754014D01*
X74816742Y-82827201D01*
X74836032Y-82836897D01*
X74888380Y-82863875D01*
X74933170Y-82887904D01*
X74966154Y-82906668D01*
X74983089Y-82917854D01*
X74984332Y-82919000D01*
X74999619Y-82947121D01*
X75001302Y-82982183D01*
X74988733Y-83013224D01*
X74985884Y-83015650D01*
X74965259Y-83027910D01*
X74927708Y-83047648D01*
X74875880Y-83073552D01*
X74812423Y-83104315D01*
X74739985Y-83138625D01*
X74661216Y-83175175D01*
X74617093Y-83195415D01*
X74536365Y-83232188D01*
X74472687Y-83260645D01*
X74423752Y-83281669D01*
X74387257Y-83296146D01*
X74360895Y-83304961D01*
X74342361Y-83308996D01*
X74329352Y-83309138D01*
X74319561Y-83306270D01*
X74298678Y-83291613D01*
X74278377Y-83265010D01*
X74278035Y-83264255D01*
X74271034Y-83244665D01*
X74270504Y-83227210D01*
X74278478Y-83210298D01*
X74296989Y-83192337D01*
X74328071Y-83171737D01*
X74373756Y-83146905D01*
X74436078Y-83116250D01*
X74517071Y-83078180D01*
X74548454Y-83063546D01*
X74611638Y-83033797D01*
X74666244Y-83007703D01*
X74709290Y-82986708D01*
X74737793Y-82972261D01*
X74748770Y-82965809D01*
X74748189Y-82964450D01*
X74734242Y-82954458D01*
X74704704Y-82937167D01*
X74663087Y-82914570D01*
X74612903Y-82888662D01*
X74581414Y-82872689D01*
X74526061Y-82843739D01*
X74487044Y-82821251D01*
X74461566Y-82803035D01*
X74446831Y-82786904D01*
X74440042Y-82770670D01*
X74438400Y-82752143D01*
X74438875Y-82741640D01*
X74443082Y-82725524D01*
X74453946Y-82710210D01*
X74474219Y-82693612D01*
X74506654Y-82673643D01*
X74554004Y-82648217D01*
X74619022Y-82615248D01*
X74638277Y-82605515D01*
X74684946Y-82581057D01*
X74721109Y-82560822D01*
X74743497Y-82546689D01*
X74748845Y-82540540D01*
X74745573Y-82539173D01*
X74724664Y-82529798D01*
X74687725Y-82512938D01*
X74637874Y-82490021D01*
X74578226Y-82462480D01*
X74511898Y-82431745D01*
X74454677Y-82405030D01*
X74392688Y-82375407D01*
X74346949Y-82352336D01*
X74314908Y-82334357D01*
X74294014Y-82320010D01*
X74281718Y-82307834D01*
X74275466Y-82296368D01*
X74272574Y-82286958D01*
X74272425Y-82261853D01*
X74287768Y-82234710D01*
X74288753Y-82233410D01*
X74311388Y-82211326D01*
X74333613Y-82200277D01*
X74334253Y-82200231D01*
X74351915Y-82204772D01*
G37*
X74520232Y-75324048D02*
X74545029Y-75329840D01*
X74566699Y-75344647D01*
X74594049Y-75372620D01*
X74601378Y-75380598D01*
X74622281Y-75404308D01*
X74639251Y-75426702D01*
X74653205Y-75450735D01*
X74665056Y-75479363D01*
X74675720Y-75515540D01*
X74686111Y-75562220D01*
X74697146Y-75622359D01*
X74709738Y-75698910D01*
X74724804Y-75794829D01*
X74727838Y-75813192D01*
X74741458Y-75875522D01*
X74757192Y-75920740D01*
X74774263Y-75947024D01*
X74791897Y-75952553D01*
X74796168Y-75949932D01*
X74811233Y-75932000D01*
X74827867Y-75903874D01*
X74833857Y-75891074D01*
X74841050Y-75869776D01*
X74845827Y-75843390D01*
X74848646Y-75807546D01*
X74849964Y-75757872D01*
X74850237Y-75690000D01*
X74850164Y-75672215D01*
X74849053Y-75604594D01*
X74846828Y-75539655D01*
X74843762Y-75484030D01*
X74840127Y-75444349D01*
X74836059Y-75408838D01*
X74835276Y-75379585D01*
X74839876Y-75360685D01*
X74850551Y-75345571D01*
X74854144Y-75341915D01*
X74885918Y-75325573D01*
X74921572Y-75326893D01*
X74952190Y-75345850D01*
X74963796Y-75366220D01*
X74976491Y-75402204D01*
X74986541Y-75444628D01*
X74987140Y-75448078D01*
X74992356Y-75490748D01*
X74996730Y-75548134D01*
X74999818Y-75613151D01*
X75001177Y-75678711D01*
X75001218Y-75694943D01*
X74998741Y-75793256D01*
X74990735Y-75873308D01*
X74976203Y-75938487D01*
X74954149Y-75992183D01*
X74923576Y-76037784D01*
X74883486Y-76078677D01*
X74857259Y-76098798D01*
X74827712Y-76110424D01*
X74787995Y-76113333D01*
X74776026Y-76113192D01*
X74743345Y-76109319D01*
X74716819Y-76096935D01*
X74685971Y-76071770D01*
X74663831Y-76050558D01*
X74641285Y-76024162D01*
X74622917Y-75994445D01*
X74607661Y-75958215D01*
X74594449Y-75912283D01*
X74582214Y-75853456D01*
X74569889Y-75778544D01*
X74556406Y-75684355D01*
X74549396Y-75639043D01*
X74534837Y-75571089D01*
X74518337Y-75521953D01*
X74500439Y-75492386D01*
X74481685Y-75483136D01*
X74462615Y-75494952D01*
X74443771Y-75528584D01*
X74442557Y-75531630D01*
X74430479Y-75577989D01*
X74422279Y-75640639D01*
X74418119Y-75714073D01*
X74418161Y-75792783D01*
X74422569Y-75871261D01*
X74431505Y-75944000D01*
X74432154Y-75947927D01*
X74439861Y-75996743D01*
X74443473Y-76028995D01*
X74442876Y-76049992D01*
X74437954Y-76065046D01*
X74428596Y-76079466D01*
X74427725Y-76080636D01*
X74397351Y-76105153D01*
X74361850Y-76109946D01*
X74327269Y-76094140D01*
X74322813Y-76089594D01*
X74307673Y-76059980D01*
X74294550Y-76012998D01*
X74283750Y-75952694D01*
X74275581Y-75883112D01*
X74270351Y-75808297D01*
X74268367Y-75732294D01*
X74269936Y-75659147D01*
X74275366Y-75592900D01*
X74284964Y-75537600D01*
X74299825Y-75486717D01*
X74332958Y-75415405D01*
X74375640Y-75364248D01*
X74427705Y-75333425D01*
X74488983Y-75323111D01*
X74520232Y-75324048D01*
G36*
X74520232Y-75324048D02*
G01*
X74545029Y-75329840D01*
X74566699Y-75344647D01*
X74594049Y-75372620D01*
X74601378Y-75380598D01*
X74622281Y-75404308D01*
X74639251Y-75426702D01*
X74653205Y-75450735D01*
X74665056Y-75479363D01*
X74675720Y-75515540D01*
X74686111Y-75562220D01*
X74697146Y-75622359D01*
X74709738Y-75698910D01*
X74724804Y-75794829D01*
X74727838Y-75813192D01*
X74741458Y-75875522D01*
X74757192Y-75920740D01*
X74774263Y-75947024D01*
X74791897Y-75952553D01*
X74796168Y-75949932D01*
X74811233Y-75932000D01*
X74827867Y-75903874D01*
X74833857Y-75891074D01*
X74841050Y-75869776D01*
X74845827Y-75843390D01*
X74848646Y-75807546D01*
X74849964Y-75757872D01*
X74850237Y-75690000D01*
X74850164Y-75672215D01*
X74849053Y-75604594D01*
X74846828Y-75539655D01*
X74843762Y-75484030D01*
X74840127Y-75444349D01*
X74836059Y-75408838D01*
X74835276Y-75379585D01*
X74839876Y-75360685D01*
X74850551Y-75345571D01*
X74854144Y-75341915D01*
X74885918Y-75325573D01*
X74921572Y-75326893D01*
X74952190Y-75345850D01*
X74963796Y-75366220D01*
X74976491Y-75402204D01*
X74986541Y-75444628D01*
X74987140Y-75448078D01*
X74992356Y-75490748D01*
X74996730Y-75548134D01*
X74999818Y-75613151D01*
X75001177Y-75678711D01*
X75001218Y-75694943D01*
X74998741Y-75793256D01*
X74990735Y-75873308D01*
X74976203Y-75938487D01*
X74954149Y-75992183D01*
X74923576Y-76037784D01*
X74883486Y-76078677D01*
X74857259Y-76098798D01*
X74827712Y-76110424D01*
X74787995Y-76113333D01*
X74776026Y-76113192D01*
X74743345Y-76109319D01*
X74716819Y-76096935D01*
X74685971Y-76071770D01*
X74663831Y-76050558D01*
X74641285Y-76024162D01*
X74622917Y-75994445D01*
X74607661Y-75958215D01*
X74594449Y-75912283D01*
X74582214Y-75853456D01*
X74569889Y-75778544D01*
X74556406Y-75684355D01*
X74549396Y-75639043D01*
X74534837Y-75571089D01*
X74518337Y-75521953D01*
X74500439Y-75492386D01*
X74481685Y-75483136D01*
X74462615Y-75494952D01*
X74443771Y-75528584D01*
X74442557Y-75531630D01*
X74430479Y-75577989D01*
X74422279Y-75640639D01*
X74418119Y-75714073D01*
X74418161Y-75792783D01*
X74422569Y-75871261D01*
X74431505Y-75944000D01*
X74432154Y-75947927D01*
X74439861Y-75996743D01*
X74443473Y-76028995D01*
X74442876Y-76049992D01*
X74437954Y-76065046D01*
X74428596Y-76079466D01*
X74427725Y-76080636D01*
X74397351Y-76105153D01*
X74361850Y-76109946D01*
X74327269Y-76094140D01*
X74322813Y-76089594D01*
X74307673Y-76059980D01*
X74294550Y-76012998D01*
X74283750Y-75952694D01*
X74275581Y-75883112D01*
X74270351Y-75808297D01*
X74268367Y-75732294D01*
X74269936Y-75659147D01*
X74275366Y-75592900D01*
X74284964Y-75537600D01*
X74299825Y-75486717D01*
X74332958Y-75415405D01*
X74375640Y-75364248D01*
X74427705Y-75333425D01*
X74488983Y-75323111D01*
X74520232Y-75324048D01*
G37*
X71821325Y-78182449D02*
X72022581Y-78199209D01*
X72217128Y-78232708D01*
X72400756Y-78282956D01*
X72518053Y-78326810D01*
X72680951Y-78404652D01*
X72834866Y-78498172D01*
X72976671Y-78605178D01*
X73103239Y-78723481D01*
X73211441Y-78850889D01*
X73264120Y-78928394D01*
X73333750Y-79055275D01*
X73392468Y-79192757D01*
X73437587Y-79334284D01*
X73466422Y-79473298D01*
X73468106Y-79487403D01*
X73471434Y-79530847D01*
X73474275Y-79588277D01*
X73476373Y-79653878D01*
X73477468Y-79721833D01*
X73475140Y-79848622D01*
X73462136Y-79996327D01*
X73437133Y-80134221D01*
X73399318Y-80267986D01*
X73390889Y-80291438D01*
X73371408Y-80339388D01*
X73346473Y-80395860D01*
X73317722Y-80457621D01*
X73286790Y-80521437D01*
X73255315Y-80584074D01*
X73224934Y-80642297D01*
X73197283Y-80692873D01*
X73173999Y-80732567D01*
X73156718Y-80758146D01*
X73147079Y-80766375D01*
X73143984Y-80764924D01*
X73124079Y-80753750D01*
X73088420Y-80732866D01*
X73039459Y-80703735D01*
X72979646Y-80667819D01*
X72911433Y-80626580D01*
X72837271Y-80581483D01*
X72540008Y-80400215D01*
X72584539Y-80353685D01*
X72662865Y-80262277D01*
X72737439Y-80148666D01*
X72791474Y-80030878D01*
X72824290Y-79910441D01*
X72835211Y-79788883D01*
X72833868Y-79747415D01*
X72815612Y-79629920D01*
X72776617Y-79519911D01*
X72717670Y-79418570D01*
X72639557Y-79327079D01*
X72543064Y-79246620D01*
X72428978Y-79178373D01*
X72394724Y-79162092D01*
X72271240Y-79116018D01*
X72132918Y-79080894D01*
X71983561Y-79056803D01*
X71826973Y-79043827D01*
X71666956Y-79042051D01*
X71507314Y-79051557D01*
X71351850Y-79072428D01*
X71204366Y-79104748D01*
X71068667Y-79148601D01*
X70982076Y-79186018D01*
X70868688Y-79250815D01*
X70775070Y-79326228D01*
X70700959Y-79412582D01*
X70646094Y-79510205D01*
X70610212Y-79619423D01*
X70593051Y-79740561D01*
X70591880Y-79809962D01*
X70606141Y-79932832D01*
X70641241Y-80048336D01*
X70696682Y-80155047D01*
X70771964Y-80251536D01*
X70786440Y-80267280D01*
X70812962Y-80297850D01*
X70830138Y-80320191D01*
X70834787Y-80330309D01*
X70832597Y-80332294D01*
X70813721Y-80346759D01*
X70780397Y-80370600D01*
X70735380Y-80401971D01*
X70681425Y-80439026D01*
X70621285Y-80479917D01*
X70557718Y-80522798D01*
X70493476Y-80565822D01*
X70431315Y-80607143D01*
X70373991Y-80644914D01*
X70324257Y-80677288D01*
X70284868Y-80702418D01*
X70258580Y-80718458D01*
X70248147Y-80723561D01*
X70243941Y-80718950D01*
X70238933Y-80699733D01*
X70236386Y-80690162D01*
X70225249Y-80662191D01*
X70206802Y-80620552D01*
X70182725Y-80569005D01*
X70154699Y-80511310D01*
X70149154Y-80500043D01*
X70069889Y-80322313D01*
X70010385Y-80152510D01*
X69970245Y-79988570D01*
X69949071Y-79828429D01*
X69946466Y-79670023D01*
X69962033Y-79511289D01*
X69979523Y-79415732D01*
X70024564Y-79251442D01*
X70087656Y-79097411D01*
X70169915Y-78951491D01*
X70272457Y-78811534D01*
X70396399Y-78675392D01*
X70441661Y-78631527D01*
X70573865Y-78519242D01*
X70711832Y-78426028D01*
X70859750Y-78349281D01*
X71021803Y-78286397D01*
X71033391Y-78282580D01*
X71219392Y-78232493D01*
X71415521Y-78199101D01*
X71617568Y-78182416D01*
X71821325Y-78182449D01*
G36*
X71821325Y-78182449D02*
G01*
X72022581Y-78199209D01*
X72217128Y-78232708D01*
X72400756Y-78282956D01*
X72518053Y-78326810D01*
X72680951Y-78404652D01*
X72834866Y-78498172D01*
X72976671Y-78605178D01*
X73103239Y-78723481D01*
X73211441Y-78850889D01*
X73264120Y-78928394D01*
X73333750Y-79055275D01*
X73392468Y-79192757D01*
X73437587Y-79334284D01*
X73466422Y-79473298D01*
X73468106Y-79487403D01*
X73471434Y-79530847D01*
X73474275Y-79588277D01*
X73476373Y-79653878D01*
X73477468Y-79721833D01*
X73475140Y-79848622D01*
X73462136Y-79996327D01*
X73437133Y-80134221D01*
X73399318Y-80267986D01*
X73390889Y-80291438D01*
X73371408Y-80339388D01*
X73346473Y-80395860D01*
X73317722Y-80457621D01*
X73286790Y-80521437D01*
X73255315Y-80584074D01*
X73224934Y-80642297D01*
X73197283Y-80692873D01*
X73173999Y-80732567D01*
X73156718Y-80758146D01*
X73147079Y-80766375D01*
X73143984Y-80764924D01*
X73124079Y-80753750D01*
X73088420Y-80732866D01*
X73039459Y-80703735D01*
X72979646Y-80667819D01*
X72911433Y-80626580D01*
X72837271Y-80581483D01*
X72540008Y-80400215D01*
X72584539Y-80353685D01*
X72662865Y-80262277D01*
X72737439Y-80148666D01*
X72791474Y-80030878D01*
X72824290Y-79910441D01*
X72835211Y-79788883D01*
X72833868Y-79747415D01*
X72815612Y-79629920D01*
X72776617Y-79519911D01*
X72717670Y-79418570D01*
X72639557Y-79327079D01*
X72543064Y-79246620D01*
X72428978Y-79178373D01*
X72394724Y-79162092D01*
X72271240Y-79116018D01*
X72132918Y-79080894D01*
X71983561Y-79056803D01*
X71826973Y-79043827D01*
X71666956Y-79042051D01*
X71507314Y-79051557D01*
X71351850Y-79072428D01*
X71204366Y-79104748D01*
X71068667Y-79148601D01*
X70982076Y-79186018D01*
X70868688Y-79250815D01*
X70775070Y-79326228D01*
X70700959Y-79412582D01*
X70646094Y-79510205D01*
X70610212Y-79619423D01*
X70593051Y-79740561D01*
X70591880Y-79809962D01*
X70606141Y-79932832D01*
X70641241Y-80048336D01*
X70696682Y-80155047D01*
X70771964Y-80251536D01*
X70786440Y-80267280D01*
X70812962Y-80297850D01*
X70830138Y-80320191D01*
X70834787Y-80330309D01*
X70832597Y-80332294D01*
X70813721Y-80346759D01*
X70780397Y-80370600D01*
X70735380Y-80401971D01*
X70681425Y-80439026D01*
X70621285Y-80479917D01*
X70557718Y-80522798D01*
X70493476Y-80565822D01*
X70431315Y-80607143D01*
X70373991Y-80644914D01*
X70324257Y-80677288D01*
X70284868Y-80702418D01*
X70258580Y-80718458D01*
X70248147Y-80723561D01*
X70243941Y-80718950D01*
X70238933Y-80699733D01*
X70236386Y-80690162D01*
X70225249Y-80662191D01*
X70206802Y-80620552D01*
X70182725Y-80569005D01*
X70154699Y-80511310D01*
X70149154Y-80500043D01*
X70069889Y-80322313D01*
X70010385Y-80152510D01*
X69970245Y-79988570D01*
X69949071Y-79828429D01*
X69946466Y-79670023D01*
X69962033Y-79511289D01*
X69979523Y-79415732D01*
X70024564Y-79251442D01*
X70087656Y-79097411D01*
X70169915Y-78951491D01*
X70272457Y-78811534D01*
X70396399Y-78675392D01*
X70441661Y-78631527D01*
X70573865Y-78519242D01*
X70711832Y-78426028D01*
X70859750Y-78349281D01*
X71021803Y-78286397D01*
X71033391Y-78282580D01*
X71219392Y-78232493D01*
X71415521Y-78199101D01*
X71617568Y-78182416D01*
X71821325Y-78182449D01*
G37*
X72320158Y-83314732D02*
X72471594Y-83323311D01*
X72608283Y-83342167D01*
X72734276Y-83372163D01*
X72853625Y-83414164D01*
X72970381Y-83469031D01*
X73081179Y-83535833D01*
X73194739Y-83626637D01*
X73290211Y-83730292D01*
X73367073Y-83846113D01*
X73424797Y-83973414D01*
X73462858Y-84111511D01*
X73468666Y-84149207D01*
X73474396Y-84228248D01*
X73474583Y-84316371D01*
X73469539Y-84405764D01*
X73459578Y-84488616D01*
X73445012Y-84557113D01*
X73435364Y-84587965D01*
X73405123Y-84665270D01*
X73367617Y-84742321D01*
X73326614Y-84811800D01*
X73285879Y-84866385D01*
X73266505Y-84889084D01*
X73248662Y-84911799D01*
X73241778Y-84923221D01*
X73243424Y-84924463D01*
X73261205Y-84927272D01*
X73294370Y-84929224D01*
X73337733Y-84929955D01*
X73433689Y-84929955D01*
X73433689Y-85788104D01*
X73372974Y-85753839D01*
X73363868Y-85748645D01*
X73349249Y-85740285D01*
X73335173Y-85732712D01*
X73320540Y-85725888D01*
X73304249Y-85719773D01*
X73285198Y-85714327D01*
X73262286Y-85709513D01*
X73234413Y-85705292D01*
X73200478Y-85701623D01*
X73159379Y-85698469D01*
X73110015Y-85695789D01*
X73051286Y-85693546D01*
X72982090Y-85691701D01*
X72901326Y-85690213D01*
X72807894Y-85689045D01*
X72700692Y-85688156D01*
X72578620Y-85687509D01*
X72440576Y-85687064D01*
X72285459Y-85686782D01*
X72112168Y-85686625D01*
X71919603Y-85686552D01*
X71706662Y-85686526D01*
X71472245Y-85686507D01*
X69787378Y-85686311D01*
X69787378Y-84780983D01*
X69824067Y-84805415D01*
X69833647Y-84811682D01*
X69879981Y-84837792D01*
X69927102Y-84855531D01*
X69982251Y-84867092D01*
X70052667Y-84874669D01*
X70059650Y-84875161D01*
X70097641Y-84876938D01*
X70151576Y-84878556D01*
X70218703Y-84880001D01*
X70296271Y-84881260D01*
X70381528Y-84882320D01*
X70471724Y-84883171D01*
X70564107Y-84883797D01*
X70655925Y-84884188D01*
X70744427Y-84884330D01*
X70826862Y-84884210D01*
X70900479Y-84883817D01*
X70962526Y-84883138D01*
X71010251Y-84882159D01*
X71040904Y-84880868D01*
X71051733Y-84879253D01*
X71047333Y-84871043D01*
X71032362Y-84849353D01*
X71010448Y-84819986D01*
X70976236Y-84771121D01*
X70929714Y-84682875D01*
X70896046Y-84584084D01*
X70893231Y-84569557D01*
X71447465Y-84569557D01*
X71459389Y-84654681D01*
X71486040Y-84738867D01*
X71526962Y-84817392D01*
X71570530Y-84884800D01*
X72720721Y-84884800D01*
X72767089Y-84814244D01*
X72790791Y-84773583D01*
X72816639Y-84719454D01*
X72834829Y-84670311D01*
X72850551Y-84606835D01*
X72861541Y-84510669D01*
X72853365Y-84426100D01*
X72825805Y-84352781D01*
X72778642Y-84290363D01*
X72711658Y-84238498D01*
X72624633Y-84196840D01*
X72517350Y-84165038D01*
X72505009Y-84162455D01*
X72443772Y-84154000D01*
X72366692Y-84148337D01*
X72279002Y-84145424D01*
X72185934Y-84145217D01*
X72092720Y-84147670D01*
X72004594Y-84152739D01*
X71926788Y-84160381D01*
X71864533Y-84170552D01*
X71858666Y-84171833D01*
X71748121Y-84200874D01*
X71657575Y-84235390D01*
X71584953Y-84276544D01*
X71528181Y-84325501D01*
X71485184Y-84383426D01*
X71469615Y-84415380D01*
X71450722Y-84488216D01*
X71447465Y-84569557D01*
X70893231Y-84569557D01*
X70874231Y-84471490D01*
X70863265Y-84341836D01*
X70862219Y-84249330D01*
X70872014Y-84127989D01*
X70896174Y-84017901D01*
X70935785Y-83914611D01*
X70991932Y-83813662D01*
X71022883Y-83768497D01*
X71114115Y-83663089D01*
X71223106Y-83571462D01*
X71349726Y-83493668D01*
X71493845Y-83429759D01*
X71655332Y-83379786D01*
X71834059Y-83343802D01*
X72029895Y-83321857D01*
X72185934Y-83316100D01*
X72242711Y-83314006D01*
X72320158Y-83314732D01*
G36*
X72320158Y-83314732D02*
G01*
X72471594Y-83323311D01*
X72608283Y-83342167D01*
X72734276Y-83372163D01*
X72853625Y-83414164D01*
X72970381Y-83469031D01*
X73081179Y-83535833D01*
X73194739Y-83626637D01*
X73290211Y-83730292D01*
X73367073Y-83846113D01*
X73424797Y-83973414D01*
X73462858Y-84111511D01*
X73468666Y-84149207D01*
X73474396Y-84228248D01*
X73474583Y-84316371D01*
X73469539Y-84405764D01*
X73459578Y-84488616D01*
X73445012Y-84557113D01*
X73435364Y-84587965D01*
X73405123Y-84665270D01*
X73367617Y-84742321D01*
X73326614Y-84811800D01*
X73285879Y-84866385D01*
X73266505Y-84889084D01*
X73248662Y-84911799D01*
X73241778Y-84923221D01*
X73243424Y-84924463D01*
X73261205Y-84927272D01*
X73294370Y-84929224D01*
X73337733Y-84929955D01*
X73433689Y-84929955D01*
X73433689Y-85788104D01*
X73372974Y-85753839D01*
X73363868Y-85748645D01*
X73349249Y-85740285D01*
X73335173Y-85732712D01*
X73320540Y-85725888D01*
X73304249Y-85719773D01*
X73285198Y-85714327D01*
X73262286Y-85709513D01*
X73234413Y-85705292D01*
X73200478Y-85701623D01*
X73159379Y-85698469D01*
X73110015Y-85695789D01*
X73051286Y-85693546D01*
X72982090Y-85691701D01*
X72901326Y-85690213D01*
X72807894Y-85689045D01*
X72700692Y-85688156D01*
X72578620Y-85687509D01*
X72440576Y-85687064D01*
X72285459Y-85686782D01*
X72112168Y-85686625D01*
X71919603Y-85686552D01*
X71706662Y-85686526D01*
X71472245Y-85686507D01*
X69787378Y-85686311D01*
X69787378Y-84780983D01*
X69824067Y-84805415D01*
X69833647Y-84811682D01*
X69879981Y-84837792D01*
X69927102Y-84855531D01*
X69982251Y-84867092D01*
X70052667Y-84874669D01*
X70059650Y-84875161D01*
X70097641Y-84876938D01*
X70151576Y-84878556D01*
X70218703Y-84880001D01*
X70296271Y-84881260D01*
X70381528Y-84882320D01*
X70471724Y-84883171D01*
X70564107Y-84883797D01*
X70655925Y-84884188D01*
X70744427Y-84884330D01*
X70826862Y-84884210D01*
X70900479Y-84883817D01*
X70962526Y-84883138D01*
X71010251Y-84882159D01*
X71040904Y-84880868D01*
X71051733Y-84879253D01*
X71047333Y-84871043D01*
X71032362Y-84849353D01*
X71010448Y-84819986D01*
X70976236Y-84771121D01*
X70929714Y-84682875D01*
X70896046Y-84584084D01*
X70893231Y-84569557D01*
X71447465Y-84569557D01*
X71459389Y-84654681D01*
X71486040Y-84738867D01*
X71526962Y-84817392D01*
X71570530Y-84884800D01*
X72720721Y-84884800D01*
X72767089Y-84814244D01*
X72790791Y-84773583D01*
X72816639Y-84719454D01*
X72834829Y-84670311D01*
X72850551Y-84606835D01*
X72861541Y-84510669D01*
X72853365Y-84426100D01*
X72825805Y-84352781D01*
X72778642Y-84290363D01*
X72711658Y-84238498D01*
X72624633Y-84196840D01*
X72517350Y-84165038D01*
X72505009Y-84162455D01*
X72443772Y-84154000D01*
X72366692Y-84148337D01*
X72279002Y-84145424D01*
X72185934Y-84145217D01*
X72092720Y-84147670D01*
X72004594Y-84152739D01*
X71926788Y-84160381D01*
X71864533Y-84170552D01*
X71858666Y-84171833D01*
X71748121Y-84200874D01*
X71657575Y-84235390D01*
X71584953Y-84276544D01*
X71528181Y-84325501D01*
X71485184Y-84383426D01*
X71469615Y-84415380D01*
X71450722Y-84488216D01*
X71447465Y-84569557D01*
X70893231Y-84569557D01*
X70874231Y-84471490D01*
X70863265Y-84341836D01*
X70862219Y-84249330D01*
X70872014Y-84127989D01*
X70896174Y-84017901D01*
X70935785Y-83914611D01*
X70991932Y-83813662D01*
X71022883Y-83768497D01*
X71114115Y-83663089D01*
X71223106Y-83571462D01*
X71349726Y-83493668D01*
X71493845Y-83429759D01*
X71655332Y-83379786D01*
X71834059Y-83343802D01*
X72029895Y-83321857D01*
X72185934Y-83316100D01*
X72242711Y-83314006D01*
X72320158Y-83314732D01*
G37*
X72677363Y-80772739D02*
X72752202Y-80776368D01*
X72814401Y-80783978D01*
X72870984Y-80796312D01*
X72997076Y-80840687D01*
X73111679Y-80903600D01*
X73212568Y-80983762D01*
X73298924Y-81080260D01*
X73369932Y-81192178D01*
X73424776Y-81318603D01*
X73462638Y-81458622D01*
X73468351Y-81494851D01*
X73474313Y-81573845D01*
X73474646Y-81662159D01*
X73469659Y-81751925D01*
X73459666Y-81835278D01*
X73444978Y-81904349D01*
X73414749Y-81990813D01*
X73360057Y-82100714D01*
X73292543Y-82198044D01*
X73241556Y-82260133D01*
X73337622Y-82263395D01*
X73433689Y-82266657D01*
X73433689Y-82689550D01*
X73433686Y-82700457D01*
X73433380Y-82794944D01*
X73432616Y-82881669D01*
X73431451Y-82958163D01*
X73429942Y-83021957D01*
X73428147Y-83070582D01*
X73426121Y-83101567D01*
X73423922Y-83112444D01*
X73423463Y-83112422D01*
X73407910Y-83105386D01*
X73385071Y-83089566D01*
X73379638Y-83085266D01*
X73365606Y-83074223D01*
X73352186Y-83064689D01*
X73337722Y-83056539D01*
X73320556Y-83049648D01*
X73299034Y-83043889D01*
X73271498Y-83039138D01*
X73236292Y-83035269D01*
X73191760Y-83032156D01*
X73136246Y-83029675D01*
X73068093Y-83027700D01*
X72985645Y-83026106D01*
X72887246Y-83024766D01*
X72771239Y-83023556D01*
X72635968Y-83022351D01*
X72479778Y-83021025D01*
X72337012Y-83019772D01*
X72191942Y-83018349D01*
X72066027Y-83016824D01*
X71957436Y-83015067D01*
X71864334Y-83012949D01*
X71784891Y-83010340D01*
X71717273Y-83007110D01*
X71659649Y-83003131D01*
X71610185Y-82998272D01*
X71567050Y-82992403D01*
X71528410Y-82985396D01*
X71492434Y-82977120D01*
X71457289Y-82967446D01*
X71421142Y-82956244D01*
X71382161Y-82943384D01*
X71339091Y-82927910D01*
X71246871Y-82885006D01*
X71167099Y-82831265D01*
X71092965Y-82762424D01*
X71029405Y-82684815D01*
X70967725Y-82580239D01*
X70920202Y-82460756D01*
X70886567Y-82325492D01*
X70866552Y-82173574D01*
X70859889Y-82004128D01*
X70860287Y-81946110D01*
X70862335Y-81880602D01*
X70866704Y-81819307D01*
X70874035Y-81757903D01*
X70884969Y-81692068D01*
X70900147Y-81617480D01*
X70920209Y-81529816D01*
X70945797Y-81424755D01*
X70952820Y-81396194D01*
X70970776Y-81320946D01*
X70986820Y-81250612D01*
X71000028Y-81189433D01*
X71009474Y-81141646D01*
X71014231Y-81111489D01*
X71017910Y-81083217D01*
X71023187Y-81056940D01*
X71027942Y-81046941D01*
X71036781Y-81050048D01*
X71064072Y-81060806D01*
X71106906Y-81078136D01*
X71162425Y-81100874D01*
X71227772Y-81127853D01*
X71300089Y-81157910D01*
X71315879Y-81164507D01*
X71406484Y-81203093D01*
X71476217Y-81234232D01*
X71525405Y-81258083D01*
X71554374Y-81274802D01*
X71563452Y-81284546D01*
X71561405Y-81292234D01*
X71551760Y-81318585D01*
X71536190Y-81357018D01*
X71516815Y-81402178D01*
X71478814Y-81496707D01*
X71437780Y-81633520D01*
X71412612Y-81774711D01*
X71408611Y-81812686D01*
X71406447Y-81915941D01*
X71419622Y-82003048D01*
X71448756Y-82074871D01*
X71494466Y-82132269D01*
X71557372Y-82176104D01*
X71638092Y-82207238D01*
X71737245Y-82226530D01*
X71796224Y-82233950D01*
X71789445Y-82072064D01*
X71789110Y-82046106D01*
X72311842Y-82046106D01*
X72311857Y-82054993D01*
X72312655Y-82110340D01*
X72314488Y-82157264D01*
X72317111Y-82191047D01*
X72320274Y-82206972D01*
X72326741Y-82211057D01*
X72348875Y-82215428D01*
X72387988Y-82218396D01*
X72445939Y-82220086D01*
X72524586Y-82220622D01*
X72720462Y-82220622D01*
X72776973Y-82175952D01*
X72792212Y-82163215D01*
X72834844Y-82116396D01*
X72870672Y-82055745D01*
X72875850Y-82045103D01*
X72892745Y-82006324D01*
X72902909Y-81971308D01*
X72908325Y-81931278D01*
X72910978Y-81877459D01*
X72911383Y-81859352D01*
X72908540Y-81783989D01*
X72896620Y-81723257D01*
X72874037Y-81671548D01*
X72839211Y-81623254D01*
X72834798Y-81618197D01*
X72779160Y-81569728D01*
X72715333Y-81541541D01*
X72640282Y-81532248D01*
X72568693Y-81539480D01*
X72505645Y-81564204D01*
X72447758Y-81608751D01*
X72400808Y-81663681D01*
X72360961Y-81736106D01*
X72333263Y-81822660D01*
X72317096Y-81925330D01*
X72311842Y-82046106D01*
X71789110Y-82046106D01*
X71787813Y-81945505D01*
X71794194Y-81794049D01*
X71808777Y-81645604D01*
X71830882Y-81509422D01*
X71845821Y-81444755D01*
X71888741Y-81312510D01*
X71945340Y-81190238D01*
X72014017Y-81080315D01*
X72093170Y-80985117D01*
X72181196Y-80907020D01*
X72276493Y-80848401D01*
X72328864Y-80824405D01*
X72399590Y-80798768D01*
X72470812Y-80782522D01*
X72549712Y-80774178D01*
X72640282Y-80772310D01*
X72643467Y-80772245D01*
X72677363Y-80772739D01*
G36*
X72677363Y-80772739D02*
G01*
X72752202Y-80776368D01*
X72814401Y-80783978D01*
X72870984Y-80796312D01*
X72997076Y-80840687D01*
X73111679Y-80903600D01*
X73212568Y-80983762D01*
X73298924Y-81080260D01*
X73369932Y-81192178D01*
X73424776Y-81318603D01*
X73462638Y-81458622D01*
X73468351Y-81494851D01*
X73474313Y-81573845D01*
X73474646Y-81662159D01*
X73469659Y-81751925D01*
X73459666Y-81835278D01*
X73444978Y-81904349D01*
X73414749Y-81990813D01*
X73360057Y-82100714D01*
X73292543Y-82198044D01*
X73241556Y-82260133D01*
X73337622Y-82263395D01*
X73433689Y-82266657D01*
X73433689Y-82689550D01*
X73433686Y-82700457D01*
X73433380Y-82794944D01*
X73432616Y-82881669D01*
X73431451Y-82958163D01*
X73429942Y-83021957D01*
X73428147Y-83070582D01*
X73426121Y-83101567D01*
X73423922Y-83112444D01*
X73423463Y-83112422D01*
X73407910Y-83105386D01*
X73385071Y-83089566D01*
X73379638Y-83085266D01*
X73365606Y-83074223D01*
X73352186Y-83064689D01*
X73337722Y-83056539D01*
X73320556Y-83049648D01*
X73299034Y-83043889D01*
X73271498Y-83039138D01*
X73236292Y-83035269D01*
X73191760Y-83032156D01*
X73136246Y-83029675D01*
X73068093Y-83027700D01*
X72985645Y-83026106D01*
X72887246Y-83024766D01*
X72771239Y-83023556D01*
X72635968Y-83022351D01*
X72479778Y-83021025D01*
X72337012Y-83019772D01*
X72191942Y-83018349D01*
X72066027Y-83016824D01*
X71957436Y-83015067D01*
X71864334Y-83012949D01*
X71784891Y-83010340D01*
X71717273Y-83007110D01*
X71659649Y-83003131D01*
X71610185Y-82998272D01*
X71567050Y-82992403D01*
X71528410Y-82985396D01*
X71492434Y-82977120D01*
X71457289Y-82967446D01*
X71421142Y-82956244D01*
X71382161Y-82943384D01*
X71339091Y-82927910D01*
X71246871Y-82885006D01*
X71167099Y-82831265D01*
X71092965Y-82762424D01*
X71029405Y-82684815D01*
X70967725Y-82580239D01*
X70920202Y-82460756D01*
X70886567Y-82325492D01*
X70866552Y-82173574D01*
X70859889Y-82004128D01*
X70860287Y-81946110D01*
X70862335Y-81880602D01*
X70866704Y-81819307D01*
X70874035Y-81757903D01*
X70884969Y-81692068D01*
X70900147Y-81617480D01*
X70920209Y-81529816D01*
X70945797Y-81424755D01*
X70952820Y-81396194D01*
X70970776Y-81320946D01*
X70986820Y-81250612D01*
X71000028Y-81189433D01*
X71009474Y-81141646D01*
X71014231Y-81111489D01*
X71017910Y-81083217D01*
X71023187Y-81056940D01*
X71027942Y-81046941D01*
X71036781Y-81050048D01*
X71064072Y-81060806D01*
X71106906Y-81078136D01*
X71162425Y-81100874D01*
X71227772Y-81127853D01*
X71300089Y-81157910D01*
X71315879Y-81164507D01*
X71406484Y-81203093D01*
X71476217Y-81234232D01*
X71525405Y-81258083D01*
X71554374Y-81274802D01*
X71563452Y-81284546D01*
X71561405Y-81292234D01*
X71551760Y-81318585D01*
X71536190Y-81357018D01*
X71516815Y-81402178D01*
X71478814Y-81496707D01*
X71437780Y-81633520D01*
X71412612Y-81774711D01*
X71408611Y-81812686D01*
X71406447Y-81915941D01*
X71419622Y-82003048D01*
X71448756Y-82074871D01*
X71494466Y-82132269D01*
X71557372Y-82176104D01*
X71638092Y-82207238D01*
X71737245Y-82226530D01*
X71796224Y-82233950D01*
X71789445Y-82072064D01*
X71789110Y-82046106D01*
X72311842Y-82046106D01*
X72311857Y-82054993D01*
X72312655Y-82110340D01*
X72314488Y-82157264D01*
X72317111Y-82191047D01*
X72320274Y-82206972D01*
X72326741Y-82211057D01*
X72348875Y-82215428D01*
X72387988Y-82218396D01*
X72445939Y-82220086D01*
X72524586Y-82220622D01*
X72720462Y-82220622D01*
X72776973Y-82175952D01*
X72792212Y-82163215D01*
X72834844Y-82116396D01*
X72870672Y-82055745D01*
X72875850Y-82045103D01*
X72892745Y-82006324D01*
X72902909Y-81971308D01*
X72908325Y-81931278D01*
X72910978Y-81877459D01*
X72911383Y-81859352D01*
X72908540Y-81783989D01*
X72896620Y-81723257D01*
X72874037Y-81671548D01*
X72839211Y-81623254D01*
X72834798Y-81618197D01*
X72779160Y-81569728D01*
X72715333Y-81541541D01*
X72640282Y-81532248D01*
X72568693Y-81539480D01*
X72505645Y-81564204D01*
X72447758Y-81608751D01*
X72400808Y-81663681D01*
X72360961Y-81736106D01*
X72333263Y-81822660D01*
X72317096Y-81925330D01*
X72311842Y-82046106D01*
X71789110Y-82046106D01*
X71787813Y-81945505D01*
X71794194Y-81794049D01*
X71808777Y-81645604D01*
X71830882Y-81509422D01*
X71845821Y-81444755D01*
X71888741Y-81312510D01*
X71945340Y-81190238D01*
X72014017Y-81080315D01*
X72093170Y-80985117D01*
X72181196Y-80907020D01*
X72276493Y-80848401D01*
X72328864Y-80824405D01*
X72399590Y-80798768D01*
X72470812Y-80782522D01*
X72549712Y-80774178D01*
X72640282Y-80772310D01*
X72643467Y-80772245D01*
X72677363Y-80772739D01*
G37*
X72621295Y-73223313D02*
X72801535Y-73223407D01*
X72964015Y-73223605D01*
X73109670Y-73223937D01*
X73239434Y-73224431D01*
X73354243Y-73225117D01*
X73455030Y-73226024D01*
X73542730Y-73227183D01*
X73618279Y-73228622D01*
X73682611Y-73230371D01*
X73736661Y-73232460D01*
X73781363Y-73234917D01*
X73817652Y-73237773D01*
X73846463Y-73241057D01*
X73868731Y-73244798D01*
X73885390Y-73249026D01*
X73897375Y-73253771D01*
X73905621Y-73259061D01*
X73911062Y-73264927D01*
X73914634Y-73271398D01*
X73917270Y-73278503D01*
X73919906Y-73286272D01*
X73923477Y-73294734D01*
X73925145Y-73299092D01*
X73927111Y-73307605D01*
X73928911Y-73320306D01*
X73930555Y-73338115D01*
X73932047Y-73361951D01*
X73933397Y-73392734D01*
X73934611Y-73431383D01*
X73935697Y-73478818D01*
X73936661Y-73535957D01*
X73937511Y-73603721D01*
X73938253Y-73683029D01*
X73938897Y-73774801D01*
X73939447Y-73879956D01*
X73939913Y-73999413D01*
X73940300Y-74134092D01*
X73940616Y-74284912D01*
X73940869Y-74452794D01*
X73941066Y-74638655D01*
X73941213Y-74843417D01*
X73941318Y-75067998D01*
X73941389Y-75313318D01*
X73941432Y-75580296D01*
X73941437Y-75618679D01*
X73941480Y-75884078D01*
X73941525Y-76127950D01*
X73941548Y-76351217D01*
X73941524Y-76554804D01*
X73941430Y-76739633D01*
X73941243Y-76906627D01*
X73940939Y-77056710D01*
X73940494Y-77190804D01*
X73939885Y-77309834D01*
X73939089Y-77414721D01*
X73938080Y-77506390D01*
X73936837Y-77585763D01*
X73935335Y-77653763D01*
X73933551Y-77711314D01*
X73931461Y-77759338D01*
X73929042Y-77798760D01*
X73926270Y-77830501D01*
X73923121Y-77855486D01*
X73919572Y-77874636D01*
X73915598Y-77888877D01*
X73911178Y-77899129D01*
X73906286Y-77906318D01*
X73900900Y-77911365D01*
X73894996Y-77915195D01*
X73888549Y-77918729D01*
X73881537Y-77922892D01*
X73879687Y-77923975D01*
X73874180Y-77926187D01*
X73865868Y-77928214D01*
X73853809Y-77930062D01*
X73837063Y-77931739D01*
X73814687Y-77933255D01*
X73785740Y-77934617D01*
X73749280Y-77935833D01*
X73704367Y-77936911D01*
X73650057Y-77937860D01*
X73585410Y-77938688D01*
X73509484Y-77939403D01*
X73421338Y-77940013D01*
X73320029Y-77940526D01*
X73204617Y-77940950D01*
X73074160Y-77941294D01*
X72927716Y-77941566D01*
X72764344Y-77941773D01*
X72583101Y-77941924D01*
X72383048Y-77942028D01*
X72163241Y-77942092D01*
X71922739Y-77942124D01*
X71660602Y-77942133D01*
X69469031Y-77942133D01*
X69430649Y-77903751D01*
X69406911Y-77876645D01*
X69395111Y-77849747D01*
X69392267Y-77813440D01*
X69392267Y-77761511D01*
X69480206Y-77761511D01*
X69530102Y-77759573D01*
X69640523Y-77740801D01*
X69741987Y-77703783D01*
X69833152Y-77650631D01*
X69912673Y-77583454D01*
X69934249Y-77557805D01*
X70904978Y-77557805D01*
X72081845Y-77560880D01*
X73258711Y-77563955D01*
X73317622Y-77590593D01*
X73342183Y-77602515D01*
X73372434Y-77619754D01*
X73389560Y-77632926D01*
X73397591Y-77640924D01*
X73412493Y-77648622D01*
X73413765Y-77644740D01*
X73415791Y-77621480D01*
X73417626Y-77579126D01*
X73419227Y-77519868D01*
X73420549Y-77445893D01*
X73421548Y-77359390D01*
X73422180Y-77262548D01*
X73422400Y-77157555D01*
X73422349Y-77088644D01*
X73422091Y-76990393D01*
X73421637Y-76900970D01*
X73421010Y-76822667D01*
X73420235Y-76757777D01*
X73419335Y-76708589D01*
X73418334Y-76677396D01*
X73417257Y-76666489D01*
X73414037Y-76667678D01*
X73396452Y-76677824D01*
X73370158Y-76694960D01*
X73357691Y-76703460D01*
X73343622Y-76712671D01*
X73329351Y-76720767D01*
X73313479Y-76727815D01*
X73294609Y-76733883D01*
X73271341Y-76739039D01*
X73242278Y-76743349D01*
X73206021Y-76746881D01*
X73161170Y-76749703D01*
X73106328Y-76751882D01*
X73040097Y-76753486D01*
X72961077Y-76754581D01*
X72867871Y-76755235D01*
X72759079Y-76755516D01*
X72633303Y-76755491D01*
X72489145Y-76755228D01*
X72325207Y-76754794D01*
X72140089Y-76754255D01*
X71961232Y-76753721D01*
X71802374Y-76753195D01*
X71663316Y-76752650D01*
X71542665Y-76752055D01*
X71439028Y-76751381D01*
X71351011Y-76750597D01*
X71277223Y-76749674D01*
X71216269Y-76748581D01*
X71166757Y-76747288D01*
X71127293Y-76745765D01*
X71096484Y-76743981D01*
X71072938Y-76741908D01*
X71055260Y-76739514D01*
X71042059Y-76736770D01*
X71031940Y-76733644D01*
X71023511Y-76730108D01*
X71015375Y-76726209D01*
X70978544Y-76706562D01*
X70948391Y-76687775D01*
X70946908Y-76686728D01*
X70924659Y-76672398D01*
X70911702Y-76666489D01*
X70911249Y-76667496D01*
X70909803Y-76684695D01*
X70908480Y-76721344D01*
X70907316Y-76775038D01*
X70906347Y-76843370D01*
X70905611Y-76923936D01*
X70905142Y-77014330D01*
X70904978Y-77112147D01*
X70904978Y-77557805D01*
X69934249Y-77557805D01*
X69979205Y-77504362D01*
X70031406Y-77415466D01*
X70067930Y-77318875D01*
X70087434Y-77216700D01*
X70088573Y-77111050D01*
X70070005Y-77004036D01*
X70030384Y-76897768D01*
X69972516Y-76800781D01*
X69897684Y-76715707D01*
X69809615Y-76646985D01*
X69710616Y-76596082D01*
X69602993Y-76564465D01*
X69489054Y-76553600D01*
X69392267Y-76553600D01*
X69392267Y-74933247D01*
X69392280Y-74722103D01*
X69392330Y-74517980D01*
X69392430Y-74334314D01*
X69392592Y-74170009D01*
X69392829Y-74023971D01*
X69393153Y-73895106D01*
X69393575Y-73782317D01*
X69394109Y-73684512D01*
X69394767Y-73600596D01*
X69395561Y-73529473D01*
X69395588Y-73527803D01*
X70001867Y-73527803D01*
X70001867Y-74587686D01*
X70064966Y-74549689D01*
X70090005Y-74535007D01*
X70117586Y-74520469D01*
X70145700Y-74508373D01*
X70176551Y-74498468D01*
X70212344Y-74490506D01*
X70255283Y-74484239D01*
X70307574Y-74479418D01*
X70371419Y-74475794D01*
X70449025Y-74473119D01*
X70542594Y-74471143D01*
X70654333Y-74469618D01*
X70786445Y-74468296D01*
X70906434Y-74467387D01*
X71023063Y-74466980D01*
X71118531Y-74467233D01*
X71192556Y-74468143D01*
X71244855Y-74469707D01*
X71275149Y-74471921D01*
X71283156Y-74474780D01*
X71279858Y-74477839D01*
X71258408Y-74495994D01*
X71221889Y-74525725D01*
X71172442Y-74565361D01*
X71112207Y-74613229D01*
X71043327Y-74667657D01*
X70967943Y-74726973D01*
X70888196Y-74789505D01*
X70806228Y-74853579D01*
X70724180Y-74917525D01*
X70644194Y-74979669D01*
X70568411Y-75038339D01*
X70498973Y-75091863D01*
X70438021Y-75138570D01*
X70387696Y-75176786D01*
X70350140Y-75204839D01*
X70327495Y-75221057D01*
X70255212Y-75266365D01*
X70175463Y-75306339D01*
X70107188Y-75327870D01*
X70049844Y-75331173D01*
X70001867Y-75325884D01*
X70002117Y-76457644D01*
X70032722Y-76418133D01*
X70040089Y-76408752D01*
X70094438Y-76345817D01*
X70162259Y-76277003D01*
X70245516Y-76200404D01*
X70346178Y-76114112D01*
X70366847Y-76096948D01*
X70416409Y-76056167D01*
X70477326Y-76006412D01*
X70547898Y-75949045D01*
X70626424Y-75885431D01*
X70711204Y-75816931D01*
X70800537Y-75744910D01*
X70892722Y-75670730D01*
X70911702Y-75655483D01*
X70986060Y-75595754D01*
X71078848Y-75521347D01*
X71169388Y-75448869D01*
X71255978Y-75379686D01*
X71336918Y-75315159D01*
X71410506Y-75256653D01*
X71475044Y-75205530D01*
X71528829Y-75163153D01*
X71570162Y-75130885D01*
X71597342Y-75110090D01*
X71608668Y-75102131D01*
X71612771Y-75103889D01*
X71633334Y-75116770D01*
X71669561Y-75141115D01*
X71719824Y-75175753D01*
X71782492Y-75219514D01*
X71855936Y-75271225D01*
X71938527Y-75329716D01*
X72028636Y-75393816D01*
X72124631Y-75462354D01*
X72224885Y-75534157D01*
X72327768Y-75608056D01*
X72431650Y-75682879D01*
X72534901Y-75757455D01*
X72635892Y-75830613D01*
X72732994Y-75901181D01*
X72824577Y-75967989D01*
X72909011Y-76029865D01*
X72984667Y-76085639D01*
X73049916Y-76134138D01*
X73103128Y-76174193D01*
X73142673Y-76204631D01*
X73168026Y-76225056D01*
X73222295Y-76271101D01*
X73278775Y-76321388D01*
X73328669Y-76368185D01*
X73422400Y-76459349D01*
X73422400Y-75304910D01*
X73346200Y-75305544D01*
X73304160Y-75304426D01*
X73268334Y-75298696D01*
X73230772Y-75286110D01*
X73182577Y-75264432D01*
X73175897Y-75261211D01*
X73126359Y-75235812D01*
X73078369Y-75209004D01*
X73041466Y-75186083D01*
X73034834Y-75181515D01*
X73003593Y-75159484D01*
X72958654Y-75127307D01*
X72902147Y-75086543D01*
X72836204Y-75038755D01*
X72762957Y-74985502D01*
X72684536Y-74928345D01*
X72603072Y-74868845D01*
X72520698Y-74808563D01*
X72439544Y-74749060D01*
X72361742Y-74691895D01*
X72289423Y-74638630D01*
X72224718Y-74590826D01*
X72169759Y-74550043D01*
X72126676Y-74517842D01*
X72097602Y-74495784D01*
X72084667Y-74485429D01*
X72080351Y-74480956D01*
X72078312Y-74476764D01*
X72080926Y-74473357D01*
X72089986Y-74470675D01*
X72107285Y-74468659D01*
X72134614Y-74467252D01*
X72173765Y-74466395D01*
X72226533Y-74466030D01*
X72294707Y-74466097D01*
X72380082Y-74466540D01*
X72484449Y-74467298D01*
X72609600Y-74468315D01*
X72654300Y-74468692D01*
X72775395Y-74469831D01*
X72876688Y-74471028D01*
X72960262Y-74472364D01*
X73028204Y-74473923D01*
X73082599Y-74475785D01*
X73125532Y-74478034D01*
X73159089Y-74480752D01*
X73185355Y-74484021D01*
X73206416Y-74487922D01*
X73224357Y-74492539D01*
X73250770Y-74500808D01*
X73312772Y-74524417D01*
X73365573Y-74550315D01*
X73402645Y-74575465D01*
X73404075Y-74576661D01*
X73408424Y-74578832D01*
X73412026Y-74576672D01*
X73414951Y-74568356D01*
X73417269Y-74552060D01*
X73419051Y-74525959D01*
X73420367Y-74488229D01*
X73421286Y-74437044D01*
X73421878Y-74370580D01*
X73422215Y-74287013D01*
X73422365Y-74184517D01*
X73422400Y-74061268D01*
X73422400Y-73529704D01*
X73364783Y-73568477D01*
X73355893Y-73574568D01*
X73341069Y-73585024D01*
X73327422Y-73594421D01*
X73313765Y-73602817D01*
X73298911Y-73610267D01*
X73281670Y-73616827D01*
X73260855Y-73622554D01*
X73235280Y-73627505D01*
X73203755Y-73631734D01*
X73165093Y-73635299D01*
X73118107Y-73638256D01*
X73061608Y-73640660D01*
X72994409Y-73642569D01*
X72915322Y-73644038D01*
X72823160Y-73645124D01*
X72716734Y-73645882D01*
X72594857Y-73646370D01*
X72456341Y-73646642D01*
X72299999Y-73646757D01*
X72124642Y-73646769D01*
X71929082Y-73646735D01*
X71712133Y-73646711D01*
X71589513Y-73646720D01*
X71384447Y-73646757D01*
X71200116Y-73646773D01*
X71035334Y-73646712D01*
X70888916Y-73646516D01*
X70759674Y-73646130D01*
X70646422Y-73645495D01*
X70547975Y-73644556D01*
X70463144Y-73643255D01*
X70390744Y-73641536D01*
X70329589Y-73639341D01*
X70278492Y-73636615D01*
X70236267Y-73633299D01*
X70201727Y-73629338D01*
X70173686Y-73624675D01*
X70150958Y-73619253D01*
X70132356Y-73613014D01*
X70116693Y-73605903D01*
X70102784Y-73597862D01*
X70089441Y-73588834D01*
X70075479Y-73578764D01*
X70059711Y-73567593D01*
X70001867Y-73527803D01*
X69395588Y-73527803D01*
X69396504Y-73470050D01*
X69397608Y-73421232D01*
X69398884Y-73381923D01*
X69400347Y-73351031D01*
X69402007Y-73327459D01*
X69403878Y-73310114D01*
X69405972Y-73297901D01*
X69408300Y-73289725D01*
X69410876Y-73284492D01*
X69414445Y-73278496D01*
X69417978Y-73271721D01*
X69421488Y-73265522D01*
X69425918Y-73259874D01*
X69432208Y-73254753D01*
X69441301Y-73250131D01*
X69454139Y-73245985D01*
X69471662Y-73242287D01*
X69494813Y-73239013D01*
X69524534Y-73236137D01*
X69561765Y-73233633D01*
X69607449Y-73231476D01*
X69662527Y-73229640D01*
X69727941Y-73228100D01*
X69804633Y-73226830D01*
X69893544Y-73225805D01*
X69995617Y-73224999D01*
X70001867Y-73224966D01*
X70111792Y-73224386D01*
X70243011Y-73223941D01*
X70390216Y-73223638D01*
X70554349Y-73223452D01*
X70736352Y-73223358D01*
X70937165Y-73223329D01*
X71157732Y-73223339D01*
X71398992Y-73223364D01*
X71661889Y-73223378D01*
X71704040Y-73223378D01*
X71964668Y-73223354D01*
X72203796Y-73223315D01*
X72422360Y-73223292D01*
X72621295Y-73223313D01*
G36*
X72621295Y-73223313D02*
G01*
X72801535Y-73223407D01*
X72964015Y-73223605D01*
X73109670Y-73223937D01*
X73239434Y-73224431D01*
X73354243Y-73225117D01*
X73455030Y-73226024D01*
X73542730Y-73227183D01*
X73618279Y-73228622D01*
X73682611Y-73230371D01*
X73736661Y-73232460D01*
X73781363Y-73234917D01*
X73817652Y-73237773D01*
X73846463Y-73241057D01*
X73868731Y-73244798D01*
X73885390Y-73249026D01*
X73897375Y-73253771D01*
X73905621Y-73259061D01*
X73911062Y-73264927D01*
X73914634Y-73271398D01*
X73917270Y-73278503D01*
X73919906Y-73286272D01*
X73923477Y-73294734D01*
X73925145Y-73299092D01*
X73927111Y-73307605D01*
X73928911Y-73320306D01*
X73930555Y-73338115D01*
X73932047Y-73361951D01*
X73933397Y-73392734D01*
X73934611Y-73431383D01*
X73935697Y-73478818D01*
X73936661Y-73535957D01*
X73937511Y-73603721D01*
X73938253Y-73683029D01*
X73938897Y-73774801D01*
X73939447Y-73879956D01*
X73939913Y-73999413D01*
X73940300Y-74134092D01*
X73940616Y-74284912D01*
X73940869Y-74452794D01*
X73941066Y-74638655D01*
X73941213Y-74843417D01*
X73941318Y-75067998D01*
X73941389Y-75313318D01*
X73941432Y-75580296D01*
X73941437Y-75618679D01*
X73941480Y-75884078D01*
X73941525Y-76127950D01*
X73941548Y-76351217D01*
X73941524Y-76554804D01*
X73941430Y-76739633D01*
X73941243Y-76906627D01*
X73940939Y-77056710D01*
X73940494Y-77190804D01*
X73939885Y-77309834D01*
X73939089Y-77414721D01*
X73938080Y-77506390D01*
X73936837Y-77585763D01*
X73935335Y-77653763D01*
X73933551Y-77711314D01*
X73931461Y-77759338D01*
X73929042Y-77798760D01*
X73926270Y-77830501D01*
X73923121Y-77855486D01*
X73919572Y-77874636D01*
X73915598Y-77888877D01*
X73911178Y-77899129D01*
X73906286Y-77906318D01*
X73900900Y-77911365D01*
X73894996Y-77915195D01*
X73888549Y-77918729D01*
X73881537Y-77922892D01*
X73879687Y-77923975D01*
X73874180Y-77926187D01*
X73865868Y-77928214D01*
X73853809Y-77930062D01*
X73837063Y-77931739D01*
X73814687Y-77933255D01*
X73785740Y-77934617D01*
X73749280Y-77935833D01*
X73704367Y-77936911D01*
X73650057Y-77937860D01*
X73585410Y-77938688D01*
X73509484Y-77939403D01*
X73421338Y-77940013D01*
X73320029Y-77940526D01*
X73204617Y-77940950D01*
X73074160Y-77941294D01*
X72927716Y-77941566D01*
X72764344Y-77941773D01*
X72583101Y-77941924D01*
X72383048Y-77942028D01*
X72163241Y-77942092D01*
X71922739Y-77942124D01*
X71660602Y-77942133D01*
X69469031Y-77942133D01*
X69430649Y-77903751D01*
X69406911Y-77876645D01*
X69395111Y-77849747D01*
X69392267Y-77813440D01*
X69392267Y-77761511D01*
X69480206Y-77761511D01*
X69530102Y-77759573D01*
X69640523Y-77740801D01*
X69741987Y-77703783D01*
X69833152Y-77650631D01*
X69912673Y-77583454D01*
X69934249Y-77557805D01*
X70904978Y-77557805D01*
X72081845Y-77560880D01*
X73258711Y-77563955D01*
X73317622Y-77590593D01*
X73342183Y-77602515D01*
X73372434Y-77619754D01*
X73389560Y-77632926D01*
X73397591Y-77640924D01*
X73412493Y-77648622D01*
X73413765Y-77644740D01*
X73415791Y-77621480D01*
X73417626Y-77579126D01*
X73419227Y-77519868D01*
X73420549Y-77445893D01*
X73421548Y-77359390D01*
X73422180Y-77262548D01*
X73422400Y-77157555D01*
X73422349Y-77088644D01*
X73422091Y-76990393D01*
X73421637Y-76900970D01*
X73421010Y-76822667D01*
X73420235Y-76757777D01*
X73419335Y-76708589D01*
X73418334Y-76677396D01*
X73417257Y-76666489D01*
X73414037Y-76667678D01*
X73396452Y-76677824D01*
X73370158Y-76694960D01*
X73357691Y-76703460D01*
X73343622Y-76712671D01*
X73329351Y-76720767D01*
X73313479Y-76727815D01*
X73294609Y-76733883D01*
X73271341Y-76739039D01*
X73242278Y-76743349D01*
X73206021Y-76746881D01*
X73161170Y-76749703D01*
X73106328Y-76751882D01*
X73040097Y-76753486D01*
X72961077Y-76754581D01*
X72867871Y-76755235D01*
X72759079Y-76755516D01*
X72633303Y-76755491D01*
X72489145Y-76755228D01*
X72325207Y-76754794D01*
X72140089Y-76754255D01*
X71961232Y-76753721D01*
X71802374Y-76753195D01*
X71663316Y-76752650D01*
X71542665Y-76752055D01*
X71439028Y-76751381D01*
X71351011Y-76750597D01*
X71277223Y-76749674D01*
X71216269Y-76748581D01*
X71166757Y-76747288D01*
X71127293Y-76745765D01*
X71096484Y-76743981D01*
X71072938Y-76741908D01*
X71055260Y-76739514D01*
X71042059Y-76736770D01*
X71031940Y-76733644D01*
X71023511Y-76730108D01*
X71015375Y-76726209D01*
X70978544Y-76706562D01*
X70948391Y-76687775D01*
X70946908Y-76686728D01*
X70924659Y-76672398D01*
X70911702Y-76666489D01*
X70911249Y-76667496D01*
X70909803Y-76684695D01*
X70908480Y-76721344D01*
X70907316Y-76775038D01*
X70906347Y-76843370D01*
X70905611Y-76923936D01*
X70905142Y-77014330D01*
X70904978Y-77112147D01*
X70904978Y-77557805D01*
X69934249Y-77557805D01*
X69979205Y-77504362D01*
X70031406Y-77415466D01*
X70067930Y-77318875D01*
X70087434Y-77216700D01*
X70088573Y-77111050D01*
X70070005Y-77004036D01*
X70030384Y-76897768D01*
X69972516Y-76800781D01*
X69897684Y-76715707D01*
X69809615Y-76646985D01*
X69710616Y-76596082D01*
X69602993Y-76564465D01*
X69489054Y-76553600D01*
X69392267Y-76553600D01*
X69392267Y-74933247D01*
X69392280Y-74722103D01*
X69392330Y-74517980D01*
X69392430Y-74334314D01*
X69392592Y-74170009D01*
X69392829Y-74023971D01*
X69393153Y-73895106D01*
X69393575Y-73782317D01*
X69394109Y-73684512D01*
X69394767Y-73600596D01*
X69395561Y-73529473D01*
X69395588Y-73527803D01*
X70001867Y-73527803D01*
X70001867Y-74587686D01*
X70064966Y-74549689D01*
X70090005Y-74535007D01*
X70117586Y-74520469D01*
X70145700Y-74508373D01*
X70176551Y-74498468D01*
X70212344Y-74490506D01*
X70255283Y-74484239D01*
X70307574Y-74479418D01*
X70371419Y-74475794D01*
X70449025Y-74473119D01*
X70542594Y-74471143D01*
X70654333Y-74469618D01*
X70786445Y-74468296D01*
X70906434Y-74467387D01*
X71023063Y-74466980D01*
X71118531Y-74467233D01*
X71192556Y-74468143D01*
X71244855Y-74469707D01*
X71275149Y-74471921D01*
X71283156Y-74474780D01*
X71279858Y-74477839D01*
X71258408Y-74495994D01*
X71221889Y-74525725D01*
X71172442Y-74565361D01*
X71112207Y-74613229D01*
X71043327Y-74667657D01*
X70967943Y-74726973D01*
X70888196Y-74789505D01*
X70806228Y-74853579D01*
X70724180Y-74917525D01*
X70644194Y-74979669D01*
X70568411Y-75038339D01*
X70498973Y-75091863D01*
X70438021Y-75138570D01*
X70387696Y-75176786D01*
X70350140Y-75204839D01*
X70327495Y-75221057D01*
X70255212Y-75266365D01*
X70175463Y-75306339D01*
X70107188Y-75327870D01*
X70049844Y-75331173D01*
X70001867Y-75325884D01*
X70002117Y-76457644D01*
X70032722Y-76418133D01*
X70040089Y-76408752D01*
X70094438Y-76345817D01*
X70162259Y-76277003D01*
X70245516Y-76200404D01*
X70346178Y-76114112D01*
X70366847Y-76096948D01*
X70416409Y-76056167D01*
X70477326Y-76006412D01*
X70547898Y-75949045D01*
X70626424Y-75885431D01*
X70711204Y-75816931D01*
X70800537Y-75744910D01*
X70892722Y-75670730D01*
X70911702Y-75655483D01*
X70986060Y-75595754D01*
X71078848Y-75521347D01*
X71169388Y-75448869D01*
X71255978Y-75379686D01*
X71336918Y-75315159D01*
X71410506Y-75256653D01*
X71475044Y-75205530D01*
X71528829Y-75163153D01*
X71570162Y-75130885D01*
X71597342Y-75110090D01*
X71608668Y-75102131D01*
X71612771Y-75103889D01*
X71633334Y-75116770D01*
X71669561Y-75141115D01*
X71719824Y-75175753D01*
X71782492Y-75219514D01*
X71855936Y-75271225D01*
X71938527Y-75329716D01*
X72028636Y-75393816D01*
X72124631Y-75462354D01*
X72224885Y-75534157D01*
X72327768Y-75608056D01*
X72431650Y-75682879D01*
X72534901Y-75757455D01*
X72635892Y-75830613D01*
X72732994Y-75901181D01*
X72824577Y-75967989D01*
X72909011Y-76029865D01*
X72984667Y-76085639D01*
X73049916Y-76134138D01*
X73103128Y-76174193D01*
X73142673Y-76204631D01*
X73168026Y-76225056D01*
X73222295Y-76271101D01*
X73278775Y-76321388D01*
X73328669Y-76368185D01*
X73422400Y-76459349D01*
X73422400Y-75304910D01*
X73346200Y-75305544D01*
X73304160Y-75304426D01*
X73268334Y-75298696D01*
X73230772Y-75286110D01*
X73182577Y-75264432D01*
X73175897Y-75261211D01*
X73126359Y-75235812D01*
X73078369Y-75209004D01*
X73041466Y-75186083D01*
X73034834Y-75181515D01*
X73003593Y-75159484D01*
X72958654Y-75127307D01*
X72902147Y-75086543D01*
X72836204Y-75038755D01*
X72762957Y-74985502D01*
X72684536Y-74928345D01*
X72603072Y-74868845D01*
X72520698Y-74808563D01*
X72439544Y-74749060D01*
X72361742Y-74691895D01*
X72289423Y-74638630D01*
X72224718Y-74590826D01*
X72169759Y-74550043D01*
X72126676Y-74517842D01*
X72097602Y-74495784D01*
X72084667Y-74485429D01*
X72080351Y-74480956D01*
X72078312Y-74476764D01*
X72080926Y-74473357D01*
X72089986Y-74470675D01*
X72107285Y-74468659D01*
X72134614Y-74467252D01*
X72173765Y-74466395D01*
X72226533Y-74466030D01*
X72294707Y-74466097D01*
X72380082Y-74466540D01*
X72484449Y-74467298D01*
X72609600Y-74468315D01*
X72654300Y-74468692D01*
X72775395Y-74469831D01*
X72876688Y-74471028D01*
X72960262Y-74472364D01*
X73028204Y-74473923D01*
X73082599Y-74475785D01*
X73125532Y-74478034D01*
X73159089Y-74480752D01*
X73185355Y-74484021D01*
X73206416Y-74487922D01*
X73224357Y-74492539D01*
X73250770Y-74500808D01*
X73312772Y-74524417D01*
X73365573Y-74550315D01*
X73402645Y-74575465D01*
X73404075Y-74576661D01*
X73408424Y-74578832D01*
X73412026Y-74576672D01*
X73414951Y-74568356D01*
X73417269Y-74552060D01*
X73419051Y-74525959D01*
X73420367Y-74488229D01*
X73421286Y-74437044D01*
X73421878Y-74370580D01*
X73422215Y-74287013D01*
X73422365Y-74184517D01*
X73422400Y-74061268D01*
X73422400Y-73529704D01*
X73364783Y-73568477D01*
X73355893Y-73574568D01*
X73341069Y-73585024D01*
X73327422Y-73594421D01*
X73313765Y-73602817D01*
X73298911Y-73610267D01*
X73281670Y-73616827D01*
X73260855Y-73622554D01*
X73235280Y-73627505D01*
X73203755Y-73631734D01*
X73165093Y-73635299D01*
X73118107Y-73638256D01*
X73061608Y-73640660D01*
X72994409Y-73642569D01*
X72915322Y-73644038D01*
X72823160Y-73645124D01*
X72716734Y-73645882D01*
X72594857Y-73646370D01*
X72456341Y-73646642D01*
X72299999Y-73646757D01*
X72124642Y-73646769D01*
X71929082Y-73646735D01*
X71712133Y-73646711D01*
X71589513Y-73646720D01*
X71384447Y-73646757D01*
X71200116Y-73646773D01*
X71035334Y-73646712D01*
X70888916Y-73646516D01*
X70759674Y-73646130D01*
X70646422Y-73645495D01*
X70547975Y-73644556D01*
X70463144Y-73643255D01*
X70390744Y-73641536D01*
X70329589Y-73639341D01*
X70278492Y-73636615D01*
X70236267Y-73633299D01*
X70201727Y-73629338D01*
X70173686Y-73624675D01*
X70150958Y-73619253D01*
X70132356Y-73613014D01*
X70116693Y-73605903D01*
X70102784Y-73597862D01*
X70089441Y-73588834D01*
X70075479Y-73578764D01*
X70059711Y-73567593D01*
X70001867Y-73527803D01*
X69395588Y-73527803D01*
X69396504Y-73470050D01*
X69397608Y-73421232D01*
X69398884Y-73381923D01*
X69400347Y-73351031D01*
X69402007Y-73327459D01*
X69403878Y-73310114D01*
X69405972Y-73297901D01*
X69408300Y-73289725D01*
X69410876Y-73284492D01*
X69414445Y-73278496D01*
X69417978Y-73271721D01*
X69421488Y-73265522D01*
X69425918Y-73259874D01*
X69432208Y-73254753D01*
X69441301Y-73250131D01*
X69454139Y-73245985D01*
X69471662Y-73242287D01*
X69494813Y-73239013D01*
X69524534Y-73236137D01*
X69561765Y-73233633D01*
X69607449Y-73231476D01*
X69662527Y-73229640D01*
X69727941Y-73228100D01*
X69804633Y-73226830D01*
X69893544Y-73225805D01*
X69995617Y-73224999D01*
X70001867Y-73224966D01*
X70111792Y-73224386D01*
X70243011Y-73223941D01*
X70390216Y-73223638D01*
X70554349Y-73223452D01*
X70736352Y-73223358D01*
X70937165Y-73223329D01*
X71157732Y-73223339D01*
X71398992Y-73223364D01*
X71661889Y-73223378D01*
X71704040Y-73223378D01*
X71964668Y-73223354D01*
X72203796Y-73223315D01*
X72422360Y-73223292D01*
X72621295Y-73223313D01*
G37*
%TD*%
M02*
