%TF.GenerationSoftware,KiCad,Pcbnew,8.0.1*%
%TF.CreationDate,2024-05-08T09:38:19-07:00*%
%TF.ProjectId,breadboard-power-supply,62726561-6462-46f6-9172-642d706f7765,rev?*%
%TF.SameCoordinates,Original*%
%TF.FileFunction,Copper,L1,Top*%
%TF.FilePolarity,Positive*%
%FSLAX46Y46*%
G04 Gerber Fmt 4.6, Leading zero omitted, Abs format (unit mm)*
G04 Created by KiCad (PCBNEW 8.0.1) date 2024-05-08 09:38:19*
%MOMM*%
%LPD*%
G01*
G04 APERTURE LIST*
G04 Aperture macros list*
%AMRoundRect*
0 Rectangle with rounded corners*
0 $1 Rounding radius*
0 $2 $3 $4 $5 $6 $7 $8 $9 X,Y pos of 4 corners*
0 Add a 4 corners polygon primitive as box body*
4,1,4,$2,$3,$4,$5,$6,$7,$8,$9,$2,$3,0*
0 Add four circle primitives for the rounded corners*
1,1,$1+$1,$2,$3*
1,1,$1+$1,$4,$5*
1,1,$1+$1,$6,$7*
1,1,$1+$1,$8,$9*
0 Add four rect primitives between the rounded corners*
20,1,$1+$1,$2,$3,$4,$5,0*
20,1,$1+$1,$4,$5,$6,$7,0*
20,1,$1+$1,$6,$7,$8,$9,0*
20,1,$1+$1,$8,$9,$2,$3,0*%
G04 Aperture macros list end*
%TA.AperFunction,ComponentPad*%
%ADD10R,3.500000X3.500000*%
%TD*%
%TA.AperFunction,ComponentPad*%
%ADD11RoundRect,0.750000X-0.750000X-1.000000X0.750000X-1.000000X0.750000X1.000000X-0.750000X1.000000X0*%
%TD*%
%TA.AperFunction,ComponentPad*%
%ADD12RoundRect,0.875000X-0.875000X-0.875000X0.875000X-0.875000X0.875000X0.875000X-0.875000X0.875000X0*%
%TD*%
%TA.AperFunction,ComponentPad*%
%ADD13O,1.700000X1.700000*%
%TD*%
%TA.AperFunction,ComponentPad*%
%ADD14R,1.700000X1.700000*%
%TD*%
%TA.AperFunction,ComponentPad*%
%ADD15C,1.600000*%
%TD*%
%TA.AperFunction,ComponentPad*%
%ADD16C,3.000000*%
%TD*%
%TA.AperFunction,ComponentPad*%
%ADD17R,3.000000X3.000000*%
%TD*%
%TA.AperFunction,ComponentPad*%
%ADD18C,1.400000*%
%TD*%
%TA.AperFunction,ComponentPad*%
%ADD19O,1.400000X1.400000*%
%TD*%
%TA.AperFunction,ComponentPad*%
%ADD20R,1.905000X2.000000*%
%TD*%
%TA.AperFunction,ComponentPad*%
%ADD21O,1.905000X2.000000*%
%TD*%
%TA.AperFunction,ComponentPad*%
%ADD22C,1.800000*%
%TD*%
%TA.AperFunction,ComponentPad*%
%ADD23R,1.800000X1.800000*%
%TD*%
%TA.AperFunction,ComponentPad*%
%ADD24R,1.500000X1.500000*%
%TD*%
%TA.AperFunction,ViaPad*%
%ADD25C,0.900000*%
%TD*%
%TA.AperFunction,Conductor*%
%ADD26C,0.350000*%
%TD*%
%TA.AperFunction,Conductor*%
%ADD27C,0.200000*%
%TD*%
G04 APERTURE END LIST*
D10*
%TO.P,J6,1*%
%TO.N,/PWR_input*%
X81250000Y-77750000D03*
D11*
%TO.P,J6,2*%
%TO.N,GND*%
X75250000Y-77750000D03*
D12*
%TO.P,J6,3*%
X78250000Y-82450000D03*
%TD*%
D13*
%TO.P,J3,3,Pin_3*%
%TO.N,/5V*%
X79290000Y-54750000D03*
%TO.P,J3,2,Pin_2*%
%TO.N,/PWR_output*%
X76750000Y-54750000D03*
D14*
%TO.P,J3,1,Pin_1*%
%TO.N,/3.3V*%
X74210000Y-54750000D03*
%TD*%
D15*
%TO.P,C3,1*%
%TO.N,/3.3V*%
X74750000Y-93500000D03*
%TO.P,C3,2*%
%TO.N,GND*%
X72250000Y-93500000D03*
%TD*%
D16*
%TO.P,J7,2,Pin_2*%
%TO.N,/PWR_output*%
X89080000Y-101000000D03*
D17*
%TO.P,J7,1,Pin_1*%
%TO.N,GND*%
X84000000Y-101000000D03*
%TD*%
D18*
%TO.P,R1,1*%
%TO.N,Net-(D1-A)*%
X84250000Y-71000000D03*
D19*
%TO.P,R1,2*%
%TO.N,/12V*%
X91870000Y-71000000D03*
%TD*%
D13*
%TO.P,J4,3,Pin_3*%
%TO.N,/5V*%
X79055000Y-103500000D03*
%TO.P,J4,2,Pin_2*%
%TO.N,/PWR_output*%
X76515000Y-103500000D03*
D14*
%TO.P,J4,1,Pin_1*%
%TO.N,/3.3V*%
X73975000Y-103500000D03*
%TD*%
D15*
%TO.P,C1,1*%
%TO.N,/12V*%
X80000000Y-60750000D03*
%TO.P,C1,2*%
%TO.N,GND*%
X77500000Y-60750000D03*
%TD*%
D20*
%TO.P,U1,1,VI*%
%TO.N,/12V*%
X78500000Y-67750000D03*
D21*
%TO.P,U1,2,GND*%
%TO.N,GND*%
X75960000Y-67750000D03*
%TO.P,U1,3,VO*%
%TO.N,/5V*%
X73420000Y-67750000D03*
%TD*%
D22*
%TO.P,D1,2,A*%
%TO.N,Net-(D1-A)*%
X88750000Y-77960000D03*
D23*
%TO.P,D1,1,K*%
%TO.N,GND*%
X88750000Y-80500000D03*
%TD*%
D15*
%TO.P,C2,1*%
%TO.N,/5V*%
X71250000Y-60750000D03*
%TO.P,C2,2*%
%TO.N,GND*%
X73750000Y-60750000D03*
%TD*%
D18*
%TO.P,R3,1*%
%TO.N,GND*%
X84440000Y-86500000D03*
D19*
%TO.P,R3,2*%
%TO.N,Net-(U2-ADJ)*%
X92060000Y-86500000D03*
%TD*%
%TO.P,R2,2*%
%TO.N,/3.3V*%
X84440000Y-92500000D03*
D18*
%TO.P,R2,1*%
%TO.N,Net-(U2-ADJ)*%
X92060000Y-92500000D03*
%TD*%
D13*
%TO.P,J1,2,Pin_2*%
%TO.N,/PWR_output*%
X95750000Y-103515000D03*
D14*
%TO.P,J1,1,Pin_1*%
%TO.N,GND*%
X95750000Y-100975000D03*
%TD*%
D24*
%TO.P,SW1,1,1*%
%TO.N,/PWR_input*%
X87710000Y-65500000D03*
D15*
%TO.P,SW1,2,2*%
%TO.N,/12V*%
X90250000Y-65500000D03*
%TO.P,SW1,3,3*%
%TO.N,unconnected-(SW1-Pad3)*%
X85170000Y-65500000D03*
%TD*%
D16*
%TO.P,J5,2,Pin_2*%
%TO.N,/PWR_output*%
X89830000Y-57250000D03*
D17*
%TO.P,J5,1,Pin_1*%
%TO.N,GND*%
X84750000Y-57250000D03*
%TD*%
D20*
%TO.P,U2,1,ADJ*%
%TO.N,Net-(U2-ADJ)*%
X73420000Y-88500000D03*
D21*
%TO.P,U2,2,VO*%
%TO.N,/3.3V*%
X75960000Y-88500000D03*
%TO.P,U2,3,VI*%
%TO.N,/12V*%
X78500000Y-88500000D03*
%TD*%
D13*
%TO.P,J2,2,Pin_2*%
%TO.N,/PWR_output*%
X95750000Y-57790000D03*
D14*
%TO.P,J2,1,Pin_1*%
%TO.N,GND*%
X95750000Y-55250000D03*
%TD*%
D25*
%TO.N,/3.3V*%
X83750000Y-94250000D03*
%TD*%
D26*
%TO.N,/PWR_output*%
X92440000Y-103440000D02*
X95730000Y-103440000D01*
X95758000Y-57648000D02*
X90228000Y-57648000D01*
D27*
%TO.N,Net-(D1-A)*%
X88750000Y-75500000D02*
X88750000Y-77960000D01*
X84250000Y-71000000D02*
X88750000Y-75500000D01*
D26*
%TO.N,/PWR_input*%
X81250000Y-71000000D02*
X81250000Y-77750000D01*
X84605000Y-68750000D02*
X83500000Y-68750000D01*
X87710000Y-65645000D02*
X84605000Y-68750000D01*
X83500000Y-68750000D02*
X81250000Y-71000000D01*
X87710000Y-65500000D02*
X87710000Y-65645000D01*
%TO.N,/PWR_output*%
X89830000Y-56830000D02*
X89830000Y-57250000D01*
X86475000Y-53475000D02*
X89830000Y-56830000D01*
X76750000Y-54750000D02*
X78025000Y-53475000D01*
X90228000Y-57648000D02*
X89830000Y-57250000D01*
X78025000Y-53475000D02*
X86475000Y-53475000D01*
X90250000Y-57250000D02*
X89830000Y-57250000D01*
X93325000Y-98175000D02*
X93325000Y-60325000D01*
X90500000Y-101000000D02*
X93325000Y-98175000D01*
X93325000Y-60325000D02*
X90250000Y-57250000D01*
X89080000Y-101000000D02*
X90500000Y-101000000D01*
X89080000Y-101000000D02*
X90000000Y-101000000D01*
X86725000Y-104775000D02*
X89080000Y-102420000D01*
X89080000Y-102420000D02*
X89080000Y-101000000D01*
X77775000Y-104775000D02*
X86725000Y-104775000D01*
X76515000Y-103515000D02*
X77775000Y-104775000D01*
X76515000Y-103500000D02*
X76515000Y-103515000D01*
X90000000Y-101000000D02*
X92440000Y-103440000D01*
%TO.N,/3.3V*%
X74750000Y-103250000D02*
X74750000Y-93500000D01*
X74000000Y-103500000D02*
X74250000Y-103750000D01*
X73975000Y-103500000D02*
X74000000Y-103500000D01*
X74250000Y-103750000D02*
X74750000Y-103250000D01*
X75960000Y-92790000D02*
X75960000Y-88500000D01*
X75000000Y-93750000D02*
X75960000Y-92790000D01*
X74750000Y-93500000D02*
X75000000Y-93750000D01*
X84250000Y-93750000D02*
X83750000Y-94250000D01*
X84250000Y-92500000D02*
X84250000Y-93750000D01*
X84440000Y-92500000D02*
X84250000Y-92500000D01*
D27*
%TO.N,Net-(U2-ADJ)*%
X92060000Y-86500000D02*
X92060000Y-92500000D01*
D26*
%TO.N,/5V*%
X73420000Y-67750000D02*
X68670000Y-72500000D01*
X68670000Y-72500000D02*
X68500000Y-72500000D01*
X81500000Y-86250000D02*
X82500000Y-87250000D01*
X78250000Y-86250000D02*
X81500000Y-86250000D01*
X68500000Y-72500000D02*
X68500000Y-81750000D01*
X79055000Y-99445000D02*
X79055000Y-103500000D01*
X74500000Y-82500000D02*
X78250000Y-86250000D01*
X82500000Y-87250000D02*
X82500000Y-96000000D01*
X68500000Y-81750000D02*
X69250000Y-82500000D01*
X69250000Y-82500000D02*
X74500000Y-82500000D01*
X82500000Y-96000000D02*
X79055000Y-99445000D01*
%TO.N,/12V*%
X92250000Y-68000000D02*
X91870000Y-68380000D01*
X91870000Y-68380000D02*
X91870000Y-71000000D01*
X92250000Y-67500000D02*
X92250000Y-68000000D01*
X90250000Y-65500000D02*
X92250000Y-67500000D01*
X85500000Y-60750000D02*
X80000000Y-60750000D01*
X90250000Y-65500000D02*
X85500000Y-60750000D01*
X80000000Y-66250000D02*
X78500000Y-67750000D01*
%TO.N,unconnected-(SW1-Pad3)*%
X84750000Y-65500000D02*
X85170000Y-65500000D01*
%TO.N,/12V*%
X80000000Y-60750000D02*
X80000000Y-66250000D01*
%TO.N,/5V*%
X79290000Y-54750000D02*
X77097588Y-56942412D01*
X71250000Y-65580000D02*
X73420000Y-67750000D01*
X75057588Y-56942412D02*
X71250000Y-60750000D01*
X71250000Y-60750000D02*
X71250000Y-65580000D01*
X77097588Y-56942412D02*
X75057588Y-56942412D01*
%TO.N,/3.3V*%
X66925000Y-84750000D02*
X72257500Y-84750000D01*
X74210000Y-54750000D02*
X66925000Y-62035000D01*
X72257500Y-84750000D02*
X75960000Y-88452500D01*
X66925000Y-62035000D02*
X66925000Y-84750000D01*
X75960000Y-88452500D02*
X75960000Y-88500000D01*
%TD*%
M02*
