M48
; DRILL file {KiCad 8.0.1} date 2024-05-08T09:38:38-0700
; FORMAT={-:-/ absolute / inch / decimal}
; #@! TF.CreationDate,2024-05-08T09:38:38-07:00
; #@! TF.GenerationSoftware,Kicad,Pcbnew,8.0.1
; #@! TF.FileFunction,Plated,1,2,PTH
FMAT,2
INCH
; #@! TA.AperFunction,Plated,PTH,ViaDrill
T1C0.0197
; #@! TA.AperFunction,Plated,PTH,ComponentDrill
T2C0.0276
; #@! TA.AperFunction,Plated,PTH,ComponentDrill
T3C0.0315
; #@! TA.AperFunction,Plated,PTH,ComponentDrill
T4C0.0354
; #@! TA.AperFunction,Plated,PTH,ComponentDrill
T5C0.0394
; #@! TA.AperFunction,Plated,PTH,ComponentDrill
T6C0.0433
; #@! TA.AperFunction,Plated,PTH,ComponentDrill
T7C0.0598
%
G90
G05
T1
X3.2972Y-3.7106
T2
X3.3169Y-2.7953
X3.3244Y-3.4055
X3.3244Y-3.6417
X3.6169Y-2.7953
X3.6244Y-3.4055
X3.6244Y-3.6417
T3
X2.8051Y-2.3917
X2.8445Y-3.6811
X2.9035Y-2.3917
X2.9429Y-3.6811
X3.0512Y-2.3917
X3.1496Y-2.3917
X3.3531Y-2.5787
X3.4531Y-2.5787
X3.5531Y-2.5787
T4
X3.4941Y-3.0693
X3.4941Y-3.1693
T5
X2.9124Y-4.0748
X2.9217Y-2.1555
X3.0124Y-4.0748
X3.0217Y-2.1555
X3.1124Y-4.0748
X3.1217Y-2.1555
X3.7697Y-2.1752
X3.7697Y-2.2752
X3.7697Y-3.9754
X3.7697Y-4.0754
T6
X2.8906Y-2.6673
X2.8906Y-3.4843
X2.9906Y-2.6673
X2.9906Y-3.4843
X3.0906Y-2.6673
X3.0906Y-3.4843
T7
X3.3071Y-3.9764
X3.3366Y-2.2539
X3.5071Y-3.9764
X3.5366Y-2.2539
T5
G00X2.9626Y-3.0217
M15
G01X2.9626Y-3.1004
M16
G05
G00X3.0413Y-3.2461
M15
G01X3.1201Y-3.2461
M16
G05
G00X3.1988Y-3.0217
M15
G01X3.1988Y-3.1004
M16
G05
M30
