%TF.GenerationSoftware,KiCad,Pcbnew,8.0.1*%
%TF.CreationDate,2024-05-08T09:38:19-07:00*%
%TF.ProjectId,breadboard-power-supply,62726561-6462-46f6-9172-642d706f7765,rev?*%
%TF.SameCoordinates,Original*%
%TF.FileFunction,Legend,Top*%
%TF.FilePolarity,Positive*%
%FSLAX46Y46*%
G04 Gerber Fmt 4.6, Leading zero omitted, Abs format (unit mm)*
G04 Created by KiCad (PCBNEW 8.0.1) date 2024-05-08 09:38:19*
%MOMM*%
%LPD*%
G01*
G04 APERTURE LIST*
%ADD10C,0.100000*%
%ADD11C,0.150000*%
%ADD12C,0.120000*%
G04 APERTURE END LIST*
D10*
X85244360Y-67372419D02*
X85434836Y-67372419D01*
X85434836Y-67372419D02*
X85530074Y-67420038D01*
X85530074Y-67420038D02*
X85625312Y-67515276D01*
X85625312Y-67515276D02*
X85672931Y-67705752D01*
X85672931Y-67705752D02*
X85672931Y-68039085D01*
X85672931Y-68039085D02*
X85625312Y-68229561D01*
X85625312Y-68229561D02*
X85530074Y-68324800D01*
X85530074Y-68324800D02*
X85434836Y-68372419D01*
X85434836Y-68372419D02*
X85244360Y-68372419D01*
X85244360Y-68372419D02*
X85149122Y-68324800D01*
X85149122Y-68324800D02*
X85053884Y-68229561D01*
X85053884Y-68229561D02*
X85006265Y-68039085D01*
X85006265Y-68039085D02*
X85006265Y-67705752D01*
X85006265Y-67705752D02*
X85053884Y-67515276D01*
X85053884Y-67515276D02*
X85149122Y-67420038D01*
X85149122Y-67420038D02*
X85244360Y-67372419D01*
X85958646Y-67705752D02*
X86339598Y-67705752D01*
X86101503Y-68372419D02*
X86101503Y-67515276D01*
X86101503Y-67515276D02*
X86149122Y-67420038D01*
X86149122Y-67420038D02*
X86244360Y-67372419D01*
X86244360Y-67372419D02*
X86339598Y-67372419D01*
X86530075Y-67705752D02*
X86911027Y-67705752D01*
X86672932Y-68372419D02*
X86672932Y-67515276D01*
X86672932Y-67515276D02*
X86720551Y-67420038D01*
X86720551Y-67420038D02*
X86815789Y-67372419D01*
X86815789Y-67372419D02*
X86911027Y-67372419D01*
X89994360Y-67372419D02*
X90184836Y-67372419D01*
X90184836Y-67372419D02*
X90280074Y-67420038D01*
X90280074Y-67420038D02*
X90375312Y-67515276D01*
X90375312Y-67515276D02*
X90422931Y-67705752D01*
X90422931Y-67705752D02*
X90422931Y-68039085D01*
X90422931Y-68039085D02*
X90375312Y-68229561D01*
X90375312Y-68229561D02*
X90280074Y-68324800D01*
X90280074Y-68324800D02*
X90184836Y-68372419D01*
X90184836Y-68372419D02*
X89994360Y-68372419D01*
X89994360Y-68372419D02*
X89899122Y-68324800D01*
X89899122Y-68324800D02*
X89803884Y-68229561D01*
X89803884Y-68229561D02*
X89756265Y-68039085D01*
X89756265Y-68039085D02*
X89756265Y-67705752D01*
X89756265Y-67705752D02*
X89803884Y-67515276D01*
X89803884Y-67515276D02*
X89899122Y-67420038D01*
X89899122Y-67420038D02*
X89994360Y-67372419D01*
X90851503Y-67705752D02*
X90851503Y-68372419D01*
X90851503Y-67800990D02*
X90899122Y-67753371D01*
X90899122Y-67753371D02*
X90994360Y-67705752D01*
X90994360Y-67705752D02*
X91137217Y-67705752D01*
X91137217Y-67705752D02*
X91232455Y-67753371D01*
X91232455Y-67753371D02*
X91280074Y-67848609D01*
X91280074Y-67848609D02*
X91280074Y-68372419D01*
X89803884Y-82491466D02*
X90565789Y-82491466D01*
X89303884Y-75491466D02*
X90065789Y-75491466D01*
X89684836Y-75872419D02*
X89684836Y-75110514D01*
X72458646Y-100372419D02*
X73077693Y-100372419D01*
X73077693Y-100372419D02*
X72744360Y-100753371D01*
X72744360Y-100753371D02*
X72887217Y-100753371D01*
X72887217Y-100753371D02*
X72982455Y-100800990D01*
X72982455Y-100800990D02*
X73030074Y-100848609D01*
X73030074Y-100848609D02*
X73077693Y-100943847D01*
X73077693Y-100943847D02*
X73077693Y-101181942D01*
X73077693Y-101181942D02*
X73030074Y-101277180D01*
X73030074Y-101277180D02*
X72982455Y-101324800D01*
X72982455Y-101324800D02*
X72887217Y-101372419D01*
X72887217Y-101372419D02*
X72601503Y-101372419D01*
X72601503Y-101372419D02*
X72506265Y-101324800D01*
X72506265Y-101324800D02*
X72458646Y-101277180D01*
X73506265Y-101277180D02*
X73553884Y-101324800D01*
X73553884Y-101324800D02*
X73506265Y-101372419D01*
X73506265Y-101372419D02*
X73458646Y-101324800D01*
X73458646Y-101324800D02*
X73506265Y-101277180D01*
X73506265Y-101277180D02*
X73506265Y-101372419D01*
X73887217Y-100372419D02*
X74506264Y-100372419D01*
X74506264Y-100372419D02*
X74172931Y-100753371D01*
X74172931Y-100753371D02*
X74315788Y-100753371D01*
X74315788Y-100753371D02*
X74411026Y-100800990D01*
X74411026Y-100800990D02*
X74458645Y-100848609D01*
X74458645Y-100848609D02*
X74506264Y-100943847D01*
X74506264Y-100943847D02*
X74506264Y-101181942D01*
X74506264Y-101181942D02*
X74458645Y-101277180D01*
X74458645Y-101277180D02*
X74411026Y-101324800D01*
X74411026Y-101324800D02*
X74315788Y-101372419D01*
X74315788Y-101372419D02*
X74030074Y-101372419D01*
X74030074Y-101372419D02*
X73934836Y-101324800D01*
X73934836Y-101324800D02*
X73887217Y-101277180D01*
X74791979Y-100372419D02*
X75125312Y-101372419D01*
X75125312Y-101372419D02*
X75458645Y-100372419D01*
X72208646Y-56372419D02*
X72827693Y-56372419D01*
X72827693Y-56372419D02*
X72494360Y-56753371D01*
X72494360Y-56753371D02*
X72637217Y-56753371D01*
X72637217Y-56753371D02*
X72732455Y-56800990D01*
X72732455Y-56800990D02*
X72780074Y-56848609D01*
X72780074Y-56848609D02*
X72827693Y-56943847D01*
X72827693Y-56943847D02*
X72827693Y-57181942D01*
X72827693Y-57181942D02*
X72780074Y-57277180D01*
X72780074Y-57277180D02*
X72732455Y-57324800D01*
X72732455Y-57324800D02*
X72637217Y-57372419D01*
X72637217Y-57372419D02*
X72351503Y-57372419D01*
X72351503Y-57372419D02*
X72256265Y-57324800D01*
X72256265Y-57324800D02*
X72208646Y-57277180D01*
X73256265Y-57277180D02*
X73303884Y-57324800D01*
X73303884Y-57324800D02*
X73256265Y-57372419D01*
X73256265Y-57372419D02*
X73208646Y-57324800D01*
X73208646Y-57324800D02*
X73256265Y-57277180D01*
X73256265Y-57277180D02*
X73256265Y-57372419D01*
X73637217Y-56372419D02*
X74256264Y-56372419D01*
X74256264Y-56372419D02*
X73922931Y-56753371D01*
X73922931Y-56753371D02*
X74065788Y-56753371D01*
X74065788Y-56753371D02*
X74161026Y-56800990D01*
X74161026Y-56800990D02*
X74208645Y-56848609D01*
X74208645Y-56848609D02*
X74256264Y-56943847D01*
X74256264Y-56943847D02*
X74256264Y-57181942D01*
X74256264Y-57181942D02*
X74208645Y-57277180D01*
X74208645Y-57277180D02*
X74161026Y-57324800D01*
X74161026Y-57324800D02*
X74065788Y-57372419D01*
X74065788Y-57372419D02*
X73780074Y-57372419D01*
X73780074Y-57372419D02*
X73684836Y-57324800D01*
X73684836Y-57324800D02*
X73637217Y-57277180D01*
X74541979Y-56372419D02*
X74875312Y-57372419D01*
X74875312Y-57372419D02*
X75208645Y-56372419D01*
X78780074Y-56372419D02*
X78303884Y-56372419D01*
X78303884Y-56372419D02*
X78256265Y-56848609D01*
X78256265Y-56848609D02*
X78303884Y-56800990D01*
X78303884Y-56800990D02*
X78399122Y-56753371D01*
X78399122Y-56753371D02*
X78637217Y-56753371D01*
X78637217Y-56753371D02*
X78732455Y-56800990D01*
X78732455Y-56800990D02*
X78780074Y-56848609D01*
X78780074Y-56848609D02*
X78827693Y-56943847D01*
X78827693Y-56943847D02*
X78827693Y-57181942D01*
X78827693Y-57181942D02*
X78780074Y-57277180D01*
X78780074Y-57277180D02*
X78732455Y-57324800D01*
X78732455Y-57324800D02*
X78637217Y-57372419D01*
X78637217Y-57372419D02*
X78399122Y-57372419D01*
X78399122Y-57372419D02*
X78303884Y-57324800D01*
X78303884Y-57324800D02*
X78256265Y-57277180D01*
X79113408Y-56372419D02*
X79446741Y-57372419D01*
X79446741Y-57372419D02*
X79780074Y-56372419D01*
X79030074Y-100622419D02*
X78553884Y-100622419D01*
X78553884Y-100622419D02*
X78506265Y-101098609D01*
X78506265Y-101098609D02*
X78553884Y-101050990D01*
X78553884Y-101050990D02*
X78649122Y-101003371D01*
X78649122Y-101003371D02*
X78887217Y-101003371D01*
X78887217Y-101003371D02*
X78982455Y-101050990D01*
X78982455Y-101050990D02*
X79030074Y-101098609D01*
X79030074Y-101098609D02*
X79077693Y-101193847D01*
X79077693Y-101193847D02*
X79077693Y-101431942D01*
X79077693Y-101431942D02*
X79030074Y-101527180D01*
X79030074Y-101527180D02*
X78982455Y-101574800D01*
X78982455Y-101574800D02*
X78887217Y-101622419D01*
X78887217Y-101622419D02*
X78649122Y-101622419D01*
X78649122Y-101622419D02*
X78553884Y-101574800D01*
X78553884Y-101574800D02*
X78506265Y-101527180D01*
X79363408Y-100622419D02*
X79696741Y-101622419D01*
X79696741Y-101622419D02*
X80030074Y-100622419D01*
X83827693Y-61420038D02*
X83732455Y-61372419D01*
X83732455Y-61372419D02*
X83589598Y-61372419D01*
X83589598Y-61372419D02*
X83446741Y-61420038D01*
X83446741Y-61420038D02*
X83351503Y-61515276D01*
X83351503Y-61515276D02*
X83303884Y-61610514D01*
X83303884Y-61610514D02*
X83256265Y-61800990D01*
X83256265Y-61800990D02*
X83256265Y-61943847D01*
X83256265Y-61943847D02*
X83303884Y-62134323D01*
X83303884Y-62134323D02*
X83351503Y-62229561D01*
X83351503Y-62229561D02*
X83446741Y-62324800D01*
X83446741Y-62324800D02*
X83589598Y-62372419D01*
X83589598Y-62372419D02*
X83684836Y-62372419D01*
X83684836Y-62372419D02*
X83827693Y-62324800D01*
X83827693Y-62324800D02*
X83875312Y-62277180D01*
X83875312Y-62277180D02*
X83875312Y-61943847D01*
X83875312Y-61943847D02*
X83684836Y-61943847D01*
X84303884Y-62372419D02*
X84303884Y-61372419D01*
X84303884Y-61372419D02*
X84875312Y-62372419D01*
X84875312Y-62372419D02*
X84875312Y-61372419D01*
X85351503Y-62372419D02*
X85351503Y-61372419D01*
X85351503Y-61372419D02*
X85589598Y-61372419D01*
X85589598Y-61372419D02*
X85732455Y-61420038D01*
X85732455Y-61420038D02*
X85827693Y-61515276D01*
X85827693Y-61515276D02*
X85875312Y-61610514D01*
X85875312Y-61610514D02*
X85922931Y-61800990D01*
X85922931Y-61800990D02*
X85922931Y-61943847D01*
X85922931Y-61943847D02*
X85875312Y-62134323D01*
X85875312Y-62134323D02*
X85827693Y-62229561D01*
X85827693Y-62229561D02*
X85732455Y-62324800D01*
X85732455Y-62324800D02*
X85589598Y-62372419D01*
X85589598Y-62372419D02*
X85351503Y-62372419D01*
X83077693Y-95920038D02*
X82982455Y-95872419D01*
X82982455Y-95872419D02*
X82839598Y-95872419D01*
X82839598Y-95872419D02*
X82696741Y-95920038D01*
X82696741Y-95920038D02*
X82601503Y-96015276D01*
X82601503Y-96015276D02*
X82553884Y-96110514D01*
X82553884Y-96110514D02*
X82506265Y-96300990D01*
X82506265Y-96300990D02*
X82506265Y-96443847D01*
X82506265Y-96443847D02*
X82553884Y-96634323D01*
X82553884Y-96634323D02*
X82601503Y-96729561D01*
X82601503Y-96729561D02*
X82696741Y-96824800D01*
X82696741Y-96824800D02*
X82839598Y-96872419D01*
X82839598Y-96872419D02*
X82934836Y-96872419D01*
X82934836Y-96872419D02*
X83077693Y-96824800D01*
X83077693Y-96824800D02*
X83125312Y-96777180D01*
X83125312Y-96777180D02*
X83125312Y-96443847D01*
X83125312Y-96443847D02*
X82934836Y-96443847D01*
X83553884Y-96872419D02*
X83553884Y-95872419D01*
X83553884Y-95872419D02*
X84125312Y-96872419D01*
X84125312Y-96872419D02*
X84125312Y-95872419D01*
X84601503Y-96872419D02*
X84601503Y-95872419D01*
X84601503Y-95872419D02*
X84839598Y-95872419D01*
X84839598Y-95872419D02*
X84982455Y-95920038D01*
X84982455Y-95920038D02*
X85077693Y-96015276D01*
X85077693Y-96015276D02*
X85125312Y-96110514D01*
X85125312Y-96110514D02*
X85172931Y-96300990D01*
X85172931Y-96300990D02*
X85172931Y-96443847D01*
X85172931Y-96443847D02*
X85125312Y-96634323D01*
X85125312Y-96634323D02*
X85077693Y-96729561D01*
X85077693Y-96729561D02*
X84982455Y-96824800D01*
X84982455Y-96824800D02*
X84839598Y-96872419D01*
X84839598Y-96872419D02*
X84601503Y-96872419D01*
X92420038Y-101672306D02*
X92372419Y-101767544D01*
X92372419Y-101767544D02*
X92372419Y-101910401D01*
X92372419Y-101910401D02*
X92420038Y-102053258D01*
X92420038Y-102053258D02*
X92515276Y-102148496D01*
X92515276Y-102148496D02*
X92610514Y-102196115D01*
X92610514Y-102196115D02*
X92800990Y-102243734D01*
X92800990Y-102243734D02*
X92943847Y-102243734D01*
X92943847Y-102243734D02*
X93134323Y-102196115D01*
X93134323Y-102196115D02*
X93229561Y-102148496D01*
X93229561Y-102148496D02*
X93324800Y-102053258D01*
X93324800Y-102053258D02*
X93372419Y-101910401D01*
X93372419Y-101910401D02*
X93372419Y-101815163D01*
X93372419Y-101815163D02*
X93324800Y-101672306D01*
X93324800Y-101672306D02*
X93277180Y-101624687D01*
X93277180Y-101624687D02*
X92943847Y-101624687D01*
X92943847Y-101624687D02*
X92943847Y-101815163D01*
X93372419Y-101196115D02*
X92372419Y-101196115D01*
X92372419Y-101196115D02*
X93372419Y-100624687D01*
X93372419Y-100624687D02*
X92372419Y-100624687D01*
X93372419Y-100148496D02*
X92372419Y-100148496D01*
X92372419Y-100148496D02*
X92372419Y-99910401D01*
X92372419Y-99910401D02*
X92420038Y-99767544D01*
X92420038Y-99767544D02*
X92515276Y-99672306D01*
X92515276Y-99672306D02*
X92610514Y-99624687D01*
X92610514Y-99624687D02*
X92800990Y-99577068D01*
X92800990Y-99577068D02*
X92943847Y-99577068D01*
X92943847Y-99577068D02*
X93134323Y-99624687D01*
X93134323Y-99624687D02*
X93229561Y-99672306D01*
X93229561Y-99672306D02*
X93324800Y-99767544D01*
X93324800Y-99767544D02*
X93372419Y-99910401D01*
X93372419Y-99910401D02*
X93372419Y-100148496D01*
X92920038Y-55422306D02*
X92872419Y-55517544D01*
X92872419Y-55517544D02*
X92872419Y-55660401D01*
X92872419Y-55660401D02*
X92920038Y-55803258D01*
X92920038Y-55803258D02*
X93015276Y-55898496D01*
X93015276Y-55898496D02*
X93110514Y-55946115D01*
X93110514Y-55946115D02*
X93300990Y-55993734D01*
X93300990Y-55993734D02*
X93443847Y-55993734D01*
X93443847Y-55993734D02*
X93634323Y-55946115D01*
X93634323Y-55946115D02*
X93729561Y-55898496D01*
X93729561Y-55898496D02*
X93824800Y-55803258D01*
X93824800Y-55803258D02*
X93872419Y-55660401D01*
X93872419Y-55660401D02*
X93872419Y-55565163D01*
X93872419Y-55565163D02*
X93824800Y-55422306D01*
X93824800Y-55422306D02*
X93777180Y-55374687D01*
X93777180Y-55374687D02*
X93443847Y-55374687D01*
X93443847Y-55374687D02*
X93443847Y-55565163D01*
X93872419Y-54946115D02*
X92872419Y-54946115D01*
X92872419Y-54946115D02*
X93872419Y-54374687D01*
X93872419Y-54374687D02*
X92872419Y-54374687D01*
X93872419Y-53898496D02*
X92872419Y-53898496D01*
X92872419Y-53898496D02*
X92872419Y-53660401D01*
X92872419Y-53660401D02*
X92920038Y-53517544D01*
X92920038Y-53517544D02*
X93015276Y-53422306D01*
X93015276Y-53422306D02*
X93110514Y-53374687D01*
X93110514Y-53374687D02*
X93300990Y-53327068D01*
X93300990Y-53327068D02*
X93443847Y-53327068D01*
X93443847Y-53327068D02*
X93634323Y-53374687D01*
X93634323Y-53374687D02*
X93729561Y-53422306D01*
X93729561Y-53422306D02*
X93824800Y-53517544D01*
X93824800Y-53517544D02*
X93872419Y-53660401D01*
X93872419Y-53660401D02*
X93872419Y-53898496D01*
D11*
X72466666Y-82954819D02*
X72466666Y-83669104D01*
X72466666Y-83669104D02*
X72419047Y-83811961D01*
X72419047Y-83811961D02*
X72323809Y-83907200D01*
X72323809Y-83907200D02*
X72180952Y-83954819D01*
X72180952Y-83954819D02*
X72085714Y-83954819D01*
X73371428Y-82954819D02*
X73180952Y-82954819D01*
X73180952Y-82954819D02*
X73085714Y-83002438D01*
X73085714Y-83002438D02*
X73038095Y-83050057D01*
X73038095Y-83050057D02*
X72942857Y-83192914D01*
X72942857Y-83192914D02*
X72895238Y-83383390D01*
X72895238Y-83383390D02*
X72895238Y-83764342D01*
X72895238Y-83764342D02*
X72942857Y-83859580D01*
X72942857Y-83859580D02*
X72990476Y-83907200D01*
X72990476Y-83907200D02*
X73085714Y-83954819D01*
X73085714Y-83954819D02*
X73276190Y-83954819D01*
X73276190Y-83954819D02*
X73371428Y-83907200D01*
X73371428Y-83907200D02*
X73419047Y-83859580D01*
X73419047Y-83859580D02*
X73466666Y-83764342D01*
X73466666Y-83764342D02*
X73466666Y-83526247D01*
X73466666Y-83526247D02*
X73419047Y-83431009D01*
X73419047Y-83431009D02*
X73371428Y-83383390D01*
X73371428Y-83383390D02*
X73276190Y-83335771D01*
X73276190Y-83335771D02*
X73085714Y-83335771D01*
X73085714Y-83335771D02*
X72990476Y-83383390D01*
X72990476Y-83383390D02*
X72942857Y-83431009D01*
X72942857Y-83431009D02*
X72895238Y-83526247D01*
X71334819Y-55083333D02*
X72049104Y-55083333D01*
X72049104Y-55083333D02*
X72191961Y-55130952D01*
X72191961Y-55130952D02*
X72287200Y-55226190D01*
X72287200Y-55226190D02*
X72334819Y-55369047D01*
X72334819Y-55369047D02*
X72334819Y-55464285D01*
X71334819Y-54702380D02*
X71334819Y-54083333D01*
X71334819Y-54083333D02*
X71715771Y-54416666D01*
X71715771Y-54416666D02*
X71715771Y-54273809D01*
X71715771Y-54273809D02*
X71763390Y-54178571D01*
X71763390Y-54178571D02*
X71811009Y-54130952D01*
X71811009Y-54130952D02*
X71906247Y-54083333D01*
X71906247Y-54083333D02*
X72144342Y-54083333D01*
X72144342Y-54083333D02*
X72239580Y-54130952D01*
X72239580Y-54130952D02*
X72287200Y-54178571D01*
X72287200Y-54178571D02*
X72334819Y-54273809D01*
X72334819Y-54273809D02*
X72334819Y-54559523D01*
X72334819Y-54559523D02*
X72287200Y-54654761D01*
X72287200Y-54654761D02*
X72239580Y-54702380D01*
X73333333Y-95909580D02*
X73285714Y-95957200D01*
X73285714Y-95957200D02*
X73142857Y-96004819D01*
X73142857Y-96004819D02*
X73047619Y-96004819D01*
X73047619Y-96004819D02*
X72904762Y-95957200D01*
X72904762Y-95957200D02*
X72809524Y-95861961D01*
X72809524Y-95861961D02*
X72761905Y-95766723D01*
X72761905Y-95766723D02*
X72714286Y-95576247D01*
X72714286Y-95576247D02*
X72714286Y-95433390D01*
X72714286Y-95433390D02*
X72761905Y-95242914D01*
X72761905Y-95242914D02*
X72809524Y-95147676D01*
X72809524Y-95147676D02*
X72904762Y-95052438D01*
X72904762Y-95052438D02*
X73047619Y-95004819D01*
X73047619Y-95004819D02*
X73142857Y-95004819D01*
X73142857Y-95004819D02*
X73285714Y-95052438D01*
X73285714Y-95052438D02*
X73333333Y-95100057D01*
X73666667Y-95004819D02*
X74285714Y-95004819D01*
X74285714Y-95004819D02*
X73952381Y-95385771D01*
X73952381Y-95385771D02*
X74095238Y-95385771D01*
X74095238Y-95385771D02*
X74190476Y-95433390D01*
X74190476Y-95433390D02*
X74238095Y-95481009D01*
X74238095Y-95481009D02*
X74285714Y-95576247D01*
X74285714Y-95576247D02*
X74285714Y-95814342D01*
X74285714Y-95814342D02*
X74238095Y-95909580D01*
X74238095Y-95909580D02*
X74190476Y-95957200D01*
X74190476Y-95957200D02*
X74095238Y-96004819D01*
X74095238Y-96004819D02*
X73809524Y-96004819D01*
X73809524Y-96004819D02*
X73714286Y-95957200D01*
X73714286Y-95957200D02*
X73666667Y-95909580D01*
X73333333Y-91904819D02*
X72761905Y-91904819D01*
X73047619Y-91904819D02*
X73047619Y-90904819D01*
X73047619Y-90904819D02*
X72952381Y-91047676D01*
X72952381Y-91047676D02*
X72857143Y-91142914D01*
X72857143Y-91142914D02*
X72761905Y-91190533D01*
X74190476Y-91238152D02*
X74190476Y-91904819D01*
X73761905Y-91238152D02*
X73761905Y-91761961D01*
X73761905Y-91761961D02*
X73809524Y-91857200D01*
X73809524Y-91857200D02*
X73904762Y-91904819D01*
X73904762Y-91904819D02*
X74047619Y-91904819D01*
X74047619Y-91904819D02*
X74142857Y-91857200D01*
X74142857Y-91857200D02*
X74190476Y-91809580D01*
X79916666Y-99204819D02*
X79916666Y-99919104D01*
X79916666Y-99919104D02*
X79869047Y-100061961D01*
X79869047Y-100061961D02*
X79773809Y-100157200D01*
X79773809Y-100157200D02*
X79630952Y-100204819D01*
X79630952Y-100204819D02*
X79535714Y-100204819D01*
X80297619Y-99204819D02*
X80964285Y-99204819D01*
X80964285Y-99204819D02*
X80535714Y-100204819D01*
X87083333Y-69704819D02*
X86750000Y-69228628D01*
X86511905Y-69704819D02*
X86511905Y-68704819D01*
X86511905Y-68704819D02*
X86892857Y-68704819D01*
X86892857Y-68704819D02*
X86988095Y-68752438D01*
X86988095Y-68752438D02*
X87035714Y-68800057D01*
X87035714Y-68800057D02*
X87083333Y-68895295D01*
X87083333Y-68895295D02*
X87083333Y-69038152D01*
X87083333Y-69038152D02*
X87035714Y-69133390D01*
X87035714Y-69133390D02*
X86988095Y-69181009D01*
X86988095Y-69181009D02*
X86892857Y-69228628D01*
X86892857Y-69228628D02*
X86511905Y-69228628D01*
X88035714Y-69704819D02*
X87464286Y-69704819D01*
X87750000Y-69704819D02*
X87750000Y-68704819D01*
X87750000Y-68704819D02*
X87654762Y-68847676D01*
X87654762Y-68847676D02*
X87559524Y-68942914D01*
X87559524Y-68942914D02*
X87464286Y-68990533D01*
X86774286Y-72374819D02*
X87393333Y-72374819D01*
X87393333Y-72374819D02*
X87060000Y-72755771D01*
X87060000Y-72755771D02*
X87202857Y-72755771D01*
X87202857Y-72755771D02*
X87298095Y-72803390D01*
X87298095Y-72803390D02*
X87345714Y-72851009D01*
X87345714Y-72851009D02*
X87393333Y-72946247D01*
X87393333Y-72946247D02*
X87393333Y-73184342D01*
X87393333Y-73184342D02*
X87345714Y-73279580D01*
X87345714Y-73279580D02*
X87298095Y-73327200D01*
X87298095Y-73327200D02*
X87202857Y-73374819D01*
X87202857Y-73374819D02*
X86917143Y-73374819D01*
X86917143Y-73374819D02*
X86821905Y-73327200D01*
X86821905Y-73327200D02*
X86774286Y-73279580D01*
X87726667Y-72374819D02*
X88345714Y-72374819D01*
X88345714Y-72374819D02*
X88012381Y-72755771D01*
X88012381Y-72755771D02*
X88155238Y-72755771D01*
X88155238Y-72755771D02*
X88250476Y-72803390D01*
X88250476Y-72803390D02*
X88298095Y-72851009D01*
X88298095Y-72851009D02*
X88345714Y-72946247D01*
X88345714Y-72946247D02*
X88345714Y-73184342D01*
X88345714Y-73184342D02*
X88298095Y-73279580D01*
X88298095Y-73279580D02*
X88250476Y-73327200D01*
X88250476Y-73327200D02*
X88155238Y-73374819D01*
X88155238Y-73374819D02*
X87869524Y-73374819D01*
X87869524Y-73374819D02*
X87774286Y-73327200D01*
X87774286Y-73327200D02*
X87726667Y-73279580D01*
X88964762Y-72374819D02*
X89060000Y-72374819D01*
X89060000Y-72374819D02*
X89155238Y-72422438D01*
X89155238Y-72422438D02*
X89202857Y-72470057D01*
X89202857Y-72470057D02*
X89250476Y-72565295D01*
X89250476Y-72565295D02*
X89298095Y-72755771D01*
X89298095Y-72755771D02*
X89298095Y-72993866D01*
X89298095Y-72993866D02*
X89250476Y-73184342D01*
X89250476Y-73184342D02*
X89202857Y-73279580D01*
X89202857Y-73279580D02*
X89155238Y-73327200D01*
X89155238Y-73327200D02*
X89060000Y-73374819D01*
X89060000Y-73374819D02*
X88964762Y-73374819D01*
X88964762Y-73374819D02*
X88869524Y-73327200D01*
X88869524Y-73327200D02*
X88821905Y-73279580D01*
X88821905Y-73279580D02*
X88774286Y-73184342D01*
X88774286Y-73184342D02*
X88726667Y-72993866D01*
X88726667Y-72993866D02*
X88726667Y-72755771D01*
X88726667Y-72755771D02*
X88774286Y-72565295D01*
X88774286Y-72565295D02*
X88821905Y-72470057D01*
X88821905Y-72470057D02*
X88869524Y-72422438D01*
X88869524Y-72422438D02*
X88964762Y-72374819D01*
X71099819Y-103833333D02*
X71814104Y-103833333D01*
X71814104Y-103833333D02*
X71956961Y-103880952D01*
X71956961Y-103880952D02*
X72052200Y-103976190D01*
X72052200Y-103976190D02*
X72099819Y-104119047D01*
X72099819Y-104119047D02*
X72099819Y-104214285D01*
X71433152Y-102928571D02*
X72099819Y-102928571D01*
X71052200Y-103166666D02*
X71766485Y-103404761D01*
X71766485Y-103404761D02*
X71766485Y-102785714D01*
X78583333Y-58859580D02*
X78535714Y-58907200D01*
X78535714Y-58907200D02*
X78392857Y-58954819D01*
X78392857Y-58954819D02*
X78297619Y-58954819D01*
X78297619Y-58954819D02*
X78154762Y-58907200D01*
X78154762Y-58907200D02*
X78059524Y-58811961D01*
X78059524Y-58811961D02*
X78011905Y-58716723D01*
X78011905Y-58716723D02*
X77964286Y-58526247D01*
X77964286Y-58526247D02*
X77964286Y-58383390D01*
X77964286Y-58383390D02*
X78011905Y-58192914D01*
X78011905Y-58192914D02*
X78059524Y-58097676D01*
X78059524Y-58097676D02*
X78154762Y-58002438D01*
X78154762Y-58002438D02*
X78297619Y-57954819D01*
X78297619Y-57954819D02*
X78392857Y-57954819D01*
X78392857Y-57954819D02*
X78535714Y-58002438D01*
X78535714Y-58002438D02*
X78583333Y-58050057D01*
X79535714Y-58954819D02*
X78964286Y-58954819D01*
X79250000Y-58954819D02*
X79250000Y-57954819D01*
X79250000Y-57954819D02*
X79154762Y-58097676D01*
X79154762Y-58097676D02*
X79059524Y-58192914D01*
X79059524Y-58192914D02*
X78964286Y-58240533D01*
X78357142Y-63204819D02*
X77785714Y-63204819D01*
X78071428Y-63204819D02*
X78071428Y-62204819D01*
X78071428Y-62204819D02*
X77976190Y-62347676D01*
X77976190Y-62347676D02*
X77880952Y-62442914D01*
X77880952Y-62442914D02*
X77785714Y-62490533D01*
X78976190Y-62204819D02*
X79071428Y-62204819D01*
X79071428Y-62204819D02*
X79166666Y-62252438D01*
X79166666Y-62252438D02*
X79214285Y-62300057D01*
X79214285Y-62300057D02*
X79261904Y-62395295D01*
X79261904Y-62395295D02*
X79309523Y-62585771D01*
X79309523Y-62585771D02*
X79309523Y-62823866D01*
X79309523Y-62823866D02*
X79261904Y-63014342D01*
X79261904Y-63014342D02*
X79214285Y-63109580D01*
X79214285Y-63109580D02*
X79166666Y-63157200D01*
X79166666Y-63157200D02*
X79071428Y-63204819D01*
X79071428Y-63204819D02*
X78976190Y-63204819D01*
X78976190Y-63204819D02*
X78880952Y-63157200D01*
X78880952Y-63157200D02*
X78833333Y-63109580D01*
X78833333Y-63109580D02*
X78785714Y-63014342D01*
X78785714Y-63014342D02*
X78738095Y-62823866D01*
X78738095Y-62823866D02*
X78738095Y-62585771D01*
X78738095Y-62585771D02*
X78785714Y-62395295D01*
X78785714Y-62395295D02*
X78833333Y-62300057D01*
X78833333Y-62300057D02*
X78880952Y-62252438D01*
X78880952Y-62252438D02*
X78976190Y-62204819D01*
X80166666Y-62538152D02*
X80166666Y-63204819D01*
X79738095Y-62538152D02*
X79738095Y-63061961D01*
X79738095Y-63061961D02*
X79785714Y-63157200D01*
X79785714Y-63157200D02*
X79880952Y-63204819D01*
X79880952Y-63204819D02*
X80023809Y-63204819D01*
X80023809Y-63204819D02*
X80119047Y-63157200D01*
X80119047Y-63157200D02*
X80166666Y-63109580D01*
X75198095Y-71474819D02*
X75198095Y-72284342D01*
X75198095Y-72284342D02*
X75245714Y-72379580D01*
X75245714Y-72379580D02*
X75293333Y-72427200D01*
X75293333Y-72427200D02*
X75388571Y-72474819D01*
X75388571Y-72474819D02*
X75579047Y-72474819D01*
X75579047Y-72474819D02*
X75674285Y-72427200D01*
X75674285Y-72427200D02*
X75721904Y-72379580D01*
X75721904Y-72379580D02*
X75769523Y-72284342D01*
X75769523Y-72284342D02*
X75769523Y-71474819D01*
X76769523Y-72474819D02*
X76198095Y-72474819D01*
X76483809Y-72474819D02*
X76483809Y-71474819D01*
X76483809Y-71474819D02*
X76388571Y-71617676D01*
X76388571Y-71617676D02*
X76293333Y-71712914D01*
X76293333Y-71712914D02*
X76198095Y-71760533D01*
X85244819Y-79968094D02*
X84244819Y-79968094D01*
X84244819Y-79968094D02*
X84244819Y-79729999D01*
X84244819Y-79729999D02*
X84292438Y-79587142D01*
X84292438Y-79587142D02*
X84387676Y-79491904D01*
X84387676Y-79491904D02*
X84482914Y-79444285D01*
X84482914Y-79444285D02*
X84673390Y-79396666D01*
X84673390Y-79396666D02*
X84816247Y-79396666D01*
X84816247Y-79396666D02*
X85006723Y-79444285D01*
X85006723Y-79444285D02*
X85101961Y-79491904D01*
X85101961Y-79491904D02*
X85197200Y-79587142D01*
X85197200Y-79587142D02*
X85244819Y-79729999D01*
X85244819Y-79729999D02*
X85244819Y-79968094D01*
X85244819Y-78444285D02*
X85244819Y-79015713D01*
X85244819Y-78729999D02*
X84244819Y-78729999D01*
X84244819Y-78729999D02*
X84387676Y-78825237D01*
X84387676Y-78825237D02*
X84482914Y-78920475D01*
X84482914Y-78920475D02*
X84530533Y-79015713D01*
X72333333Y-59059580D02*
X72285714Y-59107200D01*
X72285714Y-59107200D02*
X72142857Y-59154819D01*
X72142857Y-59154819D02*
X72047619Y-59154819D01*
X72047619Y-59154819D02*
X71904762Y-59107200D01*
X71904762Y-59107200D02*
X71809524Y-59011961D01*
X71809524Y-59011961D02*
X71761905Y-58916723D01*
X71761905Y-58916723D02*
X71714286Y-58726247D01*
X71714286Y-58726247D02*
X71714286Y-58583390D01*
X71714286Y-58583390D02*
X71761905Y-58392914D01*
X71761905Y-58392914D02*
X71809524Y-58297676D01*
X71809524Y-58297676D02*
X71904762Y-58202438D01*
X71904762Y-58202438D02*
X72047619Y-58154819D01*
X72047619Y-58154819D02*
X72142857Y-58154819D01*
X72142857Y-58154819D02*
X72285714Y-58202438D01*
X72285714Y-58202438D02*
X72333333Y-58250057D01*
X72714286Y-58250057D02*
X72761905Y-58202438D01*
X72761905Y-58202438D02*
X72857143Y-58154819D01*
X72857143Y-58154819D02*
X73095238Y-58154819D01*
X73095238Y-58154819D02*
X73190476Y-58202438D01*
X73190476Y-58202438D02*
X73238095Y-58250057D01*
X73238095Y-58250057D02*
X73285714Y-58345295D01*
X73285714Y-58345295D02*
X73285714Y-58440533D01*
X73285714Y-58440533D02*
X73238095Y-58583390D01*
X73238095Y-58583390D02*
X72666667Y-59154819D01*
X72666667Y-59154819D02*
X73285714Y-59154819D01*
X71285714Y-62254819D02*
X71380952Y-62254819D01*
X71380952Y-62254819D02*
X71476190Y-62302438D01*
X71476190Y-62302438D02*
X71523809Y-62350057D01*
X71523809Y-62350057D02*
X71571428Y-62445295D01*
X71571428Y-62445295D02*
X71619047Y-62635771D01*
X71619047Y-62635771D02*
X71619047Y-62873866D01*
X71619047Y-62873866D02*
X71571428Y-63064342D01*
X71571428Y-63064342D02*
X71523809Y-63159580D01*
X71523809Y-63159580D02*
X71476190Y-63207200D01*
X71476190Y-63207200D02*
X71380952Y-63254819D01*
X71380952Y-63254819D02*
X71285714Y-63254819D01*
X71285714Y-63254819D02*
X71190476Y-63207200D01*
X71190476Y-63207200D02*
X71142857Y-63159580D01*
X71142857Y-63159580D02*
X71095238Y-63064342D01*
X71095238Y-63064342D02*
X71047619Y-62873866D01*
X71047619Y-62873866D02*
X71047619Y-62635771D01*
X71047619Y-62635771D02*
X71095238Y-62445295D01*
X71095238Y-62445295D02*
X71142857Y-62350057D01*
X71142857Y-62350057D02*
X71190476Y-62302438D01*
X71190476Y-62302438D02*
X71285714Y-62254819D01*
X72047619Y-63159580D02*
X72095238Y-63207200D01*
X72095238Y-63207200D02*
X72047619Y-63254819D01*
X72047619Y-63254819D02*
X72000000Y-63207200D01*
X72000000Y-63207200D02*
X72047619Y-63159580D01*
X72047619Y-63159580D02*
X72047619Y-63254819D01*
X73047618Y-63254819D02*
X72476190Y-63254819D01*
X72761904Y-63254819D02*
X72761904Y-62254819D01*
X72761904Y-62254819D02*
X72666666Y-62397676D01*
X72666666Y-62397676D02*
X72571428Y-62492914D01*
X72571428Y-62492914D02*
X72476190Y-62540533D01*
X73904761Y-62588152D02*
X73904761Y-63254819D01*
X73476190Y-62588152D02*
X73476190Y-63111961D01*
X73476190Y-63111961D02*
X73523809Y-63207200D01*
X73523809Y-63207200D02*
X73619047Y-63254819D01*
X73619047Y-63254819D02*
X73761904Y-63254819D01*
X73761904Y-63254819D02*
X73857142Y-63207200D01*
X73857142Y-63207200D02*
X73904761Y-63159580D01*
X87833333Y-85204819D02*
X87500000Y-84728628D01*
X87261905Y-85204819D02*
X87261905Y-84204819D01*
X87261905Y-84204819D02*
X87642857Y-84204819D01*
X87642857Y-84204819D02*
X87738095Y-84252438D01*
X87738095Y-84252438D02*
X87785714Y-84300057D01*
X87785714Y-84300057D02*
X87833333Y-84395295D01*
X87833333Y-84395295D02*
X87833333Y-84538152D01*
X87833333Y-84538152D02*
X87785714Y-84633390D01*
X87785714Y-84633390D02*
X87738095Y-84681009D01*
X87738095Y-84681009D02*
X87642857Y-84728628D01*
X87642857Y-84728628D02*
X87261905Y-84728628D01*
X88166667Y-84204819D02*
X88785714Y-84204819D01*
X88785714Y-84204819D02*
X88452381Y-84585771D01*
X88452381Y-84585771D02*
X88595238Y-84585771D01*
X88595238Y-84585771D02*
X88690476Y-84633390D01*
X88690476Y-84633390D02*
X88738095Y-84681009D01*
X88738095Y-84681009D02*
X88785714Y-84776247D01*
X88785714Y-84776247D02*
X88785714Y-85014342D01*
X88785714Y-85014342D02*
X88738095Y-85109580D01*
X88738095Y-85109580D02*
X88690476Y-85157200D01*
X88690476Y-85157200D02*
X88595238Y-85204819D01*
X88595238Y-85204819D02*
X88309524Y-85204819D01*
X88309524Y-85204819D02*
X88214286Y-85157200D01*
X88214286Y-85157200D02*
X88166667Y-85109580D01*
X87535714Y-87874819D02*
X87059524Y-87874819D01*
X87059524Y-87874819D02*
X87011905Y-88351009D01*
X87011905Y-88351009D02*
X87059524Y-88303390D01*
X87059524Y-88303390D02*
X87154762Y-88255771D01*
X87154762Y-88255771D02*
X87392857Y-88255771D01*
X87392857Y-88255771D02*
X87488095Y-88303390D01*
X87488095Y-88303390D02*
X87535714Y-88351009D01*
X87535714Y-88351009D02*
X87583333Y-88446247D01*
X87583333Y-88446247D02*
X87583333Y-88684342D01*
X87583333Y-88684342D02*
X87535714Y-88779580D01*
X87535714Y-88779580D02*
X87488095Y-88827200D01*
X87488095Y-88827200D02*
X87392857Y-88874819D01*
X87392857Y-88874819D02*
X87154762Y-88874819D01*
X87154762Y-88874819D02*
X87059524Y-88827200D01*
X87059524Y-88827200D02*
X87011905Y-88779580D01*
X88440476Y-87874819D02*
X88250000Y-87874819D01*
X88250000Y-87874819D02*
X88154762Y-87922438D01*
X88154762Y-87922438D02*
X88107143Y-87970057D01*
X88107143Y-87970057D02*
X88011905Y-88112914D01*
X88011905Y-88112914D02*
X87964286Y-88303390D01*
X87964286Y-88303390D02*
X87964286Y-88684342D01*
X87964286Y-88684342D02*
X88011905Y-88779580D01*
X88011905Y-88779580D02*
X88059524Y-88827200D01*
X88059524Y-88827200D02*
X88154762Y-88874819D01*
X88154762Y-88874819D02*
X88345238Y-88874819D01*
X88345238Y-88874819D02*
X88440476Y-88827200D01*
X88440476Y-88827200D02*
X88488095Y-88779580D01*
X88488095Y-88779580D02*
X88535714Y-88684342D01*
X88535714Y-88684342D02*
X88535714Y-88446247D01*
X88535714Y-88446247D02*
X88488095Y-88351009D01*
X88488095Y-88351009D02*
X88440476Y-88303390D01*
X88440476Y-88303390D02*
X88345238Y-88255771D01*
X88345238Y-88255771D02*
X88154762Y-88255771D01*
X88154762Y-88255771D02*
X88059524Y-88303390D01*
X88059524Y-88303390D02*
X88011905Y-88351009D01*
X88011905Y-88351009D02*
X87964286Y-88446247D01*
X89154762Y-87874819D02*
X89250000Y-87874819D01*
X89250000Y-87874819D02*
X89345238Y-87922438D01*
X89345238Y-87922438D02*
X89392857Y-87970057D01*
X89392857Y-87970057D02*
X89440476Y-88065295D01*
X89440476Y-88065295D02*
X89488095Y-88255771D01*
X89488095Y-88255771D02*
X89488095Y-88493866D01*
X89488095Y-88493866D02*
X89440476Y-88684342D01*
X89440476Y-88684342D02*
X89392857Y-88779580D01*
X89392857Y-88779580D02*
X89345238Y-88827200D01*
X89345238Y-88827200D02*
X89250000Y-88874819D01*
X89250000Y-88874819D02*
X89154762Y-88874819D01*
X89154762Y-88874819D02*
X89059524Y-88827200D01*
X89059524Y-88827200D02*
X89011905Y-88779580D01*
X89011905Y-88779580D02*
X88964286Y-88684342D01*
X88964286Y-88684342D02*
X88916667Y-88493866D01*
X88916667Y-88493866D02*
X88916667Y-88255771D01*
X88916667Y-88255771D02*
X88964286Y-88065295D01*
X88964286Y-88065295D02*
X89011905Y-87970057D01*
X89011905Y-87970057D02*
X89059524Y-87922438D01*
X89059524Y-87922438D02*
X89154762Y-87874819D01*
X88083333Y-94874819D02*
X87750000Y-94398628D01*
X87511905Y-94874819D02*
X87511905Y-93874819D01*
X87511905Y-93874819D02*
X87892857Y-93874819D01*
X87892857Y-93874819D02*
X87988095Y-93922438D01*
X87988095Y-93922438D02*
X88035714Y-93970057D01*
X88035714Y-93970057D02*
X88083333Y-94065295D01*
X88083333Y-94065295D02*
X88083333Y-94208152D01*
X88083333Y-94208152D02*
X88035714Y-94303390D01*
X88035714Y-94303390D02*
X87988095Y-94351009D01*
X87988095Y-94351009D02*
X87892857Y-94398628D01*
X87892857Y-94398628D02*
X87511905Y-94398628D01*
X88464286Y-93970057D02*
X88511905Y-93922438D01*
X88511905Y-93922438D02*
X88607143Y-93874819D01*
X88607143Y-93874819D02*
X88845238Y-93874819D01*
X88845238Y-93874819D02*
X88940476Y-93922438D01*
X88940476Y-93922438D02*
X88988095Y-93970057D01*
X88988095Y-93970057D02*
X89035714Y-94065295D01*
X89035714Y-94065295D02*
X89035714Y-94160533D01*
X89035714Y-94160533D02*
X88988095Y-94303390D01*
X88988095Y-94303390D02*
X88416667Y-94874819D01*
X88416667Y-94874819D02*
X89035714Y-94874819D01*
X86964286Y-90034819D02*
X87583333Y-90034819D01*
X87583333Y-90034819D02*
X87250000Y-90415771D01*
X87250000Y-90415771D02*
X87392857Y-90415771D01*
X87392857Y-90415771D02*
X87488095Y-90463390D01*
X87488095Y-90463390D02*
X87535714Y-90511009D01*
X87535714Y-90511009D02*
X87583333Y-90606247D01*
X87583333Y-90606247D02*
X87583333Y-90844342D01*
X87583333Y-90844342D02*
X87535714Y-90939580D01*
X87535714Y-90939580D02*
X87488095Y-90987200D01*
X87488095Y-90987200D02*
X87392857Y-91034819D01*
X87392857Y-91034819D02*
X87107143Y-91034819D01*
X87107143Y-91034819D02*
X87011905Y-90987200D01*
X87011905Y-90987200D02*
X86964286Y-90939580D01*
X87916667Y-90034819D02*
X88535714Y-90034819D01*
X88535714Y-90034819D02*
X88202381Y-90415771D01*
X88202381Y-90415771D02*
X88345238Y-90415771D01*
X88345238Y-90415771D02*
X88440476Y-90463390D01*
X88440476Y-90463390D02*
X88488095Y-90511009D01*
X88488095Y-90511009D02*
X88535714Y-90606247D01*
X88535714Y-90606247D02*
X88535714Y-90844342D01*
X88535714Y-90844342D02*
X88488095Y-90939580D01*
X88488095Y-90939580D02*
X88440476Y-90987200D01*
X88440476Y-90987200D02*
X88345238Y-91034819D01*
X88345238Y-91034819D02*
X88059524Y-91034819D01*
X88059524Y-91034819D02*
X87964286Y-90987200D01*
X87964286Y-90987200D02*
X87916667Y-90939580D01*
X89154762Y-90034819D02*
X89250000Y-90034819D01*
X89250000Y-90034819D02*
X89345238Y-90082438D01*
X89345238Y-90082438D02*
X89392857Y-90130057D01*
X89392857Y-90130057D02*
X89440476Y-90225295D01*
X89440476Y-90225295D02*
X89488095Y-90415771D01*
X89488095Y-90415771D02*
X89488095Y-90653866D01*
X89488095Y-90653866D02*
X89440476Y-90844342D01*
X89440476Y-90844342D02*
X89392857Y-90939580D01*
X89392857Y-90939580D02*
X89345238Y-90987200D01*
X89345238Y-90987200D02*
X89250000Y-91034819D01*
X89250000Y-91034819D02*
X89154762Y-91034819D01*
X89154762Y-91034819D02*
X89059524Y-90987200D01*
X89059524Y-90987200D02*
X89011905Y-90939580D01*
X89011905Y-90939580D02*
X88964286Y-90844342D01*
X88964286Y-90844342D02*
X88916667Y-90653866D01*
X88916667Y-90653866D02*
X88916667Y-90415771D01*
X88916667Y-90415771D02*
X88964286Y-90225295D01*
X88964286Y-90225295D02*
X89011905Y-90130057D01*
X89011905Y-90130057D02*
X89059524Y-90082438D01*
X89059524Y-90082438D02*
X89154762Y-90034819D01*
X92666666Y-103704819D02*
X92666666Y-104419104D01*
X92666666Y-104419104D02*
X92619047Y-104561961D01*
X92619047Y-104561961D02*
X92523809Y-104657200D01*
X92523809Y-104657200D02*
X92380952Y-104704819D01*
X92380952Y-104704819D02*
X92285714Y-104704819D01*
X93666666Y-104704819D02*
X93095238Y-104704819D01*
X93380952Y-104704819D02*
X93380952Y-103704819D01*
X93380952Y-103704819D02*
X93285714Y-103847676D01*
X93285714Y-103847676D02*
X93190476Y-103942914D01*
X93190476Y-103942914D02*
X93095238Y-103990533D01*
X89916667Y-63657200D02*
X90059524Y-63704819D01*
X90059524Y-63704819D02*
X90297619Y-63704819D01*
X90297619Y-63704819D02*
X90392857Y-63657200D01*
X90392857Y-63657200D02*
X90440476Y-63609580D01*
X90440476Y-63609580D02*
X90488095Y-63514342D01*
X90488095Y-63514342D02*
X90488095Y-63419104D01*
X90488095Y-63419104D02*
X90440476Y-63323866D01*
X90440476Y-63323866D02*
X90392857Y-63276247D01*
X90392857Y-63276247D02*
X90297619Y-63228628D01*
X90297619Y-63228628D02*
X90107143Y-63181009D01*
X90107143Y-63181009D02*
X90011905Y-63133390D01*
X90011905Y-63133390D02*
X89964286Y-63085771D01*
X89964286Y-63085771D02*
X89916667Y-62990533D01*
X89916667Y-62990533D02*
X89916667Y-62895295D01*
X89916667Y-62895295D02*
X89964286Y-62800057D01*
X89964286Y-62800057D02*
X90011905Y-62752438D01*
X90011905Y-62752438D02*
X90107143Y-62704819D01*
X90107143Y-62704819D02*
X90345238Y-62704819D01*
X90345238Y-62704819D02*
X90488095Y-62752438D01*
X90821429Y-62704819D02*
X91059524Y-63704819D01*
X91059524Y-63704819D02*
X91250000Y-62990533D01*
X91250000Y-62990533D02*
X91440476Y-63704819D01*
X91440476Y-63704819D02*
X91678572Y-62704819D01*
X92583333Y-63704819D02*
X92011905Y-63704819D01*
X92297619Y-63704819D02*
X92297619Y-62704819D01*
X92297619Y-62704819D02*
X92202381Y-62847676D01*
X92202381Y-62847676D02*
X92107143Y-62942914D01*
X92107143Y-62942914D02*
X92011905Y-62990533D01*
X80746666Y-56704819D02*
X80746666Y-57419104D01*
X80746666Y-57419104D02*
X80699047Y-57561961D01*
X80699047Y-57561961D02*
X80603809Y-57657200D01*
X80603809Y-57657200D02*
X80460952Y-57704819D01*
X80460952Y-57704819D02*
X80365714Y-57704819D01*
X81699047Y-56704819D02*
X81222857Y-56704819D01*
X81222857Y-56704819D02*
X81175238Y-57181009D01*
X81175238Y-57181009D02*
X81222857Y-57133390D01*
X81222857Y-57133390D02*
X81318095Y-57085771D01*
X81318095Y-57085771D02*
X81556190Y-57085771D01*
X81556190Y-57085771D02*
X81651428Y-57133390D01*
X81651428Y-57133390D02*
X81699047Y-57181009D01*
X81699047Y-57181009D02*
X81746666Y-57276247D01*
X81746666Y-57276247D02*
X81746666Y-57514342D01*
X81746666Y-57514342D02*
X81699047Y-57609580D01*
X81699047Y-57609580D02*
X81651428Y-57657200D01*
X81651428Y-57657200D02*
X81556190Y-57704819D01*
X81556190Y-57704819D02*
X81318095Y-57704819D01*
X81318095Y-57704819D02*
X81222857Y-57657200D01*
X81222857Y-57657200D02*
X81175238Y-57609580D01*
X68988095Y-87204819D02*
X68988095Y-88014342D01*
X68988095Y-88014342D02*
X69035714Y-88109580D01*
X69035714Y-88109580D02*
X69083333Y-88157200D01*
X69083333Y-88157200D02*
X69178571Y-88204819D01*
X69178571Y-88204819D02*
X69369047Y-88204819D01*
X69369047Y-88204819D02*
X69464285Y-88157200D01*
X69464285Y-88157200D02*
X69511904Y-88109580D01*
X69511904Y-88109580D02*
X69559523Y-88014342D01*
X69559523Y-88014342D02*
X69559523Y-87204819D01*
X69988095Y-87300057D02*
X70035714Y-87252438D01*
X70035714Y-87252438D02*
X70130952Y-87204819D01*
X70130952Y-87204819D02*
X70369047Y-87204819D01*
X70369047Y-87204819D02*
X70464285Y-87252438D01*
X70464285Y-87252438D02*
X70511904Y-87300057D01*
X70511904Y-87300057D02*
X70559523Y-87395295D01*
X70559523Y-87395295D02*
X70559523Y-87490533D01*
X70559523Y-87490533D02*
X70511904Y-87633390D01*
X70511904Y-87633390D02*
X69940476Y-88204819D01*
X69940476Y-88204819D02*
X70559523Y-88204819D01*
X93166666Y-58054819D02*
X93166666Y-58769104D01*
X93166666Y-58769104D02*
X93119047Y-58911961D01*
X93119047Y-58911961D02*
X93023809Y-59007200D01*
X93023809Y-59007200D02*
X92880952Y-59054819D01*
X92880952Y-59054819D02*
X92785714Y-59054819D01*
X93595238Y-58150057D02*
X93642857Y-58102438D01*
X93642857Y-58102438D02*
X93738095Y-58054819D01*
X93738095Y-58054819D02*
X93976190Y-58054819D01*
X93976190Y-58054819D02*
X94071428Y-58102438D01*
X94071428Y-58102438D02*
X94119047Y-58150057D01*
X94119047Y-58150057D02*
X94166666Y-58245295D01*
X94166666Y-58245295D02*
X94166666Y-58340533D01*
X94166666Y-58340533D02*
X94119047Y-58483390D01*
X94119047Y-58483390D02*
X93547619Y-59054819D01*
X93547619Y-59054819D02*
X94166666Y-59054819D01*
D12*
%TO.C,J6*%
X67450000Y-73150000D02*
X82150000Y-73150000D01*
X67450000Y-82350000D02*
X67450000Y-73150000D01*
X76250000Y-82350000D02*
X67450000Y-82350000D01*
X81300000Y-72950000D02*
X82350000Y-72950000D01*
X82150000Y-73150000D02*
X82150000Y-75750000D01*
X82150000Y-79650000D02*
X82150000Y-82350000D01*
X82150000Y-82350000D02*
X80250000Y-82350000D01*
X82350000Y-74000000D02*
X82350000Y-72950000D01*
%TO.C,J3*%
X80620000Y-56080000D02*
X80620000Y-53420000D01*
X75480000Y-56080000D02*
X80620000Y-56080000D01*
X75480000Y-56080000D02*
X75480000Y-53420000D01*
X75480000Y-53420000D02*
X80620000Y-53420000D01*
X74210000Y-56080000D02*
X72880000Y-56080000D01*
X72880000Y-56080000D02*
X72880000Y-54750000D01*
%TO.C,C3*%
X74129000Y-94420000D02*
X72871000Y-94420000D01*
X74129000Y-92580000D02*
X72871000Y-92580000D01*
%TO.C,J7*%
X91620000Y-104810000D02*
X91620000Y-97190000D01*
X91620000Y-103540000D02*
X81460000Y-103540000D01*
X91620000Y-97190000D02*
X81460000Y-97190000D01*
X81460000Y-104810000D02*
X91620000Y-104810000D01*
X81460000Y-97190000D02*
X81460000Y-104810000D01*
%TO.C,R1*%
X90930000Y-71000000D02*
X89980000Y-71000000D01*
X89980000Y-71920000D02*
X89980000Y-70080000D01*
X89980000Y-70080000D02*
X86140000Y-70080000D01*
X86140000Y-71920000D02*
X89980000Y-71920000D01*
X86140000Y-70080000D02*
X86140000Y-71920000D01*
X85190000Y-71000000D02*
X86140000Y-71000000D01*
%TO.C,J4*%
X80385000Y-104830000D02*
X80385000Y-102170000D01*
X75245000Y-104830000D02*
X80385000Y-104830000D01*
X75245000Y-104830000D02*
X75245000Y-102170000D01*
X75245000Y-102170000D02*
X80385000Y-102170000D01*
X73975000Y-104830000D02*
X72645000Y-104830000D01*
X72645000Y-104830000D02*
X72645000Y-103500000D01*
%TO.C,C1*%
X79379000Y-59830000D02*
X78121000Y-59830000D01*
X79379000Y-61670000D02*
X78121000Y-61670000D01*
%TO.C,U1*%
X70840000Y-71020000D02*
X70840000Y-66379000D01*
X74109000Y-71020000D02*
X74109000Y-69510000D01*
X77810000Y-71020000D02*
X77810000Y-69510000D01*
X81080000Y-66379000D02*
X70840000Y-66379000D01*
X81080000Y-69510000D02*
X70840000Y-69510000D01*
X81080000Y-71020000D02*
X70840000Y-71020000D01*
X81080000Y-71020000D02*
X81080000Y-66379000D01*
%TO.C,D1*%
X91250000Y-79230000D02*
G75*
G02*
X86250000Y-79230000I-2500000J0D01*
G01*
X86250000Y-79230000D02*
G75*
G02*
X91250000Y-79230000I2500000J0D01*
G01*
X88749538Y-76240000D02*
G75*
G02*
X90294830Y-81790000I462J-2990000D01*
G01*
X87205170Y-81789999D02*
G75*
G02*
X88750462Y-76240001I1544830J2559999D01*
G01*
X87205000Y-81790000D02*
X90295000Y-81790000D01*
%TO.C,C2*%
X71871000Y-59830000D02*
X73129000Y-59830000D01*
X71871000Y-61670000D02*
X73129000Y-61670000D01*
%TO.C,R3*%
X91120000Y-86500000D02*
X90170000Y-86500000D01*
X90170000Y-87420000D02*
X90170000Y-85580000D01*
X90170000Y-85580000D02*
X86330000Y-85580000D01*
X86330000Y-87420000D02*
X90170000Y-87420000D01*
X86330000Y-85580000D02*
X86330000Y-87420000D01*
X85380000Y-86500000D02*
X86330000Y-86500000D01*
%TO.C,R2*%
X85380000Y-92500000D02*
X86330000Y-92500000D01*
X86330000Y-91580000D02*
X86330000Y-93420000D01*
X86330000Y-93420000D02*
X90170000Y-93420000D01*
X90170000Y-91580000D02*
X86330000Y-91580000D01*
X90170000Y-93420000D02*
X90170000Y-91580000D01*
X91120000Y-92500000D02*
X90170000Y-92500000D01*
%TO.C,J1*%
X97080000Y-102245000D02*
X97080000Y-104845000D01*
X94420000Y-104845000D02*
X97080000Y-104845000D01*
X94420000Y-102245000D02*
X97080000Y-102245000D01*
X94420000Y-102245000D02*
X94420000Y-104845000D01*
X94420000Y-100975000D02*
X94420000Y-99645000D01*
X94420000Y-99645000D02*
X95750000Y-99645000D01*
%TO.C,SW1*%
X92820000Y-66860000D02*
X82600000Y-66860000D01*
X82600000Y-64140000D01*
X92820000Y-64140000D01*
X92820000Y-66860000D01*
%TO.C,J5*%
X92370000Y-61060000D02*
X92370000Y-53440000D01*
X92370000Y-59790000D02*
X82210000Y-59790000D01*
X92370000Y-53440000D02*
X82210000Y-53440000D01*
X82210000Y-61060000D02*
X92370000Y-61060000D01*
X82210000Y-53440000D02*
X82210000Y-61060000D01*
%TO.C,U2*%
X70840000Y-85230000D02*
X70840000Y-89871000D01*
X70840000Y-85230000D02*
X81080000Y-85230000D01*
X70840000Y-86740000D02*
X81080000Y-86740000D01*
X70840000Y-89871000D02*
X81080000Y-89871000D01*
X74110000Y-85230000D02*
X74110000Y-86740000D01*
X77811000Y-85230000D02*
X77811000Y-86740000D01*
X81080000Y-85230000D02*
X81080000Y-89871000D01*
%TO.C,J2*%
X97080000Y-56520000D02*
X97080000Y-59120000D01*
X94420000Y-59120000D02*
X97080000Y-59120000D01*
X94420000Y-56520000D02*
X97080000Y-56520000D01*
X94420000Y-56520000D02*
X94420000Y-59120000D01*
X94420000Y-55250000D02*
X94420000Y-53920000D01*
X94420000Y-53920000D02*
X95750000Y-53920000D01*
%TD*%
M02*
