%TF.GenerationSoftware,KiCad,Pcbnew,8.0.1*%
%TF.CreationDate,2024-05-08T09:38:19-07:00*%
%TF.ProjectId,breadboard-power-supply,62726561-6462-46f6-9172-642d706f7765,rev?*%
%TF.SameCoordinates,Original*%
%TF.FileFunction,Copper,L2,Bot*%
%TF.FilePolarity,Positive*%
%FSLAX46Y46*%
G04 Gerber Fmt 4.6, Leading zero omitted, Abs format (unit mm)*
G04 Created by KiCad (PCBNEW 8.0.1) date 2024-05-08 09:38:19*
%MOMM*%
%LPD*%
G01*
G04 APERTURE LIST*
G04 Aperture macros list*
%AMRoundRect*
0 Rectangle with rounded corners*
0 $1 Rounding radius*
0 $2 $3 $4 $5 $6 $7 $8 $9 X,Y pos of 4 corners*
0 Add a 4 corners polygon primitive as box body*
4,1,4,$2,$3,$4,$5,$6,$7,$8,$9,$2,$3,0*
0 Add four circle primitives for the rounded corners*
1,1,$1+$1,$2,$3*
1,1,$1+$1,$4,$5*
1,1,$1+$1,$6,$7*
1,1,$1+$1,$8,$9*
0 Add four rect primitives between the rounded corners*
20,1,$1+$1,$2,$3,$4,$5,0*
20,1,$1+$1,$4,$5,$6,$7,0*
20,1,$1+$1,$6,$7,$8,$9,0*
20,1,$1+$1,$8,$9,$2,$3,0*%
G04 Aperture macros list end*
%TA.AperFunction,ComponentPad*%
%ADD10R,3.500000X3.500000*%
%TD*%
%TA.AperFunction,ComponentPad*%
%ADD11RoundRect,0.750000X-0.750000X-1.000000X0.750000X-1.000000X0.750000X1.000000X-0.750000X1.000000X0*%
%TD*%
%TA.AperFunction,ComponentPad*%
%ADD12RoundRect,0.875000X-0.875000X-0.875000X0.875000X-0.875000X0.875000X0.875000X-0.875000X0.875000X0*%
%TD*%
%TA.AperFunction,ComponentPad*%
%ADD13O,1.700000X1.700000*%
%TD*%
%TA.AperFunction,ComponentPad*%
%ADD14R,1.700000X1.700000*%
%TD*%
%TA.AperFunction,ComponentPad*%
%ADD15C,1.600000*%
%TD*%
%TA.AperFunction,ComponentPad*%
%ADD16C,3.000000*%
%TD*%
%TA.AperFunction,ComponentPad*%
%ADD17R,3.000000X3.000000*%
%TD*%
%TA.AperFunction,ComponentPad*%
%ADD18C,1.400000*%
%TD*%
%TA.AperFunction,ComponentPad*%
%ADD19O,1.400000X1.400000*%
%TD*%
%TA.AperFunction,ComponentPad*%
%ADD20R,1.905000X2.000000*%
%TD*%
%TA.AperFunction,ComponentPad*%
%ADD21O,1.905000X2.000000*%
%TD*%
%TA.AperFunction,ComponentPad*%
%ADD22C,1.800000*%
%TD*%
%TA.AperFunction,ComponentPad*%
%ADD23R,1.800000X1.800000*%
%TD*%
%TA.AperFunction,ComponentPad*%
%ADD24R,1.500000X1.500000*%
%TD*%
%TA.AperFunction,ViaPad*%
%ADD25C,0.900000*%
%TD*%
%TA.AperFunction,Conductor*%
%ADD26C,0.350000*%
%TD*%
%TA.AperFunction,Conductor*%
%ADD27C,0.200000*%
%TD*%
G04 APERTURE END LIST*
D10*
%TO.P,J6,1*%
%TO.N,/PWR_input*%
X81250000Y-77750000D03*
D11*
%TO.P,J6,2*%
%TO.N,GND*%
X75250000Y-77750000D03*
D12*
%TO.P,J6,3*%
X78250000Y-82450000D03*
%TD*%
D13*
%TO.P,J3,3,Pin_3*%
%TO.N,/5V*%
X79290000Y-54750000D03*
%TO.P,J3,2,Pin_2*%
%TO.N,/PWR_output*%
X76750000Y-54750000D03*
D14*
%TO.P,J3,1,Pin_1*%
%TO.N,/3.3V*%
X74210000Y-54750000D03*
%TD*%
D15*
%TO.P,C3,1*%
%TO.N,/3.3V*%
X74750000Y-93500000D03*
%TO.P,C3,2*%
%TO.N,GND*%
X72250000Y-93500000D03*
%TD*%
D16*
%TO.P,J7,2,Pin_2*%
%TO.N,/PWR_output*%
X89080000Y-101000000D03*
D17*
%TO.P,J7,1,Pin_1*%
%TO.N,GND*%
X84000000Y-101000000D03*
%TD*%
D18*
%TO.P,R1,1*%
%TO.N,Net-(D1-A)*%
X84250000Y-71000000D03*
D19*
%TO.P,R1,2*%
%TO.N,/12V*%
X91870000Y-71000000D03*
%TD*%
D13*
%TO.P,J4,3,Pin_3*%
%TO.N,/5V*%
X79055000Y-103500000D03*
%TO.P,J4,2,Pin_2*%
%TO.N,/PWR_output*%
X76515000Y-103500000D03*
D14*
%TO.P,J4,1,Pin_1*%
%TO.N,/3.3V*%
X73975000Y-103500000D03*
%TD*%
D15*
%TO.P,C1,1*%
%TO.N,/12V*%
X80000000Y-60750000D03*
%TO.P,C1,2*%
%TO.N,GND*%
X77500000Y-60750000D03*
%TD*%
D20*
%TO.P,U1,1,VI*%
%TO.N,/12V*%
X78500000Y-67750000D03*
D21*
%TO.P,U1,2,GND*%
%TO.N,GND*%
X75960000Y-67750000D03*
%TO.P,U1,3,VO*%
%TO.N,/5V*%
X73420000Y-67750000D03*
%TD*%
D22*
%TO.P,D1,2,A*%
%TO.N,Net-(D1-A)*%
X88750000Y-77960000D03*
D23*
%TO.P,D1,1,K*%
%TO.N,GND*%
X88750000Y-80500000D03*
%TD*%
D15*
%TO.P,C2,1*%
%TO.N,/5V*%
X71250000Y-60750000D03*
%TO.P,C2,2*%
%TO.N,GND*%
X73750000Y-60750000D03*
%TD*%
D18*
%TO.P,R3,1*%
%TO.N,GND*%
X84440000Y-86500000D03*
D19*
%TO.P,R3,2*%
%TO.N,Net-(U2-ADJ)*%
X92060000Y-86500000D03*
%TD*%
%TO.P,R2,2*%
%TO.N,/3.3V*%
X84440000Y-92500000D03*
D18*
%TO.P,R2,1*%
%TO.N,Net-(U2-ADJ)*%
X92060000Y-92500000D03*
%TD*%
D13*
%TO.P,J1,2,Pin_2*%
%TO.N,/PWR_output*%
X95750000Y-103515000D03*
D14*
%TO.P,J1,1,Pin_1*%
%TO.N,GND*%
X95750000Y-100975000D03*
%TD*%
D24*
%TO.P,SW1,1,1*%
%TO.N,/PWR_input*%
X87710000Y-65500000D03*
D15*
%TO.P,SW1,2,2*%
%TO.N,/12V*%
X90250000Y-65500000D03*
%TO.P,SW1,3,3*%
%TO.N,unconnected-(SW1-Pad3)*%
X85170000Y-65500000D03*
%TD*%
D16*
%TO.P,J5,2,Pin_2*%
%TO.N,/PWR_output*%
X89830000Y-57250000D03*
D17*
%TO.P,J5,1,Pin_1*%
%TO.N,GND*%
X84750000Y-57250000D03*
%TD*%
D20*
%TO.P,U2,1,ADJ*%
%TO.N,Net-(U2-ADJ)*%
X73420000Y-88500000D03*
D21*
%TO.P,U2,2,VO*%
%TO.N,/3.3V*%
X75960000Y-88500000D03*
%TO.P,U2,3,VI*%
%TO.N,/12V*%
X78500000Y-88500000D03*
%TD*%
D13*
%TO.P,J2,2,Pin_2*%
%TO.N,/PWR_output*%
X95750000Y-57790000D03*
D14*
%TO.P,J2,1,Pin_1*%
%TO.N,GND*%
X95750000Y-55250000D03*
%TD*%
D25*
%TO.N,/3.3V*%
X83750000Y-94250000D03*
%TD*%
D26*
%TO.N,/12V*%
X83425000Y-72675000D02*
X78500000Y-67750000D01*
X83425000Y-83575000D02*
X83425000Y-72675000D01*
X78500000Y-88500000D02*
X83425000Y-83575000D01*
D27*
%TO.N,Net-(U2-ADJ)*%
X80300000Y-95050000D02*
X89510000Y-95050000D01*
X89510000Y-95050000D02*
X92060000Y-92500000D01*
X73750000Y-88500000D02*
X80300000Y-95050000D01*
X73420000Y-88500000D02*
X73750000Y-88500000D01*
D26*
%TO.N,/3.3V*%
X81710000Y-94250000D02*
X75960000Y-88500000D01*
X83750000Y-94250000D02*
X81710000Y-94250000D01*
%TD*%
%TA.AperFunction,Conductor*%
%TO.N,GND*%
G36*
X97692539Y-53020185D02*
G01*
X97738294Y-53072989D01*
X97749500Y-53124500D01*
X97749500Y-59625500D01*
X97729815Y-59692539D01*
X97677011Y-59738294D01*
X97625500Y-59749500D01*
X93934108Y-59749500D01*
X93806812Y-59783608D01*
X93692686Y-59849500D01*
X93692683Y-59849502D01*
X93599502Y-59942683D01*
X93599500Y-59942686D01*
X93533608Y-60056812D01*
X93499500Y-60184108D01*
X93499500Y-86341637D01*
X93479815Y-86408676D01*
X93427011Y-86454431D01*
X93357853Y-86464375D01*
X93294297Y-86435350D01*
X93256523Y-86376572D01*
X93252029Y-86353078D01*
X93245115Y-86278464D01*
X93245114Y-86278462D01*
X93228460Y-86219930D01*
X93184229Y-86064472D01*
X93184224Y-86064461D01*
X93085061Y-85865316D01*
X93085056Y-85865308D01*
X92950979Y-85687761D01*
X92786562Y-85537876D01*
X92786560Y-85537874D01*
X92597404Y-85420754D01*
X92597398Y-85420752D01*
X92389940Y-85340382D01*
X92171243Y-85299500D01*
X91948757Y-85299500D01*
X91730060Y-85340382D01*
X91598864Y-85391207D01*
X91522601Y-85420752D01*
X91522595Y-85420754D01*
X91333439Y-85537874D01*
X91333437Y-85537876D01*
X91169020Y-85687761D01*
X91034943Y-85865308D01*
X91034938Y-85865316D01*
X90935775Y-86064461D01*
X90935769Y-86064476D01*
X90874885Y-86278462D01*
X90874884Y-86278464D01*
X90854357Y-86499999D01*
X90854357Y-86500000D01*
X90874884Y-86721535D01*
X90874885Y-86721537D01*
X90935769Y-86935523D01*
X90935775Y-86935538D01*
X91034938Y-87134683D01*
X91034943Y-87134691D01*
X91169020Y-87312238D01*
X91333437Y-87462123D01*
X91333439Y-87462125D01*
X91522595Y-87579245D01*
X91522596Y-87579245D01*
X91522599Y-87579247D01*
X91730060Y-87659618D01*
X91948757Y-87700500D01*
X91948759Y-87700500D01*
X92171241Y-87700500D01*
X92171243Y-87700500D01*
X92389940Y-87659618D01*
X92597401Y-87579247D01*
X92786562Y-87462124D01*
X92950981Y-87312236D01*
X93085058Y-87134689D01*
X93184229Y-86935528D01*
X93245115Y-86721536D01*
X93252029Y-86646921D01*
X93277815Y-86581984D01*
X93334615Y-86541296D01*
X93404396Y-86537776D01*
X93465003Y-86572541D01*
X93497193Y-86634554D01*
X93499500Y-86658362D01*
X93499500Y-92341637D01*
X93479815Y-92408676D01*
X93427011Y-92454431D01*
X93357853Y-92464375D01*
X93294297Y-92435350D01*
X93256523Y-92376572D01*
X93252029Y-92353078D01*
X93245115Y-92278464D01*
X93245114Y-92278462D01*
X93243634Y-92273261D01*
X93184229Y-92064472D01*
X93184224Y-92064461D01*
X93085061Y-91865316D01*
X93085056Y-91865308D01*
X92950979Y-91687761D01*
X92786562Y-91537876D01*
X92786560Y-91537874D01*
X92597404Y-91420754D01*
X92597398Y-91420752D01*
X92389940Y-91340382D01*
X92171243Y-91299500D01*
X91948757Y-91299500D01*
X91730060Y-91340382D01*
X91598864Y-91391207D01*
X91522601Y-91420752D01*
X91522595Y-91420754D01*
X91333439Y-91537874D01*
X91333437Y-91537876D01*
X91169020Y-91687761D01*
X91034943Y-91865308D01*
X91034938Y-91865316D01*
X90935775Y-92064461D01*
X90935769Y-92064476D01*
X90874885Y-92278462D01*
X90874884Y-92278464D01*
X90854357Y-92499999D01*
X90854357Y-92500000D01*
X90874885Y-92721537D01*
X90880270Y-92740463D01*
X90879683Y-92810330D01*
X90848685Y-92862078D01*
X89297584Y-94413181D01*
X89236261Y-94446666D01*
X89209903Y-94449500D01*
X84822263Y-94449500D01*
X84755224Y-94429815D01*
X84709469Y-94377011D01*
X84698860Y-94313346D01*
X84700259Y-94299142D01*
X84705099Y-94250000D01*
X84686747Y-94063669D01*
X84632396Y-93884499D01*
X84615381Y-93852666D01*
X84601140Y-93784267D01*
X84626139Y-93719023D01*
X84682444Y-93677652D01*
X84701946Y-93672328D01*
X84769940Y-93659618D01*
X84977401Y-93579247D01*
X85166562Y-93462124D01*
X85330981Y-93312236D01*
X85465058Y-93134689D01*
X85564229Y-92935528D01*
X85625115Y-92721536D01*
X85645643Y-92500000D01*
X85641420Y-92454431D01*
X85625115Y-92278464D01*
X85625114Y-92278462D01*
X85623634Y-92273261D01*
X85564229Y-92064472D01*
X85564224Y-92064461D01*
X85465061Y-91865316D01*
X85465056Y-91865308D01*
X85330979Y-91687761D01*
X85166562Y-91537876D01*
X85166560Y-91537874D01*
X84977404Y-91420754D01*
X84977398Y-91420752D01*
X84769940Y-91340382D01*
X84551243Y-91299500D01*
X84328757Y-91299500D01*
X84110060Y-91340382D01*
X83978864Y-91391207D01*
X83902601Y-91420752D01*
X83902595Y-91420754D01*
X83713439Y-91537874D01*
X83713437Y-91537876D01*
X83549020Y-91687761D01*
X83414943Y-91865308D01*
X83414938Y-91865316D01*
X83315775Y-92064461D01*
X83315769Y-92064476D01*
X83254885Y-92278462D01*
X83254884Y-92278464D01*
X83234357Y-92499999D01*
X83234357Y-92500000D01*
X83254884Y-92721535D01*
X83254885Y-92721537D01*
X83315769Y-92935523D01*
X83315775Y-92935538D01*
X83414938Y-93134683D01*
X83414947Y-93134697D01*
X83445288Y-93174875D01*
X83469980Y-93240236D01*
X83455415Y-93308571D01*
X83406217Y-93358183D01*
X83390017Y-93365019D01*
X83390123Y-93365274D01*
X83384499Y-93367603D01*
X83219376Y-93455862D01*
X83219373Y-93455864D01*
X83109114Y-93546353D01*
X83044804Y-93573666D01*
X83030449Y-93574500D01*
X82041163Y-93574500D01*
X81974124Y-93554815D01*
X81953482Y-93538181D01*
X79163801Y-90748500D01*
X81998500Y-90748500D01*
X81998500Y-92171815D01*
X82077185Y-92250500D01*
X82255201Y-92250500D01*
X82263271Y-92163414D01*
X82263931Y-92157724D01*
X82268720Y-92123391D01*
X82269643Y-92117734D01*
X82278119Y-92072398D01*
X82279301Y-92066795D01*
X82287234Y-92033067D01*
X82288674Y-92027524D01*
X82362176Y-91769192D01*
X82363869Y-91763723D01*
X82374871Y-91730895D01*
X82376813Y-91725515D01*
X82393470Y-91682506D01*
X82395664Y-91677208D01*
X82409675Y-91645472D01*
X82412112Y-91640281D01*
X82531851Y-91399815D01*
X82534523Y-91394747D01*
X82551391Y-91364464D01*
X82554293Y-91359525D01*
X82578573Y-91320313D01*
X82581700Y-91315514D01*
X82601281Y-91286930D01*
X82604626Y-91282281D01*
X82766494Y-91067933D01*
X82770050Y-91063443D01*
X82792188Y-91036783D01*
X82795948Y-91032463D01*
X82827019Y-90998379D01*
X82830976Y-90994235D01*
X82855484Y-90969727D01*
X82859627Y-90965771D01*
X83058129Y-90784812D01*
X83062451Y-90781051D01*
X83089109Y-90758915D01*
X83093596Y-90755361D01*
X83102681Y-90748500D01*
X86998500Y-90748500D01*
X86998500Y-92250500D01*
X88500500Y-92250500D01*
X88500500Y-90748500D01*
X89498500Y-90748500D01*
X89498500Y-92250500D01*
X89875201Y-92250500D01*
X89883271Y-92163414D01*
X89883931Y-92157724D01*
X89888720Y-92123391D01*
X89889643Y-92117734D01*
X89898119Y-92072398D01*
X89899301Y-92066795D01*
X89907234Y-92033067D01*
X89908674Y-92027524D01*
X89982176Y-91769192D01*
X89983869Y-91763723D01*
X89994871Y-91730895D01*
X89996813Y-91725515D01*
X90013470Y-91682506D01*
X90015664Y-91677208D01*
X90029675Y-91645472D01*
X90032112Y-91640281D01*
X90151851Y-91399815D01*
X90154523Y-91394747D01*
X90171391Y-91364464D01*
X90174293Y-91359525D01*
X90198573Y-91320313D01*
X90201700Y-91315514D01*
X90221281Y-91286930D01*
X90224626Y-91282281D01*
X90386494Y-91067933D01*
X90390050Y-91063443D01*
X90412188Y-91036783D01*
X90415948Y-91032463D01*
X90447019Y-90998379D01*
X90450976Y-90994235D01*
X90475484Y-90969727D01*
X90479627Y-90965771D01*
X90678129Y-90784812D01*
X90682451Y-90781051D01*
X90709109Y-90758915D01*
X90713596Y-90755361D01*
X90722681Y-90748500D01*
X89498500Y-90748500D01*
X88500500Y-90748500D01*
X86998500Y-90748500D01*
X83102681Y-90748500D01*
X81998500Y-90748500D01*
X79163801Y-90748500D01*
X78615032Y-90199731D01*
X78581547Y-90138408D01*
X78586531Y-90068716D01*
X78628403Y-90012783D01*
X78683312Y-89989577D01*
X78840245Y-89964722D01*
X78840248Y-89964721D01*
X78840249Y-89964721D01*
X79057755Y-89894049D01*
X79057755Y-89894048D01*
X79057758Y-89894048D01*
X79261538Y-89790217D01*
X79446566Y-89655786D01*
X79608286Y-89494066D01*
X79742717Y-89309038D01*
X79846548Y-89105258D01*
X79917222Y-88887745D01*
X79953000Y-88661854D01*
X79953000Y-88338146D01*
X79938801Y-88248500D01*
X81998500Y-88248500D01*
X81998500Y-89750500D01*
X83500500Y-89750500D01*
X84498500Y-89750500D01*
X86000500Y-89750500D01*
X86000500Y-88248500D01*
X86998500Y-88248500D01*
X86998500Y-89750500D01*
X88500500Y-89750500D01*
X88500500Y-88248500D01*
X89498500Y-88248500D01*
X89498500Y-89750500D01*
X91000500Y-89750500D01*
X91998500Y-89750500D01*
X92501500Y-89750500D01*
X92501500Y-88654051D01*
X92331960Y-88685744D01*
X92326307Y-88686666D01*
X92291984Y-88691454D01*
X92286294Y-88692114D01*
X92240368Y-88696370D01*
X92234654Y-88696767D01*
X92200033Y-88698368D01*
X92194305Y-88698500D01*
X91998500Y-88698500D01*
X91998500Y-89750500D01*
X91000500Y-89750500D01*
X91000500Y-88429794D01*
X90788451Y-88298500D01*
X90783650Y-88295372D01*
X90755053Y-88275782D01*
X90750402Y-88272435D01*
X90718709Y-88248500D01*
X89498500Y-88248500D01*
X88500500Y-88248500D01*
X86998500Y-88248500D01*
X86000500Y-88248500D01*
X85791345Y-88248500D01*
X85482958Y-88439449D01*
X85478020Y-88442352D01*
X85447744Y-88459216D01*
X85442676Y-88461887D01*
X85401388Y-88482446D01*
X85396205Y-88484879D01*
X85364500Y-88498879D01*
X85359205Y-88501072D01*
X85108809Y-88598077D01*
X85103419Y-88600024D01*
X85070535Y-88611045D01*
X85065058Y-88612741D01*
X85020696Y-88625360D01*
X85015154Y-88626798D01*
X84981440Y-88634726D01*
X84975840Y-88635908D01*
X84711910Y-88685245D01*
X84706256Y-88686167D01*
X84671938Y-88690954D01*
X84666250Y-88691614D01*
X84620327Y-88695870D01*
X84614612Y-88696267D01*
X84579988Y-88697868D01*
X84574260Y-88698000D01*
X84498500Y-88698000D01*
X84498500Y-89750500D01*
X83500500Y-89750500D01*
X83500500Y-88492256D01*
X83483798Y-88484882D01*
X83478610Y-88482447D01*
X83437322Y-88461887D01*
X83432256Y-88459216D01*
X83401982Y-88442353D01*
X83397044Y-88439452D01*
X83088650Y-88248500D01*
X81998500Y-88248500D01*
X79938801Y-88248500D01*
X79917222Y-88112255D01*
X79917221Y-88112251D01*
X79916963Y-88110623D01*
X79925917Y-88041330D01*
X79951752Y-88003547D01*
X80448419Y-87506880D01*
X83786672Y-87506880D01*
X83902821Y-87578797D01*
X83902822Y-87578798D01*
X84110195Y-87659134D01*
X84328807Y-87700000D01*
X84551193Y-87700000D01*
X84769809Y-87659133D01*
X84977168Y-87578801D01*
X84977181Y-87578795D01*
X85093326Y-87506879D01*
X84440001Y-86853553D01*
X84440000Y-86853553D01*
X83786672Y-87506879D01*
X83786672Y-87506880D01*
X80448419Y-87506880D01*
X81455300Y-86500000D01*
X83234859Y-86500000D01*
X83255378Y-86721439D01*
X83316240Y-86935350D01*
X83415369Y-87134428D01*
X83431137Y-87155308D01*
X83431138Y-87155308D01*
X84040369Y-86546078D01*
X84090000Y-86546078D01*
X84113852Y-86635095D01*
X84159930Y-86714905D01*
X84225095Y-86780070D01*
X84304905Y-86826148D01*
X84393922Y-86850000D01*
X84486078Y-86850000D01*
X84575095Y-86826148D01*
X84654905Y-86780070D01*
X84720070Y-86714905D01*
X84766148Y-86635095D01*
X84790000Y-86546078D01*
X84790000Y-86500000D01*
X84793553Y-86500000D01*
X85448861Y-87155308D01*
X85464631Y-87134425D01*
X85464633Y-87134422D01*
X85563759Y-86935350D01*
X85624621Y-86721439D01*
X85645141Y-86500000D01*
X85645141Y-86499999D01*
X85624621Y-86278560D01*
X85563759Y-86064649D01*
X85464635Y-85865580D01*
X85464630Y-85865572D01*
X85448860Y-85844690D01*
X84793553Y-86499999D01*
X84793553Y-86500000D01*
X84790000Y-86500000D01*
X84790000Y-86453922D01*
X84766148Y-86364905D01*
X84720070Y-86285095D01*
X84654905Y-86219930D01*
X84575095Y-86173852D01*
X84486078Y-86150000D01*
X84393922Y-86150000D01*
X84304905Y-86173852D01*
X84225095Y-86219930D01*
X84159930Y-86285095D01*
X84113852Y-86364905D01*
X84090000Y-86453922D01*
X84090000Y-86546078D01*
X84040369Y-86546078D01*
X84086447Y-86500000D01*
X83431138Y-85844691D01*
X83431137Y-85844691D01*
X83415368Y-85865574D01*
X83316240Y-86064649D01*
X83255378Y-86278560D01*
X83234859Y-86499999D01*
X83234859Y-86500000D01*
X81455300Y-86500000D01*
X82462181Y-85493119D01*
X83786671Y-85493119D01*
X84440000Y-86146447D01*
X84440001Y-86146447D01*
X84837947Y-85748500D01*
X86998500Y-85748500D01*
X86998500Y-87250500D01*
X88500500Y-87250500D01*
X88500500Y-85748500D01*
X89498500Y-85748500D01*
X89498500Y-87250500D01*
X89988636Y-87250500D01*
X89983869Y-87236277D01*
X89982176Y-87230808D01*
X89908674Y-86972476D01*
X89907234Y-86966933D01*
X89899301Y-86933205D01*
X89898119Y-86927602D01*
X89889643Y-86882266D01*
X89888720Y-86876609D01*
X89883931Y-86842276D01*
X89883271Y-86836587D01*
X89858486Y-86569121D01*
X89858089Y-86563404D01*
X89856489Y-86528786D01*
X89856357Y-86523061D01*
X89856357Y-86476939D01*
X89856489Y-86471214D01*
X89858089Y-86436596D01*
X89858486Y-86430879D01*
X89883271Y-86163413D01*
X89883931Y-86157724D01*
X89888720Y-86123391D01*
X89889643Y-86117734D01*
X89898119Y-86072398D01*
X89899301Y-86066795D01*
X89907234Y-86033067D01*
X89908674Y-86027524D01*
X89982176Y-85769192D01*
X89983869Y-85763723D01*
X89988971Y-85748500D01*
X89498500Y-85748500D01*
X88500500Y-85748500D01*
X86998500Y-85748500D01*
X84837947Y-85748500D01*
X85093327Y-85493119D01*
X84977178Y-85421202D01*
X84977177Y-85421201D01*
X84769804Y-85340865D01*
X84551193Y-85300000D01*
X84328807Y-85300000D01*
X84110195Y-85340865D01*
X83902824Y-85421200D01*
X83902823Y-85421201D01*
X83786671Y-85493119D01*
X82462181Y-85493119D01*
X83603336Y-84351965D01*
X84910970Y-84351965D01*
X84975840Y-84364092D01*
X84981440Y-84365274D01*
X85015154Y-84373202D01*
X85020696Y-84374640D01*
X85065058Y-84387259D01*
X85070534Y-84388955D01*
X85103416Y-84399975D01*
X85108807Y-84401921D01*
X85359203Y-84498925D01*
X85364495Y-84501118D01*
X85396202Y-84515118D01*
X85401391Y-84517553D01*
X85442678Y-84538113D01*
X85447742Y-84540783D01*
X85478017Y-84557646D01*
X85482956Y-84560548D01*
X85789736Y-84750500D01*
X86000500Y-84750500D01*
X86000500Y-83248500D01*
X86998500Y-83248500D01*
X86998500Y-84750500D01*
X88500500Y-84750500D01*
X88500500Y-83248500D01*
X89498500Y-83248500D01*
X89498500Y-84750500D01*
X90720033Y-84750500D01*
X90750402Y-84727565D01*
X90755053Y-84724218D01*
X90783650Y-84704628D01*
X90788451Y-84701500D01*
X91000500Y-84570205D01*
X91000500Y-83248500D01*
X91998500Y-83248500D01*
X91998500Y-84301500D01*
X92194305Y-84301500D01*
X92200033Y-84301632D01*
X92234654Y-84303233D01*
X92240368Y-84303630D01*
X92286294Y-84307886D01*
X92291984Y-84308546D01*
X92326307Y-84313334D01*
X92331960Y-84314256D01*
X92501500Y-84345948D01*
X92501500Y-83248500D01*
X91998500Y-83248500D01*
X91000500Y-83248500D01*
X89498500Y-83248500D01*
X88500500Y-83248500D01*
X86998500Y-83248500D01*
X86000500Y-83248500D01*
X85098500Y-83248500D01*
X85098500Y-83666033D01*
X85098351Y-83672115D01*
X85096545Y-83708890D01*
X85096097Y-83714961D01*
X85091294Y-83763731D01*
X85090549Y-83769774D01*
X85085145Y-83806201D01*
X85084104Y-83812196D01*
X85048583Y-83990772D01*
X85047250Y-83996709D01*
X85038301Y-84032437D01*
X85036677Y-84038307D01*
X85022450Y-84085203D01*
X85020541Y-84090980D01*
X85008138Y-84125643D01*
X85005948Y-84131321D01*
X84936276Y-84299522D01*
X84933811Y-84305084D01*
X84918072Y-84338363D01*
X84915335Y-84343799D01*
X84910970Y-84351965D01*
X83603336Y-84351965D01*
X83949695Y-84005606D01*
X84023620Y-83894969D01*
X84074541Y-83772036D01*
X84100500Y-83641531D01*
X84100500Y-83508469D01*
X84100500Y-80748500D01*
X85098500Y-80748500D01*
X85098500Y-82250500D01*
X86000500Y-82250500D01*
X86000500Y-80748500D01*
X85098500Y-80748500D01*
X84100500Y-80748500D01*
X84100500Y-78248500D01*
X85098500Y-78248500D01*
X85098500Y-79750500D01*
X86000500Y-79750500D01*
X86000500Y-78248500D01*
X85098500Y-78248500D01*
X84100500Y-78248500D01*
X84100500Y-77960006D01*
X87344700Y-77960006D01*
X87363864Y-78191297D01*
X87363866Y-78191308D01*
X87420842Y-78416300D01*
X87514075Y-78628848D01*
X87641018Y-78823150D01*
X87736167Y-78926510D01*
X87767089Y-78989164D01*
X87759228Y-79058590D01*
X87715081Y-79112746D01*
X87688271Y-79126674D01*
X87607911Y-79156646D01*
X87607906Y-79156649D01*
X87492812Y-79242809D01*
X87492809Y-79242812D01*
X87406649Y-79357906D01*
X87406645Y-79357913D01*
X87356403Y-79492620D01*
X87356401Y-79492627D01*
X87350000Y-79552155D01*
X87350000Y-80250000D01*
X88374722Y-80250000D01*
X88330667Y-80326306D01*
X88300000Y-80440756D01*
X88300000Y-80559244D01*
X88330667Y-80673694D01*
X88374722Y-80750000D01*
X87350000Y-80750000D01*
X87350000Y-81447844D01*
X87356401Y-81507372D01*
X87356403Y-81507379D01*
X87406645Y-81642086D01*
X87406649Y-81642093D01*
X87492809Y-81757187D01*
X87492812Y-81757190D01*
X87607906Y-81843350D01*
X87607913Y-81843354D01*
X87742620Y-81893596D01*
X87742627Y-81893598D01*
X87802155Y-81899999D01*
X87802172Y-81900000D01*
X88500000Y-81900000D01*
X88500000Y-80875277D01*
X88576306Y-80919333D01*
X88690756Y-80950000D01*
X88809244Y-80950000D01*
X88923694Y-80919333D01*
X89000000Y-80875277D01*
X89000000Y-81900000D01*
X89697828Y-81900000D01*
X89697844Y-81899999D01*
X89757372Y-81893598D01*
X89757379Y-81893596D01*
X89892086Y-81843354D01*
X89892093Y-81843350D01*
X90007187Y-81757190D01*
X90007190Y-81757187D01*
X90093350Y-81642093D01*
X90093354Y-81642086D01*
X90143596Y-81507379D01*
X90143598Y-81507372D01*
X90149999Y-81447844D01*
X90150000Y-81447827D01*
X90150000Y-80750000D01*
X89125278Y-80750000D01*
X89126144Y-80748500D01*
X91998500Y-80748500D01*
X91998500Y-82250500D01*
X92501500Y-82250500D01*
X92501500Y-80748500D01*
X91998500Y-80748500D01*
X89126144Y-80748500D01*
X89169333Y-80673694D01*
X89200000Y-80559244D01*
X89200000Y-80440756D01*
X89169333Y-80326306D01*
X89125278Y-80250000D01*
X90150000Y-80250000D01*
X90150000Y-79552172D01*
X90149999Y-79552155D01*
X90143598Y-79492627D01*
X90143596Y-79492620D01*
X90093354Y-79357913D01*
X90093350Y-79357906D01*
X90007190Y-79242812D01*
X90007187Y-79242809D01*
X89892093Y-79156649D01*
X89892086Y-79156645D01*
X89811729Y-79126674D01*
X89755795Y-79084803D01*
X89731378Y-79019338D01*
X89746230Y-78951065D01*
X89763826Y-78926516D01*
X89858979Y-78823153D01*
X89985924Y-78628849D01*
X90079157Y-78416300D01*
X90121650Y-78248500D01*
X91998500Y-78248500D01*
X91998500Y-79750500D01*
X92501500Y-79750500D01*
X92501500Y-78248500D01*
X91998500Y-78248500D01*
X90121650Y-78248500D01*
X90136134Y-78191305D01*
X90155300Y-77960000D01*
X90155300Y-77959993D01*
X90136135Y-77728702D01*
X90136133Y-77728691D01*
X90079157Y-77503699D01*
X89985924Y-77291151D01*
X89858983Y-77096852D01*
X89858980Y-77096849D01*
X89858979Y-77096847D01*
X89701784Y-76926087D01*
X89701779Y-76926083D01*
X89701777Y-76926081D01*
X89518634Y-76783535D01*
X89518628Y-76783531D01*
X89314504Y-76673064D01*
X89314495Y-76673061D01*
X89094984Y-76597702D01*
X88923282Y-76569050D01*
X88866049Y-76559500D01*
X88633951Y-76559500D01*
X88588164Y-76567140D01*
X88405015Y-76597702D01*
X88185504Y-76673061D01*
X88185495Y-76673064D01*
X87981371Y-76783531D01*
X87981365Y-76783535D01*
X87798222Y-76926081D01*
X87798219Y-76926084D01*
X87641016Y-77096852D01*
X87514075Y-77291151D01*
X87420842Y-77503699D01*
X87363866Y-77728691D01*
X87363864Y-77728702D01*
X87344700Y-77959993D01*
X87344700Y-77960006D01*
X84100500Y-77960006D01*
X84100500Y-75748500D01*
X85098500Y-75748500D01*
X85098500Y-77250500D01*
X86000500Y-77250500D01*
X86000500Y-75748500D01*
X89690808Y-75748500D01*
X89691761Y-75748872D01*
X89696491Y-75750831D01*
X89734279Y-75767405D01*
X89738933Y-75769562D01*
X89766795Y-75783183D01*
X89771352Y-75785528D01*
X90011766Y-75915634D01*
X90016221Y-75918166D01*
X90042853Y-75934035D01*
X90047199Y-75936747D01*
X90081744Y-75959315D01*
X90085978Y-75962208D01*
X90111217Y-75980228D01*
X90115326Y-75983293D01*
X90331054Y-76151201D01*
X90335034Y-76154433D01*
X90358704Y-76174481D01*
X90362547Y-76177874D01*
X90392905Y-76205822D01*
X90396603Y-76209371D01*
X90418521Y-76231290D01*
X90422068Y-76234986D01*
X90607195Y-76436089D01*
X90610584Y-76439927D01*
X90630602Y-76463560D01*
X90633829Y-76467534D01*
X90659177Y-76500095D01*
X90662246Y-76504209D01*
X90680284Y-76529471D01*
X90683178Y-76533706D01*
X90832701Y-76762568D01*
X90835414Y-76766915D01*
X90851285Y-76793549D01*
X90853819Y-76798008D01*
X90873458Y-76834299D01*
X90875801Y-76838851D01*
X90889421Y-76866709D01*
X90891578Y-76871363D01*
X91000500Y-77119681D01*
X91000500Y-75748500D01*
X91998500Y-75748500D01*
X91998500Y-77250500D01*
X92501500Y-77250500D01*
X92501500Y-75748500D01*
X91998500Y-75748500D01*
X91000500Y-75748500D01*
X89690808Y-75748500D01*
X86000500Y-75748500D01*
X85098500Y-75748500D01*
X84100500Y-75748500D01*
X84100500Y-73248500D01*
X85098500Y-73248500D01*
X85098500Y-74750500D01*
X86000500Y-74750500D01*
X86000500Y-73248500D01*
X86998500Y-73248500D01*
X86998500Y-74750500D01*
X88500500Y-74750500D01*
X88500500Y-73248500D01*
X89498500Y-73248500D01*
X89498500Y-74750500D01*
X91000500Y-74750500D01*
X91000500Y-73248500D01*
X91998500Y-73248500D01*
X91998500Y-74750500D01*
X92501500Y-74750500D01*
X92501500Y-73248500D01*
X91998500Y-73248500D01*
X91000500Y-73248500D01*
X89498500Y-73248500D01*
X88500500Y-73248500D01*
X86998500Y-73248500D01*
X86000500Y-73248500D01*
X85098500Y-73248500D01*
X84100500Y-73248500D01*
X84100500Y-72608469D01*
X84074541Y-72477964D01*
X84074539Y-72477959D01*
X84030630Y-72371952D01*
X84023161Y-72302483D01*
X84054436Y-72240004D01*
X84114525Y-72204352D01*
X84145191Y-72200500D01*
X84361241Y-72200500D01*
X84361243Y-72200500D01*
X84579940Y-72159618D01*
X84787401Y-72079247D01*
X84976562Y-71962124D01*
X85140981Y-71812236D01*
X85275058Y-71634689D01*
X85374229Y-71435528D01*
X85435115Y-71221536D01*
X85455643Y-71000000D01*
X85435115Y-70778464D01*
X85426590Y-70748500D01*
X86998500Y-70748500D01*
X86998500Y-72250500D01*
X88500500Y-72250500D01*
X88500500Y-70748500D01*
X89498500Y-70748500D01*
X89498500Y-72250500D01*
X90059381Y-72250500D01*
X90034626Y-72217719D01*
X90031281Y-72213070D01*
X90011700Y-72184486D01*
X90008573Y-72179687D01*
X89984293Y-72140475D01*
X89981391Y-72135536D01*
X89964523Y-72105253D01*
X89961851Y-72100185D01*
X89842112Y-71859719D01*
X89839675Y-71854528D01*
X89825664Y-71822792D01*
X89823470Y-71817494D01*
X89806813Y-71774485D01*
X89804871Y-71769105D01*
X89793869Y-71736277D01*
X89792176Y-71730808D01*
X89718674Y-71472476D01*
X89717234Y-71466933D01*
X89709301Y-71433205D01*
X89708119Y-71427602D01*
X89699643Y-71382266D01*
X89698720Y-71376609D01*
X89693931Y-71342276D01*
X89693271Y-71336587D01*
X89668486Y-71069121D01*
X89668089Y-71063404D01*
X89666489Y-71028786D01*
X89666357Y-71023061D01*
X89666357Y-71000000D01*
X90664357Y-71000000D01*
X90684884Y-71221535D01*
X90684885Y-71221537D01*
X90745769Y-71435523D01*
X90745775Y-71435538D01*
X90844938Y-71634683D01*
X90844943Y-71634691D01*
X90979020Y-71812238D01*
X91143437Y-71962123D01*
X91143439Y-71962125D01*
X91332595Y-72079245D01*
X91332596Y-72079245D01*
X91332599Y-72079247D01*
X91540060Y-72159618D01*
X91758757Y-72200500D01*
X91758759Y-72200500D01*
X91981241Y-72200500D01*
X91981243Y-72200500D01*
X92199940Y-72159618D01*
X92407401Y-72079247D01*
X92596562Y-71962124D01*
X92760981Y-71812236D01*
X92895058Y-71634689D01*
X92994229Y-71435528D01*
X93055115Y-71221536D01*
X93075643Y-71000000D01*
X93055115Y-70778464D01*
X92994229Y-70564472D01*
X92994224Y-70564461D01*
X92895061Y-70365316D01*
X92895056Y-70365308D01*
X92760979Y-70187761D01*
X92596562Y-70037876D01*
X92596560Y-70037874D01*
X92407404Y-69920754D01*
X92407398Y-69920752D01*
X92199940Y-69840382D01*
X91981243Y-69799500D01*
X91758757Y-69799500D01*
X91540060Y-69840382D01*
X91408864Y-69891207D01*
X91332601Y-69920752D01*
X91332595Y-69920754D01*
X91143439Y-70037874D01*
X91143437Y-70037876D01*
X90979020Y-70187761D01*
X90844943Y-70365308D01*
X90844938Y-70365316D01*
X90745775Y-70564461D01*
X90745769Y-70564476D01*
X90684885Y-70778462D01*
X90684884Y-70778464D01*
X90664357Y-70999999D01*
X90664357Y-71000000D01*
X89666357Y-71000000D01*
X89666357Y-70976939D01*
X89666489Y-70971214D01*
X89668089Y-70936596D01*
X89668486Y-70930879D01*
X89685386Y-70748500D01*
X89498500Y-70748500D01*
X88500500Y-70748500D01*
X86998500Y-70748500D01*
X85426590Y-70748500D01*
X85374229Y-70564472D01*
X85374224Y-70564461D01*
X85275061Y-70365316D01*
X85275056Y-70365308D01*
X85140979Y-70187761D01*
X84976562Y-70037876D01*
X84976560Y-70037874D01*
X84787404Y-69920754D01*
X84787398Y-69920752D01*
X84579940Y-69840382D01*
X84361243Y-69799500D01*
X84138757Y-69799500D01*
X83920060Y-69840382D01*
X83788864Y-69891207D01*
X83712601Y-69920752D01*
X83712595Y-69920754D01*
X83523439Y-70037874D01*
X83523437Y-70037876D01*
X83359020Y-70187761D01*
X83224943Y-70365308D01*
X83224938Y-70365316D01*
X83125775Y-70564461D01*
X83125769Y-70564476D01*
X83064885Y-70778462D01*
X83064884Y-70778464D01*
X83044357Y-70999999D01*
X83044357Y-71000002D01*
X83047296Y-71031722D01*
X83033881Y-71100291D01*
X82985523Y-71150723D01*
X82917577Y-71167004D01*
X82851615Y-71143967D01*
X82836144Y-71130843D01*
X79989318Y-68284017D01*
X79969924Y-68248500D01*
X81998500Y-68248500D01*
X81998500Y-68881815D01*
X82626549Y-69509864D01*
X82637019Y-69498379D01*
X82640976Y-69494235D01*
X82665484Y-69469727D01*
X82669627Y-69465771D01*
X82868129Y-69284812D01*
X82872451Y-69281051D01*
X82899109Y-69258915D01*
X82903596Y-69255361D01*
X82940402Y-69227565D01*
X82945053Y-69224218D01*
X82973650Y-69204628D01*
X82978451Y-69201500D01*
X83206821Y-69060100D01*
X83211757Y-69057199D01*
X83242016Y-69040344D01*
X83247080Y-69037674D01*
X83288365Y-69017114D01*
X83293553Y-69014679D01*
X83325274Y-69000672D01*
X83330569Y-68998478D01*
X83500500Y-68932646D01*
X83500500Y-68248500D01*
X84498500Y-68248500D01*
X84498500Y-68810849D01*
X84516307Y-68813334D01*
X84521960Y-68814256D01*
X84785996Y-68863613D01*
X84791604Y-68864796D01*
X84825346Y-68872733D01*
X84830888Y-68874173D01*
X84875248Y-68886795D01*
X84880722Y-68888490D01*
X84913572Y-68899501D01*
X84918957Y-68901445D01*
X85169431Y-68998478D01*
X85174726Y-69000672D01*
X85206447Y-69014679D01*
X85211635Y-69017114D01*
X85252920Y-69037674D01*
X85257984Y-69040344D01*
X85288243Y-69057199D01*
X85293179Y-69060100D01*
X85521549Y-69201500D01*
X85526350Y-69204628D01*
X85554947Y-69224218D01*
X85559598Y-69227565D01*
X85596404Y-69255361D01*
X85600891Y-69258915D01*
X85627549Y-69281051D01*
X85631871Y-69284812D01*
X85830373Y-69465771D01*
X85834516Y-69469727D01*
X85859024Y-69494235D01*
X85862981Y-69498379D01*
X85894052Y-69532463D01*
X85897812Y-69536783D01*
X85919950Y-69563443D01*
X85923506Y-69567933D01*
X86000500Y-69669889D01*
X86000500Y-68248500D01*
X86998500Y-68248500D01*
X86998500Y-69750500D01*
X88500500Y-69750500D01*
X88500500Y-68248500D01*
X89498500Y-68248500D01*
X89498500Y-69750500D01*
X90058626Y-69750500D01*
X90196494Y-69567933D01*
X90200050Y-69563443D01*
X90222188Y-69536783D01*
X90225948Y-69532463D01*
X90257019Y-69498379D01*
X90260976Y-69494235D01*
X90285484Y-69469727D01*
X90289627Y-69465771D01*
X90488129Y-69284812D01*
X90492451Y-69281051D01*
X90519109Y-69258915D01*
X90523596Y-69255361D01*
X90560402Y-69227565D01*
X90565053Y-69224218D01*
X90593650Y-69204628D01*
X90598451Y-69201500D01*
X90826821Y-69060100D01*
X90831757Y-69057199D01*
X90862016Y-69040344D01*
X90867080Y-69037674D01*
X90908365Y-69017114D01*
X90913553Y-69014679D01*
X90945274Y-69000672D01*
X90950569Y-68998478D01*
X91000500Y-68979134D01*
X91000500Y-68248500D01*
X89498500Y-68248500D01*
X88500500Y-68248500D01*
X86998500Y-68248500D01*
X86000500Y-68248500D01*
X84498500Y-68248500D01*
X83500500Y-68248500D01*
X81998500Y-68248500D01*
X79969924Y-68248500D01*
X79955833Y-68222694D01*
X79952999Y-68196336D01*
X79952999Y-66702129D01*
X79952998Y-66702123D01*
X79946591Y-66642516D01*
X79896297Y-66507671D01*
X79896293Y-66507664D01*
X79810047Y-66392455D01*
X79810044Y-66392452D01*
X79694835Y-66306206D01*
X79694828Y-66306202D01*
X79559982Y-66255908D01*
X79559983Y-66255908D01*
X79500383Y-66249501D01*
X79500381Y-66249500D01*
X79500373Y-66249500D01*
X79500364Y-66249500D01*
X77499629Y-66249500D01*
X77499623Y-66249501D01*
X77440016Y-66255908D01*
X77305171Y-66306202D01*
X77305164Y-66306206D01*
X77189955Y-66392452D01*
X77189952Y-66392455D01*
X77103706Y-66507664D01*
X77103702Y-66507671D01*
X77093127Y-66536026D01*
X77051256Y-66591960D01*
X76985791Y-66616377D01*
X76917518Y-66601525D01*
X76904060Y-66593011D01*
X76721279Y-66460213D01*
X76517568Y-66356417D01*
X76300124Y-66285765D01*
X76210000Y-66271490D01*
X76210000Y-67259252D01*
X76172292Y-67237482D01*
X76032409Y-67200000D01*
X75887591Y-67200000D01*
X75747708Y-67237482D01*
X75710000Y-67259252D01*
X75710000Y-66271490D01*
X75709999Y-66271490D01*
X75619875Y-66285765D01*
X75402431Y-66356417D01*
X75198723Y-66460211D01*
X75013757Y-66594597D01*
X74852097Y-66756257D01*
X74790627Y-66840864D01*
X74735297Y-66883529D01*
X74665684Y-66889508D01*
X74603889Y-66856902D01*
X74589991Y-66840864D01*
X74528286Y-66755934D01*
X74366566Y-66594214D01*
X74181538Y-66459783D01*
X73977755Y-66355950D01*
X73760248Y-66285278D01*
X73574812Y-66255908D01*
X73534354Y-66249500D01*
X73305646Y-66249500D01*
X73265188Y-66255908D01*
X73079753Y-66285278D01*
X73079750Y-66285278D01*
X72862244Y-66355950D01*
X72658461Y-66459783D01*
X72592550Y-66507671D01*
X72473434Y-66594214D01*
X72473432Y-66594216D01*
X72473431Y-66594216D01*
X72311716Y-66755931D01*
X72311716Y-66755932D01*
X72311714Y-66755934D01*
X72253980Y-66835396D01*
X72177283Y-66940961D01*
X72073450Y-67144744D01*
X72002778Y-67362250D01*
X72002778Y-67362253D01*
X71967000Y-67588146D01*
X71967000Y-67911853D01*
X72002778Y-68137746D01*
X72002778Y-68137749D01*
X72073450Y-68355255D01*
X72073452Y-68355258D01*
X72177283Y-68559038D01*
X72311714Y-68744066D01*
X72473434Y-68905786D01*
X72658462Y-69040217D01*
X72697485Y-69060100D01*
X72862244Y-69144049D01*
X73079751Y-69214721D01*
X73079752Y-69214721D01*
X73079755Y-69214722D01*
X73305646Y-69250500D01*
X73305647Y-69250500D01*
X73534353Y-69250500D01*
X73534354Y-69250500D01*
X73760245Y-69214722D01*
X73760248Y-69214721D01*
X73760249Y-69214721D01*
X73977755Y-69144049D01*
X73977755Y-69144048D01*
X73977758Y-69144048D01*
X74181538Y-69040217D01*
X74366566Y-68905786D01*
X74528286Y-68744066D01*
X74589992Y-68659134D01*
X74645319Y-68616470D01*
X74714932Y-68610491D01*
X74776727Y-68643096D01*
X74790626Y-68659135D01*
X74852097Y-68743741D01*
X74852097Y-68743742D01*
X75013757Y-68905402D01*
X75198723Y-69039788D01*
X75402429Y-69143582D01*
X75619871Y-69214234D01*
X75710000Y-69228509D01*
X75710000Y-68240747D01*
X75747708Y-68262518D01*
X75887591Y-68300000D01*
X76032409Y-68300000D01*
X76172292Y-68262518D01*
X76210000Y-68240747D01*
X76210000Y-69228508D01*
X76300128Y-69214234D01*
X76517570Y-69143582D01*
X76721276Y-69039788D01*
X76904059Y-68906988D01*
X76969865Y-68883508D01*
X77037919Y-68899333D01*
X77086614Y-68949439D01*
X77093127Y-68963974D01*
X77103701Y-68992326D01*
X77103706Y-68992335D01*
X77189952Y-69107544D01*
X77189955Y-69107547D01*
X77305164Y-69193793D01*
X77305171Y-69193797D01*
X77440017Y-69244091D01*
X77440016Y-69244091D01*
X77446944Y-69244835D01*
X77499627Y-69250500D01*
X78993836Y-69250499D01*
X79060875Y-69270184D01*
X79081517Y-69286818D01*
X82713181Y-72918482D01*
X82746666Y-72979805D01*
X82749500Y-73006163D01*
X82749500Y-75375500D01*
X82729815Y-75442539D01*
X82677011Y-75488294D01*
X82625500Y-75499500D01*
X79452129Y-75499500D01*
X79452123Y-75499501D01*
X79392516Y-75505908D01*
X79257671Y-75556202D01*
X79257664Y-75556206D01*
X79142455Y-75642452D01*
X79142452Y-75642455D01*
X79056206Y-75757664D01*
X79056202Y-75757671D01*
X79005908Y-75892517D01*
X78999501Y-75952116D01*
X78999500Y-75952135D01*
X78999500Y-79547870D01*
X78999501Y-79547876D01*
X79005908Y-79607483D01*
X79056202Y-79742328D01*
X79056206Y-79742335D01*
X79142452Y-79857544D01*
X79142455Y-79857547D01*
X79257664Y-79943793D01*
X79257673Y-79943798D01*
X79306506Y-79962011D01*
X79362440Y-80003881D01*
X79386858Y-80069345D01*
X79372007Y-80137618D01*
X79322603Y-80187024D01*
X79256598Y-80202018D01*
X79218625Y-80200001D01*
X79218579Y-80200000D01*
X78500000Y-80200000D01*
X78500000Y-81950000D01*
X78000000Y-81950000D01*
X78000000Y-80200000D01*
X77281423Y-80200000D01*
X77281411Y-80200001D01*
X77228808Y-80202794D01*
X76999012Y-80247237D01*
X76780024Y-80329879D01*
X76578158Y-80448339D01*
X76578151Y-80448344D01*
X76399213Y-80599211D01*
X76399211Y-80599213D01*
X76248344Y-80778151D01*
X76248339Y-80778158D01*
X76129879Y-80980024D01*
X76047237Y-81199012D01*
X76002794Y-81428808D01*
X76002794Y-81428809D01*
X76000001Y-81481382D01*
X76000000Y-81481421D01*
X76000000Y-82200000D01*
X76816988Y-82200000D01*
X76784075Y-82257007D01*
X76750000Y-82384174D01*
X76750000Y-82515826D01*
X76784075Y-82642993D01*
X76816988Y-82700000D01*
X76000001Y-82700000D01*
X76000001Y-83418588D01*
X76002794Y-83471191D01*
X76047237Y-83700987D01*
X76129879Y-83919975D01*
X76248339Y-84121841D01*
X76248344Y-84121848D01*
X76399211Y-84300786D01*
X76399213Y-84300788D01*
X76578151Y-84451655D01*
X76578158Y-84451660D01*
X76780024Y-84570120D01*
X76999012Y-84652762D01*
X77228809Y-84697205D01*
X77281382Y-84699998D01*
X77281421Y-84699999D01*
X77999999Y-84699999D01*
X78000000Y-84699998D01*
X78000000Y-82950000D01*
X78500000Y-82950000D01*
X78500000Y-84699999D01*
X79218576Y-84699999D01*
X79218588Y-84699998D01*
X79271191Y-84697205D01*
X79500987Y-84652762D01*
X79719975Y-84570120D01*
X79921841Y-84451660D01*
X79921848Y-84451655D01*
X80100786Y-84300788D01*
X80100788Y-84300786D01*
X80251655Y-84121848D01*
X80251660Y-84121841D01*
X80370120Y-83919975D01*
X80452762Y-83700987D01*
X80497205Y-83471191D01*
X80497205Y-83471190D01*
X80499998Y-83418617D01*
X80500000Y-83418578D01*
X80500000Y-82700000D01*
X79683012Y-82700000D01*
X79715925Y-82642993D01*
X79750000Y-82515826D01*
X79750000Y-82384174D01*
X79715925Y-82257007D01*
X79683012Y-82200000D01*
X80499999Y-82200000D01*
X80499999Y-81481423D01*
X80499998Y-81481411D01*
X80497205Y-81428808D01*
X80452762Y-81199012D01*
X80370120Y-80980024D01*
X80251660Y-80778158D01*
X80251655Y-80778151D01*
X80100788Y-80599213D01*
X80100786Y-80599211D01*
X79921848Y-80448344D01*
X79921841Y-80448339D01*
X79719975Y-80329879D01*
X79500984Y-80247236D01*
X79495840Y-80246241D01*
X79433760Y-80214180D01*
X79398869Y-80153646D01*
X79402244Y-80083858D01*
X79442814Y-80026973D01*
X79507697Y-80001052D01*
X79519374Y-80000499D01*
X82625500Y-80000499D01*
X82692539Y-80020184D01*
X82738294Y-80072988D01*
X82749500Y-80124499D01*
X82749500Y-83243836D01*
X82729815Y-83310875D01*
X82713181Y-83331517D01*
X79021663Y-87023034D01*
X78960340Y-87056519D01*
X78895664Y-87053284D01*
X78840248Y-87035278D01*
X78654812Y-87005908D01*
X78614354Y-86999500D01*
X78385646Y-86999500D01*
X78345188Y-87005908D01*
X78159753Y-87035278D01*
X78159750Y-87035278D01*
X77942244Y-87105950D01*
X77738461Y-87209783D01*
X77672550Y-87257671D01*
X77553434Y-87344214D01*
X77553432Y-87344216D01*
X77553431Y-87344216D01*
X77391715Y-87505932D01*
X77330318Y-87590438D01*
X77274987Y-87633103D01*
X77205374Y-87639082D01*
X77143579Y-87606476D01*
X77129682Y-87590438D01*
X77068973Y-87506880D01*
X77068286Y-87505934D01*
X76906566Y-87344214D01*
X76721538Y-87209783D01*
X76517755Y-87105950D01*
X76300248Y-87035278D01*
X76114812Y-87005908D01*
X76074354Y-86999500D01*
X75845646Y-86999500D01*
X75805188Y-87005908D01*
X75619753Y-87035278D01*
X75619750Y-87035278D01*
X75402244Y-87105950D01*
X75198461Y-87209783D01*
X75015759Y-87342525D01*
X74949952Y-87366005D01*
X74881898Y-87350180D01*
X74833203Y-87300074D01*
X74826690Y-87285538D01*
X74816296Y-87257669D01*
X74816293Y-87257664D01*
X74730047Y-87142455D01*
X74730044Y-87142452D01*
X74614835Y-87056206D01*
X74614828Y-87056202D01*
X74479982Y-87005908D01*
X74479983Y-87005908D01*
X74420383Y-86999501D01*
X74420381Y-86999500D01*
X74420373Y-86999500D01*
X74420364Y-86999500D01*
X72419629Y-86999500D01*
X72419623Y-86999501D01*
X72360016Y-87005908D01*
X72225171Y-87056202D01*
X72225164Y-87056206D01*
X72109955Y-87142452D01*
X72109952Y-87142455D01*
X72023706Y-87257664D01*
X72023702Y-87257671D01*
X71973408Y-87392517D01*
X71967001Y-87452116D01*
X71967000Y-87452135D01*
X71967000Y-89547870D01*
X71967001Y-89547876D01*
X71973408Y-89607483D01*
X72023702Y-89742328D01*
X72023706Y-89742335D01*
X72109952Y-89857544D01*
X72109955Y-89857547D01*
X72225164Y-89943793D01*
X72225171Y-89943797D01*
X72360017Y-89994091D01*
X72360016Y-89994091D01*
X72366944Y-89994835D01*
X72419627Y-90000500D01*
X74349902Y-90000499D01*
X74416941Y-90020184D01*
X74437583Y-90036818D01*
X79815139Y-95414374D01*
X79815149Y-95414385D01*
X79819479Y-95418715D01*
X79819480Y-95418716D01*
X79931284Y-95530520D01*
X80018095Y-95580639D01*
X80018097Y-95580641D01*
X80056151Y-95602611D01*
X80068215Y-95609577D01*
X80220943Y-95650501D01*
X80220946Y-95650501D01*
X80386653Y-95650501D01*
X80386669Y-95650500D01*
X89423331Y-95650500D01*
X89423347Y-95650501D01*
X89430943Y-95650501D01*
X89589054Y-95650501D01*
X89589057Y-95650501D01*
X89741785Y-95609577D01*
X89791904Y-95580639D01*
X89878716Y-95530520D01*
X89990520Y-95418716D01*
X89990520Y-95418714D01*
X90000728Y-95408507D01*
X90000729Y-95408504D01*
X91700320Y-93708914D01*
X91761641Y-93675431D01*
X91810784Y-93674708D01*
X91948757Y-93700500D01*
X91948759Y-93700500D01*
X92171241Y-93700500D01*
X92171243Y-93700500D01*
X92389940Y-93659618D01*
X92597401Y-93579247D01*
X92786562Y-93462124D01*
X92950981Y-93312236D01*
X93085058Y-93134689D01*
X93184229Y-92935528D01*
X93245115Y-92721536D01*
X93252029Y-92646921D01*
X93277815Y-92581984D01*
X93334615Y-92541296D01*
X93404396Y-92537776D01*
X93465003Y-92572541D01*
X93497193Y-92634554D01*
X93499500Y-92658362D01*
X93499500Y-98565891D01*
X93533608Y-98693187D01*
X93554037Y-98728570D01*
X93599500Y-98807314D01*
X93692686Y-98900500D01*
X93806814Y-98966392D01*
X93934108Y-99000500D01*
X97625500Y-99000500D01*
X97692539Y-99020185D01*
X97738294Y-99072989D01*
X97749500Y-99124500D01*
X97749500Y-105125500D01*
X97729815Y-105192539D01*
X97677011Y-105238294D01*
X97625500Y-105249500D01*
X66874500Y-105249500D01*
X66807461Y-105229815D01*
X66761706Y-105177011D01*
X66750500Y-105125500D01*
X66750500Y-104397870D01*
X72624500Y-104397870D01*
X72624501Y-104397876D01*
X72630908Y-104457483D01*
X72681202Y-104592328D01*
X72681206Y-104592335D01*
X72767452Y-104707544D01*
X72767455Y-104707547D01*
X72882664Y-104793793D01*
X72882671Y-104793797D01*
X73017517Y-104844091D01*
X73017516Y-104844091D01*
X73024444Y-104844835D01*
X73077127Y-104850500D01*
X74872872Y-104850499D01*
X74932483Y-104844091D01*
X75067331Y-104793796D01*
X75182546Y-104707546D01*
X75268796Y-104592331D01*
X75317810Y-104460916D01*
X75359681Y-104404984D01*
X75425145Y-104380566D01*
X75493418Y-104395417D01*
X75521673Y-104416569D01*
X75643599Y-104538495D01*
X75740384Y-104606265D01*
X75837165Y-104674032D01*
X75837167Y-104674033D01*
X75837170Y-104674035D01*
X76051337Y-104773903D01*
X76279592Y-104835063D01*
X76456034Y-104850500D01*
X76514999Y-104855659D01*
X76515000Y-104855659D01*
X76515001Y-104855659D01*
X76573966Y-104850500D01*
X76750408Y-104835063D01*
X76978663Y-104773903D01*
X77192830Y-104674035D01*
X77386401Y-104538495D01*
X77553495Y-104371401D01*
X77683425Y-104185842D01*
X77738002Y-104142217D01*
X77807500Y-104135023D01*
X77869855Y-104166546D01*
X77886575Y-104185842D01*
X78016500Y-104371395D01*
X78016505Y-104371401D01*
X78183599Y-104538495D01*
X78280384Y-104606265D01*
X78377165Y-104674032D01*
X78377167Y-104674033D01*
X78377170Y-104674035D01*
X78591337Y-104773903D01*
X78819592Y-104835063D01*
X78996034Y-104850500D01*
X79054999Y-104855659D01*
X79055000Y-104855659D01*
X79055001Y-104855659D01*
X79113966Y-104850500D01*
X79290408Y-104835063D01*
X79518663Y-104773903D01*
X79732830Y-104674035D01*
X79926401Y-104538495D01*
X80093495Y-104371401D01*
X80229035Y-104177830D01*
X80328903Y-103963663D01*
X80390063Y-103735408D01*
X80410659Y-103500000D01*
X80409592Y-103487810D01*
X80393274Y-103301293D01*
X80390063Y-103264592D01*
X80385751Y-103248500D01*
X86998500Y-103248500D01*
X86998500Y-104251500D01*
X88500500Y-104251500D01*
X89498500Y-104251500D01*
X91000500Y-104251500D01*
X91000500Y-103307921D01*
X90748137Y-103496838D01*
X90744550Y-103499425D01*
X90722570Y-103514687D01*
X90718893Y-103517144D01*
X90688917Y-103536411D01*
X90685147Y-103538740D01*
X90662102Y-103552414D01*
X90658253Y-103554606D01*
X90375806Y-103708834D01*
X90371882Y-103710887D01*
X90347918Y-103722882D01*
X90343921Y-103724794D01*
X90311505Y-103739596D01*
X90307449Y-103741361D01*
X90282728Y-103751600D01*
X90278611Y-103753220D01*
X89977131Y-103865666D01*
X89972963Y-103867136D01*
X89947585Y-103875584D01*
X89943364Y-103876906D01*
X89909174Y-103886948D01*
X89904900Y-103888121D01*
X89878924Y-103894752D01*
X89874612Y-103895771D01*
X89560145Y-103964179D01*
X89555798Y-103965044D01*
X89529419Y-103969802D01*
X89525046Y-103970510D01*
X89498500Y-103974324D01*
X89498500Y-104251500D01*
X88500500Y-104251500D01*
X88500500Y-103942565D01*
X88285388Y-103895771D01*
X88281076Y-103894752D01*
X88255100Y-103888121D01*
X88250826Y-103886948D01*
X88216636Y-103876906D01*
X88212415Y-103875584D01*
X88187037Y-103867136D01*
X88182869Y-103865666D01*
X87881389Y-103753220D01*
X87877272Y-103751600D01*
X87852551Y-103741361D01*
X87848495Y-103739596D01*
X87816079Y-103724794D01*
X87812082Y-103722882D01*
X87788118Y-103710887D01*
X87784194Y-103708834D01*
X87501747Y-103554606D01*
X87497898Y-103552414D01*
X87474853Y-103538740D01*
X87471083Y-103536411D01*
X87441107Y-103517144D01*
X87437430Y-103514687D01*
X87415450Y-103499425D01*
X87411863Y-103496838D01*
X87154268Y-103304005D01*
X87150776Y-103301293D01*
X87129934Y-103284499D01*
X87126537Y-103281660D01*
X87099605Y-103258325D01*
X87096308Y-103255363D01*
X87088937Y-103248500D01*
X91998500Y-103248500D01*
X91998500Y-104251500D01*
X93500500Y-104251500D01*
X93500500Y-104193661D01*
X93445305Y-103987666D01*
X93444019Y-103982412D01*
X93436934Y-103950454D01*
X93435879Y-103945146D01*
X93428316Y-103902251D01*
X93427493Y-103896904D01*
X93423222Y-103864461D01*
X93422633Y-103859084D01*
X93398241Y-103580287D01*
X93397887Y-103574890D01*
X93396459Y-103542190D01*
X93396341Y-103536780D01*
X93396341Y-103515000D01*
X94394341Y-103515000D01*
X94414936Y-103750403D01*
X94414938Y-103750413D01*
X94476094Y-103978655D01*
X94476096Y-103978659D01*
X94476097Y-103978663D01*
X94549009Y-104135023D01*
X94575965Y-104192830D01*
X94575967Y-104192834D01*
X94617046Y-104251500D01*
X94711505Y-104386401D01*
X94878599Y-104553495D01*
X94975384Y-104621265D01*
X95072165Y-104689032D01*
X95072167Y-104689033D01*
X95072170Y-104689035D01*
X95286337Y-104788903D01*
X95514592Y-104850063D01*
X95702918Y-104866539D01*
X95749999Y-104870659D01*
X95750000Y-104870659D01*
X95750001Y-104870659D01*
X95789234Y-104867226D01*
X95985408Y-104850063D01*
X96213663Y-104788903D01*
X96427830Y-104689035D01*
X96621401Y-104553495D01*
X96788495Y-104386401D01*
X96924035Y-104192830D01*
X97023903Y-103978663D01*
X97085063Y-103750408D01*
X97105659Y-103515000D01*
X97103753Y-103493220D01*
X97099947Y-103449713D01*
X97085063Y-103279592D01*
X97023903Y-103051337D01*
X96924035Y-102837171D01*
X96921432Y-102833454D01*
X96788496Y-102643600D01*
X96728326Y-102583430D01*
X96666179Y-102521283D01*
X96632696Y-102459963D01*
X96637680Y-102390271D01*
X96679551Y-102334337D01*
X96710529Y-102317422D01*
X96842086Y-102268354D01*
X96842093Y-102268350D01*
X96957187Y-102182190D01*
X96957190Y-102182187D01*
X97043350Y-102067093D01*
X97043354Y-102067086D01*
X97093596Y-101932379D01*
X97093598Y-101932372D01*
X97099999Y-101872844D01*
X97100000Y-101872827D01*
X97100000Y-101225000D01*
X96183012Y-101225000D01*
X96215925Y-101167993D01*
X96250000Y-101040826D01*
X96250000Y-100909174D01*
X96215925Y-100782007D01*
X96183012Y-100725000D01*
X97100000Y-100725000D01*
X97100000Y-100077172D01*
X97099999Y-100077155D01*
X97093598Y-100017627D01*
X97093596Y-100017620D01*
X97043354Y-99882913D01*
X97043350Y-99882906D01*
X96957190Y-99767812D01*
X96957187Y-99767809D01*
X96842093Y-99681649D01*
X96842086Y-99681645D01*
X96707379Y-99631403D01*
X96707372Y-99631401D01*
X96647844Y-99625000D01*
X96000000Y-99625000D01*
X96000000Y-100541988D01*
X95942993Y-100509075D01*
X95815826Y-100475000D01*
X95684174Y-100475000D01*
X95557007Y-100509075D01*
X95500000Y-100541988D01*
X95500000Y-99625000D01*
X94852155Y-99625000D01*
X94792627Y-99631401D01*
X94792620Y-99631403D01*
X94657913Y-99681645D01*
X94657906Y-99681649D01*
X94542812Y-99767809D01*
X94542809Y-99767812D01*
X94456649Y-99882906D01*
X94456645Y-99882913D01*
X94406403Y-100017620D01*
X94406401Y-100017627D01*
X94400000Y-100077155D01*
X94400000Y-100725000D01*
X95316988Y-100725000D01*
X95284075Y-100782007D01*
X95250000Y-100909174D01*
X95250000Y-101040826D01*
X95284075Y-101167993D01*
X95316988Y-101225000D01*
X94400000Y-101225000D01*
X94400000Y-101872844D01*
X94406401Y-101932372D01*
X94406403Y-101932379D01*
X94456645Y-102067086D01*
X94456649Y-102067093D01*
X94542809Y-102182187D01*
X94542812Y-102182190D01*
X94657906Y-102268350D01*
X94657913Y-102268354D01*
X94789470Y-102317421D01*
X94845403Y-102359292D01*
X94869821Y-102424756D01*
X94854970Y-102493029D01*
X94833819Y-102521284D01*
X94711503Y-102643600D01*
X94575965Y-102837169D01*
X94575964Y-102837171D01*
X94476098Y-103051335D01*
X94476094Y-103051344D01*
X94414938Y-103279586D01*
X94414936Y-103279596D01*
X94394341Y-103514999D01*
X94394341Y-103515000D01*
X93396341Y-103515000D01*
X93396341Y-103493220D01*
X93396459Y-103487810D01*
X93397887Y-103455110D01*
X93398241Y-103449713D01*
X93415845Y-103248500D01*
X91998500Y-103248500D01*
X87088937Y-103248500D01*
X86998500Y-103248500D01*
X80385751Y-103248500D01*
X80328903Y-103036337D01*
X80229035Y-102822171D01*
X80223425Y-102814158D01*
X80093494Y-102628597D01*
X80012741Y-102547844D01*
X82000000Y-102547844D01*
X82006401Y-102607372D01*
X82006403Y-102607379D01*
X82056645Y-102742086D01*
X82056649Y-102742093D01*
X82142809Y-102857187D01*
X82142812Y-102857190D01*
X82257906Y-102943350D01*
X82257913Y-102943354D01*
X82392620Y-102993596D01*
X82392627Y-102993598D01*
X82452155Y-102999999D01*
X82452172Y-103000000D01*
X83750000Y-103000000D01*
X83750000Y-101719064D01*
X83778316Y-101730793D01*
X83925147Y-101760000D01*
X84074853Y-101760000D01*
X84221684Y-101730793D01*
X84250000Y-101719064D01*
X84250000Y-103000000D01*
X85547828Y-103000000D01*
X85547844Y-102999999D01*
X85607372Y-102993598D01*
X85607379Y-102993596D01*
X85742086Y-102943354D01*
X85742093Y-102943350D01*
X85857187Y-102857190D01*
X85857190Y-102857187D01*
X85943350Y-102742093D01*
X85943354Y-102742086D01*
X85993596Y-102607379D01*
X85993598Y-102607372D01*
X85999999Y-102547844D01*
X86000000Y-102547827D01*
X86000000Y-101250000D01*
X84719064Y-101250000D01*
X84730793Y-101221684D01*
X84760000Y-101074853D01*
X84760000Y-101000001D01*
X87074390Y-101000001D01*
X87094804Y-101285433D01*
X87155628Y-101565037D01*
X87155630Y-101565043D01*
X87155631Y-101565046D01*
X87221042Y-101740418D01*
X87255635Y-101833166D01*
X87392770Y-102084309D01*
X87392775Y-102084317D01*
X87564254Y-102313387D01*
X87564270Y-102313405D01*
X87766594Y-102515729D01*
X87766612Y-102515745D01*
X87995682Y-102687224D01*
X87995690Y-102687229D01*
X88246833Y-102824364D01*
X88246832Y-102824364D01*
X88246836Y-102824365D01*
X88246839Y-102824367D01*
X88514954Y-102924369D01*
X88514960Y-102924370D01*
X88514962Y-102924371D01*
X88794566Y-102985195D01*
X88794568Y-102985195D01*
X88794572Y-102985196D01*
X89048220Y-103003337D01*
X89079999Y-103005610D01*
X89080000Y-103005610D01*
X89080001Y-103005610D01*
X89108595Y-103003564D01*
X89365428Y-102985196D01*
X89645046Y-102924369D01*
X89913161Y-102824367D01*
X90164315Y-102687226D01*
X90393395Y-102515739D01*
X90595739Y-102313395D01*
X90642822Y-102250500D01*
X91998500Y-102250500D01*
X93459947Y-102250500D01*
X93457942Y-102244564D01*
X93444332Y-102199695D01*
X93442315Y-102192212D01*
X93427972Y-102131501D01*
X93426428Y-102123916D01*
X93418522Y-102077738D01*
X93417455Y-102070069D01*
X93406289Y-101966217D01*
X93405977Y-101962905D01*
X93404364Y-101942856D01*
X93404142Y-101939542D01*
X93402713Y-101912855D01*
X93402580Y-101909539D01*
X93402044Y-101889491D01*
X93402000Y-101886177D01*
X93402000Y-101024454D01*
X93411439Y-100977002D01*
X93412268Y-100975000D01*
X93411439Y-100972998D01*
X93402000Y-100925546D01*
X93402000Y-100748500D01*
X92068172Y-100748500D01*
X92082338Y-100946575D01*
X92082575Y-100950994D01*
X92083531Y-100977755D01*
X92083610Y-100982182D01*
X92083610Y-101017818D01*
X92083531Y-101022245D01*
X92082575Y-101049006D01*
X92082338Y-101053425D01*
X92059383Y-101374383D01*
X92058989Y-101378790D01*
X92056130Y-101405387D01*
X92055579Y-101409772D01*
X92050510Y-101445046D01*
X92049802Y-101449419D01*
X92045044Y-101475798D01*
X92044179Y-101480145D01*
X91998500Y-101690128D01*
X91998500Y-102250500D01*
X90642822Y-102250500D01*
X90767226Y-102084315D01*
X90904367Y-101833161D01*
X91004369Y-101565046D01*
X91005129Y-101561551D01*
X91065195Y-101285433D01*
X91065195Y-101285432D01*
X91065196Y-101285428D01*
X91085610Y-101000000D01*
X91065196Y-100714572D01*
X91055063Y-100667993D01*
X91004371Y-100434962D01*
X91004370Y-100434960D01*
X91004369Y-100434954D01*
X90904367Y-100166839D01*
X90767226Y-99915685D01*
X90767224Y-99915682D01*
X90595745Y-99686612D01*
X90595729Y-99686594D01*
X90393405Y-99484270D01*
X90393387Y-99484254D01*
X90164317Y-99312775D01*
X90164309Y-99312770D01*
X89913166Y-99175635D01*
X89913167Y-99175635D01*
X89724524Y-99105275D01*
X89645046Y-99075631D01*
X89645043Y-99075630D01*
X89645037Y-99075628D01*
X89365433Y-99014804D01*
X89080001Y-98994390D01*
X89079999Y-98994390D01*
X88794566Y-99014804D01*
X88514962Y-99075628D01*
X88246833Y-99175635D01*
X87995690Y-99312770D01*
X87995682Y-99312775D01*
X87766612Y-99484254D01*
X87766594Y-99484270D01*
X87564270Y-99686594D01*
X87564254Y-99686612D01*
X87392775Y-99915682D01*
X87392770Y-99915690D01*
X87255635Y-100166833D01*
X87155628Y-100434962D01*
X87094804Y-100714566D01*
X87074390Y-100999998D01*
X87074390Y-101000001D01*
X84760000Y-101000001D01*
X84760000Y-100925147D01*
X84730793Y-100778316D01*
X84719064Y-100750000D01*
X86000000Y-100750000D01*
X86000000Y-99452172D01*
X85999999Y-99452155D01*
X85993598Y-99392627D01*
X85993596Y-99392620D01*
X85943354Y-99257913D01*
X85943350Y-99257906D01*
X85857190Y-99142812D01*
X85857187Y-99142809D01*
X85742093Y-99056649D01*
X85742086Y-99056645D01*
X85607379Y-99006403D01*
X85607372Y-99006401D01*
X85547844Y-99000000D01*
X84250000Y-99000000D01*
X84250000Y-100280935D01*
X84221684Y-100269207D01*
X84074853Y-100240000D01*
X83925147Y-100240000D01*
X83778316Y-100269207D01*
X83750000Y-100280935D01*
X83750000Y-99000000D01*
X82452155Y-99000000D01*
X82392627Y-99006401D01*
X82392620Y-99006403D01*
X82257913Y-99056645D01*
X82257906Y-99056649D01*
X82142812Y-99142809D01*
X82142809Y-99142812D01*
X82056649Y-99257906D01*
X82056645Y-99257913D01*
X82006403Y-99392620D01*
X82006401Y-99392627D01*
X82000000Y-99452155D01*
X82000000Y-100750000D01*
X83280936Y-100750000D01*
X83269207Y-100778316D01*
X83240000Y-100925147D01*
X83240000Y-101074853D01*
X83269207Y-101221684D01*
X83280936Y-101250000D01*
X82000000Y-101250000D01*
X82000000Y-102547844D01*
X80012741Y-102547844D01*
X79926402Y-102461506D01*
X79926395Y-102461501D01*
X79732834Y-102325967D01*
X79732830Y-102325965D01*
X79732828Y-102325964D01*
X79518663Y-102226097D01*
X79518659Y-102226096D01*
X79518655Y-102226094D01*
X79290413Y-102164938D01*
X79290403Y-102164936D01*
X79055001Y-102144341D01*
X79054999Y-102144341D01*
X78819596Y-102164936D01*
X78819586Y-102164938D01*
X78591344Y-102226094D01*
X78591335Y-102226098D01*
X78377171Y-102325964D01*
X78377169Y-102325965D01*
X78183597Y-102461505D01*
X78016505Y-102628597D01*
X77886575Y-102814158D01*
X77831998Y-102857783D01*
X77762500Y-102864977D01*
X77700145Y-102833454D01*
X77683425Y-102814158D01*
X77553494Y-102628597D01*
X77386402Y-102461506D01*
X77386395Y-102461501D01*
X77192834Y-102325967D01*
X77192830Y-102325965D01*
X77192828Y-102325964D01*
X76978663Y-102226097D01*
X76978659Y-102226096D01*
X76978655Y-102226094D01*
X76750413Y-102164938D01*
X76750403Y-102164936D01*
X76515001Y-102144341D01*
X76514999Y-102144341D01*
X76279596Y-102164936D01*
X76279586Y-102164938D01*
X76051344Y-102226094D01*
X76051335Y-102226098D01*
X75837171Y-102325964D01*
X75837169Y-102325965D01*
X75643600Y-102461503D01*
X75521673Y-102583430D01*
X75460350Y-102616914D01*
X75390658Y-102611930D01*
X75334725Y-102570058D01*
X75317810Y-102539081D01*
X75268797Y-102407671D01*
X75268793Y-102407664D01*
X75182547Y-102292455D01*
X75182544Y-102292452D01*
X75067335Y-102206206D01*
X75067328Y-102206202D01*
X74932482Y-102155908D01*
X74932483Y-102155908D01*
X74872883Y-102149501D01*
X74872881Y-102149500D01*
X74872873Y-102149500D01*
X74872864Y-102149500D01*
X73077129Y-102149500D01*
X73077123Y-102149501D01*
X73017516Y-102155908D01*
X72882671Y-102206202D01*
X72882664Y-102206206D01*
X72767455Y-102292452D01*
X72767452Y-102292455D01*
X72681206Y-102407664D01*
X72681202Y-102407671D01*
X72630908Y-102542517D01*
X72624501Y-102602116D01*
X72624500Y-102602135D01*
X72624500Y-104397870D01*
X66750500Y-104397870D01*
X66750500Y-103248500D01*
X67748500Y-103248500D01*
X67748500Y-104251500D01*
X68500500Y-104251500D01*
X68500500Y-103248500D01*
X69498500Y-103248500D01*
X69498500Y-104251500D01*
X71000500Y-104251500D01*
X71000500Y-103248500D01*
X69498500Y-103248500D01*
X68500500Y-103248500D01*
X67748500Y-103248500D01*
X66750500Y-103248500D01*
X66750500Y-100748500D01*
X67748500Y-100748500D01*
X67748500Y-102250500D01*
X68500500Y-102250500D01*
X68500500Y-100748500D01*
X69498500Y-100748500D01*
X69498500Y-102250500D01*
X71000500Y-102250500D01*
X71000500Y-100748500D01*
X71998500Y-100748500D01*
X71998500Y-101655403D01*
X72030519Y-101618451D01*
X72036551Y-101611972D01*
X72086972Y-101561551D01*
X72093451Y-101555519D01*
X72133936Y-101520439D01*
X72140827Y-101514886D01*
X72313126Y-101385902D01*
X72320396Y-101380854D01*
X72365463Y-101351890D01*
X72373077Y-101347372D01*
X72435667Y-101313195D01*
X72443581Y-101309233D01*
X72492318Y-101286975D01*
X72500498Y-101283587D01*
X72697982Y-101209931D01*
X72705321Y-101207452D01*
X72750172Y-101193847D01*
X72757648Y-101191832D01*
X72818363Y-101177484D01*
X72825955Y-101175939D01*
X72872160Y-101168028D01*
X72879833Y-101166959D01*
X72983755Y-101155788D01*
X72987064Y-101155477D01*
X73007101Y-101153865D01*
X73010413Y-101153643D01*
X73037095Y-101152214D01*
X73040413Y-101152081D01*
X73060464Y-101151545D01*
X73063778Y-101151501D01*
X73500500Y-101151500D01*
X73500500Y-100748500D01*
X74498500Y-100748500D01*
X74498500Y-101151500D01*
X74886248Y-101151500D01*
X74889572Y-101151545D01*
X74909673Y-101152084D01*
X74912993Y-101152217D01*
X74939680Y-101153649D01*
X74942989Y-101153871D01*
X74962982Y-101155481D01*
X74966285Y-101155792D01*
X75070175Y-101166962D01*
X75077843Y-101168029D01*
X75124029Y-101175936D01*
X75131619Y-101177481D01*
X75192330Y-101191826D01*
X75199809Y-101193842D01*
X75244672Y-101207450D01*
X75252012Y-101209929D01*
X75449502Y-101283587D01*
X75457682Y-101286975D01*
X75506419Y-101309233D01*
X75514333Y-101313195D01*
X75575714Y-101346711D01*
X75649292Y-101312402D01*
X75654244Y-101310223D01*
X75684465Y-101297705D01*
X75689500Y-101295747D01*
X75730432Y-101280846D01*
X75735560Y-101279105D01*
X75766795Y-101269256D01*
X75771992Y-101267741D01*
X76000500Y-101206514D01*
X76000500Y-100748500D01*
X76998500Y-100748500D01*
X76998500Y-101198207D01*
X77258008Y-101267741D01*
X77263205Y-101269256D01*
X77294440Y-101279105D01*
X77299568Y-101280846D01*
X77340500Y-101295747D01*
X77345535Y-101297705D01*
X77375756Y-101310223D01*
X77380708Y-101312402D01*
X77634337Y-101430672D01*
X77639188Y-101433064D01*
X77668209Y-101448171D01*
X77672949Y-101450771D01*
X77710673Y-101472549D01*
X77715302Y-101475358D01*
X77742916Y-101492950D01*
X77747415Y-101495957D01*
X77784999Y-101522274D01*
X77822581Y-101495960D01*
X77827080Y-101492954D01*
X77854679Y-101475372D01*
X77859301Y-101472567D01*
X77897022Y-101450788D01*
X77901765Y-101448186D01*
X77930801Y-101433070D01*
X77935655Y-101430676D01*
X78189292Y-101312402D01*
X78194244Y-101310223D01*
X78224465Y-101297705D01*
X78229500Y-101295747D01*
X78270432Y-101280846D01*
X78275560Y-101279105D01*
X78306795Y-101269256D01*
X78311992Y-101267741D01*
X78500500Y-101217231D01*
X78500500Y-100748500D01*
X79498500Y-100748500D01*
X79498500Y-101188717D01*
X79522412Y-101194019D01*
X79527666Y-101195305D01*
X79798008Y-101267741D01*
X79803205Y-101269256D01*
X79834440Y-101279105D01*
X79839568Y-101280846D01*
X79880500Y-101295747D01*
X79885535Y-101297705D01*
X79915756Y-101310223D01*
X79920708Y-101312402D01*
X80174337Y-101430672D01*
X80179188Y-101433064D01*
X80208209Y-101448171D01*
X80212949Y-101450771D01*
X80250673Y-101472549D01*
X80255302Y-101475358D01*
X80282916Y-101492950D01*
X80287415Y-101495956D01*
X80516678Y-101656488D01*
X80521042Y-101659689D01*
X80547022Y-101679625D01*
X80551243Y-101683012D01*
X80584610Y-101711012D01*
X80588678Y-101714580D01*
X80612794Y-101736680D01*
X80616698Y-101740418D01*
X80814590Y-101938309D01*
X80818330Y-101942216D01*
X80840449Y-101966354D01*
X80844020Y-101970426D01*
X80872018Y-102003795D01*
X80875403Y-102008012D01*
X80895323Y-102033973D01*
X80898521Y-102038335D01*
X81000500Y-102183976D01*
X81000500Y-100748500D01*
X79498500Y-100748500D01*
X78500500Y-100748500D01*
X76998500Y-100748500D01*
X76000500Y-100748500D01*
X74498500Y-100748500D01*
X73500500Y-100748500D01*
X71998500Y-100748500D01*
X71000500Y-100748500D01*
X69498500Y-100748500D01*
X68500500Y-100748500D01*
X67748500Y-100748500D01*
X66750500Y-100748500D01*
X66750500Y-98248500D01*
X67748500Y-98248500D01*
X67748500Y-99750500D01*
X68500500Y-99750500D01*
X68500500Y-98248500D01*
X69498500Y-98248500D01*
X69498500Y-99750500D01*
X71000500Y-99750500D01*
X71000500Y-98248500D01*
X71998500Y-98248500D01*
X71998500Y-99750500D01*
X73500500Y-99750500D01*
X73500500Y-98248500D01*
X74498500Y-98248500D01*
X74498500Y-99750500D01*
X76000500Y-99750500D01*
X76000500Y-98248500D01*
X76998500Y-98248500D01*
X76998500Y-99750500D01*
X78500500Y-99750500D01*
X78500500Y-98248500D01*
X79498500Y-98248500D01*
X79498500Y-99750500D01*
X81000500Y-99750500D01*
X81000500Y-98248500D01*
X91998500Y-98248500D01*
X91998500Y-99750500D01*
X93160924Y-99750500D01*
X93146735Y-99736311D01*
X93117655Y-99716880D01*
X93111060Y-99712154D01*
X93059208Y-99672366D01*
X93052934Y-99667218D01*
X93016020Y-99634844D01*
X93010100Y-99629298D01*
X92870702Y-99489900D01*
X92865156Y-99483980D01*
X92832782Y-99447066D01*
X92827634Y-99440792D01*
X92787846Y-99388940D01*
X92783120Y-99382346D01*
X92763685Y-99353261D01*
X92662319Y-99251895D01*
X92628834Y-99190572D01*
X92626000Y-99164214D01*
X92626000Y-99109528D01*
X92624073Y-99105275D01*
X92599062Y-99044888D01*
X92596204Y-99037295D01*
X92580425Y-98990808D01*
X92578070Y-98983045D01*
X92527049Y-98792628D01*
X92525207Y-98784728D01*
X92515628Y-98736574D01*
X92514306Y-98728570D01*
X92505773Y-98663770D01*
X92504977Y-98655691D01*
X92501765Y-98606685D01*
X92501500Y-98598575D01*
X92501500Y-98248500D01*
X91998500Y-98248500D01*
X81000500Y-98248500D01*
X79498500Y-98248500D01*
X78500500Y-98248500D01*
X76998500Y-98248500D01*
X76000500Y-98248500D01*
X74498500Y-98248500D01*
X73500500Y-98248500D01*
X71998500Y-98248500D01*
X71000500Y-98248500D01*
X69498500Y-98248500D01*
X68500500Y-98248500D01*
X67748500Y-98248500D01*
X66750500Y-98248500D01*
X66750500Y-95748500D01*
X67748500Y-95748500D01*
X67748500Y-97250500D01*
X68500500Y-97250500D01*
X68500500Y-95748500D01*
X69498500Y-95748500D01*
X69498500Y-97250500D01*
X71000500Y-97250500D01*
X71998500Y-97250500D01*
X73500500Y-97250500D01*
X74498500Y-97250500D01*
X76000500Y-97250500D01*
X76000500Y-95748500D01*
X76998500Y-95748500D01*
X76998500Y-97250500D01*
X78500500Y-97250500D01*
X78500500Y-96433042D01*
X79498500Y-96433042D01*
X79498500Y-97250500D01*
X81000500Y-97250500D01*
X81000500Y-96648500D01*
X81998500Y-96648500D01*
X81998500Y-97250500D01*
X83500500Y-97250500D01*
X83500500Y-96648500D01*
X84498500Y-96648500D01*
X84498500Y-97250500D01*
X86000500Y-97250500D01*
X86000500Y-96648500D01*
X86998500Y-96648500D01*
X86998500Y-97250500D01*
X88500500Y-97250500D01*
X89498500Y-97250500D01*
X91000500Y-97250500D01*
X91000500Y-95820116D01*
X90749194Y-96071421D01*
X90749174Y-96071447D01*
X90561295Y-96259328D01*
X90555368Y-96264879D01*
X90518430Y-96297270D01*
X90512156Y-96302418D01*
X90460297Y-96342206D01*
X90453703Y-96346931D01*
X90412886Y-96374202D01*
X90405996Y-96378486D01*
X90290940Y-96444909D01*
X90290928Y-96444918D01*
X90212506Y-96490198D01*
X90205349Y-96494024D01*
X90161295Y-96515750D01*
X90153901Y-96519100D01*
X90093509Y-96544115D01*
X90085916Y-96546973D01*
X90039419Y-96562757D01*
X90031654Y-96565113D01*
X89815798Y-96622952D01*
X89807895Y-96624794D01*
X89759743Y-96634372D01*
X89751741Y-96635694D01*
X89686941Y-96644227D01*
X89678864Y-96645022D01*
X89629854Y-96648235D01*
X89621742Y-96648501D01*
X89498500Y-96648501D01*
X89498500Y-97250500D01*
X88500500Y-97250500D01*
X88500500Y-96648500D01*
X86998500Y-96648500D01*
X86000500Y-96648500D01*
X84498500Y-96648500D01*
X83500500Y-96648500D01*
X81998500Y-96648500D01*
X81000500Y-96648500D01*
X80410017Y-96648500D01*
X80409985Y-96648501D01*
X80188258Y-96648501D01*
X80180146Y-96648235D01*
X80131136Y-96645022D01*
X80123059Y-96644227D01*
X80058259Y-96635694D01*
X80050257Y-96634372D01*
X80002105Y-96624794D01*
X79994202Y-96622952D01*
X79778341Y-96565111D01*
X79770577Y-96562756D01*
X79724072Y-96546970D01*
X79716474Y-96544110D01*
X79656088Y-96519095D01*
X79648698Y-96515746D01*
X79604660Y-96494028D01*
X79597504Y-96490203D01*
X79519109Y-96444939D01*
X79519104Y-96444938D01*
X79498500Y-96433042D01*
X78500500Y-96433042D01*
X78500500Y-95748500D01*
X91998500Y-95748500D01*
X91998500Y-97250500D01*
X92501500Y-97250500D01*
X92501500Y-95748500D01*
X91998500Y-95748500D01*
X78500500Y-95748500D01*
X76998500Y-95748500D01*
X76000500Y-95748500D01*
X75239206Y-95748500D01*
X75213951Y-95755267D01*
X75208696Y-95756553D01*
X75176737Y-95763638D01*
X75171430Y-95764693D01*
X75128535Y-95772256D01*
X75123188Y-95773079D01*
X75090744Y-95777350D01*
X75085367Y-95777939D01*
X74815286Y-95801568D01*
X74809889Y-95801922D01*
X74777189Y-95803350D01*
X74771779Y-95803468D01*
X74728221Y-95803468D01*
X74722811Y-95803350D01*
X74690111Y-95801922D01*
X74684714Y-95801568D01*
X74498500Y-95785276D01*
X74498500Y-97250500D01*
X73500500Y-97250500D01*
X73500500Y-95748500D01*
X72737277Y-95748500D01*
X72713866Y-95754773D01*
X72708610Y-95756059D01*
X72676651Y-95763144D01*
X72671343Y-95764200D01*
X72628447Y-95771763D01*
X72623101Y-95772585D01*
X72590656Y-95776856D01*
X72585279Y-95777445D01*
X72315285Y-95801066D01*
X72309888Y-95801420D01*
X72277189Y-95802848D01*
X72271779Y-95802966D01*
X72228221Y-95802966D01*
X72222811Y-95802848D01*
X72190112Y-95801420D01*
X72184715Y-95801066D01*
X71998500Y-95784774D01*
X71998500Y-97250500D01*
X71000500Y-97250500D01*
X71000500Y-95748500D01*
X69498500Y-95748500D01*
X68500500Y-95748500D01*
X67748500Y-95748500D01*
X66750500Y-95748500D01*
X66750500Y-93248500D01*
X67748500Y-93248500D01*
X67748500Y-94750500D01*
X68500500Y-94750500D01*
X68500500Y-93248500D01*
X69498500Y-93248500D01*
X69498500Y-94750500D01*
X70320268Y-94750500D01*
X70289863Y-94707077D01*
X70286858Y-94702579D01*
X70269274Y-94674978D01*
X70266468Y-94670355D01*
X70244688Y-94632633D01*
X70242084Y-94627886D01*
X70226968Y-94598848D01*
X70224576Y-94593996D01*
X70110038Y-94348367D01*
X70107861Y-94343420D01*
X70095342Y-94313200D01*
X70093381Y-94308158D01*
X70078482Y-94267228D01*
X70076742Y-94262104D01*
X70066893Y-94230870D01*
X70065378Y-94225673D01*
X69995227Y-93963866D01*
X69993941Y-93958610D01*
X69986856Y-93926651D01*
X69985800Y-93921343D01*
X69978237Y-93878447D01*
X69977415Y-93873101D01*
X69973144Y-93840656D01*
X69972555Y-93835279D01*
X69948934Y-93565285D01*
X69948580Y-93559888D01*
X69947152Y-93527189D01*
X69947034Y-93521779D01*
X69947034Y-93500002D01*
X70945034Y-93500002D01*
X70964858Y-93726599D01*
X70964860Y-93726610D01*
X71023730Y-93946317D01*
X71023735Y-93946331D01*
X71119863Y-94152478D01*
X71170974Y-94225472D01*
X71850000Y-93546446D01*
X71850000Y-93552661D01*
X71877259Y-93654394D01*
X71929920Y-93745606D01*
X72004394Y-93820080D01*
X72095606Y-93872741D01*
X72197339Y-93900000D01*
X72203553Y-93900000D01*
X71524526Y-94579025D01*
X71597513Y-94630132D01*
X71597521Y-94630136D01*
X71803668Y-94726264D01*
X71803682Y-94726269D01*
X72023389Y-94785139D01*
X72023400Y-94785141D01*
X72249998Y-94804966D01*
X72250002Y-94804966D01*
X72476599Y-94785141D01*
X72476610Y-94785139D01*
X72696317Y-94726269D01*
X72696331Y-94726264D01*
X72902478Y-94630136D01*
X72975471Y-94579024D01*
X72296447Y-93900000D01*
X72302661Y-93900000D01*
X72404394Y-93872741D01*
X72495606Y-93820080D01*
X72570080Y-93745606D01*
X72622741Y-93654394D01*
X72650000Y-93552661D01*
X72650000Y-93546447D01*
X73329024Y-94225471D01*
X73380134Y-94152481D01*
X73387340Y-94137028D01*
X73433511Y-94084587D01*
X73500704Y-94065433D01*
X73567585Y-94085646D01*
X73612105Y-94137022D01*
X73619430Y-94152730D01*
X73619432Y-94152734D01*
X73749954Y-94339141D01*
X73910858Y-94500045D01*
X73910861Y-94500047D01*
X74097266Y-94630568D01*
X74303504Y-94726739D01*
X74523308Y-94785635D01*
X74685230Y-94799801D01*
X74749998Y-94805468D01*
X74750000Y-94805468D01*
X74750002Y-94805468D01*
X74806673Y-94800509D01*
X74976692Y-94785635D01*
X75196496Y-94726739D01*
X75402734Y-94630568D01*
X75589139Y-94500047D01*
X75750047Y-94339139D01*
X75880568Y-94152734D01*
X75976739Y-93946496D01*
X76035635Y-93726692D01*
X76055468Y-93500000D01*
X76035635Y-93273308D01*
X75976739Y-93053504D01*
X75880568Y-92847266D01*
X75750047Y-92660861D01*
X75750045Y-92660858D01*
X75589141Y-92499954D01*
X75402734Y-92369432D01*
X75402732Y-92369431D01*
X75196497Y-92273261D01*
X75196488Y-92273258D01*
X74976697Y-92214366D01*
X74976693Y-92214365D01*
X74976692Y-92214365D01*
X74976691Y-92214364D01*
X74976686Y-92214364D01*
X74750002Y-92194532D01*
X74749998Y-92194532D01*
X74523313Y-92214364D01*
X74523302Y-92214366D01*
X74303511Y-92273258D01*
X74303502Y-92273261D01*
X74097267Y-92369431D01*
X74097265Y-92369432D01*
X73910858Y-92499954D01*
X73749954Y-92660858D01*
X73619432Y-92847265D01*
X73619429Y-92847270D01*
X73612104Y-92862979D01*
X73565929Y-92915417D01*
X73498735Y-92934566D01*
X73431855Y-92914347D01*
X73387341Y-92862973D01*
X73380133Y-92847515D01*
X73380132Y-92847513D01*
X73329025Y-92774526D01*
X72650000Y-93453551D01*
X72650000Y-93447339D01*
X72622741Y-93345606D01*
X72570080Y-93254394D01*
X72495606Y-93179920D01*
X72404394Y-93127259D01*
X72302661Y-93100000D01*
X72296448Y-93100000D01*
X72975472Y-92420974D01*
X72902478Y-92369863D01*
X72696331Y-92273735D01*
X72696317Y-92273730D01*
X72476610Y-92214860D01*
X72476599Y-92214858D01*
X72250002Y-92195034D01*
X72249998Y-92195034D01*
X72023400Y-92214858D01*
X72023389Y-92214860D01*
X71803682Y-92273730D01*
X71803673Y-92273734D01*
X71597516Y-92369866D01*
X71597512Y-92369868D01*
X71524526Y-92420973D01*
X71524526Y-92420974D01*
X72203553Y-93100000D01*
X72197339Y-93100000D01*
X72095606Y-93127259D01*
X72004394Y-93179920D01*
X71929920Y-93254394D01*
X71877259Y-93345606D01*
X71850000Y-93447339D01*
X71850000Y-93453552D01*
X71170974Y-92774526D01*
X71170973Y-92774526D01*
X71119868Y-92847512D01*
X71119866Y-92847516D01*
X71023734Y-93053673D01*
X71023730Y-93053682D01*
X70964860Y-93273389D01*
X70964858Y-93273400D01*
X70945034Y-93499997D01*
X70945034Y-93500002D01*
X69947034Y-93500002D01*
X69947034Y-93478221D01*
X69947152Y-93472811D01*
X69948580Y-93440112D01*
X69948934Y-93434715D01*
X69965225Y-93248500D01*
X69498500Y-93248500D01*
X68500500Y-93248500D01*
X67748500Y-93248500D01*
X66750500Y-93248500D01*
X66750500Y-90748500D01*
X67748500Y-90748500D01*
X67748500Y-92250500D01*
X68500500Y-92250500D01*
X68500500Y-90748500D01*
X69498500Y-90748500D01*
X69498500Y-92250500D01*
X70319568Y-92250500D01*
X70481992Y-92018533D01*
X70521566Y-91982269D01*
X70655145Y-91905145D01*
X70732269Y-91771566D01*
X70768533Y-91731992D01*
X71000500Y-91569568D01*
X71000500Y-90924410D01*
X71998500Y-90924410D01*
X71998500Y-91215225D01*
X72184715Y-91198934D01*
X72190112Y-91198580D01*
X72222811Y-91197152D01*
X72228221Y-91197034D01*
X72271779Y-91197034D01*
X72277189Y-91197152D01*
X72309888Y-91198580D01*
X72315285Y-91198934D01*
X72585279Y-91222555D01*
X72590656Y-91223144D01*
X72623101Y-91227415D01*
X72628447Y-91228237D01*
X72671343Y-91235800D01*
X72676651Y-91236856D01*
X72708610Y-91243941D01*
X72713866Y-91245227D01*
X72975673Y-91315378D01*
X72980870Y-91316893D01*
X73012104Y-91326742D01*
X73017228Y-91328482D01*
X73058158Y-91343381D01*
X73063200Y-91345342D01*
X73093420Y-91357861D01*
X73098367Y-91360038D01*
X73343996Y-91474576D01*
X73348848Y-91476968D01*
X73377886Y-91492084D01*
X73382633Y-91494688D01*
X73420355Y-91516468D01*
X73424978Y-91519274D01*
X73452579Y-91536858D01*
X73457077Y-91539863D01*
X73499565Y-91569613D01*
X73500500Y-91568959D01*
X73500500Y-90998499D01*
X72406252Y-90998500D01*
X72402928Y-90998455D01*
X72382826Y-90997916D01*
X72379506Y-90997783D01*
X72352820Y-90996351D01*
X72349511Y-90996129D01*
X72329518Y-90994519D01*
X72326215Y-90994208D01*
X72222325Y-90983038D01*
X72214657Y-90981971D01*
X72168471Y-90974064D01*
X72160881Y-90972519D01*
X72100170Y-90958174D01*
X72092691Y-90956158D01*
X72047828Y-90942550D01*
X72040488Y-90940071D01*
X71998500Y-90924410D01*
X71000500Y-90924410D01*
X71000500Y-90748500D01*
X69498500Y-90748500D01*
X68500500Y-90748500D01*
X67748500Y-90748500D01*
X66750500Y-90748500D01*
X66750500Y-88248500D01*
X67748500Y-88248500D01*
X67748500Y-89750500D01*
X68500500Y-89750500D01*
X68500500Y-88248500D01*
X69498500Y-88248500D01*
X69498500Y-89750500D01*
X70985202Y-89750500D01*
X70984459Y-89745167D01*
X70973288Y-89641244D01*
X70972978Y-89637939D01*
X70971365Y-89617899D01*
X70971142Y-89614578D01*
X70969714Y-89587895D01*
X70969581Y-89584582D01*
X70969045Y-89564534D01*
X70969001Y-89561220D01*
X70969000Y-88248500D01*
X69498500Y-88248500D01*
X68500500Y-88248500D01*
X67748500Y-88248500D01*
X66750500Y-88248500D01*
X66750500Y-85748500D01*
X67748500Y-85748500D01*
X67748500Y-87250500D01*
X68500500Y-87250500D01*
X68500500Y-85748500D01*
X69498500Y-85748500D01*
X69498500Y-87250500D01*
X70985064Y-87250500D01*
X70985529Y-87247157D01*
X70993436Y-87200971D01*
X70994981Y-87193382D01*
X71000500Y-87170023D01*
X71000500Y-85748500D01*
X74498500Y-85748500D01*
X74498500Y-86004516D01*
X74510482Y-86005481D01*
X74513785Y-86005792D01*
X74617675Y-86016962D01*
X74625343Y-86018029D01*
X74671529Y-86025936D01*
X74679119Y-86027481D01*
X74739830Y-86041826D01*
X74747309Y-86043842D01*
X74792172Y-86057450D01*
X74799512Y-86059929D01*
X74997002Y-86133587D01*
X75005182Y-86136975D01*
X75053919Y-86159233D01*
X75061833Y-86163195D01*
X75066738Y-86165873D01*
X75070595Y-86164451D01*
X75075198Y-86162855D01*
X75330010Y-86080062D01*
X75334674Y-86078647D01*
X75363051Y-86070645D01*
X75367768Y-86069415D01*
X75405886Y-86060267D01*
X75410637Y-86059225D01*
X75439500Y-86053485D01*
X75444288Y-86052630D01*
X75708873Y-86010723D01*
X75713697Y-86010055D01*
X75742931Y-86006595D01*
X75747768Y-86006119D01*
X75786847Y-86003041D01*
X75791712Y-86002754D01*
X75821164Y-86001596D01*
X75826036Y-86001500D01*
X76000500Y-86001500D01*
X76000500Y-85748500D01*
X76998500Y-85748500D01*
X76998500Y-86230820D01*
X77192083Y-86329456D01*
X77196376Y-86331751D01*
X77222072Y-86346141D01*
X77226273Y-86348603D01*
X77230000Y-86350886D01*
X77233727Y-86348603D01*
X77237928Y-86346141D01*
X77263624Y-86331751D01*
X77267917Y-86329456D01*
X77506619Y-86207831D01*
X77510998Y-86205707D01*
X77537740Y-86193378D01*
X77542201Y-86191427D01*
X77578417Y-86176425D01*
X77582951Y-86174650D01*
X77610595Y-86164451D01*
X77615198Y-86162855D01*
X77870010Y-86080062D01*
X77874674Y-86078647D01*
X77903051Y-86070645D01*
X77907768Y-86069415D01*
X77945886Y-86060267D01*
X77950637Y-86059225D01*
X77979500Y-86053485D01*
X77984288Y-86052630D01*
X78248873Y-86010723D01*
X78253697Y-86010055D01*
X78282931Y-86006595D01*
X78287768Y-86006119D01*
X78326847Y-86003041D01*
X78331712Y-86002754D01*
X78361164Y-86001596D01*
X78366036Y-86001500D01*
X78500500Y-86001500D01*
X78500500Y-85748500D01*
X76998500Y-85748500D01*
X76000500Y-85748500D01*
X74498500Y-85748500D01*
X71000500Y-85748500D01*
X69498500Y-85748500D01*
X68500500Y-85748500D01*
X67748500Y-85748500D01*
X66750500Y-85748500D01*
X66750500Y-83248500D01*
X67748500Y-83248500D01*
X67748500Y-84750500D01*
X68500500Y-84750500D01*
X68500500Y-83248500D01*
X69498500Y-83248500D01*
X69498500Y-84750500D01*
X71000500Y-84750500D01*
X71000500Y-83248500D01*
X71998500Y-83248500D01*
X71998500Y-84750500D01*
X73500500Y-84750500D01*
X73500500Y-83248500D01*
X74498500Y-83248500D01*
X74498500Y-84750500D01*
X75472995Y-84750500D01*
X75471681Y-84748942D01*
X75468375Y-84744847D01*
X75448897Y-84719648D01*
X75445765Y-84715414D01*
X75421294Y-84680813D01*
X75418349Y-84676455D01*
X75401083Y-84649703D01*
X75398322Y-84645219D01*
X75258414Y-84406802D01*
X75255848Y-84402208D01*
X75240912Y-84374086D01*
X75238542Y-84369386D01*
X75220269Y-84331147D01*
X75218099Y-84326348D01*
X75205600Y-84297055D01*
X75203638Y-84292172D01*
X75106031Y-84033531D01*
X75104277Y-84028566D01*
X75094305Y-83998312D01*
X75092764Y-83993278D01*
X75081218Y-83952502D01*
X75079891Y-83947407D01*
X75072526Y-83916436D01*
X75071418Y-83911294D01*
X75019681Y-83643786D01*
X75018941Y-83639573D01*
X75014906Y-83614009D01*
X75014312Y-83609771D01*
X75010120Y-83575591D01*
X75009673Y-83571337D01*
X75007411Y-83545562D01*
X75007110Y-83541296D01*
X75002788Y-83459901D01*
X75002657Y-83456605D01*
X75002044Y-83433431D01*
X75002001Y-83430152D01*
X75002001Y-83248500D01*
X74498500Y-83248500D01*
X73500500Y-83248500D01*
X71998500Y-83248500D01*
X71000500Y-83248500D01*
X69498500Y-83248500D01*
X68500500Y-83248500D01*
X67748500Y-83248500D01*
X66750500Y-83248500D01*
X66750500Y-80748500D01*
X67748500Y-80748500D01*
X67748500Y-82250500D01*
X68500500Y-82250500D01*
X68500500Y-80748500D01*
X69498500Y-80748500D01*
X69498500Y-82250500D01*
X71000500Y-82250500D01*
X71000500Y-80748500D01*
X71998500Y-80748500D01*
X71998500Y-82250500D01*
X73500500Y-82250500D01*
X73500500Y-80997999D01*
X74498500Y-80997999D01*
X74498500Y-82250500D01*
X75002000Y-82250500D01*
X75002000Y-81469850D01*
X75002043Y-81466573D01*
X75002656Y-81443385D01*
X75002788Y-81440083D01*
X75007112Y-81358696D01*
X75007412Y-81354435D01*
X75009670Y-81328705D01*
X75010116Y-81324461D01*
X75014304Y-81290288D01*
X75014899Y-81286044D01*
X75018938Y-81260448D01*
X75019678Y-81256230D01*
X75069620Y-80997999D01*
X74498500Y-80997999D01*
X73500500Y-80997999D01*
X73500500Y-80765038D01*
X73464089Y-80748500D01*
X71998500Y-80748500D01*
X71000500Y-80748500D01*
X69498500Y-80748500D01*
X68500500Y-80748500D01*
X67748500Y-80748500D01*
X66750500Y-80748500D01*
X66750500Y-78248500D01*
X67748500Y-78248500D01*
X67748500Y-79750500D01*
X68500500Y-79750500D01*
X68500500Y-78248500D01*
X69498500Y-78248500D01*
X69498500Y-79750500D01*
X71000500Y-79750500D01*
X71000500Y-78248500D01*
X71998500Y-78248500D01*
X71998500Y-79750500D01*
X72485416Y-79750500D01*
X72397459Y-79556858D01*
X72395272Y-79551742D01*
X72382742Y-79520506D01*
X72380787Y-79515298D01*
X72365988Y-79473008D01*
X72364268Y-79467714D01*
X72354582Y-79435459D01*
X72353101Y-79430094D01*
X72287517Y-79169816D01*
X72286349Y-79164731D01*
X72279931Y-79133826D01*
X72278978Y-79128697D01*
X72272175Y-79087250D01*
X72271438Y-79082082D01*
X72267642Y-79050754D01*
X72267124Y-79045567D01*
X72253729Y-78875366D01*
X72253442Y-78870500D01*
X72252096Y-78836202D01*
X72252001Y-78831339D01*
X72252001Y-78248500D01*
X71998500Y-78248500D01*
X71000500Y-78248500D01*
X69498500Y-78248500D01*
X68500500Y-78248500D01*
X67748500Y-78248500D01*
X66750500Y-78248500D01*
X66750500Y-77500000D01*
X73250000Y-77500000D01*
X74750000Y-77500000D01*
X74750000Y-78000000D01*
X73250001Y-78000000D01*
X73250001Y-78814197D01*
X73260400Y-78946332D01*
X73315377Y-79164519D01*
X73408428Y-79369374D01*
X73408431Y-79369380D01*
X73536559Y-79554323D01*
X73536569Y-79554335D01*
X73695664Y-79713430D01*
X73695676Y-79713440D01*
X73880619Y-79841568D01*
X73880625Y-79841571D01*
X74085480Y-79934622D01*
X74303667Y-79989599D01*
X74435810Y-79999999D01*
X74999999Y-79999999D01*
X75000000Y-79999998D01*
X75000000Y-79183012D01*
X75057007Y-79215925D01*
X75184174Y-79250000D01*
X75315826Y-79250000D01*
X75442993Y-79215925D01*
X75500000Y-79183012D01*
X75500000Y-79999999D01*
X76064182Y-79999999D01*
X76064197Y-79999998D01*
X76196332Y-79989599D01*
X76414519Y-79934622D01*
X76619374Y-79841571D01*
X76619380Y-79841568D01*
X76804323Y-79713440D01*
X76804335Y-79713430D01*
X76963430Y-79554335D01*
X76963440Y-79554323D01*
X77091568Y-79369380D01*
X77091571Y-79369374D01*
X77184622Y-79164519D01*
X77239599Y-78946332D01*
X77249999Y-78814196D01*
X77250000Y-78814184D01*
X77250000Y-78000000D01*
X75750000Y-78000000D01*
X75750000Y-77500000D01*
X77249999Y-77500000D01*
X77249999Y-76685817D01*
X77249998Y-76685802D01*
X77239599Y-76553667D01*
X77184622Y-76335480D01*
X77091571Y-76130625D01*
X77091568Y-76130619D01*
X76963440Y-75945676D01*
X76963430Y-75945664D01*
X76804335Y-75786569D01*
X76804323Y-75786559D01*
X76619380Y-75658431D01*
X76619374Y-75658428D01*
X76414519Y-75565377D01*
X76196332Y-75510400D01*
X76064196Y-75500000D01*
X75500000Y-75500000D01*
X75500000Y-76316988D01*
X75442993Y-76284075D01*
X75315826Y-76250000D01*
X75184174Y-76250000D01*
X75057007Y-76284075D01*
X75000000Y-76316988D01*
X75000000Y-75500000D01*
X74435817Y-75500000D01*
X74435802Y-75500001D01*
X74303667Y-75510400D01*
X74085480Y-75565377D01*
X73880625Y-75658428D01*
X73880619Y-75658431D01*
X73695676Y-75786559D01*
X73695664Y-75786569D01*
X73536569Y-75945664D01*
X73536559Y-75945676D01*
X73408431Y-76130619D01*
X73408428Y-76130625D01*
X73315377Y-76335480D01*
X73260400Y-76553667D01*
X73250000Y-76685803D01*
X73250000Y-77500000D01*
X66750500Y-77500000D01*
X66750500Y-75748500D01*
X67748500Y-75748500D01*
X67748500Y-77250500D01*
X68500500Y-77250500D01*
X68500500Y-75748500D01*
X69498500Y-75748500D01*
X69498500Y-77250500D01*
X71000500Y-77250500D01*
X71000500Y-75748500D01*
X71998500Y-75748500D01*
X71998500Y-77250500D01*
X72252000Y-77250500D01*
X72252000Y-76668663D01*
X72252095Y-76663801D01*
X72253441Y-76629499D01*
X72253728Y-76624632D01*
X72267124Y-76454429D01*
X72267643Y-76449237D01*
X72271440Y-76417912D01*
X72272176Y-76412751D01*
X72278978Y-76371305D01*
X72279931Y-76366174D01*
X72286349Y-76335269D01*
X72287517Y-76330184D01*
X72353101Y-76069906D01*
X72354582Y-76064541D01*
X72364268Y-76032286D01*
X72365988Y-76026992D01*
X72380787Y-75984702D01*
X72382742Y-75979494D01*
X72395272Y-75948258D01*
X72397459Y-75943142D01*
X72485870Y-75748500D01*
X71998500Y-75748500D01*
X71000500Y-75748500D01*
X69498500Y-75748500D01*
X68500500Y-75748500D01*
X67748500Y-75748500D01*
X66750500Y-75748500D01*
X66750500Y-73248500D01*
X67748500Y-73248500D01*
X67748500Y-74750500D01*
X68500500Y-74750500D01*
X68500500Y-73248500D01*
X69498500Y-73248500D01*
X69498500Y-74750500D01*
X71000500Y-74750500D01*
X71000500Y-73248500D01*
X71998500Y-73248500D01*
X71998500Y-74750500D01*
X73466290Y-74750500D01*
X73500500Y-74734960D01*
X73500500Y-73248500D01*
X74498500Y-73248500D01*
X74498500Y-74502000D01*
X75200544Y-74502000D01*
X75247995Y-74511438D01*
X75249999Y-74512268D01*
X75252003Y-74511438D01*
X75299454Y-74502000D01*
X76000500Y-74502000D01*
X76000500Y-73248500D01*
X76998500Y-73248500D01*
X76998500Y-74734506D01*
X77033710Y-74750500D01*
X78500500Y-74750500D01*
X78500500Y-73248500D01*
X79498500Y-73248500D01*
X79498500Y-74501500D01*
X81000500Y-74501500D01*
X81000500Y-73248500D01*
X79498500Y-73248500D01*
X78500500Y-73248500D01*
X76998500Y-73248500D01*
X76000500Y-73248500D01*
X74498500Y-73248500D01*
X73500500Y-73248500D01*
X71998500Y-73248500D01*
X71000500Y-73248500D01*
X69498500Y-73248500D01*
X68500500Y-73248500D01*
X67748500Y-73248500D01*
X66750500Y-73248500D01*
X66750500Y-70748500D01*
X67748500Y-70748500D01*
X67748500Y-72250500D01*
X68500500Y-72250500D01*
X68500500Y-70748500D01*
X69498500Y-70748500D01*
X69498500Y-72250500D01*
X71000500Y-72250500D01*
X71000500Y-70748500D01*
X71998500Y-70748500D01*
X71998500Y-72250500D01*
X73500500Y-72250500D01*
X73500500Y-70748500D01*
X74498500Y-70748500D01*
X74498500Y-72250500D01*
X76000500Y-72250500D01*
X76000500Y-70748500D01*
X76998500Y-70748500D01*
X76998500Y-72250500D01*
X78500500Y-72250500D01*
X78500500Y-71115185D01*
X79498500Y-71115185D01*
X79498500Y-72250500D01*
X80633815Y-72250500D01*
X79498500Y-71115185D01*
X78500500Y-71115185D01*
X78500500Y-70748500D01*
X76998500Y-70748500D01*
X76000500Y-70748500D01*
X74498500Y-70748500D01*
X73500500Y-70748500D01*
X71998500Y-70748500D01*
X71000500Y-70748500D01*
X69498500Y-70748500D01*
X68500500Y-70748500D01*
X67748500Y-70748500D01*
X66750500Y-70748500D01*
X66750500Y-68248500D01*
X67748500Y-68248500D01*
X67748500Y-69750500D01*
X68500500Y-69750500D01*
X68500500Y-68248500D01*
X69498500Y-68248500D01*
X69498500Y-69750500D01*
X71000500Y-69750500D01*
X71000500Y-68248500D01*
X69498500Y-68248500D01*
X68500500Y-68248500D01*
X67748500Y-68248500D01*
X66750500Y-68248500D01*
X66750500Y-65748500D01*
X67748500Y-65748500D01*
X67748500Y-67250500D01*
X68500500Y-67250500D01*
X68500500Y-65748500D01*
X69498500Y-65748500D01*
X69498500Y-67250500D01*
X71000500Y-67250500D01*
X71000500Y-65748500D01*
X81998500Y-65748500D01*
X81998500Y-67250500D01*
X83500500Y-67250500D01*
X83500500Y-67081071D01*
X83448857Y-67029428D01*
X83445115Y-67025519D01*
X83422997Y-67001381D01*
X83419429Y-66997313D01*
X83391430Y-66963944D01*
X83388043Y-66959723D01*
X83368123Y-66933761D01*
X83364926Y-66929401D01*
X83209426Y-66707321D01*
X83206422Y-66702825D01*
X83188840Y-66675228D01*
X83186032Y-66670601D01*
X83164254Y-66632880D01*
X83161653Y-66628139D01*
X83146537Y-66599103D01*
X83144143Y-66594249D01*
X83029567Y-66348541D01*
X83027389Y-66343592D01*
X83014870Y-66313371D01*
X83012911Y-66308333D01*
X82998010Y-66267401D01*
X82996269Y-66262273D01*
X82986420Y-66231038D01*
X82984905Y-66225841D01*
X82914733Y-65963951D01*
X82913447Y-65958696D01*
X82906362Y-65926737D01*
X82905307Y-65921430D01*
X82897744Y-65878535D01*
X82896921Y-65873188D01*
X82892650Y-65840744D01*
X82892061Y-65835367D01*
X82884461Y-65748500D01*
X81998500Y-65748500D01*
X71000500Y-65748500D01*
X69498500Y-65748500D01*
X68500500Y-65748500D01*
X67748500Y-65748500D01*
X66750500Y-65748500D01*
X66750500Y-65500001D01*
X83864532Y-65500001D01*
X83884364Y-65726686D01*
X83884366Y-65726697D01*
X83943258Y-65946488D01*
X83943261Y-65946497D01*
X84039431Y-66152732D01*
X84039432Y-66152734D01*
X84169954Y-66339141D01*
X84330858Y-66500045D01*
X84330861Y-66500047D01*
X84517266Y-66630568D01*
X84723504Y-66726739D01*
X84943308Y-66785635D01*
X85105230Y-66799801D01*
X85169998Y-66805468D01*
X85170000Y-66805468D01*
X85170002Y-66805468D01*
X85226673Y-66800509D01*
X85396692Y-66785635D01*
X85616496Y-66726739D01*
X85822734Y-66630568D01*
X86009139Y-66500047D01*
X86170047Y-66339139D01*
X86235278Y-66245977D01*
X86289854Y-66202353D01*
X86359352Y-66195159D01*
X86421707Y-66226681D01*
X86457122Y-66286911D01*
X86460143Y-66303847D01*
X86465909Y-66357483D01*
X86516202Y-66492328D01*
X86516206Y-66492335D01*
X86602452Y-66607544D01*
X86602455Y-66607547D01*
X86717664Y-66693793D01*
X86717671Y-66693797D01*
X86852517Y-66744091D01*
X86852516Y-66744091D01*
X86859444Y-66744835D01*
X86912127Y-66750500D01*
X88507872Y-66750499D01*
X88567483Y-66744091D01*
X88702331Y-66693796D01*
X88817546Y-66607546D01*
X88903796Y-66492331D01*
X88954091Y-66357483D01*
X88959858Y-66303842D01*
X88986593Y-66239296D01*
X89043985Y-66199447D01*
X89113810Y-66196952D01*
X89173900Y-66232604D01*
X89184721Y-66245978D01*
X89249954Y-66339141D01*
X89410858Y-66500045D01*
X89410861Y-66500047D01*
X89597266Y-66630568D01*
X89803504Y-66726739D01*
X90023308Y-66785635D01*
X90185230Y-66799801D01*
X90249998Y-66805468D01*
X90250000Y-66805468D01*
X90250002Y-66805468D01*
X90306673Y-66800509D01*
X90476692Y-66785635D01*
X90696496Y-66726739D01*
X90902734Y-66630568D01*
X91089139Y-66500047D01*
X91250047Y-66339139D01*
X91380568Y-66152734D01*
X91476739Y-65946496D01*
X91535635Y-65726692D01*
X91555468Y-65500000D01*
X91535635Y-65273308D01*
X91476739Y-65053504D01*
X91380568Y-64847266D01*
X91250047Y-64660861D01*
X91250045Y-64660858D01*
X91089141Y-64499954D01*
X90902734Y-64369432D01*
X90902732Y-64369431D01*
X90696497Y-64273261D01*
X90696488Y-64273258D01*
X90476697Y-64214366D01*
X90476693Y-64214365D01*
X90476692Y-64214365D01*
X90476691Y-64214364D01*
X90476686Y-64214364D01*
X90250002Y-64194532D01*
X90249998Y-64194532D01*
X90023313Y-64214364D01*
X90023302Y-64214366D01*
X89803511Y-64273258D01*
X89803502Y-64273261D01*
X89597267Y-64369431D01*
X89597265Y-64369432D01*
X89410858Y-64499954D01*
X89249956Y-64660856D01*
X89184721Y-64754022D01*
X89130144Y-64797646D01*
X89060645Y-64804839D01*
X88998291Y-64773317D01*
X88962877Y-64713087D01*
X88959856Y-64696150D01*
X88954091Y-64642516D01*
X88903797Y-64507671D01*
X88903793Y-64507664D01*
X88817547Y-64392455D01*
X88817544Y-64392452D01*
X88702335Y-64306206D01*
X88702328Y-64306202D01*
X88567482Y-64255908D01*
X88567483Y-64255908D01*
X88507883Y-64249501D01*
X88507881Y-64249500D01*
X88507873Y-64249500D01*
X88507864Y-64249500D01*
X86912129Y-64249500D01*
X86912123Y-64249501D01*
X86852516Y-64255908D01*
X86717671Y-64306202D01*
X86717664Y-64306206D01*
X86602455Y-64392452D01*
X86602452Y-64392455D01*
X86516206Y-64507664D01*
X86516202Y-64507671D01*
X86465908Y-64642516D01*
X86460142Y-64696154D01*
X86433404Y-64760705D01*
X86376012Y-64800553D01*
X86306186Y-64803046D01*
X86246098Y-64767393D01*
X86235278Y-64754021D01*
X86170045Y-64660858D01*
X86009141Y-64499954D01*
X85822734Y-64369432D01*
X85822732Y-64369431D01*
X85616497Y-64273261D01*
X85616488Y-64273258D01*
X85396697Y-64214366D01*
X85396693Y-64214365D01*
X85396692Y-64214365D01*
X85396691Y-64214364D01*
X85396686Y-64214364D01*
X85170002Y-64194532D01*
X85169998Y-64194532D01*
X84943313Y-64214364D01*
X84943302Y-64214366D01*
X84723511Y-64273258D01*
X84723502Y-64273261D01*
X84517267Y-64369431D01*
X84517265Y-64369432D01*
X84330858Y-64499954D01*
X84169954Y-64660858D01*
X84039432Y-64847265D01*
X84039431Y-64847267D01*
X83943261Y-65053502D01*
X83943258Y-65053511D01*
X83884366Y-65273302D01*
X83884364Y-65273313D01*
X83864532Y-65499998D01*
X83864532Y-65500001D01*
X66750500Y-65500001D01*
X66750500Y-63248500D01*
X67748500Y-63248500D01*
X67748500Y-64750500D01*
X68500500Y-64750500D01*
X68500500Y-63248500D01*
X69498500Y-63248500D01*
X69498500Y-64750500D01*
X71000500Y-64750500D01*
X71000500Y-63248500D01*
X71998500Y-63248500D01*
X71998500Y-64750500D01*
X73500500Y-64750500D01*
X73500500Y-63248500D01*
X74498500Y-63248500D01*
X74498500Y-64750500D01*
X76000500Y-64750500D01*
X76000500Y-63248500D01*
X76998500Y-63248500D01*
X76998500Y-64750500D01*
X78500500Y-64750500D01*
X78500500Y-63248500D01*
X79498500Y-63248500D01*
X79498500Y-64750500D01*
X81000500Y-64750500D01*
X81000500Y-63248500D01*
X81998500Y-63248500D01*
X81998500Y-64750500D01*
X82992241Y-64750500D01*
X82996269Y-64737727D01*
X82998010Y-64732599D01*
X83012911Y-64691667D01*
X83014870Y-64686629D01*
X83027389Y-64656408D01*
X83029567Y-64651459D01*
X83144143Y-64405751D01*
X83146537Y-64400897D01*
X83161653Y-64371861D01*
X83164254Y-64367120D01*
X83186032Y-64329399D01*
X83188840Y-64324772D01*
X83206422Y-64297175D01*
X83209426Y-64292679D01*
X83364926Y-64070599D01*
X83368123Y-64066239D01*
X83388043Y-64040277D01*
X83391430Y-64036056D01*
X83419429Y-64002687D01*
X83422997Y-63998619D01*
X83445115Y-63974481D01*
X83448857Y-63970572D01*
X83500500Y-63918929D01*
X83500500Y-63248500D01*
X91998500Y-63248500D01*
X91998500Y-64000325D01*
X92000571Y-64002687D01*
X92028570Y-64036056D01*
X92031957Y-64040277D01*
X92051877Y-64066239D01*
X92055074Y-64070599D01*
X92210574Y-64292679D01*
X92213578Y-64297175D01*
X92231160Y-64324772D01*
X92233968Y-64329399D01*
X92255746Y-64367120D01*
X92258347Y-64371861D01*
X92273463Y-64400897D01*
X92275857Y-64405751D01*
X92390433Y-64651459D01*
X92392611Y-64656408D01*
X92405130Y-64686629D01*
X92407089Y-64691667D01*
X92421990Y-64732599D01*
X92423731Y-64737727D01*
X92427759Y-64750500D01*
X92501500Y-64750500D01*
X92501500Y-63248500D01*
X91998500Y-63248500D01*
X83500500Y-63248500D01*
X81998500Y-63248500D01*
X81000500Y-63248500D01*
X79498500Y-63248500D01*
X78500500Y-63248500D01*
X76998500Y-63248500D01*
X76000500Y-63248500D01*
X74498500Y-63248500D01*
X73500500Y-63248500D01*
X71998500Y-63248500D01*
X71000500Y-63248500D01*
X69498500Y-63248500D01*
X68500500Y-63248500D01*
X67748500Y-63248500D01*
X66750500Y-63248500D01*
X66750500Y-60748500D01*
X67748500Y-60748500D01*
X67748500Y-62250500D01*
X68500500Y-62250500D01*
X81998500Y-62250500D01*
X83500500Y-62250500D01*
X83500500Y-60748500D01*
X84498500Y-60748500D01*
X84498500Y-62250500D01*
X86000500Y-62250500D01*
X86000500Y-60748500D01*
X86998500Y-60748500D01*
X86998500Y-62250500D01*
X88500500Y-62250500D01*
X88500500Y-60748500D01*
X89498500Y-60748500D01*
X89498500Y-62250500D01*
X91000500Y-62250500D01*
X91000500Y-60748500D01*
X91998500Y-60748500D01*
X91998500Y-62250500D01*
X92501500Y-62250500D01*
X92501500Y-60748500D01*
X91998500Y-60748500D01*
X91000500Y-60748500D01*
X89498500Y-60748500D01*
X88500500Y-60748500D01*
X86998500Y-60748500D01*
X86000500Y-60748500D01*
X84498500Y-60748500D01*
X83500500Y-60748500D01*
X82303468Y-60748500D01*
X82303468Y-60771779D01*
X82303350Y-60777189D01*
X82301922Y-60809889D01*
X82301568Y-60815286D01*
X82277939Y-61085367D01*
X82277350Y-61090744D01*
X82273079Y-61123188D01*
X82272256Y-61128535D01*
X82264693Y-61171430D01*
X82263638Y-61176737D01*
X82256553Y-61208696D01*
X82255267Y-61213951D01*
X82185095Y-61475841D01*
X82183580Y-61481038D01*
X82173731Y-61512273D01*
X82171990Y-61517401D01*
X82157089Y-61558333D01*
X82155130Y-61563371D01*
X82142611Y-61593592D01*
X82140433Y-61598541D01*
X82025857Y-61844249D01*
X82023463Y-61849103D01*
X82008347Y-61878139D01*
X82005746Y-61882880D01*
X81998500Y-61895430D01*
X81998500Y-62250500D01*
X68500500Y-62250500D01*
X68500500Y-60750001D01*
X69944532Y-60750001D01*
X69964364Y-60976686D01*
X69964366Y-60976697D01*
X70023258Y-61196488D01*
X70023261Y-61196497D01*
X70119431Y-61402732D01*
X70119432Y-61402734D01*
X70249954Y-61589141D01*
X70410858Y-61750045D01*
X70410861Y-61750047D01*
X70597266Y-61880568D01*
X70803504Y-61976739D01*
X71023308Y-62035635D01*
X71185230Y-62049801D01*
X71249998Y-62055468D01*
X71250000Y-62055468D01*
X71250002Y-62055468D01*
X71306673Y-62050509D01*
X71476692Y-62035635D01*
X71696496Y-61976739D01*
X71902734Y-61880568D01*
X72089139Y-61750047D01*
X72250047Y-61589139D01*
X72380568Y-61402734D01*
X72387893Y-61387024D01*
X72434064Y-61334586D01*
X72501257Y-61315433D01*
X72568138Y-61335648D01*
X72612657Y-61387024D01*
X72619864Y-61402480D01*
X72670974Y-61475472D01*
X73350000Y-60796446D01*
X73350000Y-60802661D01*
X73377259Y-60904394D01*
X73429920Y-60995606D01*
X73504394Y-61070080D01*
X73595606Y-61122741D01*
X73697339Y-61150000D01*
X73703553Y-61150000D01*
X73024526Y-61829025D01*
X73097513Y-61880132D01*
X73097521Y-61880136D01*
X73303668Y-61976264D01*
X73303682Y-61976269D01*
X73523389Y-62035139D01*
X73523400Y-62035141D01*
X73749998Y-62054966D01*
X73750002Y-62054966D01*
X73976599Y-62035141D01*
X73976610Y-62035139D01*
X74196317Y-61976269D01*
X74196331Y-61976264D01*
X74402478Y-61880136D01*
X74475471Y-61829024D01*
X73796447Y-61150000D01*
X73802661Y-61150000D01*
X73904394Y-61122741D01*
X73995606Y-61070080D01*
X74070080Y-60995606D01*
X74122741Y-60904394D01*
X74150000Y-60802661D01*
X74150000Y-60796447D01*
X74829024Y-61475471D01*
X74880136Y-61402478D01*
X74976264Y-61196331D01*
X74976269Y-61196317D01*
X75035139Y-60976610D01*
X75035141Y-60976599D01*
X75054966Y-60750002D01*
X76195034Y-60750002D01*
X76214858Y-60976599D01*
X76214860Y-60976610D01*
X76273730Y-61196317D01*
X76273735Y-61196331D01*
X76369863Y-61402478D01*
X76420974Y-61475472D01*
X77100000Y-60796446D01*
X77100000Y-60802661D01*
X77127259Y-60904394D01*
X77179920Y-60995606D01*
X77254394Y-61070080D01*
X77345606Y-61122741D01*
X77447339Y-61150000D01*
X77453553Y-61150000D01*
X76774526Y-61829025D01*
X76847513Y-61880132D01*
X76847521Y-61880136D01*
X77053668Y-61976264D01*
X77053682Y-61976269D01*
X77273389Y-62035139D01*
X77273400Y-62035141D01*
X77499998Y-62054966D01*
X77500002Y-62054966D01*
X77726599Y-62035141D01*
X77726610Y-62035139D01*
X77946317Y-61976269D01*
X77946331Y-61976264D01*
X78152478Y-61880136D01*
X78225471Y-61829024D01*
X77546447Y-61150000D01*
X77552661Y-61150000D01*
X77654394Y-61122741D01*
X77745606Y-61070080D01*
X77820080Y-60995606D01*
X77872741Y-60904394D01*
X77900000Y-60802661D01*
X77900000Y-60796447D01*
X78579024Y-61475471D01*
X78630134Y-61402481D01*
X78637340Y-61387028D01*
X78683511Y-61334587D01*
X78750704Y-61315433D01*
X78817585Y-61335646D01*
X78862105Y-61387022D01*
X78869430Y-61402730D01*
X78869432Y-61402734D01*
X78999954Y-61589141D01*
X79160858Y-61750045D01*
X79160861Y-61750047D01*
X79347266Y-61880568D01*
X79553504Y-61976739D01*
X79773308Y-62035635D01*
X79935230Y-62049801D01*
X79999998Y-62055468D01*
X80000000Y-62055468D01*
X80000002Y-62055468D01*
X80056673Y-62050509D01*
X80226692Y-62035635D01*
X80446496Y-61976739D01*
X80652734Y-61880568D01*
X80839139Y-61750047D01*
X81000047Y-61589139D01*
X81130568Y-61402734D01*
X81226739Y-61196496D01*
X81285635Y-60976692D01*
X81305468Y-60750000D01*
X81285635Y-60523308D01*
X81226739Y-60303504D01*
X81130568Y-60097266D01*
X81000047Y-59910861D01*
X81000045Y-59910858D01*
X80839687Y-59750500D01*
X91998500Y-59750500D01*
X92583375Y-59750500D01*
X92596204Y-59712705D01*
X92599062Y-59705112D01*
X92624073Y-59644725D01*
X92626000Y-59640470D01*
X92626000Y-59585786D01*
X92645685Y-59518747D01*
X92662318Y-59498105D01*
X92763689Y-59396732D01*
X92783121Y-59367653D01*
X92787846Y-59361060D01*
X92827634Y-59309208D01*
X92832782Y-59302934D01*
X92865156Y-59266020D01*
X92870702Y-59260100D01*
X93010100Y-59120702D01*
X93016020Y-59115156D01*
X93052934Y-59082782D01*
X93059208Y-59077634D01*
X93111060Y-59037846D01*
X93117653Y-59033121D01*
X93146732Y-59013689D01*
X93248105Y-58912318D01*
X93309428Y-58878834D01*
X93335786Y-58876000D01*
X93390471Y-58876000D01*
X93394725Y-58874073D01*
X93455112Y-58849062D01*
X93462705Y-58846204D01*
X93500500Y-58833375D01*
X93500500Y-58468661D01*
X93445305Y-58262666D01*
X93444019Y-58257412D01*
X93442043Y-58248500D01*
X92657858Y-58248500D01*
X92583220Y-58448612D01*
X92581600Y-58452728D01*
X92571361Y-58477449D01*
X92569596Y-58481505D01*
X92554794Y-58513921D01*
X92552882Y-58517918D01*
X92540887Y-58541882D01*
X92538834Y-58545806D01*
X92384606Y-58828253D01*
X92382414Y-58832102D01*
X92368740Y-58855147D01*
X92366411Y-58858917D01*
X92347144Y-58888893D01*
X92344687Y-58892570D01*
X92329425Y-58914550D01*
X92326838Y-58918137D01*
X92134005Y-59175732D01*
X92131293Y-59179224D01*
X92114499Y-59200066D01*
X92111660Y-59203463D01*
X92088325Y-59230395D01*
X92085363Y-59233692D01*
X92067108Y-59253299D01*
X92064035Y-59256484D01*
X91998500Y-59322019D01*
X91998500Y-59750500D01*
X80839687Y-59750500D01*
X80839141Y-59749954D01*
X80652734Y-59619432D01*
X80652732Y-59619431D01*
X80446497Y-59523261D01*
X80446488Y-59523258D01*
X80226697Y-59464366D01*
X80226693Y-59464365D01*
X80226692Y-59464365D01*
X80226691Y-59464364D01*
X80226686Y-59464364D01*
X80000002Y-59444532D01*
X79999998Y-59444532D01*
X79773313Y-59464364D01*
X79773302Y-59464366D01*
X79553511Y-59523258D01*
X79553502Y-59523261D01*
X79347267Y-59619431D01*
X79347265Y-59619432D01*
X79160858Y-59749954D01*
X78999954Y-59910858D01*
X78869432Y-60097265D01*
X78869429Y-60097270D01*
X78862104Y-60112979D01*
X78815929Y-60165417D01*
X78748735Y-60184566D01*
X78681855Y-60164347D01*
X78637341Y-60112973D01*
X78630133Y-60097515D01*
X78630132Y-60097513D01*
X78579025Y-60024526D01*
X77900000Y-60703551D01*
X77900000Y-60697339D01*
X77872741Y-60595606D01*
X77820080Y-60504394D01*
X77745606Y-60429920D01*
X77654394Y-60377259D01*
X77552661Y-60350000D01*
X77546448Y-60350000D01*
X78225472Y-59670974D01*
X78152478Y-59619863D01*
X77946331Y-59523735D01*
X77946317Y-59523730D01*
X77726610Y-59464860D01*
X77726599Y-59464858D01*
X77500002Y-59445034D01*
X77499998Y-59445034D01*
X77273400Y-59464858D01*
X77273389Y-59464860D01*
X77053682Y-59523730D01*
X77053673Y-59523734D01*
X76847516Y-59619866D01*
X76847512Y-59619868D01*
X76774526Y-59670973D01*
X76774526Y-59670974D01*
X77453553Y-60350000D01*
X77447339Y-60350000D01*
X77345606Y-60377259D01*
X77254394Y-60429920D01*
X77179920Y-60504394D01*
X77127259Y-60595606D01*
X77100000Y-60697339D01*
X77100000Y-60703552D01*
X76420974Y-60024526D01*
X76420973Y-60024526D01*
X76369868Y-60097512D01*
X76369866Y-60097516D01*
X76273734Y-60303673D01*
X76273730Y-60303682D01*
X76214860Y-60523389D01*
X76214858Y-60523400D01*
X76195034Y-60749997D01*
X76195034Y-60750002D01*
X75054966Y-60750002D01*
X75054966Y-60749997D01*
X75035141Y-60523400D01*
X75035139Y-60523389D01*
X74976269Y-60303682D01*
X74976264Y-60303668D01*
X74880136Y-60097521D01*
X74880132Y-60097513D01*
X74829025Y-60024526D01*
X74150000Y-60703551D01*
X74150000Y-60697339D01*
X74122741Y-60595606D01*
X74070080Y-60504394D01*
X73995606Y-60429920D01*
X73904394Y-60377259D01*
X73802661Y-60350000D01*
X73796448Y-60350000D01*
X74475472Y-59670974D01*
X74402478Y-59619863D01*
X74196331Y-59523735D01*
X74196317Y-59523730D01*
X73976610Y-59464860D01*
X73976599Y-59464858D01*
X73750002Y-59445034D01*
X73749998Y-59445034D01*
X73523400Y-59464858D01*
X73523389Y-59464860D01*
X73303682Y-59523730D01*
X73303673Y-59523734D01*
X73097516Y-59619866D01*
X73097512Y-59619868D01*
X73024526Y-59670973D01*
X73024526Y-59670974D01*
X73703553Y-60350000D01*
X73697339Y-60350000D01*
X73595606Y-60377259D01*
X73504394Y-60429920D01*
X73429920Y-60504394D01*
X73377259Y-60595606D01*
X73350000Y-60697339D01*
X73350000Y-60703552D01*
X72670974Y-60024526D01*
X72670973Y-60024526D01*
X72619868Y-60097512D01*
X72619867Y-60097514D01*
X72612656Y-60112979D01*
X72566482Y-60165417D01*
X72499288Y-60184567D01*
X72432407Y-60164350D01*
X72387893Y-60112976D01*
X72380568Y-60097266D01*
X72250047Y-59910861D01*
X72250045Y-59910858D01*
X72089141Y-59749954D01*
X71902734Y-59619432D01*
X71902732Y-59619431D01*
X71696497Y-59523261D01*
X71696488Y-59523258D01*
X71476697Y-59464366D01*
X71476693Y-59464365D01*
X71476692Y-59464365D01*
X71476691Y-59464364D01*
X71476686Y-59464364D01*
X71250002Y-59444532D01*
X71249998Y-59444532D01*
X71023313Y-59464364D01*
X71023302Y-59464366D01*
X70803511Y-59523258D01*
X70803502Y-59523261D01*
X70597267Y-59619431D01*
X70597265Y-59619432D01*
X70410858Y-59749954D01*
X70249954Y-59910858D01*
X70119432Y-60097265D01*
X70119431Y-60097267D01*
X70023261Y-60303502D01*
X70023258Y-60303511D01*
X69964366Y-60523302D01*
X69964364Y-60523313D01*
X69944532Y-60749998D01*
X69944532Y-60750001D01*
X68500500Y-60750001D01*
X68500500Y-60748500D01*
X67748500Y-60748500D01*
X66750500Y-60748500D01*
X66750500Y-58248500D01*
X67748500Y-58248500D01*
X67748500Y-59750500D01*
X68500500Y-59750500D01*
X68500500Y-58248500D01*
X69498500Y-58248500D01*
X69498500Y-59253794D01*
X69499429Y-59252687D01*
X69502997Y-59248619D01*
X69525115Y-59224481D01*
X69528857Y-59220572D01*
X69720572Y-59028857D01*
X69724481Y-59025115D01*
X69748619Y-59002997D01*
X69752687Y-58999429D01*
X69786056Y-58971430D01*
X69790277Y-58968043D01*
X69816239Y-58948123D01*
X69820599Y-58944926D01*
X70042679Y-58789426D01*
X70047175Y-58786422D01*
X70074772Y-58768840D01*
X70079399Y-58766032D01*
X70117120Y-58744254D01*
X70121861Y-58741653D01*
X70150897Y-58726537D01*
X70155751Y-58724143D01*
X70401459Y-58609567D01*
X70406408Y-58607389D01*
X70436629Y-58594870D01*
X70441667Y-58592911D01*
X70482599Y-58578010D01*
X70487727Y-58576269D01*
X70518962Y-58566420D01*
X70524159Y-58564905D01*
X70786049Y-58494733D01*
X70791304Y-58493447D01*
X70823263Y-58486362D01*
X70828570Y-58485307D01*
X70871465Y-58477744D01*
X70876812Y-58476921D01*
X70909256Y-58472650D01*
X70914632Y-58472061D01*
X71000500Y-58464548D01*
X71000500Y-58248500D01*
X71998500Y-58248500D01*
X71998500Y-58571926D01*
X72012273Y-58576269D01*
X72017401Y-58578010D01*
X72058333Y-58592911D01*
X72063371Y-58594870D01*
X72093592Y-58607389D01*
X72098541Y-58609567D01*
X72344249Y-58724143D01*
X72349103Y-58726537D01*
X72378139Y-58741653D01*
X72382880Y-58744254D01*
X72420601Y-58766032D01*
X72425228Y-58768840D01*
X72452825Y-58786422D01*
X72457321Y-58789426D01*
X72500434Y-58819613D01*
X72542935Y-58789855D01*
X72547437Y-58786847D01*
X72575050Y-58769257D01*
X72579674Y-58766451D01*
X72617397Y-58744673D01*
X72622140Y-58742071D01*
X72651162Y-58726964D01*
X72656011Y-58724573D01*
X72901631Y-58610038D01*
X72906582Y-58607860D01*
X72936802Y-58595342D01*
X72941840Y-58593382D01*
X72982771Y-58578482D01*
X72987896Y-58576742D01*
X73019130Y-58566893D01*
X73024327Y-58565378D01*
X73286134Y-58495227D01*
X73291390Y-58493941D01*
X73323349Y-58486856D01*
X73328657Y-58485800D01*
X73371553Y-58478237D01*
X73376899Y-58477415D01*
X73409344Y-58473144D01*
X73414721Y-58472555D01*
X73500500Y-58465050D01*
X73500500Y-58248500D01*
X74498500Y-58248500D01*
X74498500Y-58572452D01*
X74512104Y-58576742D01*
X74517228Y-58578482D01*
X74558158Y-58593381D01*
X74563200Y-58595342D01*
X74593420Y-58607861D01*
X74598367Y-58610038D01*
X74843996Y-58724576D01*
X74848848Y-58726968D01*
X74877886Y-58742084D01*
X74882633Y-58744688D01*
X74920355Y-58766468D01*
X74924978Y-58769274D01*
X74952579Y-58786858D01*
X74957077Y-58789863D01*
X75231470Y-58981997D01*
X75267733Y-59021572D01*
X75344852Y-59155147D01*
X75478424Y-59232264D01*
X75517999Y-59268527D01*
X75624998Y-59421336D01*
X75731992Y-59268533D01*
X75771566Y-59232269D01*
X75905145Y-59155145D01*
X75982269Y-59021566D01*
X76000500Y-59001670D01*
X76000500Y-58797844D01*
X82750000Y-58797844D01*
X82756401Y-58857372D01*
X82756403Y-58857379D01*
X82806645Y-58992086D01*
X82806649Y-58992093D01*
X82892809Y-59107187D01*
X82892812Y-59107190D01*
X83007906Y-59193350D01*
X83007913Y-59193354D01*
X83142620Y-59243596D01*
X83142627Y-59243598D01*
X83202155Y-59249999D01*
X83202172Y-59250000D01*
X84500000Y-59250000D01*
X84500000Y-57969064D01*
X84528316Y-57980793D01*
X84675147Y-58010000D01*
X84824853Y-58010000D01*
X84971684Y-57980793D01*
X85000000Y-57969064D01*
X85000000Y-59250000D01*
X86297828Y-59250000D01*
X86297844Y-59249999D01*
X86357372Y-59243598D01*
X86357379Y-59243596D01*
X86492086Y-59193354D01*
X86492093Y-59193350D01*
X86607187Y-59107190D01*
X86607190Y-59107187D01*
X86693350Y-58992093D01*
X86693354Y-58992086D01*
X86743596Y-58857379D01*
X86743598Y-58857372D01*
X86749999Y-58797844D01*
X86750000Y-58797827D01*
X86750000Y-57500000D01*
X85469064Y-57500000D01*
X85480793Y-57471684D01*
X85510000Y-57324853D01*
X85510000Y-57250001D01*
X87824390Y-57250001D01*
X87844804Y-57535433D01*
X87905628Y-57815037D01*
X87905630Y-57815043D01*
X87905631Y-57815046D01*
X87984092Y-58025408D01*
X88005635Y-58083166D01*
X88142770Y-58334309D01*
X88142775Y-58334317D01*
X88314254Y-58563387D01*
X88314270Y-58563405D01*
X88516594Y-58765729D01*
X88516612Y-58765745D01*
X88745682Y-58937224D01*
X88745690Y-58937229D01*
X88996833Y-59074364D01*
X88996832Y-59074364D01*
X88996836Y-59074365D01*
X88996839Y-59074367D01*
X89264954Y-59174369D01*
X89264960Y-59174370D01*
X89264962Y-59174371D01*
X89544566Y-59235195D01*
X89544568Y-59235195D01*
X89544572Y-59235196D01*
X89789131Y-59252687D01*
X89829999Y-59255610D01*
X89830000Y-59255610D01*
X89830001Y-59255610D01*
X89870869Y-59252687D01*
X90115428Y-59235196D01*
X90128884Y-59232269D01*
X90395037Y-59174371D01*
X90395037Y-59174370D01*
X90395046Y-59174369D01*
X90663161Y-59074367D01*
X90914315Y-58937226D01*
X91143395Y-58765739D01*
X91345739Y-58563395D01*
X91517226Y-58334315D01*
X91654367Y-58083161D01*
X91754369Y-57815046D01*
X91759817Y-57790000D01*
X94394341Y-57790000D01*
X94414936Y-58025403D01*
X94414938Y-58025413D01*
X94476094Y-58253655D01*
X94476096Y-58253659D01*
X94476097Y-58253663D01*
X94568923Y-58452728D01*
X94575965Y-58467830D01*
X94575967Y-58467834D01*
X94664919Y-58594870D01*
X94711505Y-58661401D01*
X94878599Y-58828495D01*
X94975384Y-58896265D01*
X95072165Y-58964032D01*
X95072167Y-58964033D01*
X95072170Y-58964035D01*
X95286337Y-59063903D01*
X95514592Y-59125063D01*
X95702918Y-59141539D01*
X95749999Y-59145659D01*
X95750000Y-59145659D01*
X95750001Y-59145659D01*
X95789234Y-59142226D01*
X95985408Y-59125063D01*
X96213663Y-59063903D01*
X96427830Y-58964035D01*
X96621401Y-58828495D01*
X96788495Y-58661401D01*
X96924035Y-58467830D01*
X97023903Y-58253663D01*
X97085063Y-58025408D01*
X97105659Y-57790000D01*
X97085063Y-57554592D01*
X97023903Y-57326337D01*
X96924035Y-57112171D01*
X96913960Y-57097783D01*
X96788496Y-56918600D01*
X96733994Y-56864098D01*
X96666179Y-56796283D01*
X96632696Y-56734963D01*
X96637680Y-56665271D01*
X96679551Y-56609337D01*
X96710529Y-56592422D01*
X96842086Y-56543354D01*
X96842093Y-56543350D01*
X96957187Y-56457190D01*
X96957190Y-56457187D01*
X97043350Y-56342093D01*
X97043354Y-56342086D01*
X97093596Y-56207379D01*
X97093598Y-56207372D01*
X97099999Y-56147844D01*
X97100000Y-56147827D01*
X97100000Y-55500000D01*
X96183012Y-55500000D01*
X96215925Y-55442993D01*
X96250000Y-55315826D01*
X96250000Y-55184174D01*
X96215925Y-55057007D01*
X96183012Y-55000000D01*
X97100000Y-55000000D01*
X97100000Y-54352172D01*
X97099999Y-54352155D01*
X97093598Y-54292627D01*
X97093596Y-54292620D01*
X97043354Y-54157913D01*
X97043350Y-54157906D01*
X96957190Y-54042812D01*
X96957187Y-54042809D01*
X96842093Y-53956649D01*
X96842086Y-53956645D01*
X96707379Y-53906403D01*
X96707372Y-53906401D01*
X96647844Y-53900000D01*
X96000000Y-53900000D01*
X96000000Y-54816988D01*
X95942993Y-54784075D01*
X95815826Y-54750000D01*
X95684174Y-54750000D01*
X95557007Y-54784075D01*
X95500000Y-54816988D01*
X95500000Y-53900000D01*
X94852155Y-53900000D01*
X94792627Y-53906401D01*
X94792620Y-53906403D01*
X94657913Y-53956645D01*
X94657906Y-53956649D01*
X94542812Y-54042809D01*
X94542809Y-54042812D01*
X94456649Y-54157906D01*
X94456645Y-54157913D01*
X94406403Y-54292620D01*
X94406401Y-54292627D01*
X94400000Y-54352155D01*
X94400000Y-55000000D01*
X95316988Y-55000000D01*
X95284075Y-55057007D01*
X95250000Y-55184174D01*
X95250000Y-55315826D01*
X95284075Y-55442993D01*
X95316988Y-55500000D01*
X94400000Y-55500000D01*
X94400000Y-56147844D01*
X94406401Y-56207372D01*
X94406403Y-56207379D01*
X94456645Y-56342086D01*
X94456649Y-56342093D01*
X94542809Y-56457187D01*
X94542812Y-56457190D01*
X94657906Y-56543350D01*
X94657913Y-56543354D01*
X94789470Y-56592421D01*
X94845403Y-56634292D01*
X94869821Y-56699756D01*
X94854970Y-56768029D01*
X94833819Y-56796284D01*
X94711503Y-56918600D01*
X94575965Y-57112169D01*
X94575964Y-57112171D01*
X94476098Y-57326335D01*
X94476094Y-57326344D01*
X94414938Y-57554586D01*
X94414936Y-57554596D01*
X94394341Y-57789999D01*
X94394341Y-57790000D01*
X91759817Y-57790000D01*
X91811027Y-57554592D01*
X91815195Y-57535433D01*
X91815195Y-57535432D01*
X91815196Y-57535428D01*
X91835610Y-57250000D01*
X91815196Y-56964572D01*
X91814859Y-56963025D01*
X91754371Y-56684962D01*
X91754370Y-56684960D01*
X91754369Y-56684954D01*
X91654367Y-56416839D01*
X91644580Y-56398916D01*
X91517229Y-56165690D01*
X91517224Y-56165682D01*
X91345745Y-55936612D01*
X91345729Y-55936594D01*
X91157635Y-55748500D01*
X92426516Y-55748500D01*
X92538834Y-55954194D01*
X92540887Y-55958118D01*
X92552882Y-55982082D01*
X92554794Y-55986079D01*
X92569596Y-56018495D01*
X92571361Y-56022551D01*
X92581600Y-56047272D01*
X92583220Y-56051389D01*
X92695666Y-56352869D01*
X92697136Y-56357037D01*
X92705584Y-56382415D01*
X92706906Y-56386636D01*
X92716948Y-56420826D01*
X92718121Y-56425100D01*
X92724752Y-56451076D01*
X92725771Y-56455388D01*
X92794179Y-56769855D01*
X92795044Y-56774202D01*
X92799802Y-56800581D01*
X92800510Y-56804954D01*
X92805579Y-56840228D01*
X92806130Y-56844613D01*
X92808989Y-56871210D01*
X92809383Y-56875617D01*
X92832338Y-57196575D01*
X92832575Y-57200994D01*
X92833531Y-57227755D01*
X92833610Y-57232182D01*
X92833610Y-57250500D01*
X93463213Y-57250500D01*
X93500500Y-57111337D01*
X93500500Y-56634361D01*
X93460421Y-56526904D01*
X93457942Y-56519564D01*
X93444332Y-56474695D01*
X93442315Y-56467212D01*
X93427972Y-56406501D01*
X93426428Y-56398916D01*
X93418522Y-56352738D01*
X93417455Y-56345069D01*
X93406289Y-56241217D01*
X93405977Y-56237905D01*
X93404364Y-56217856D01*
X93404142Y-56214542D01*
X93402713Y-56187855D01*
X93402580Y-56184539D01*
X93402044Y-56164491D01*
X93402000Y-56161177D01*
X93402000Y-55748500D01*
X92426516Y-55748500D01*
X91157635Y-55748500D01*
X91143405Y-55734270D01*
X91143387Y-55734254D01*
X90914317Y-55562775D01*
X90914309Y-55562770D01*
X90663166Y-55425635D01*
X90663167Y-55425635D01*
X90554282Y-55385023D01*
X90395046Y-55325631D01*
X90395043Y-55325630D01*
X90395037Y-55325628D01*
X90115433Y-55264804D01*
X89830001Y-55244390D01*
X89829999Y-55244390D01*
X89544566Y-55264804D01*
X89264962Y-55325628D01*
X88996833Y-55425635D01*
X88745690Y-55562770D01*
X88745682Y-55562775D01*
X88516612Y-55734254D01*
X88516594Y-55734270D01*
X88314270Y-55936594D01*
X88314254Y-55936612D01*
X88142775Y-56165682D01*
X88142770Y-56165690D01*
X88005635Y-56416833D01*
X87905628Y-56684962D01*
X87844804Y-56964566D01*
X87824390Y-57249998D01*
X87824390Y-57250001D01*
X85510000Y-57250001D01*
X85510000Y-57175147D01*
X85480793Y-57028316D01*
X85469064Y-57000000D01*
X86750000Y-57000000D01*
X86750000Y-55702172D01*
X86749999Y-55702155D01*
X86743598Y-55642627D01*
X86743596Y-55642620D01*
X86693354Y-55507913D01*
X86693350Y-55507906D01*
X86607190Y-55392812D01*
X86607187Y-55392809D01*
X86492093Y-55306649D01*
X86492086Y-55306645D01*
X86357379Y-55256403D01*
X86357372Y-55256401D01*
X86297844Y-55250000D01*
X85000000Y-55250000D01*
X85000000Y-56530935D01*
X84971684Y-56519207D01*
X84824853Y-56490000D01*
X84675147Y-56490000D01*
X84528316Y-56519207D01*
X84500000Y-56530935D01*
X84500000Y-55250000D01*
X83202155Y-55250000D01*
X83142627Y-55256401D01*
X83142620Y-55256403D01*
X83007913Y-55306645D01*
X83007906Y-55306649D01*
X82892812Y-55392809D01*
X82892809Y-55392812D01*
X82806649Y-55507906D01*
X82806645Y-55507913D01*
X82756403Y-55642620D01*
X82756401Y-55642627D01*
X82750000Y-55702155D01*
X82750000Y-57000000D01*
X84030936Y-57000000D01*
X84019207Y-57028316D01*
X83990000Y-57175147D01*
X83990000Y-57324853D01*
X84019207Y-57471684D01*
X84030936Y-57500000D01*
X82750000Y-57500000D01*
X82750000Y-58797844D01*
X76000500Y-58797844D01*
X76000500Y-58248500D01*
X74498500Y-58248500D01*
X73500500Y-58248500D01*
X71998500Y-58248500D01*
X71000500Y-58248500D01*
X69498500Y-58248500D01*
X68500500Y-58248500D01*
X67748500Y-58248500D01*
X66750500Y-58248500D01*
X66750500Y-55748500D01*
X67748500Y-55748500D01*
X67748500Y-57250500D01*
X68500500Y-57250500D01*
X68500500Y-55748500D01*
X69498500Y-55748500D01*
X69498500Y-57250500D01*
X71000500Y-57250500D01*
X71000500Y-56236021D01*
X71998500Y-56236021D01*
X71998500Y-57250500D01*
X73500500Y-57250500D01*
X76998500Y-57250500D01*
X78500500Y-57250500D01*
X79498500Y-57250500D01*
X81000500Y-57250500D01*
X81000500Y-56360781D01*
X80851700Y-56509581D01*
X80847792Y-56513323D01*
X80823674Y-56535423D01*
X80819611Y-56538986D01*
X80786244Y-56566987D01*
X80782022Y-56570375D01*
X80756042Y-56590311D01*
X80751678Y-56593512D01*
X80522415Y-56754044D01*
X80517916Y-56757050D01*
X80490302Y-56774642D01*
X80485673Y-56777451D01*
X80447949Y-56799229D01*
X80443209Y-56801829D01*
X80414188Y-56816936D01*
X80409337Y-56819328D01*
X80155708Y-56937598D01*
X80150756Y-56939777D01*
X80120535Y-56952295D01*
X80115500Y-56954253D01*
X80074568Y-56969154D01*
X80069440Y-56970895D01*
X80038205Y-56980744D01*
X80033008Y-56982259D01*
X79762666Y-57054695D01*
X79757412Y-57055981D01*
X79725454Y-57063066D01*
X79720146Y-57064121D01*
X79677251Y-57071684D01*
X79671904Y-57072507D01*
X79639461Y-57076778D01*
X79634084Y-57077367D01*
X79498500Y-57089228D01*
X79498500Y-57250500D01*
X78500500Y-57250500D01*
X78500500Y-56967358D01*
X78464500Y-56954253D01*
X78459465Y-56952295D01*
X78429244Y-56939777D01*
X78424292Y-56937598D01*
X78170663Y-56819328D01*
X78165812Y-56816936D01*
X78136791Y-56801829D01*
X78132051Y-56799229D01*
X78094327Y-56777451D01*
X78089698Y-56774642D01*
X78062084Y-56757050D01*
X78057585Y-56754043D01*
X78020000Y-56727725D01*
X77982415Y-56754043D01*
X77977916Y-56757050D01*
X77950302Y-56774642D01*
X77945673Y-56777451D01*
X77907949Y-56799229D01*
X77903209Y-56801829D01*
X77874188Y-56816936D01*
X77869337Y-56819328D01*
X77615708Y-56937598D01*
X77610756Y-56939777D01*
X77580535Y-56952295D01*
X77575500Y-56954253D01*
X77534568Y-56969154D01*
X77529440Y-56970895D01*
X77498205Y-56980744D01*
X77493008Y-56982259D01*
X77222666Y-57054695D01*
X77217412Y-57055981D01*
X77185454Y-57063066D01*
X77180146Y-57064121D01*
X77137251Y-57071684D01*
X77131904Y-57072507D01*
X77099461Y-57076778D01*
X77094084Y-57077367D01*
X76998500Y-57085729D01*
X76998500Y-57250500D01*
X73500500Y-57250500D01*
X73500500Y-57098499D01*
X73298752Y-57098500D01*
X73295428Y-57098455D01*
X73275327Y-57097916D01*
X73272007Y-57097783D01*
X73245320Y-57096351D01*
X73242011Y-57096129D01*
X73222018Y-57094519D01*
X73218715Y-57094208D01*
X73114825Y-57083038D01*
X73107157Y-57081971D01*
X73060971Y-57074064D01*
X73053381Y-57072519D01*
X72992670Y-57058174D01*
X72985191Y-57056158D01*
X72940328Y-57042550D01*
X72932988Y-57040071D01*
X72735498Y-56966413D01*
X72727318Y-56963025D01*
X72678581Y-56940767D01*
X72670667Y-56936805D01*
X72608077Y-56902628D01*
X72600463Y-56898110D01*
X72555396Y-56869146D01*
X72548126Y-56864098D01*
X72375827Y-56735114D01*
X72368936Y-56729561D01*
X72328451Y-56694481D01*
X72321972Y-56688449D01*
X72271551Y-56638028D01*
X72265519Y-56631549D01*
X72230439Y-56591064D01*
X72224886Y-56584173D01*
X72095902Y-56411874D01*
X72090854Y-56404604D01*
X72061890Y-56359537D01*
X72057372Y-56351923D01*
X72023195Y-56289333D01*
X72019233Y-56281419D01*
X71998500Y-56236021D01*
X71000500Y-56236021D01*
X71000500Y-55748500D01*
X69498500Y-55748500D01*
X68500500Y-55748500D01*
X67748500Y-55748500D01*
X66750500Y-55748500D01*
X66750500Y-55647870D01*
X72859500Y-55647870D01*
X72859501Y-55647876D01*
X72865908Y-55707483D01*
X72916202Y-55842328D01*
X72916206Y-55842335D01*
X73002452Y-55957544D01*
X73002455Y-55957547D01*
X73117664Y-56043793D01*
X73117671Y-56043797D01*
X73252517Y-56094091D01*
X73252516Y-56094091D01*
X73259444Y-56094835D01*
X73312127Y-56100500D01*
X75107872Y-56100499D01*
X75167483Y-56094091D01*
X75302331Y-56043796D01*
X75417546Y-55957546D01*
X75503796Y-55842331D01*
X75552810Y-55710916D01*
X75594681Y-55654984D01*
X75660145Y-55630566D01*
X75728418Y-55645417D01*
X75756673Y-55666569D01*
X75878599Y-55788495D01*
X75975384Y-55856265D01*
X76072165Y-55924032D01*
X76072167Y-55924033D01*
X76072170Y-55924035D01*
X76286337Y-56023903D01*
X76514592Y-56085063D01*
X76691034Y-56100500D01*
X76749999Y-56105659D01*
X76750000Y-56105659D01*
X76750001Y-56105659D01*
X76808966Y-56100500D01*
X76985408Y-56085063D01*
X77213663Y-56023903D01*
X77427830Y-55924035D01*
X77621401Y-55788495D01*
X77788495Y-55621401D01*
X77918425Y-55435842D01*
X77973002Y-55392217D01*
X78042500Y-55385023D01*
X78104855Y-55416546D01*
X78121575Y-55435842D01*
X78251500Y-55621395D01*
X78251505Y-55621401D01*
X78418599Y-55788495D01*
X78515384Y-55856265D01*
X78612165Y-55924032D01*
X78612167Y-55924033D01*
X78612170Y-55924035D01*
X78826337Y-56023903D01*
X79054592Y-56085063D01*
X79231034Y-56100500D01*
X79289999Y-56105659D01*
X79290000Y-56105659D01*
X79290001Y-56105659D01*
X79348966Y-56100500D01*
X79525408Y-56085063D01*
X79753663Y-56023903D01*
X79967830Y-55924035D01*
X80161401Y-55788495D01*
X80328495Y-55621401D01*
X80464035Y-55427830D01*
X80563903Y-55213663D01*
X80625063Y-54985408D01*
X80645659Y-54750000D01*
X80625063Y-54514592D01*
X80563903Y-54286337D01*
X80464035Y-54072171D01*
X80458425Y-54064158D01*
X80412451Y-53998500D01*
X81998500Y-53998500D01*
X81998500Y-54750500D01*
X82128415Y-54750500D01*
X82155876Y-54718808D01*
X82161908Y-54712329D01*
X82212329Y-54661908D01*
X82218808Y-54655876D01*
X82259293Y-54620796D01*
X82266184Y-54615243D01*
X82438368Y-54486345D01*
X82445638Y-54481297D01*
X82490705Y-54452333D01*
X82498319Y-54447815D01*
X82560909Y-54413638D01*
X82568823Y-54409677D01*
X82617559Y-54387419D01*
X82625739Y-54384030D01*
X82823096Y-54310421D01*
X82830436Y-54307942D01*
X82875305Y-54294332D01*
X82882788Y-54292315D01*
X82943499Y-54277972D01*
X82951084Y-54276428D01*
X82997262Y-54268522D01*
X83004931Y-54267455D01*
X83108783Y-54256289D01*
X83112095Y-54255977D01*
X83132144Y-54254364D01*
X83135458Y-54254142D01*
X83162145Y-54252713D01*
X83165461Y-54252580D01*
X83185509Y-54252044D01*
X83188823Y-54252000D01*
X83500500Y-54252000D01*
X83500500Y-53998500D01*
X86998500Y-53998500D01*
X86998500Y-54446078D01*
X87001681Y-54447815D01*
X87009295Y-54452333D01*
X87054362Y-54481297D01*
X87061632Y-54486345D01*
X87233816Y-54615243D01*
X87240707Y-54620796D01*
X87281192Y-54655876D01*
X87287671Y-54661908D01*
X87338092Y-54712329D01*
X87344124Y-54718808D01*
X87371585Y-54750500D01*
X88165558Y-54750500D01*
X88187430Y-54735313D01*
X88191107Y-54732856D01*
X88221083Y-54713589D01*
X88224853Y-54711260D01*
X88247898Y-54697586D01*
X88251747Y-54695394D01*
X88500500Y-54559564D01*
X88500500Y-53998500D01*
X89498500Y-53998500D01*
X89498500Y-54267549D01*
X89776575Y-54247662D01*
X89780994Y-54247425D01*
X89807755Y-54246469D01*
X89812182Y-54246390D01*
X89847818Y-54246390D01*
X89852245Y-54246469D01*
X89879006Y-54247425D01*
X89883425Y-54247662D01*
X90204383Y-54270617D01*
X90208790Y-54271011D01*
X90235387Y-54273870D01*
X90239772Y-54274421D01*
X90275046Y-54279490D01*
X90279419Y-54280198D01*
X90305798Y-54284956D01*
X90310145Y-54285821D01*
X90624612Y-54354229D01*
X90628924Y-54355248D01*
X90654900Y-54361879D01*
X90659174Y-54363052D01*
X90693364Y-54373094D01*
X90697585Y-54374416D01*
X90722963Y-54382864D01*
X90727131Y-54384334D01*
X91000500Y-54486295D01*
X91000500Y-53998500D01*
X91998500Y-53998500D01*
X91998500Y-54750500D01*
X93402000Y-54750500D01*
X93402000Y-54338823D01*
X93402044Y-54335509D01*
X93402580Y-54315461D01*
X93402713Y-54312145D01*
X93404142Y-54285458D01*
X93404364Y-54282144D01*
X93405977Y-54262095D01*
X93406289Y-54258783D01*
X93417455Y-54154931D01*
X93418522Y-54147262D01*
X93426428Y-54101084D01*
X93427972Y-54093499D01*
X93442315Y-54032788D01*
X93444332Y-54025305D01*
X93452463Y-53998500D01*
X91998500Y-53998500D01*
X91000500Y-53998500D01*
X89498500Y-53998500D01*
X88500500Y-53998500D01*
X86998500Y-53998500D01*
X83500500Y-53998500D01*
X81998500Y-53998500D01*
X80412451Y-53998500D01*
X80328494Y-53878597D01*
X80161402Y-53711506D01*
X80161395Y-53711501D01*
X79967834Y-53575967D01*
X79967830Y-53575965D01*
X79967828Y-53575964D01*
X79753663Y-53476097D01*
X79753659Y-53476096D01*
X79753655Y-53476094D01*
X79525413Y-53414938D01*
X79525403Y-53414936D01*
X79290001Y-53394341D01*
X79289999Y-53394341D01*
X79054596Y-53414936D01*
X79054586Y-53414938D01*
X78826344Y-53476094D01*
X78826335Y-53476098D01*
X78612171Y-53575964D01*
X78612169Y-53575965D01*
X78418597Y-53711505D01*
X78251505Y-53878597D01*
X78121575Y-54064158D01*
X78066998Y-54107783D01*
X77997500Y-54114977D01*
X77935145Y-54083454D01*
X77918425Y-54064158D01*
X77788494Y-53878597D01*
X77621402Y-53711506D01*
X77621395Y-53711501D01*
X77427834Y-53575967D01*
X77427830Y-53575965D01*
X77427828Y-53575964D01*
X77213663Y-53476097D01*
X77213659Y-53476096D01*
X77213655Y-53476094D01*
X76985413Y-53414938D01*
X76985403Y-53414936D01*
X76750001Y-53394341D01*
X76749999Y-53394341D01*
X76514596Y-53414936D01*
X76514586Y-53414938D01*
X76286344Y-53476094D01*
X76286335Y-53476098D01*
X76072171Y-53575964D01*
X76072169Y-53575965D01*
X75878600Y-53711503D01*
X75756673Y-53833430D01*
X75695350Y-53866914D01*
X75625658Y-53861930D01*
X75569725Y-53820058D01*
X75552810Y-53789081D01*
X75503797Y-53657671D01*
X75503793Y-53657664D01*
X75417547Y-53542455D01*
X75417544Y-53542452D01*
X75302335Y-53456206D01*
X75302328Y-53456202D01*
X75167482Y-53405908D01*
X75167483Y-53405908D01*
X75107883Y-53399501D01*
X75107881Y-53399500D01*
X75107873Y-53399500D01*
X75107864Y-53399500D01*
X73312129Y-53399500D01*
X73312123Y-53399501D01*
X73252516Y-53405908D01*
X73117671Y-53456202D01*
X73117664Y-53456206D01*
X73002455Y-53542452D01*
X73002452Y-53542455D01*
X72916206Y-53657664D01*
X72916202Y-53657671D01*
X72865908Y-53792517D01*
X72859501Y-53852116D01*
X72859500Y-53852135D01*
X72859500Y-55647870D01*
X66750500Y-55647870D01*
X66750500Y-53998500D01*
X67748500Y-53998500D01*
X67748500Y-54750500D01*
X68500500Y-54750500D01*
X68500500Y-53998500D01*
X69498500Y-53998500D01*
X69498500Y-54750500D01*
X71000500Y-54750500D01*
X71000500Y-53998500D01*
X69498500Y-53998500D01*
X68500500Y-53998500D01*
X67748500Y-53998500D01*
X66750500Y-53998500D01*
X66750500Y-53124500D01*
X66770185Y-53057461D01*
X66822989Y-53011706D01*
X66874500Y-53000500D01*
X97625500Y-53000500D01*
X97692539Y-53020185D01*
G37*
%TD.AperFunction*%
%TD*%
M02*
