M48
; DRILL file {KiCad 8.0.1} date 2024-05-14T10:30:28-0700
; FORMAT={-:-/ absolute / inch / decimal}
; #@! TF.CreationDate,2024-05-14T10:30:28-07:00
; #@! TF.GenerationSoftware,Kicad,Pcbnew,8.0.1
; #@! TF.FileFunction,Plated,1,2,PTH
FMAT,2
INCH
; #@! TA.AperFunction,Plated,PTH,ViaDrill
T1C0.0118
; #@! TA.AperFunction,Plated,PTH,ComponentDrill
T2C0.0394
%
G90
G05
T1
X2.5177Y-3.5039
X2.5197Y-2.8502
X2.5787Y-2.9528
X2.5906Y-3.0512
X2.6083Y-3.6614
X2.6289Y-3.4904
X2.687Y-3.5925
X2.6969Y-3.1398
X2.7067Y-3.6614
X2.7657Y-3.189
X2.7795Y-3.1059
X2.815Y-3.6614
X2.8248Y-3.3858
X2.874Y-3.1512
X2.8937Y-2.8346
X2.9035Y-3.1004
X2.9232Y-2.9331
X2.9232Y-3.248
X2.9331Y-3.6319
X3.0217Y-2.9232
X3.0315Y-3.6319
X3.0375Y-3.3208
X3.074Y-3.0089
X3.074Y-3.0404
X3.128Y-2.9559
X3.128Y-3.2843
X3.1457Y-3.1053
X3.1549Y-2.8399
X3.1594Y-3.0118
X3.1594Y-3.2843
X3.1594Y-3.6024
X3.1817Y-3.1212
X3.1821Y-3.0482
X3.189Y-2.8996
X3.189Y-3.3465
X3.2087Y-3.6516
X3.2283Y-3.3465
X3.2539Y-2.9559
X3.2677Y-3.6024
X3.3236Y-3.7008
X3.3366Y-3.0758
X3.4055Y-2.6772
X3.4606Y-3.1826
X3.4606Y-3.2303
X3.4941Y-3.4252
X3.4941Y-3.5236
X3.498Y-3.1929
X3.5014Y-2.975
X3.5138Y-2.7756
X3.5797Y-3.0709
X3.5827Y-3.1398
X3.5827Y-3.2185
X3.6122Y-3.6437
X3.6437Y-3.4429
X3.6614Y-2.8445
X3.6614Y-3.5807
X3.6821Y-3.0217
X3.6909Y-3.1496
X3.7392Y-3.0217
X3.7569Y-3.0709
X3.7598Y-3.6161
X3.7894Y-3.376
X3.8189Y-2.7953
X3.8287Y-2.8543
X3.8484Y-3.5925
X3.8583Y-3.1693
X3.8976Y-3.0315
X3.9173Y-3.4646
X3.937Y-2.9823
X3.9839Y-3.0035
X3.9862Y-3.2776
X4.0725Y-2.9312
X4.099Y-3.0768
X4.124Y-3.1594
T2
X2.4114Y-2.9921
X2.4114Y-3.0921
X2.5626Y-3.7008
X2.6626Y-3.7008
X2.7626Y-3.7008
X2.8626Y-3.7008
X2.9626Y-3.7008
X3.0626Y-3.7008
X3.1626Y-3.7008
X3.2626Y-3.7008
X3.3626Y-3.7008
X3.5728Y-3.7008
X3.6728Y-3.7008
X3.7728Y-3.7008
X3.8728Y-3.7008
X4.024Y-2.8445
X4.024Y-2.9445
X4.024Y-3.0445
X4.124Y-2.8445
X4.124Y-2.9445
X4.124Y-3.0445
X4.124Y-3.2335
X4.124Y-3.3335
X4.124Y-3.4335
X4.124Y-3.5335
M30
