%TF.GenerationSoftware,KiCad,Pcbnew,8.0.1*%
%TF.CreationDate,2024-05-14T10:30:11-07:00*%
%TF.ProjectId,mcu-datalogger,6d63752d-6461-4746-916c-6f676765722e,v0.1*%
%TF.SameCoordinates,Original*%
%TF.FileFunction,Soldermask,Top*%
%TF.FilePolarity,Negative*%
%FSLAX46Y46*%
G04 Gerber Fmt 4.6, Leading zero omitted, Abs format (unit mm)*
G04 Created by KiCad (PCBNEW 8.0.1) date 2024-05-14 10:30:11*
%MOMM*%
%LPD*%
G01*
G04 APERTURE LIST*
G04 Aperture macros list*
%AMRoundRect*
0 Rectangle with rounded corners*
0 $1 Rounding radius*
0 $2 $3 $4 $5 $6 $7 $8 $9 X,Y pos of 4 corners*
0 Add a 4 corners polygon primitive as box body*
4,1,4,$2,$3,$4,$5,$6,$7,$8,$9,$2,$3,0*
0 Add four circle primitives for the rounded corners*
1,1,$1+$1,$2,$3*
1,1,$1+$1,$4,$5*
1,1,$1+$1,$6,$7*
1,1,$1+$1,$8,$9*
0 Add four rect primitives between the rounded corners*
20,1,$1+$1,$2,$3,$4,$5,0*
20,1,$1+$1,$4,$5,$6,$7,0*
20,1,$1+$1,$6,$7,$8,$9,0*
20,1,$1+$1,$8,$9,$2,$3,0*%
G04 Aperture macros list end*
%ADD10C,2.100000*%
%ADD11RoundRect,0.250000X-0.262500X-0.450000X0.262500X-0.450000X0.262500X0.450000X-0.262500X0.450000X0*%
%ADD12RoundRect,0.250000X-0.250000X-0.475000X0.250000X-0.475000X0.250000X0.475000X-0.250000X0.475000X0*%
%ADD13R,1.700000X1.700000*%
%ADD14O,1.700000X1.700000*%
%ADD15RoundRect,0.250000X0.262500X0.450000X-0.262500X0.450000X-0.262500X-0.450000X0.262500X-0.450000X0*%
%ADD16RoundRect,0.243750X-0.243750X-0.456250X0.243750X-0.456250X0.243750X0.456250X-0.243750X0.456250X0*%
%ADD17RoundRect,0.052780X-0.784220X-0.324220X0.784220X-0.324220X0.784220X0.324220X-0.784220X0.324220X0*%
%ADD18RoundRect,0.135720X-0.241280X-0.701280X0.241280X-0.701280X0.241280X0.701280X-0.241280X0.701280X0*%
%ADD19R,3.500000X2.400000*%
%ADD20RoundRect,0.150000X-0.650000X-0.150000X0.650000X-0.150000X0.650000X0.150000X-0.650000X0.150000X0*%
%ADD21RoundRect,0.250000X0.250000X0.475000X-0.250000X0.475000X-0.250000X-0.475000X0.250000X-0.475000X0*%
%ADD22RoundRect,0.055580X-1.031420X-0.341420X1.031420X-0.341420X1.031420X0.341420X-1.031420X0.341420X0*%
%ADD23R,2.400000X3.500000*%
G04 APERTURE END LIST*
D10*
%TO.C,H1*%
X57750000Y-66500000D03*
%TD*%
D11*
%TO.C,R5*%
X95425000Y-74000000D03*
X97250000Y-74000000D03*
%TD*%
D12*
%TO.C,C2*%
X91100000Y-86000000D03*
X93000000Y-86000000D03*
%TD*%
D13*
%TO.C,J1*%
X104750000Y-82130000D03*
D14*
X104750000Y-84670000D03*
X104750000Y-87210000D03*
X104750000Y-89750000D03*
%TD*%
D13*
%TO.C,BT1*%
X61250000Y-76000000D03*
D14*
X61250000Y-78540000D03*
%TD*%
D15*
%TO.C,R6*%
X92825000Y-81750000D03*
X91000000Y-81750000D03*
%TD*%
D13*
%TO.C,J3*%
X65090000Y-94000000D03*
D14*
X67630000Y-94000000D03*
X70170000Y-94000000D03*
X72710000Y-94000000D03*
X75250000Y-94000000D03*
X77790000Y-94000000D03*
X80330000Y-94000000D03*
X82870000Y-94000000D03*
X85410000Y-94000000D03*
%TD*%
D15*
%TO.C,R4*%
X93000000Y-74000000D03*
X91175000Y-74000000D03*
%TD*%
D16*
%TO.C,D1*%
X95625000Y-69500000D03*
X97500000Y-69500000D03*
%TD*%
D11*
%TO.C,R7*%
X95425000Y-78000000D03*
X97250000Y-78000000D03*
%TD*%
D15*
%TO.C,R1*%
X92750000Y-78000000D03*
X90925000Y-78000000D03*
%TD*%
D13*
%TO.C,J2*%
X90750000Y-94000000D03*
D14*
X93290000Y-94000000D03*
X95830000Y-94000000D03*
X98370000Y-94000000D03*
%TD*%
D10*
%TO.C,H4*%
X57750000Y-96500000D03*
%TD*%
D13*
%TO.C,J4*%
X102210000Y-72250000D03*
D14*
X104750000Y-72250000D03*
X102210000Y-74790000D03*
X104750000Y-74790000D03*
X102210000Y-77330000D03*
X104750000Y-77330000D03*
%TD*%
D17*
%TO.C,U4*%
X78080000Y-76450000D03*
X78080000Y-77250000D03*
X78080000Y-78050000D03*
X78080000Y-78850000D03*
X78080000Y-79650000D03*
X78080000Y-80450000D03*
X78080000Y-81250000D03*
X78080000Y-82050000D03*
D18*
X79450000Y-83420000D03*
X80250000Y-83420000D03*
X81050000Y-83420000D03*
X81850000Y-83420000D03*
X82650000Y-83420000D03*
X83450000Y-83420000D03*
X84250000Y-83420000D03*
X85050000Y-83420000D03*
D17*
X86420000Y-82050000D03*
X86420000Y-81250000D03*
X86420000Y-80450000D03*
X86420000Y-79650000D03*
X86420000Y-78850000D03*
X86420000Y-78050000D03*
X86420000Y-77250000D03*
X86420000Y-76450000D03*
D18*
X85050000Y-75080000D03*
X84250000Y-75080000D03*
X83450000Y-75080000D03*
X82650000Y-75080000D03*
X81850000Y-75080000D03*
X81050000Y-75080000D03*
X80250000Y-75080000D03*
X79450000Y-75080000D03*
%TD*%
D10*
%TO.C,H3*%
X107000000Y-96500000D03*
%TD*%
%TO.C,H2*%
X107000000Y-66500000D03*
%TD*%
D19*
%TO.C,Y1*%
X79000000Y-88250000D03*
X84200000Y-88250000D03*
%TD*%
D11*
%TO.C,R2*%
X66425000Y-91250000D03*
X68250000Y-91250000D03*
%TD*%
D20*
%TO.C,U2*%
X66300000Y-69460000D03*
X66300000Y-70730000D03*
X66300000Y-72000000D03*
X66300000Y-73270000D03*
X73500000Y-73270000D03*
X73500000Y-72000000D03*
X73500000Y-70730000D03*
X73500000Y-69460000D03*
%TD*%
%TO.C,U1*%
X65800000Y-77500000D03*
X65800000Y-78770000D03*
X65800000Y-80040000D03*
X65800000Y-81310000D03*
X73000000Y-81310000D03*
X73000000Y-80040000D03*
X73000000Y-78770000D03*
X73000000Y-77500000D03*
%TD*%
D21*
%TO.C,C4*%
X93000000Y-90000000D03*
X91100000Y-90000000D03*
%TD*%
D12*
%TO.C,C1*%
X77600000Y-69500000D03*
X79500000Y-69500000D03*
%TD*%
%TO.C,C5*%
X86350000Y-69500000D03*
X88250000Y-69500000D03*
%TD*%
D22*
%TO.C,U3*%
X66775000Y-84845000D03*
X66775000Y-86115000D03*
X66775000Y-87385000D03*
X66775000Y-88655000D03*
X71725000Y-88655000D03*
X71725000Y-87385000D03*
X71725000Y-86115000D03*
X71725000Y-84845000D03*
%TD*%
D16*
%TO.C,D2*%
X91125000Y-69500000D03*
X93000000Y-69500000D03*
%TD*%
D11*
%TO.C,R3*%
X70425000Y-91000000D03*
X72250000Y-91000000D03*
%TD*%
D23*
%TO.C,Y2*%
X61250000Y-89100000D03*
X61250000Y-83900000D03*
%TD*%
D12*
%TO.C,C3*%
X81850000Y-69500000D03*
X83750000Y-69500000D03*
%TD*%
M02*
