%TF.GenerationSoftware,KiCad,Pcbnew,8.0.1*%
%TF.CreationDate,2024-05-14T10:30:11-07:00*%
%TF.ProjectId,mcu-datalogger,6d63752d-6461-4746-916c-6f676765722e,v0.1*%
%TF.SameCoordinates,Original*%
%TF.FileFunction,Legend,Top*%
%TF.FilePolarity,Positive*%
%FSLAX46Y46*%
G04 Gerber Fmt 4.6, Leading zero omitted, Abs format (unit mm)*
G04 Created by KiCad (PCBNEW 8.0.1) date 2024-05-14 10:30:11*
%MOMM*%
%LPD*%
G01*
G04 APERTURE LIST*
%ADD10C,0.100000*%
%ADD11C,0.150000*%
%ADD12C,0.120000*%
%ADD13C,0.127000*%
%ADD14C,0.200000*%
G04 APERTURE END LIST*
D10*
X62661027Y-75372419D02*
X62994360Y-76372419D01*
X62994360Y-76372419D02*
X63327693Y-75372419D01*
X64089598Y-76324800D02*
X63994360Y-76372419D01*
X63994360Y-76372419D02*
X63803884Y-76372419D01*
X63803884Y-76372419D02*
X63708646Y-76324800D01*
X63708646Y-76324800D02*
X63661027Y-76277180D01*
X63661027Y-76277180D02*
X63613408Y-76181942D01*
X63613408Y-76181942D02*
X63613408Y-75896228D01*
X63613408Y-75896228D02*
X63661027Y-75800990D01*
X63661027Y-75800990D02*
X63708646Y-75753371D01*
X63708646Y-75753371D02*
X63803884Y-75705752D01*
X63803884Y-75705752D02*
X63994360Y-75705752D01*
X63994360Y-75705752D02*
X64089598Y-75753371D01*
X64946741Y-76324800D02*
X64851503Y-76372419D01*
X64851503Y-76372419D02*
X64661027Y-76372419D01*
X64661027Y-76372419D02*
X64565789Y-76324800D01*
X64565789Y-76324800D02*
X64518170Y-76277180D01*
X64518170Y-76277180D02*
X64470551Y-76181942D01*
X64470551Y-76181942D02*
X64470551Y-75896228D01*
X64470551Y-75896228D02*
X64518170Y-75800990D01*
X64518170Y-75800990D02*
X64565789Y-75753371D01*
X64565789Y-75753371D02*
X64661027Y-75705752D01*
X64661027Y-75705752D02*
X64851503Y-75705752D01*
X64851503Y-75705752D02*
X64946741Y-75753371D01*
D11*
X57738095Y-65204819D02*
X57738095Y-64204819D01*
X57738095Y-64681009D02*
X58309523Y-64681009D01*
X58309523Y-65204819D02*
X58309523Y-64204819D01*
X59309523Y-65204819D02*
X58738095Y-65204819D01*
X59023809Y-65204819D02*
X59023809Y-64204819D01*
X59023809Y-64204819D02*
X58928571Y-64347676D01*
X58928571Y-64347676D02*
X58833333Y-64442914D01*
X58833333Y-64442914D02*
X58738095Y-64490533D01*
X96170833Y-72804819D02*
X95837500Y-72328628D01*
X95599405Y-72804819D02*
X95599405Y-71804819D01*
X95599405Y-71804819D02*
X95980357Y-71804819D01*
X95980357Y-71804819D02*
X96075595Y-71852438D01*
X96075595Y-71852438D02*
X96123214Y-71900057D01*
X96123214Y-71900057D02*
X96170833Y-71995295D01*
X96170833Y-71995295D02*
X96170833Y-72138152D01*
X96170833Y-72138152D02*
X96123214Y-72233390D01*
X96123214Y-72233390D02*
X96075595Y-72281009D01*
X96075595Y-72281009D02*
X95980357Y-72328628D01*
X95980357Y-72328628D02*
X95599405Y-72328628D01*
X97075595Y-71804819D02*
X96599405Y-71804819D01*
X96599405Y-71804819D02*
X96551786Y-72281009D01*
X96551786Y-72281009D02*
X96599405Y-72233390D01*
X96599405Y-72233390D02*
X96694643Y-72185771D01*
X96694643Y-72185771D02*
X96932738Y-72185771D01*
X96932738Y-72185771D02*
X97027976Y-72233390D01*
X97027976Y-72233390D02*
X97075595Y-72281009D01*
X97075595Y-72281009D02*
X97123214Y-72376247D01*
X97123214Y-72376247D02*
X97123214Y-72614342D01*
X97123214Y-72614342D02*
X97075595Y-72709580D01*
X97075595Y-72709580D02*
X97027976Y-72757200D01*
X97027976Y-72757200D02*
X96932738Y-72804819D01*
X96932738Y-72804819D02*
X96694643Y-72804819D01*
X96694643Y-72804819D02*
X96599405Y-72757200D01*
X96599405Y-72757200D02*
X96551786Y-72709580D01*
X92583333Y-84859580D02*
X92535714Y-84907200D01*
X92535714Y-84907200D02*
X92392857Y-84954819D01*
X92392857Y-84954819D02*
X92297619Y-84954819D01*
X92297619Y-84954819D02*
X92154762Y-84907200D01*
X92154762Y-84907200D02*
X92059524Y-84811961D01*
X92059524Y-84811961D02*
X92011905Y-84716723D01*
X92011905Y-84716723D02*
X91964286Y-84526247D01*
X91964286Y-84526247D02*
X91964286Y-84383390D01*
X91964286Y-84383390D02*
X92011905Y-84192914D01*
X92011905Y-84192914D02*
X92059524Y-84097676D01*
X92059524Y-84097676D02*
X92154762Y-84002438D01*
X92154762Y-84002438D02*
X92297619Y-83954819D01*
X92297619Y-83954819D02*
X92392857Y-83954819D01*
X92392857Y-83954819D02*
X92535714Y-84002438D01*
X92535714Y-84002438D02*
X92583333Y-84050057D01*
X92964286Y-84050057D02*
X93011905Y-84002438D01*
X93011905Y-84002438D02*
X93107143Y-83954819D01*
X93107143Y-83954819D02*
X93345238Y-83954819D01*
X93345238Y-83954819D02*
X93440476Y-84002438D01*
X93440476Y-84002438D02*
X93488095Y-84050057D01*
X93488095Y-84050057D02*
X93535714Y-84145295D01*
X93535714Y-84145295D02*
X93535714Y-84240533D01*
X93535714Y-84240533D02*
X93488095Y-84383390D01*
X93488095Y-84383390D02*
X92916667Y-84954819D01*
X92916667Y-84954819D02*
X93535714Y-84954819D01*
X104416666Y-79254819D02*
X104416666Y-79969104D01*
X104416666Y-79969104D02*
X104369047Y-80111961D01*
X104369047Y-80111961D02*
X104273809Y-80207200D01*
X104273809Y-80207200D02*
X104130952Y-80254819D01*
X104130952Y-80254819D02*
X104035714Y-80254819D01*
X105416666Y-80254819D02*
X104845238Y-80254819D01*
X105130952Y-80254819D02*
X105130952Y-79254819D01*
X105130952Y-79254819D02*
X105035714Y-79397676D01*
X105035714Y-79397676D02*
X104940476Y-79492914D01*
X104940476Y-79492914D02*
X104845238Y-79540533D01*
X60464285Y-73601009D02*
X60607142Y-73648628D01*
X60607142Y-73648628D02*
X60654761Y-73696247D01*
X60654761Y-73696247D02*
X60702380Y-73791485D01*
X60702380Y-73791485D02*
X60702380Y-73934342D01*
X60702380Y-73934342D02*
X60654761Y-74029580D01*
X60654761Y-74029580D02*
X60607142Y-74077200D01*
X60607142Y-74077200D02*
X60511904Y-74124819D01*
X60511904Y-74124819D02*
X60130952Y-74124819D01*
X60130952Y-74124819D02*
X60130952Y-73124819D01*
X60130952Y-73124819D02*
X60464285Y-73124819D01*
X60464285Y-73124819D02*
X60559523Y-73172438D01*
X60559523Y-73172438D02*
X60607142Y-73220057D01*
X60607142Y-73220057D02*
X60654761Y-73315295D01*
X60654761Y-73315295D02*
X60654761Y-73410533D01*
X60654761Y-73410533D02*
X60607142Y-73505771D01*
X60607142Y-73505771D02*
X60559523Y-73553390D01*
X60559523Y-73553390D02*
X60464285Y-73601009D01*
X60464285Y-73601009D02*
X60130952Y-73601009D01*
X60988095Y-73124819D02*
X61559523Y-73124819D01*
X61273809Y-74124819D02*
X61273809Y-73124819D01*
X62416666Y-74124819D02*
X61845238Y-74124819D01*
X62130952Y-74124819D02*
X62130952Y-73124819D01*
X62130952Y-73124819D02*
X62035714Y-73267676D01*
X62035714Y-73267676D02*
X61940476Y-73362914D01*
X61940476Y-73362914D02*
X61845238Y-73410533D01*
X90833333Y-83704819D02*
X90500000Y-83228628D01*
X90261905Y-83704819D02*
X90261905Y-82704819D01*
X90261905Y-82704819D02*
X90642857Y-82704819D01*
X90642857Y-82704819D02*
X90738095Y-82752438D01*
X90738095Y-82752438D02*
X90785714Y-82800057D01*
X90785714Y-82800057D02*
X90833333Y-82895295D01*
X90833333Y-82895295D02*
X90833333Y-83038152D01*
X90833333Y-83038152D02*
X90785714Y-83133390D01*
X90785714Y-83133390D02*
X90738095Y-83181009D01*
X90738095Y-83181009D02*
X90642857Y-83228628D01*
X90642857Y-83228628D02*
X90261905Y-83228628D01*
X91690476Y-82704819D02*
X91500000Y-82704819D01*
X91500000Y-82704819D02*
X91404762Y-82752438D01*
X91404762Y-82752438D02*
X91357143Y-82800057D01*
X91357143Y-82800057D02*
X91261905Y-82942914D01*
X91261905Y-82942914D02*
X91214286Y-83133390D01*
X91214286Y-83133390D02*
X91214286Y-83514342D01*
X91214286Y-83514342D02*
X91261905Y-83609580D01*
X91261905Y-83609580D02*
X91309524Y-83657200D01*
X91309524Y-83657200D02*
X91404762Y-83704819D01*
X91404762Y-83704819D02*
X91595238Y-83704819D01*
X91595238Y-83704819D02*
X91690476Y-83657200D01*
X91690476Y-83657200D02*
X91738095Y-83609580D01*
X91738095Y-83609580D02*
X91785714Y-83514342D01*
X91785714Y-83514342D02*
X91785714Y-83276247D01*
X91785714Y-83276247D02*
X91738095Y-83181009D01*
X91738095Y-83181009D02*
X91690476Y-83133390D01*
X91690476Y-83133390D02*
X91595238Y-83085771D01*
X91595238Y-83085771D02*
X91404762Y-83085771D01*
X91404762Y-83085771D02*
X91309524Y-83133390D01*
X91309524Y-83133390D02*
X91261905Y-83181009D01*
X91261905Y-83181009D02*
X91214286Y-83276247D01*
X62214819Y-94333333D02*
X62929104Y-94333333D01*
X62929104Y-94333333D02*
X63071961Y-94380952D01*
X63071961Y-94380952D02*
X63167200Y-94476190D01*
X63167200Y-94476190D02*
X63214819Y-94619047D01*
X63214819Y-94619047D02*
X63214819Y-94714285D01*
X62214819Y-93952380D02*
X62214819Y-93333333D01*
X62214819Y-93333333D02*
X62595771Y-93666666D01*
X62595771Y-93666666D02*
X62595771Y-93523809D01*
X62595771Y-93523809D02*
X62643390Y-93428571D01*
X62643390Y-93428571D02*
X62691009Y-93380952D01*
X62691009Y-93380952D02*
X62786247Y-93333333D01*
X62786247Y-93333333D02*
X63024342Y-93333333D01*
X63024342Y-93333333D02*
X63119580Y-93380952D01*
X63119580Y-93380952D02*
X63167200Y-93428571D01*
X63167200Y-93428571D02*
X63214819Y-93523809D01*
X63214819Y-93523809D02*
X63214819Y-93809523D01*
X63214819Y-93809523D02*
X63167200Y-93904761D01*
X63167200Y-93904761D02*
X63119580Y-93952380D01*
X91920833Y-76104819D02*
X91587500Y-75628628D01*
X91349405Y-76104819D02*
X91349405Y-75104819D01*
X91349405Y-75104819D02*
X91730357Y-75104819D01*
X91730357Y-75104819D02*
X91825595Y-75152438D01*
X91825595Y-75152438D02*
X91873214Y-75200057D01*
X91873214Y-75200057D02*
X91920833Y-75295295D01*
X91920833Y-75295295D02*
X91920833Y-75438152D01*
X91920833Y-75438152D02*
X91873214Y-75533390D01*
X91873214Y-75533390D02*
X91825595Y-75581009D01*
X91825595Y-75581009D02*
X91730357Y-75628628D01*
X91730357Y-75628628D02*
X91349405Y-75628628D01*
X92777976Y-75438152D02*
X92777976Y-76104819D01*
X92539881Y-75057200D02*
X92301786Y-75771485D01*
X92301786Y-75771485D02*
X92920833Y-75771485D01*
X95824405Y-68304819D02*
X95824405Y-67304819D01*
X95824405Y-67304819D02*
X96062500Y-67304819D01*
X96062500Y-67304819D02*
X96205357Y-67352438D01*
X96205357Y-67352438D02*
X96300595Y-67447676D01*
X96300595Y-67447676D02*
X96348214Y-67542914D01*
X96348214Y-67542914D02*
X96395833Y-67733390D01*
X96395833Y-67733390D02*
X96395833Y-67876247D01*
X96395833Y-67876247D02*
X96348214Y-68066723D01*
X96348214Y-68066723D02*
X96300595Y-68161961D01*
X96300595Y-68161961D02*
X96205357Y-68257200D01*
X96205357Y-68257200D02*
X96062500Y-68304819D01*
X96062500Y-68304819D02*
X95824405Y-68304819D01*
X97348214Y-68304819D02*
X96776786Y-68304819D01*
X97062500Y-68304819D02*
X97062500Y-67304819D01*
X97062500Y-67304819D02*
X96967262Y-67447676D01*
X96967262Y-67447676D02*
X96872024Y-67542914D01*
X96872024Y-67542914D02*
X96776786Y-67590533D01*
X96170833Y-76804819D02*
X95837500Y-76328628D01*
X95599405Y-76804819D02*
X95599405Y-75804819D01*
X95599405Y-75804819D02*
X95980357Y-75804819D01*
X95980357Y-75804819D02*
X96075595Y-75852438D01*
X96075595Y-75852438D02*
X96123214Y-75900057D01*
X96123214Y-75900057D02*
X96170833Y-75995295D01*
X96170833Y-75995295D02*
X96170833Y-76138152D01*
X96170833Y-76138152D02*
X96123214Y-76233390D01*
X96123214Y-76233390D02*
X96075595Y-76281009D01*
X96075595Y-76281009D02*
X95980357Y-76328628D01*
X95980357Y-76328628D02*
X95599405Y-76328628D01*
X96504167Y-75804819D02*
X97170833Y-75804819D01*
X97170833Y-75804819D02*
X96742262Y-76804819D01*
X91670833Y-80104819D02*
X91337500Y-79628628D01*
X91099405Y-80104819D02*
X91099405Y-79104819D01*
X91099405Y-79104819D02*
X91480357Y-79104819D01*
X91480357Y-79104819D02*
X91575595Y-79152438D01*
X91575595Y-79152438D02*
X91623214Y-79200057D01*
X91623214Y-79200057D02*
X91670833Y-79295295D01*
X91670833Y-79295295D02*
X91670833Y-79438152D01*
X91670833Y-79438152D02*
X91623214Y-79533390D01*
X91623214Y-79533390D02*
X91575595Y-79581009D01*
X91575595Y-79581009D02*
X91480357Y-79628628D01*
X91480357Y-79628628D02*
X91099405Y-79628628D01*
X92623214Y-80104819D02*
X92051786Y-80104819D01*
X92337500Y-80104819D02*
X92337500Y-79104819D01*
X92337500Y-79104819D02*
X92242262Y-79247676D01*
X92242262Y-79247676D02*
X92147024Y-79342914D01*
X92147024Y-79342914D02*
X92051786Y-79390533D01*
X87874819Y-94333333D02*
X88589104Y-94333333D01*
X88589104Y-94333333D02*
X88731961Y-94380952D01*
X88731961Y-94380952D02*
X88827200Y-94476190D01*
X88827200Y-94476190D02*
X88874819Y-94619047D01*
X88874819Y-94619047D02*
X88874819Y-94714285D01*
X87970057Y-93904761D02*
X87922438Y-93857142D01*
X87922438Y-93857142D02*
X87874819Y-93761904D01*
X87874819Y-93761904D02*
X87874819Y-93523809D01*
X87874819Y-93523809D02*
X87922438Y-93428571D01*
X87922438Y-93428571D02*
X87970057Y-93380952D01*
X87970057Y-93380952D02*
X88065295Y-93333333D01*
X88065295Y-93333333D02*
X88160533Y-93333333D01*
X88160533Y-93333333D02*
X88303390Y-93380952D01*
X88303390Y-93380952D02*
X88874819Y-93952380D01*
X88874819Y-93952380D02*
X88874819Y-93333333D01*
X58238095Y-95204819D02*
X58238095Y-94204819D01*
X58238095Y-94681009D02*
X58809523Y-94681009D01*
X58809523Y-95204819D02*
X58809523Y-94204819D01*
X59714285Y-94538152D02*
X59714285Y-95204819D01*
X59476190Y-94157200D02*
X59238095Y-94871485D01*
X59238095Y-94871485D02*
X59857142Y-94871485D01*
X103146666Y-69374819D02*
X103146666Y-70089104D01*
X103146666Y-70089104D02*
X103099047Y-70231961D01*
X103099047Y-70231961D02*
X103003809Y-70327200D01*
X103003809Y-70327200D02*
X102860952Y-70374819D01*
X102860952Y-70374819D02*
X102765714Y-70374819D01*
X104051428Y-69708152D02*
X104051428Y-70374819D01*
X103813333Y-69327200D02*
X103575238Y-70041485D01*
X103575238Y-70041485D02*
X104194285Y-70041485D01*
X78693095Y-71914819D02*
X78693095Y-72724342D01*
X78693095Y-72724342D02*
X78740714Y-72819580D01*
X78740714Y-72819580D02*
X78788333Y-72867200D01*
X78788333Y-72867200D02*
X78883571Y-72914819D01*
X78883571Y-72914819D02*
X79074047Y-72914819D01*
X79074047Y-72914819D02*
X79169285Y-72867200D01*
X79169285Y-72867200D02*
X79216904Y-72819580D01*
X79216904Y-72819580D02*
X79264523Y-72724342D01*
X79264523Y-72724342D02*
X79264523Y-71914819D01*
X80169285Y-72248152D02*
X80169285Y-72914819D01*
X79931190Y-71867200D02*
X79693095Y-72581485D01*
X79693095Y-72581485D02*
X80312142Y-72581485D01*
X105238095Y-95204819D02*
X105238095Y-94204819D01*
X105238095Y-94681009D02*
X105809523Y-94681009D01*
X105809523Y-95204819D02*
X105809523Y-94204819D01*
X106190476Y-94204819D02*
X106809523Y-94204819D01*
X106809523Y-94204819D02*
X106476190Y-94585771D01*
X106476190Y-94585771D02*
X106619047Y-94585771D01*
X106619047Y-94585771D02*
X106714285Y-94633390D01*
X106714285Y-94633390D02*
X106761904Y-94681009D01*
X106761904Y-94681009D02*
X106809523Y-94776247D01*
X106809523Y-94776247D02*
X106809523Y-95014342D01*
X106809523Y-95014342D02*
X106761904Y-95109580D01*
X106761904Y-95109580D02*
X106714285Y-95157200D01*
X106714285Y-95157200D02*
X106619047Y-95204819D01*
X106619047Y-95204819D02*
X106333333Y-95204819D01*
X106333333Y-95204819D02*
X106238095Y-95157200D01*
X106238095Y-95157200D02*
X106190476Y-95109580D01*
X104238095Y-67954819D02*
X104238095Y-66954819D01*
X104238095Y-67431009D02*
X104809523Y-67431009D01*
X104809523Y-67954819D02*
X104809523Y-66954819D01*
X105238095Y-67050057D02*
X105285714Y-67002438D01*
X105285714Y-67002438D02*
X105380952Y-66954819D01*
X105380952Y-66954819D02*
X105619047Y-66954819D01*
X105619047Y-66954819D02*
X105714285Y-67002438D01*
X105714285Y-67002438D02*
X105761904Y-67050057D01*
X105761904Y-67050057D02*
X105809523Y-67145295D01*
X105809523Y-67145295D02*
X105809523Y-67240533D01*
X105809523Y-67240533D02*
X105761904Y-67383390D01*
X105761904Y-67383390D02*
X105190476Y-67954819D01*
X105190476Y-67954819D02*
X105809523Y-67954819D01*
X81123809Y-85428628D02*
X81123809Y-85904819D01*
X80790476Y-84904819D02*
X81123809Y-85428628D01*
X81123809Y-85428628D02*
X81457142Y-84904819D01*
X82314285Y-85904819D02*
X81742857Y-85904819D01*
X82028571Y-85904819D02*
X82028571Y-84904819D01*
X82028571Y-84904819D02*
X81933333Y-85047676D01*
X81933333Y-85047676D02*
X81838095Y-85142914D01*
X81838095Y-85142914D02*
X81742857Y-85190533D01*
X65833333Y-90454819D02*
X65500000Y-89978628D01*
X65261905Y-90454819D02*
X65261905Y-89454819D01*
X65261905Y-89454819D02*
X65642857Y-89454819D01*
X65642857Y-89454819D02*
X65738095Y-89502438D01*
X65738095Y-89502438D02*
X65785714Y-89550057D01*
X65785714Y-89550057D02*
X65833333Y-89645295D01*
X65833333Y-89645295D02*
X65833333Y-89788152D01*
X65833333Y-89788152D02*
X65785714Y-89883390D01*
X65785714Y-89883390D02*
X65738095Y-89931009D01*
X65738095Y-89931009D02*
X65642857Y-89978628D01*
X65642857Y-89978628D02*
X65261905Y-89978628D01*
X66214286Y-89550057D02*
X66261905Y-89502438D01*
X66261905Y-89502438D02*
X66357143Y-89454819D01*
X66357143Y-89454819D02*
X66595238Y-89454819D01*
X66595238Y-89454819D02*
X66690476Y-89502438D01*
X66690476Y-89502438D02*
X66738095Y-89550057D01*
X66738095Y-89550057D02*
X66785714Y-89645295D01*
X66785714Y-89645295D02*
X66785714Y-89740533D01*
X66785714Y-89740533D02*
X66738095Y-89883390D01*
X66738095Y-89883390D02*
X66166667Y-90454819D01*
X66166667Y-90454819D02*
X66785714Y-90454819D01*
X69138095Y-67259819D02*
X69138095Y-68069342D01*
X69138095Y-68069342D02*
X69185714Y-68164580D01*
X69185714Y-68164580D02*
X69233333Y-68212200D01*
X69233333Y-68212200D02*
X69328571Y-68259819D01*
X69328571Y-68259819D02*
X69519047Y-68259819D01*
X69519047Y-68259819D02*
X69614285Y-68212200D01*
X69614285Y-68212200D02*
X69661904Y-68164580D01*
X69661904Y-68164580D02*
X69709523Y-68069342D01*
X69709523Y-68069342D02*
X69709523Y-67259819D01*
X70138095Y-67355057D02*
X70185714Y-67307438D01*
X70185714Y-67307438D02*
X70280952Y-67259819D01*
X70280952Y-67259819D02*
X70519047Y-67259819D01*
X70519047Y-67259819D02*
X70614285Y-67307438D01*
X70614285Y-67307438D02*
X70661904Y-67355057D01*
X70661904Y-67355057D02*
X70709523Y-67450295D01*
X70709523Y-67450295D02*
X70709523Y-67545533D01*
X70709523Y-67545533D02*
X70661904Y-67688390D01*
X70661904Y-67688390D02*
X70090476Y-68259819D01*
X70090476Y-68259819D02*
X70709523Y-68259819D01*
X68638095Y-75299819D02*
X68638095Y-76109342D01*
X68638095Y-76109342D02*
X68685714Y-76204580D01*
X68685714Y-76204580D02*
X68733333Y-76252200D01*
X68733333Y-76252200D02*
X68828571Y-76299819D01*
X68828571Y-76299819D02*
X69019047Y-76299819D01*
X69019047Y-76299819D02*
X69114285Y-76252200D01*
X69114285Y-76252200D02*
X69161904Y-76204580D01*
X69161904Y-76204580D02*
X69209523Y-76109342D01*
X69209523Y-76109342D02*
X69209523Y-75299819D01*
X70209523Y-76299819D02*
X69638095Y-76299819D01*
X69923809Y-76299819D02*
X69923809Y-75299819D01*
X69923809Y-75299819D02*
X69828571Y-75442676D01*
X69828571Y-75442676D02*
X69733333Y-75537914D01*
X69733333Y-75537914D02*
X69638095Y-75585533D01*
X91883333Y-92039580D02*
X91835714Y-92087200D01*
X91835714Y-92087200D02*
X91692857Y-92134819D01*
X91692857Y-92134819D02*
X91597619Y-92134819D01*
X91597619Y-92134819D02*
X91454762Y-92087200D01*
X91454762Y-92087200D02*
X91359524Y-91991961D01*
X91359524Y-91991961D02*
X91311905Y-91896723D01*
X91311905Y-91896723D02*
X91264286Y-91706247D01*
X91264286Y-91706247D02*
X91264286Y-91563390D01*
X91264286Y-91563390D02*
X91311905Y-91372914D01*
X91311905Y-91372914D02*
X91359524Y-91277676D01*
X91359524Y-91277676D02*
X91454762Y-91182438D01*
X91454762Y-91182438D02*
X91597619Y-91134819D01*
X91597619Y-91134819D02*
X91692857Y-91134819D01*
X91692857Y-91134819D02*
X91835714Y-91182438D01*
X91835714Y-91182438D02*
X91883333Y-91230057D01*
X92740476Y-91468152D02*
X92740476Y-92134819D01*
X92502381Y-91087200D02*
X92264286Y-91801485D01*
X92264286Y-91801485D02*
X92883333Y-91801485D01*
X78383333Y-68179580D02*
X78335714Y-68227200D01*
X78335714Y-68227200D02*
X78192857Y-68274819D01*
X78192857Y-68274819D02*
X78097619Y-68274819D01*
X78097619Y-68274819D02*
X77954762Y-68227200D01*
X77954762Y-68227200D02*
X77859524Y-68131961D01*
X77859524Y-68131961D02*
X77811905Y-68036723D01*
X77811905Y-68036723D02*
X77764286Y-67846247D01*
X77764286Y-67846247D02*
X77764286Y-67703390D01*
X77764286Y-67703390D02*
X77811905Y-67512914D01*
X77811905Y-67512914D02*
X77859524Y-67417676D01*
X77859524Y-67417676D02*
X77954762Y-67322438D01*
X77954762Y-67322438D02*
X78097619Y-67274819D01*
X78097619Y-67274819D02*
X78192857Y-67274819D01*
X78192857Y-67274819D02*
X78335714Y-67322438D01*
X78335714Y-67322438D02*
X78383333Y-67370057D01*
X79335714Y-68274819D02*
X78764286Y-68274819D01*
X79050000Y-68274819D02*
X79050000Y-67274819D01*
X79050000Y-67274819D02*
X78954762Y-67417676D01*
X78954762Y-67417676D02*
X78859524Y-67512914D01*
X78859524Y-67512914D02*
X78764286Y-67560533D01*
X87133333Y-68179580D02*
X87085714Y-68227200D01*
X87085714Y-68227200D02*
X86942857Y-68274819D01*
X86942857Y-68274819D02*
X86847619Y-68274819D01*
X86847619Y-68274819D02*
X86704762Y-68227200D01*
X86704762Y-68227200D02*
X86609524Y-68131961D01*
X86609524Y-68131961D02*
X86561905Y-68036723D01*
X86561905Y-68036723D02*
X86514286Y-67846247D01*
X86514286Y-67846247D02*
X86514286Y-67703390D01*
X86514286Y-67703390D02*
X86561905Y-67512914D01*
X86561905Y-67512914D02*
X86609524Y-67417676D01*
X86609524Y-67417676D02*
X86704762Y-67322438D01*
X86704762Y-67322438D02*
X86847619Y-67274819D01*
X86847619Y-67274819D02*
X86942857Y-67274819D01*
X86942857Y-67274819D02*
X87085714Y-67322438D01*
X87085714Y-67322438D02*
X87133333Y-67370057D01*
X88038095Y-67274819D02*
X87561905Y-67274819D01*
X87561905Y-67274819D02*
X87514286Y-67751009D01*
X87514286Y-67751009D02*
X87561905Y-67703390D01*
X87561905Y-67703390D02*
X87657143Y-67655771D01*
X87657143Y-67655771D02*
X87895238Y-67655771D01*
X87895238Y-67655771D02*
X87990476Y-67703390D01*
X87990476Y-67703390D02*
X88038095Y-67751009D01*
X88038095Y-67751009D02*
X88085714Y-67846247D01*
X88085714Y-67846247D02*
X88085714Y-68084342D01*
X88085714Y-68084342D02*
X88038095Y-68179580D01*
X88038095Y-68179580D02*
X87990476Y-68227200D01*
X87990476Y-68227200D02*
X87895238Y-68274819D01*
X87895238Y-68274819D02*
X87657143Y-68274819D01*
X87657143Y-68274819D02*
X87561905Y-68227200D01*
X87561905Y-68227200D02*
X87514286Y-68179580D01*
X67693095Y-82872819D02*
X67693095Y-83682342D01*
X67693095Y-83682342D02*
X67740714Y-83777580D01*
X67740714Y-83777580D02*
X67788333Y-83825200D01*
X67788333Y-83825200D02*
X67883571Y-83872819D01*
X67883571Y-83872819D02*
X68074047Y-83872819D01*
X68074047Y-83872819D02*
X68169285Y-83825200D01*
X68169285Y-83825200D02*
X68216904Y-83777580D01*
X68216904Y-83777580D02*
X68264523Y-83682342D01*
X68264523Y-83682342D02*
X68264523Y-82872819D01*
X68645476Y-82872819D02*
X69264523Y-82872819D01*
X69264523Y-82872819D02*
X68931190Y-83253771D01*
X68931190Y-83253771D02*
X69074047Y-83253771D01*
X69074047Y-83253771D02*
X69169285Y-83301390D01*
X69169285Y-83301390D02*
X69216904Y-83349009D01*
X69216904Y-83349009D02*
X69264523Y-83444247D01*
X69264523Y-83444247D02*
X69264523Y-83682342D01*
X69264523Y-83682342D02*
X69216904Y-83777580D01*
X69216904Y-83777580D02*
X69169285Y-83825200D01*
X69169285Y-83825200D02*
X69074047Y-83872819D01*
X69074047Y-83872819D02*
X68788333Y-83872819D01*
X68788333Y-83872819D02*
X68693095Y-83825200D01*
X68693095Y-83825200D02*
X68645476Y-83777580D01*
X91324405Y-68304819D02*
X91324405Y-67304819D01*
X91324405Y-67304819D02*
X91562500Y-67304819D01*
X91562500Y-67304819D02*
X91705357Y-67352438D01*
X91705357Y-67352438D02*
X91800595Y-67447676D01*
X91800595Y-67447676D02*
X91848214Y-67542914D01*
X91848214Y-67542914D02*
X91895833Y-67733390D01*
X91895833Y-67733390D02*
X91895833Y-67876247D01*
X91895833Y-67876247D02*
X91848214Y-68066723D01*
X91848214Y-68066723D02*
X91800595Y-68161961D01*
X91800595Y-68161961D02*
X91705357Y-68257200D01*
X91705357Y-68257200D02*
X91562500Y-68304819D01*
X91562500Y-68304819D02*
X91324405Y-68304819D01*
X92276786Y-67400057D02*
X92324405Y-67352438D01*
X92324405Y-67352438D02*
X92419643Y-67304819D01*
X92419643Y-67304819D02*
X92657738Y-67304819D01*
X92657738Y-67304819D02*
X92752976Y-67352438D01*
X92752976Y-67352438D02*
X92800595Y-67400057D01*
X92800595Y-67400057D02*
X92848214Y-67495295D01*
X92848214Y-67495295D02*
X92848214Y-67590533D01*
X92848214Y-67590533D02*
X92800595Y-67733390D01*
X92800595Y-67733390D02*
X92229167Y-68304819D01*
X92229167Y-68304819D02*
X92848214Y-68304819D01*
X72333333Y-90204819D02*
X72000000Y-89728628D01*
X71761905Y-90204819D02*
X71761905Y-89204819D01*
X71761905Y-89204819D02*
X72142857Y-89204819D01*
X72142857Y-89204819D02*
X72238095Y-89252438D01*
X72238095Y-89252438D02*
X72285714Y-89300057D01*
X72285714Y-89300057D02*
X72333333Y-89395295D01*
X72333333Y-89395295D02*
X72333333Y-89538152D01*
X72333333Y-89538152D02*
X72285714Y-89633390D01*
X72285714Y-89633390D02*
X72238095Y-89681009D01*
X72238095Y-89681009D02*
X72142857Y-89728628D01*
X72142857Y-89728628D02*
X71761905Y-89728628D01*
X72666667Y-89204819D02*
X73285714Y-89204819D01*
X73285714Y-89204819D02*
X72952381Y-89585771D01*
X72952381Y-89585771D02*
X73095238Y-89585771D01*
X73095238Y-89585771D02*
X73190476Y-89633390D01*
X73190476Y-89633390D02*
X73238095Y-89681009D01*
X73238095Y-89681009D02*
X73285714Y-89776247D01*
X73285714Y-89776247D02*
X73285714Y-90014342D01*
X73285714Y-90014342D02*
X73238095Y-90109580D01*
X73238095Y-90109580D02*
X73190476Y-90157200D01*
X73190476Y-90157200D02*
X73095238Y-90204819D01*
X73095238Y-90204819D02*
X72809524Y-90204819D01*
X72809524Y-90204819D02*
X72714286Y-90157200D01*
X72714286Y-90157200D02*
X72666667Y-90109580D01*
X58428628Y-86976190D02*
X58904819Y-86976190D01*
X57904819Y-87309523D02*
X58428628Y-86976190D01*
X58428628Y-86976190D02*
X57904819Y-86642857D01*
X58000057Y-86357142D02*
X57952438Y-86309523D01*
X57952438Y-86309523D02*
X57904819Y-86214285D01*
X57904819Y-86214285D02*
X57904819Y-85976190D01*
X57904819Y-85976190D02*
X57952438Y-85880952D01*
X57952438Y-85880952D02*
X58000057Y-85833333D01*
X58000057Y-85833333D02*
X58095295Y-85785714D01*
X58095295Y-85785714D02*
X58190533Y-85785714D01*
X58190533Y-85785714D02*
X58333390Y-85833333D01*
X58333390Y-85833333D02*
X58904819Y-86404761D01*
X58904819Y-86404761D02*
X58904819Y-85785714D01*
X82633333Y-68179580D02*
X82585714Y-68227200D01*
X82585714Y-68227200D02*
X82442857Y-68274819D01*
X82442857Y-68274819D02*
X82347619Y-68274819D01*
X82347619Y-68274819D02*
X82204762Y-68227200D01*
X82204762Y-68227200D02*
X82109524Y-68131961D01*
X82109524Y-68131961D02*
X82061905Y-68036723D01*
X82061905Y-68036723D02*
X82014286Y-67846247D01*
X82014286Y-67846247D02*
X82014286Y-67703390D01*
X82014286Y-67703390D02*
X82061905Y-67512914D01*
X82061905Y-67512914D02*
X82109524Y-67417676D01*
X82109524Y-67417676D02*
X82204762Y-67322438D01*
X82204762Y-67322438D02*
X82347619Y-67274819D01*
X82347619Y-67274819D02*
X82442857Y-67274819D01*
X82442857Y-67274819D02*
X82585714Y-67322438D01*
X82585714Y-67322438D02*
X82633333Y-67370057D01*
X82966667Y-67274819D02*
X83585714Y-67274819D01*
X83585714Y-67274819D02*
X83252381Y-67655771D01*
X83252381Y-67655771D02*
X83395238Y-67655771D01*
X83395238Y-67655771D02*
X83490476Y-67703390D01*
X83490476Y-67703390D02*
X83538095Y-67751009D01*
X83538095Y-67751009D02*
X83585714Y-67846247D01*
X83585714Y-67846247D02*
X83585714Y-68084342D01*
X83585714Y-68084342D02*
X83538095Y-68179580D01*
X83538095Y-68179580D02*
X83490476Y-68227200D01*
X83490476Y-68227200D02*
X83395238Y-68274819D01*
X83395238Y-68274819D02*
X83109524Y-68274819D01*
X83109524Y-68274819D02*
X83014286Y-68227200D01*
X83014286Y-68227200D02*
X82966667Y-68179580D01*
D12*
%TO.C,R5*%
X96110436Y-73265000D02*
X96564564Y-73265000D01*
X96110436Y-74735000D02*
X96564564Y-74735000D01*
%TO.C,C2*%
X91788748Y-85265000D02*
X92311252Y-85265000D01*
X91788748Y-86735000D02*
X92311252Y-86735000D01*
%TO.C,J1*%
X103420000Y-80800000D02*
X104750000Y-80800000D01*
X103420000Y-82130000D02*
X103420000Y-80800000D01*
X103420000Y-83400000D02*
X103420000Y-91080000D01*
X103420000Y-83400000D02*
X106080000Y-83400000D01*
X103420000Y-91080000D02*
X106080000Y-91080000D01*
X106080000Y-83400000D02*
X106080000Y-91080000D01*
%TO.C,BT1*%
X59920000Y-74670000D02*
X61250000Y-74670000D01*
X59920000Y-76000000D02*
X59920000Y-74670000D01*
X59920000Y-77270000D02*
X59920000Y-79870000D01*
X59920000Y-77270000D02*
X62580000Y-77270000D01*
X59920000Y-79870000D02*
X62580000Y-79870000D01*
X62580000Y-77270000D02*
X62580000Y-79870000D01*
%TO.C,R6*%
X92139564Y-81015000D02*
X91685436Y-81015000D01*
X92139564Y-82485000D02*
X91685436Y-82485000D01*
%TO.C,J3*%
X63760000Y-95330000D02*
X63760000Y-94000000D01*
X65090000Y-95330000D02*
X63760000Y-95330000D01*
X66360000Y-92670000D02*
X86740000Y-92670000D01*
X66360000Y-95330000D02*
X66360000Y-92670000D01*
X66360000Y-95330000D02*
X86740000Y-95330000D01*
X86740000Y-95330000D02*
X86740000Y-92670000D01*
%TO.C,R4*%
X92314564Y-73265000D02*
X91860436Y-73265000D01*
X92314564Y-74735000D02*
X91860436Y-74735000D01*
%TO.C,D1*%
X94877500Y-68540000D02*
X94877500Y-70460000D01*
X94877500Y-70460000D02*
X97562500Y-70460000D01*
X97562500Y-68540000D02*
X94877500Y-68540000D01*
%TO.C,R7*%
X96110436Y-77265000D02*
X96564564Y-77265000D01*
X96110436Y-78735000D02*
X96564564Y-78735000D01*
%TO.C,R1*%
X92064564Y-77265000D02*
X91610436Y-77265000D01*
X92064564Y-78735000D02*
X91610436Y-78735000D01*
%TO.C,J2*%
X89420000Y-95330000D02*
X89420000Y-94000000D01*
X90750000Y-95330000D02*
X89420000Y-95330000D01*
X92020000Y-92670000D02*
X99700000Y-92670000D01*
X92020000Y-95330000D02*
X92020000Y-92670000D01*
X92020000Y-95330000D02*
X99700000Y-95330000D01*
X99700000Y-95330000D02*
X99700000Y-92670000D01*
%TO.C,J4*%
X100880000Y-70920000D02*
X102210000Y-70920000D01*
X100880000Y-72250000D02*
X100880000Y-70920000D01*
X100880000Y-73520000D02*
X100880000Y-78660000D01*
X100880000Y-73520000D02*
X103480000Y-73520000D01*
X100880000Y-78660000D02*
X106080000Y-78660000D01*
X103480000Y-70920000D02*
X106080000Y-70920000D01*
X103480000Y-73520000D02*
X103480000Y-70920000D01*
X106080000Y-70920000D02*
X106080000Y-78660000D01*
D13*
%TO.C,U4*%
X78750000Y-75750000D02*
X78750000Y-75855000D01*
X78750000Y-75750000D02*
X78855000Y-75750000D01*
X78750000Y-82750000D02*
X78750000Y-82645000D01*
X78750000Y-82750000D02*
X78855000Y-82750000D01*
X85750000Y-75750000D02*
X85645000Y-75750000D01*
X85750000Y-75750000D02*
X85750000Y-75855000D01*
X85750000Y-82750000D02*
X85645000Y-82750000D01*
X85750000Y-82750000D02*
X85750000Y-82645000D01*
D14*
X76510000Y-76450000D02*
G75*
G02*
X76310000Y-76450000I-100000J0D01*
G01*
X76310000Y-76450000D02*
G75*
G02*
X76510000Y-76450000I100000J0D01*
G01*
D12*
%TO.C,Y1*%
X77050000Y-86450000D02*
X77050000Y-90050000D01*
X77050000Y-90050000D02*
X84300000Y-90050000D01*
X84300000Y-86450000D02*
X77050000Y-86450000D01*
%TO.C,R2*%
X67110436Y-90515000D02*
X67564564Y-90515000D01*
X67110436Y-91985000D02*
X67564564Y-91985000D01*
%TO.C,U2*%
X67175000Y-68640000D02*
X67175000Y-68900000D01*
X67175000Y-74090000D02*
X67175000Y-73830000D01*
X69900000Y-68640000D02*
X67175000Y-68640000D01*
X69900000Y-68640000D02*
X72625000Y-68640000D01*
X69900000Y-74090000D02*
X67175000Y-74090000D01*
X69900000Y-74090000D02*
X72625000Y-74090000D01*
X72625000Y-68640000D02*
X72625000Y-68900000D01*
X72625000Y-74090000D02*
X72625000Y-73830000D01*
X66392500Y-68900000D02*
X66152500Y-68570000D01*
X66632500Y-68570000D01*
X66392500Y-68900000D01*
G36*
X66392500Y-68900000D02*
G01*
X66152500Y-68570000D01*
X66632500Y-68570000D01*
X66392500Y-68900000D01*
G37*
%TO.C,U1*%
X66675000Y-76680000D02*
X66675000Y-76940000D01*
X66675000Y-82130000D02*
X66675000Y-81870000D01*
X69400000Y-76680000D02*
X66675000Y-76680000D01*
X69400000Y-76680000D02*
X72125000Y-76680000D01*
X69400000Y-82130000D02*
X66675000Y-82130000D01*
X69400000Y-82130000D02*
X72125000Y-82130000D01*
X72125000Y-76680000D02*
X72125000Y-76940000D01*
X72125000Y-82130000D02*
X72125000Y-81870000D01*
X65892500Y-76940000D02*
X65652500Y-76610000D01*
X66132500Y-76610000D01*
X65892500Y-76940000D01*
G36*
X65892500Y-76940000D02*
G01*
X65652500Y-76610000D01*
X66132500Y-76610000D01*
X65892500Y-76940000D01*
G37*
%TO.C,C4*%
X92311252Y-89265000D02*
X91788748Y-89265000D01*
X92311252Y-90735000D02*
X91788748Y-90735000D01*
%TO.C,C1*%
X78288748Y-68765000D02*
X78811252Y-68765000D01*
X78288748Y-70235000D02*
X78811252Y-70235000D01*
%TO.C,C5*%
X87038748Y-68765000D02*
X87561252Y-68765000D01*
X87038748Y-70235000D02*
X87561252Y-70235000D01*
D13*
%TO.C,U3*%
X67250000Y-84230000D02*
X71250000Y-84230000D01*
X67250000Y-89270000D02*
X71250000Y-89270000D01*
D14*
X64905000Y-84255000D02*
G75*
G02*
X64705000Y-84255000I-100000J0D01*
G01*
X64705000Y-84255000D02*
G75*
G02*
X64905000Y-84255000I100000J0D01*
G01*
D12*
%TO.C,D2*%
X90377500Y-68540000D02*
X90377500Y-70460000D01*
X90377500Y-70460000D02*
X93062500Y-70460000D01*
X93062500Y-68540000D02*
X90377500Y-68540000D01*
%TO.C,R3*%
X71110436Y-90265000D02*
X71564564Y-90265000D01*
X71110436Y-91735000D02*
X71564564Y-91735000D01*
%TO.C,Y2*%
X59450000Y-83800000D02*
X59450000Y-91050000D01*
X59450000Y-91050000D02*
X63050000Y-91050000D01*
X63050000Y-91050000D02*
X63050000Y-83800000D01*
%TO.C,C3*%
X82538748Y-68765000D02*
X83061252Y-68765000D01*
X82538748Y-70235000D02*
X83061252Y-70235000D01*
%TD*%
M02*
